<svg class="system__items__phone__img1" width="196" height="184" viewBox="0 0 196 184" fill="none" xmlns="http://www.w3.org/2000/svg">
<path d="M2.85167e-07 55.9301L13.1569 48.1119C15.549 32.4755 20.9314 19.2448 29.3039 10.2238C32.8922 6.01398 36.4804 2.40559 41.2647 0L28.1078 7.81818C23.9216 10.2238 19.7353 13.8322 16.1471 17.4406C7.77451 27.0629 2.39216 39.6923 2.85167e-07 55.9301Z" transform="translate(49.5811 26.4789) rotate(40.2096)" fill="#2CCE93"/>
<path d="M123.196 37.8881L110.039 45.7063C100.471 36.6853 90.3039 29.4685 80.1373 23.4545C68.1765 16.8392 56.8137 12.028 45.451 9.62238C40.0686 8.41958 35.2843 7.81818 30.5 7.81818C19.1373 7.81818 8.97059 10.2238 1.14067e-06 15.6364L13.1569 7.81818C22.1275 2.40559 32.2941 0 43.6569 0C48.4412 0 53.8235 0.601399 58.6078 1.8042C69.9706 4.20979 81.3333 9.02098 93.2941 15.6364C103.461 21.6503 113.627 28.8671 123.196 37.8881Z" transform="translate(79.2694 20.0763) rotate(40.2096)" fill="#2CCE93"/>
<path d="M23.3235 58.9371L36.4804 51.1189L13.1569 0L2.28134e-06 7.81818L23.3235 58.9371Z" transform="translate(149.944 115.259) rotate(40.2096)" fill="#2CCE93"/>
<path d="M146.52 27.0629L141.137 37.8881C131.569 28.8671 121.402 21.6503 111.235 15.6364C93.8921 5.41259 77.147 -2.86769e-07 61.598 -2.86769e-07C43.6569 -2.86769e-07 28.7059 6.01399 17.9412 18.6434C8.37255 29.4685 2.39216 43.9021 8.91146e-09 61.9441L13.1569 71.5664C15.549 55.9301 20.9314 42.6993 29.3039 33.6783C38.8725 22.8531 52.6274 16.8392 68.1765 16.8392C81.9314 16.8392 96.8823 21.6503 111.833 30.6713C120.206 35.4825 128.578 41.4965 136.353 48.7133L130.971 59.5385L170.441 78.1818L146.52 27.0629Z" transform="translate(50.473 5.97067) rotate(40.2096)" fill="#2DE1A4"/>
</svg>
