<svg viewBox="0 0 249 364" fill="none" xmlns="http://www.w3.org/2000/svg" xmlns:xlink="http://www.w3.org/1999/xlink">
<g filter="url(#filter0_d11)" class="animate-lines-solid">
<path d="M175.802 225.133L125.939 255.035L54.9737 210.177L110.373 177.342C110.373 177.342 49.832 138.789 17.084 117.714L100.698 67.2171L0 0" transform="translate(32 100.5) rotate(-0.689766)" stroke="#3EA8FE" stroke-width="2" stroke-linejoin="round"/>
</g>
<g filter="url(#filter1_d111)" class="animate-lines-dashed">
<path d="M25 0L76 27.5L0 74.5" transform="translate(35 23.5)" stroke="#A0FFFF" stroke-width="2" stroke-linecap="round" stroke-linejoin="round" stroke-dasharray="9 9"/>
</g>
<path d="M2.16735 19.1351L32.3125 1.28991C35.5309 -0.625672 41.157 -0.373621 44.8668 1.81922L72.9236 18.4294C76.6334 20.6222 77.0511 23.9493 73.8326 25.8649L43.6875 43.7101C40.4691 45.6257 34.843 45.3736 31.1332 43.1808L3.07637 26.5706C-0.633419 24.3778 -1.05108 21.0507 2.16735 19.1351Z" transform="translate(173 301)" fill="url(#paint0_linear222)"/>
<rect width="40.5375" height="26.4653" transform="translate(191.007 308.26)" fill="url(#pattern0111)"/>
<path d="M12.7048 2.59383C15.0879 4.00532 16.4883 5.24037 16.9551 6.29898C17.4219 7.3828 16.9551 8.31539 15.5547 9.14716C14.2035 9.95372 12.582 10.2058 10.7148 9.92851C8.8476 9.65126 6.75931 8.81949 4.47447 7.45842C2.0668 6.04693 0.641843 4.78668 0.175048 3.72806C-0.291747 2.66945 0.175047 1.71166 1.57543 0.879888C2.92668 0.0733247 4.54818 -0.178726 6.43993 0.123735C8.33167 0.426196 10.42 1.23276 12.7048 2.59383ZM6.95586 5.99652C8.62649 6.97952 9.9286 7.60965 10.9113 7.8869C11.8941 8.16416 12.6557 8.13895 13.2453 7.78608C13.8349 7.43321 13.8841 6.97952 13.3927 6.3998C12.9259 5.82008 11.8695 5.03873 10.2234 4.05573C8.55279 3.07273 7.22611 2.4426 6.24338 2.16535C5.26065 1.88809 4.47447 1.9133 3.90941 2.26617C3.31977 2.61904 3.27064 3.07273 3.73743 3.65245C4.22879 4.23216 5.28522 5.01352 6.95586 5.99652Z" transform="translate(194.819 320.868)" fill="white"/>
<path d="M8.16665 5.69635C9.5916 6.52812 10.4269 7.30948 10.648 8.01522C10.8937 8.72096 10.5498 9.35109 9.61617 9.9056C8.73172 10.4349 7.67528 10.6113 6.47144 10.4601C5.2676 10.3089 3.96549 9.82998 2.56511 8.99822C-0.260228 7.33468 -0.751591 5.9484 1.09102 4.83938C2.00004 4.31007 3.05647 4.10843 4.28488 4.25966C5.51329 4.41089 6.79083 4.88979 8.16665 5.69635ZM4.62883 7.81358C5.41501 8.26727 6.05379 8.59494 6.56972 8.74617C7.08565 8.8974 7.45417 8.8974 7.72442 8.74617C8.24035 8.4437 7.72442 7.83878 6.15206 6.9062C4.60426 5.99881 3.5724 5.67114 3.05647 5.99881C2.78622 6.15004 2.78622 6.37689 3.05647 6.67935C3.30215 6.95661 3.84265 7.33468 4.62883 7.81358ZM9.64074 3.84599e-07L16.6918 11.8968L14.7509 13.031L7.72442 1.15943L9.64074 3.84599e-07ZM21.8265 4.03281C23.2515 4.86458 24.0622 5.64594 24.3079 6.35168C24.5536 7.05743 24.2097 7.68755 23.2761 8.24206C22.3916 8.77137 21.3352 8.94781 20.1313 8.79658C18.9029 8.64535 17.6254 8.16645 16.225 7.33468C13.3997 5.67115 12.9083 4.28487 14.7509 3.17584C15.6599 2.64653 16.7164 2.44489 17.9448 2.59612C19.1732 2.74736 20.4507 3.22625 21.8265 4.03281ZM18.2887 6.15004C19.0749 6.60373 19.7137 6.9314 20.2296 7.08263C20.7455 7.23386 21.1141 7.23386 21.3843 7.08263C21.9002 6.78017 21.3843 6.17525 19.812 5.24266C18.2642 4.33528 17.2323 4.00761 16.7164 4.33528C16.4461 4.48651 16.4461 4.71335 16.7164 5.01581C16.962 5.29307 17.5025 5.67115 18.2887 6.15004Z" transform="translate(203.312 312.196)" fill="white"/>
<path opacity="0.26" d="M2.30994 20.3381L34.4383 1.37101C37.8685 -0.665008 43.8647 -0.39711 47.8186 1.9336L77.7212 19.588C81.6751 21.9187 82.1202 25.455 78.6901 27.491L46.5617 46.4581C43.1315 48.4941 37.1353 48.2262 33.1814 45.8955L3.27876 28.2411C-0.675091 25.9104 -1.12023 22.3742 2.30994 20.3381Z" transform="translate(60 295.171)" fill="url(#paint1_linear0222)"/>
<path d="M2.30994 20.3381L34.4383 1.37101C37.8685 -0.665008 43.8647 -0.397111 47.8186 1.9336L77.7212 19.588C81.6751 21.9187 82.1202 25.455 78.6901 27.491L46.5617 46.4581C43.1315 48.4941 37.1353 48.2262 33.1814 45.8955L3.27876 28.2411C-0.675091 25.9104 -1.12023 22.3742 2.30994 20.3381Z" transform="translate(60 287)" fill="url(#paint2_linear666)"/>
<rect width="44.5136" height="29.2008" transform="translate(77.7695 294.717)" fill="url(#pattern133)"/>
<path d="M8.92891 4.92931C10.1334 4.20599 11.495 3.88451 12.9875 3.9113C14.48 3.93809 15.9202 4.36672 17.2818 5.17042C18.9052 6.13485 19.7169 7.12607 19.7169 8.14408C19.7169 9.16209 18.9314 10.1533 17.3079 11.0909C15.9202 11.9214 14.5324 12.4304 13.1446 12.618L10.5 11.0642C11.2331 10.957 11.9925 10.7963 12.7518 10.5284C13.5374 10.2873 14.192 9.99257 14.7157 9.67109C16.3391 8.70666 16.3653 7.79581 14.8466 6.88496C13.3803 6.02769 11.8092 6.08127 10.1596 7.07249C9.84536 7.26002 9.55733 7.47433 9.26931 7.71544C8.98128 7.98334 8.74562 8.19766 8.58851 8.38518L6.88652 8.62629L0 4.01846L6.80796 4.08779e-07L9.40023 1.52701L4.92268 4.1792L7.54113 6.0009L7.77679 5.78658C8.01245 5.51868 8.40522 5.224 8.92891 4.92931Z" transform="translate(81.7388 307.204)" fill="white"/>
<path d="M8.70393 6.05448C10.2226 6.93854 11.1129 7.76902 11.3486 8.51913C11.6104 9.26924 11.2438 9.93899 10.2488 10.5284C9.30617 11.0909 8.18024 11.2785 6.8972 11.1177C5.61416 10.957 4.22638 10.448 2.73387 9.56393C-0.277348 7.79581 -0.801037 6.32237 1.1628 5.14363C2.13162 4.58104 3.25756 4.36672 4.56678 4.52746C5.876 4.6882 7.2376 5.19721 8.70393 6.05448ZM4.93336 8.30482C5.77127 8.78703 6.45206 9.13529 7.00194 9.29603C7.55181 9.45677 7.94458 9.45677 8.23261 9.29603C8.78248 8.97456 8.2326 8.3316 6.5568 7.34039C4.90718 6.37596 3.80743 6.02769 3.25756 6.37595C2.96953 6.53669 2.96953 6.7778 3.25756 7.09928C3.5194 7.39396 4.09546 7.79581 4.93336 8.30482ZM10.275 4.08779e-07L17.7899 12.6447L15.7214 13.8503L8.23261 1.23233L10.275 4.08779e-07ZM23.2625 4.28636C24.7812 5.17042 25.6453 6.0009 25.9071 6.75101C26.169 7.50112 25.8024 8.17087 24.8074 8.76024C23.8647 9.32282 22.7388 9.51035 21.4558 9.34961C20.1465 9.18888 18.785 8.67987 17.2924 7.79581C14.2812 6.02769 13.7575 4.55425 15.7214 3.37551C16.6902 2.81292 17.8161 2.5986 19.1253 2.75934C20.4346 2.92008 21.7962 3.42909 23.2625 4.28636ZM19.4919 6.53669C20.3298 7.01891 21.0106 7.36717 21.5605 7.52791C22.1104 7.68865 22.5031 7.68865 22.7912 7.52791C23.341 7.20644 22.7912 6.56348 21.1154 5.57226C19.4657 4.60783 18.366 4.25957 17.8161 4.60783C17.5281 4.76857 17.5281 5.00968 17.8161 5.33116C18.078 5.62584 18.654 6.02769 19.4919 6.53669Z" transform="translate(92.3066 298.899)" fill="white"/>
<path opacity="0.26" d="M2.13883 18.1184L31.8873 1.22138C35.0634 -0.592426 40.6155 -0.353769 44.2765 1.72256L71.9641 17.4501C75.6251 19.5265 76.0373 22.6767 72.8612 24.4905L43.1127 41.3875C39.9366 43.2013 34.3845 42.9627 30.7236 40.8864L3.03589 25.1588C-0.625085 23.0825 -1.03725 19.9322 2.13883 18.1184Z" transform="translate(8 210.391)" fill="url(#paint3_linear88)"/>
<path opacity="0.54" d="M2.13883 18.1184L31.8873 1.22137C35.0634 -0.592427 40.6155 -0.353769 44.2765 1.72256L71.9641 17.4501C75.6251 19.5265 76.0373 22.6767 72.8612 24.4905L43.1127 41.3875C39.9366 43.2013 34.3845 42.9627 30.7236 40.8864L3.03589 25.1588C-0.625085 23.0825 -1.03725 19.9083 2.13883 18.1184Z" transform="translate(8 203.136)" fill="url(#paint4_linear9222)"/>
<path d="M2.13883 18.1184L31.8873 1.22137C35.0634 -0.592427 40.6155 -0.353769 44.2765 1.72256L71.9641 17.4501C75.6251 19.5265 76.0373 22.6767 72.8612 24.4905L43.1127 41.3875C39.9366 43.2013 34.3845 42.9627 30.7236 40.8864L3.03589 25.1588C-0.625085 23.0825 -1.03725 19.9322 2.13883 18.1184Z" transform="translate(8 196)" fill="url(#paint5_linear3664)"/>
<rect width="47.7624" height="29.5936" transform="translate(21.8901 201.404)" fill="url(#pattern200)"/>
<path d="M15.7349 7.61319L13.2862 8.99741L5.52783 4.58224L4.2671 3.8424L2.90939 3.03096C2.98212 3.53214 3.00637 3.86626 2.98212 4.03332L2.88514 5.48914L-7.39895e-07 5.20275L0.315184 1.14556L2.32751 -7.28327e-07L15.7349 7.61319Z" transform="translate(25.6313 218.367)" fill="white"/>
<path d="M12.5376 2.45601C14.8894 3.7925 16.2713 4.96192 16.732 5.96428C17.1927 6.99051 16.732 7.87355 15.35 8.66112C14.0166 9.42483 12.4164 9.66348 10.5738 9.40096C8.73119 9.13844 6.67037 8.35086 4.4156 7.06211C2.0396 5.72563 0.633398 4.53234 0.172745 3.52997C-0.287908 2.52761 0.172744 1.62071 1.5547 0.833134C2.88817 0.0694275 4.48833 -0.169231 6.35519 0.117159C8.22205 0.379683 10.2829 1.16726 12.5376 2.45601ZM6.86433 5.67789C8.51299 6.60866 9.79797 7.20531 10.7678 7.46783C11.7376 7.73035 12.4891 7.70649 13.071 7.37237C13.6529 7.03825 13.7014 6.60866 13.2165 6.05975C12.7558 5.51083 11.7133 4.77099 10.0889 3.84023C8.44025 2.90946 7.13103 2.31281 6.16123 2.05029C5.19144 1.78777 4.4156 1.81163 3.85797 2.14575C3.27609 2.47987 3.2276 2.90946 3.68825 3.45837C4.14891 3.98342 5.21568 4.74713 6.86433 5.67789Z" transform="translate(33.3867 213.333)" fill="white"/>
<path d="M8.05919 5.36981C9.46539 6.15738 10.2897 6.89722 10.5079 7.56546C10.7504 8.23371 10.4109 8.83035 9.48964 9.3554C8.61683 9.85658 7.57429 10.0236 6.38629 9.88045C5.1983 9.73725 3.91332 9.2838 2.53136 8.49623C-0.256803 6.92109 -0.741701 5.60847 1.07667 4.55837C1.97373 4.05719 3.01626 3.86626 4.2285 4.00946C5.44075 4.15265 6.72572 4.6061 8.05919 5.36981ZM4.56793 7.37454C5.34376 7.80412 5.97413 8.11438 6.48327 8.25757C6.99242 8.40077 7.35609 8.40077 7.62279 8.25757C8.13193 7.97118 7.62278 7.3984 6.07111 6.51537C4.54368 5.6562 3.5254 5.34594 3.01626 5.6562C2.74956 5.79939 2.74956 6.01418 3.01626 6.30057C3.28295 6.58696 3.79209 6.94495 4.56793 7.37454ZM9.53813 1.82082e-07L16.4964 11.2647L14.5811 12.3386L7.62279 1.07396L9.53813 1.82082e-07ZM21.5394 3.79466C22.9456 4.58224 23.7456 5.32208 23.9881 5.99032C24.2305 6.65856 23.8911 7.25521 22.9698 7.78026C22.097 8.28144 21.0545 8.4485 19.8665 8.3053C18.6785 8.16211 17.3935 7.70866 16.0115 6.92108C13.2234 5.34594 12.7385 4.03332 14.5568 2.98323C15.4539 2.48204 16.4964 2.29112 17.7087 2.43431C18.9209 2.57751 20.2059 3.03096 21.5394 3.79466ZM18.0481 5.79939C18.8239 6.22898 19.4543 6.53923 19.9634 6.68243C20.4726 6.82562 20.8362 6.82562 21.1029 6.68243C21.6121 6.39604 21.1029 5.82326 19.5513 4.94022C18.0238 4.08105 17.0056 3.7708 16.4964 4.08105C16.2297 4.22425 16.2297 4.43904 16.4964 4.72543C16.7631 5.01182 17.2723 5.36981 18.0481 5.79939Z" transform="translate(41.7441 205.121)" fill="white"/>
<path opacity="0.26" d="M2.22439 18.9911L33.1628 1.28021C36.4659 -0.620962 42.2401 -0.370809 46.0475 1.80553L74.8427 18.2907C78.6501 20.467 79.0787 23.769 75.7756 25.6702L44.8372 43.3811C41.5341 45.2822 35.7599 45.0321 31.9525 42.8558L3.15733 26.3706C-0.650088 24.1943 -1.07874 20.8923 2.22439 18.9911Z" transform="translate(82 159.339)" fill="url(#paint6_linear11111)"/>
<path opacity="0.54" d="M2.22439 18.9911L33.1628 1.28021C36.4659 -0.620963 42.2401 -0.370809 46.0475 1.80553L74.8427 18.2907C78.6501 20.467 79.0787 23.769 75.7756 25.6702L44.8372 43.3811C41.5341 45.2822 35.7599 45.0321 31.9525 42.8557L3.15733 26.3706C-0.650088 24.1693 -1.07874 20.8672 2.22439 18.9911Z" transform="translate(82 151.734)" fill="url(#paint7_linear22334)"/>
<path opacity="0.71" d="M2.22439 18.9911L33.1628 1.28021C36.4659 -0.620963 42.2401 -0.370809 46.0475 1.80553L74.8427 18.2907C78.6501 20.467 79.0787 23.769 75.7756 25.6702L44.8372 43.3811C41.5341 45.2822 35.7599 45.0321 31.9525 42.8557L3.15733 26.3706C-0.650088 24.1943 -1.07874 20.8923 2.22439 18.9911Z" transform="translate(82 144.254)" fill="url(#paint8_lineardd)"/>
<path d="M2.22439 18.9911L33.1628 1.28021C36.4659 -0.620963 42.2401 -0.370809 46.0475 1.80553L74.8427 18.2907C78.6501 20.467 79.0787 23.769 75.7756 25.6702L44.8372 43.3811C41.5341 45.2822 35.7599 45.0321 31.9525 42.8557L3.15733 26.3706C-0.650088 24.1943 -1.07874 20.8923 2.22439 18.9911Z" transform="translate(82 137)" fill="url(#paint9_linearsaaa)"/>
<rect width="46.1429" height="28.7677" transform="translate(97.9585 144.333)" fill="url(#pattern3111)"/>
<path d="M14.1454 6.55403L11.7248 7.92987L5.1438 4.15255L4.08478 3.52717L2.95012 2.82674C2.95012 3.27701 2.9249 3.60221 2.89969 3.75231L2.62233 5.10313L0 4.95304L0.781655 1.15071L2.77361 7.63408e-07L14.1454 6.55403Z" transform="translate(101.799 161.344)" fill="white"/>
<path d="M7.46354 3.97744C8.57299 3.35206 9.75808 3.00184 11.044 3.00184C12.33 2.97683 13.4899 3.27701 14.5741 3.9024C15.8348 4.62784 16.44 5.42833 16.3391 6.25384C16.2383 7.10436 15.4566 7.95489 13.9689 8.78039C12.683 9.50584 11.4475 9.98113 10.2624 10.2063L8.19477 9.00553C8.82514 8.90547 9.48072 8.73036 10.1615 8.48021C10.8423 8.25507 11.4475 7.9799 11.9265 7.70473C13.4142 6.85421 13.5403 6.07873 12.33 5.40332C11.1701 4.75292 9.83373 4.85298 8.32085 5.72852C8.04348 5.87861 7.76612 6.07874 7.48876 6.30387C7.2114 6.52901 6.98447 6.70412 6.85839 6.87923L5.37073 7.12938L7.69491e-07 3.55218L6.22803 -3.81704e-07L8.27042 1.17572L4.18564 3.52717L6.20281 4.92803L6.42974 4.7279C6.63146 4.50277 7.00968 4.25261 7.46354 3.97744Z" transform="translate(108.556 155.541)" fill="white"/>
<path d="M7.48941 5.0531C8.6745 5.72852 9.3553 6.37892 9.48137 7.0043C9.60745 7.60467 9.22923 8.18003 8.3215 8.68033C7.4642 9.18064 6.48083 9.38076 5.3966 9.30572C4.31237 9.23067 3.1777 8.85544 2.01783 8.18003C-0.352354 6.8292 -0.629714 5.62846 1.16053 4.57781C2.04304 4.07751 3.02641 3.85237 4.11065 3.95243C5.24531 4.02747 6.35475 4.40271 7.48941 5.0531ZM4.035 7.05433C4.69058 7.42956 5.24531 7.67972 5.69917 7.80479C6.15304 7.92987 6.48083 7.90486 6.75819 7.75476C7.26248 7.47959 6.85905 6.95427 5.54788 6.20381C4.26193 5.45335 3.35421 5.22821 2.84991 5.5284C2.59777 5.67849 2.54734 5.87861 2.74905 6.12876C2.95077 6.3539 3.37942 6.6791 4.035 7.05433ZM9.50659 -3.81704e-07L14.5243 10.1813L12.6332 11.2569L7.61549 1.07566L9.50659 -3.81704e-07ZM20.0715 3.05187C21.2566 3.72729 21.9122 4.37769 22.0635 4.97806C22.1896 5.57843 21.8114 6.15378 20.9036 6.65409C20.0463 7.15439 19.063 7.35452 17.9787 7.27947C16.8945 7.20442 15.7598 6.82919 14.6 6.15378C12.2298 4.80295 11.9524 3.60221 13.7427 2.55157C14.6252 2.05126 15.6085 1.82612 16.6928 1.92618C17.8274 2.02624 18.9369 2.40147 20.0715 3.05187ZM16.6171 5.0531C17.2727 5.42834 17.8274 5.67849 18.2813 5.80357C18.7352 5.92864 19.063 5.90363 19.3403 5.75353C19.8446 5.47836 19.4412 4.95304 18.13 4.20258C16.8441 3.45212 15.9363 3.22698 15.432 3.52717C15.1799 3.67726 15.1295 3.87738 15.3312 4.12753C15.5329 4.35267 15.9615 4.67787 16.6171 5.0531Z" transform="translate(118.112 148.161)" fill="white"/>
<path opacity="0.26" d="M2.16735 18.5764L32.3125 1.25225C35.5309 -0.607402 41.157 -0.362711 44.8668 1.7661L72.9236 17.8912C76.6334 20.0201 77.0511 23.25 73.8326 25.1096L43.6875 42.4338C40.4691 44.2934 34.843 44.0487 31.1332 41.9199L3.07637 25.7948C-0.633419 23.666 -1.05108 20.436 2.16735 18.5764Z" transform="translate(0 93.314)" fill="url(#paint10_linear325)"/>
<path opacity="0.54" d="M2.16735 18.5764L32.3125 1.25225C35.5309 -0.607402 41.157 -0.362711 44.8668 1.7661L72.9236 17.8912C76.6334 20.0201 77.0511 23.25 73.8326 25.1096L43.6875 42.4338C40.4691 44.2934 34.843 44.0487 31.1332 41.9199L3.07637 25.7948C-0.633419 23.666 -1.05108 20.436 2.16735 18.5764Z" transform="translate(0 85.8508)" fill="url(#paint11_linearaaa)"/>
<path opacity="0.71" d="M2.16735 18.5764L32.3125 1.25225C35.5309 -0.607403 41.157 -0.362712 44.8668 1.7661L72.9236 17.8912C76.6334 20.0201 77.0511 23.25 73.8326 25.1096L43.6875 42.4338C40.4691 44.2934 34.843 44.0487 31.1332 41.9199L3.07637 25.7948C-0.633419 23.666 -1.05108 20.436 2.16735 18.5764Z" transform="translate(0 78.5591)" fill="url(#paint12_linearlll)"/>
<path opacity="0.76" d="M2.16735 18.5764L32.3125 1.25225C35.5309 -0.607403 41.157 -0.362711 44.8668 1.7661L72.9236 17.8912C76.6334 20.0201 77.0511 23.25 73.8326 25.1096L43.6875 42.4338C40.4691 44.2934 34.843 44.0487 31.1332 41.9199L3.07637 25.7948C-0.633419 23.666 -1.05108 20.436 2.16735 18.5764Z" transform="translate(0 71.4631)" fill="url(#paint13_linear933)"/>
<path d="M2.16735 18.5764L32.3125 1.25225C35.5309 -0.607403 41.157 -0.362711 44.8668 1.7661L72.9236 17.8912C76.6334 20.0201 77.0511 23.25 73.8326 25.1096L43.6875 42.4338C40.4691 44.2934 34.843 44.0487 31.1332 41.9199L3.07637 25.7948C-0.633419 23.666 -1.05108 20.436 2.16735 18.5764Z" transform="translate(0 64)" fill="url(#paint14_linear003)"/>
<rect width="45.9424" height="30.097" transform="translate(14.8862 69.7183)" fill="url(#pattern460)"/>
<path d="M18.0085 5.842L10.638 10.0752L8.84454 9.04745L8.40231 5.74412C8.2549 4.76536 8.13206 4.10469 8.00922 3.76213C7.88638 3.41956 7.73897 3.12593 7.54242 2.88124C7.34588 2.63655 7.07563 2.44079 6.75624 2.24504C6.26488 1.97588 5.79808 1.82907 5.30672 1.82907C4.83993 1.82907 4.3977 1.92694 4.00461 2.17163C3.58695 2.41632 3.3167 2.68548 3.14472 3.05252C2.97275 3.39509 2.87447 3.81106 2.87447 4.27598L3.7488e-07 4.03128C3.7488e-07 3.44403 0.0737037 2.97911 0.196544 2.66102C0.319385 2.34292 0.5405 2.02482 0.835318 1.73119C1.13014 1.43756 1.52323 1.14393 2.01459 0.850301C2.67793 0.483264 3.39041 0.214104 4.17659 0.0917588C4.96277 -0.0305868 5.74895 -0.0305868 6.51056 0.0917588C7.29674 0.214104 8.00922 0.458795 8.64799 0.825832C9.21306 1.14393 9.65528 1.51097 9.97467 1.878C10.2941 2.26951 10.5397 2.70995 10.6871 3.19934C10.8346 3.71319 10.9574 4.4962 11.0065 5.54837L11.1294 7.16333L11.2522 7.23674L15.8465 4.59408L18.0085 5.842Z" transform="translate(18.6523 85.8369)" fill="white"/>
<path d="M11.3843 2.26431C13.5217 3.48776 14.7747 4.56441 15.1923 5.49423C15.61 6.42406 15.1923 7.25601 13.9394 7.99008C12.7109 8.69969 11.286 8.91991 9.61536 8.65075C7.94473 8.40606 6.07755 7.67198 4.01382 6.49747C1.87639 5.27401 0.574281 4.1729 0.156623 3.24307C-0.261036 2.31325 0.156622 1.4813 1.4096 0.771694C2.63801 0.0620903 4.08753 -0.158131 5.75816 0.111029C7.47793 0.35572 9.34511 1.06532 11.3843 2.26431ZM6.24953 5.22507C7.74818 6.08149 8.92745 6.64428 9.78734 6.88897C10.6472 7.13366 11.3597 7.10919 11.8756 6.79109C12.3916 6.49746 12.4407 6.08149 12.023 5.56764C11.6054 5.05379 10.6472 4.36865 9.17313 3.5367C7.67448 2.68029 6.49521 2.11749 5.61075 1.89727C4.7263 1.65258 4.01382 1.67705 3.52246 1.97068C3.00653 2.26431 2.95739 2.68029 3.37505 3.16967C3.79271 3.68352 4.75087 4.36865 6.24953 5.22507Z" transform="translate(27.5615 81.0952)" fill="white"/>
<path d="M7.28713 4.94276C8.56467 5.67683 9.30172 6.36197 9.52283 6.9737C9.74395 7.58542 9.42456 8.12374 8.61381 8.61312C7.82763 9.07804 6.86947 9.22485 5.78847 9.10251C4.70748 8.98016 3.52821 8.53972 2.2998 7.83011C-0.230722 6.36197 -0.672951 5.16298 0.973115 4.20869C1.78386 3.74377 2.74202 3.57249 3.82302 3.69483C4.92859 3.84165 6.08329 4.23316 7.28713 4.94276ZM4.11784 6.80241C4.83032 7.21839 5.39538 7.48755 5.86218 7.60989C6.32897 7.75671 6.67293 7.75671 6.89404 7.60989C7.36084 7.34073 6.89404 6.80241 5.49366 5.99493C4.11784 5.18745 3.18425 4.94276 2.71746 5.18745C2.47177 5.33427 2.47177 5.53002 2.71746 5.77471C2.93857 6.06834 3.40536 6.38644 4.11784 6.80241ZM8.61381 0L14.9278 10.3749L13.2081 11.3781L6.89404 1.00323L8.61381 0ZM19.5466 3.49908C20.8242 4.23316 21.5612 4.89382 21.7823 5.50555C22.0035 6.11728 21.6841 6.6556 20.8733 7.14498C20.0871 7.60989 19.129 7.75671 18.048 7.63436C16.967 7.51202 15.7877 7.09604 14.5593 6.36197C12.0288 4.89382 11.5866 3.69484 13.2326 2.74054C14.0434 2.27563 15.0015 2.10434 16.0825 2.22669C17.1635 2.3735 18.3182 2.78948 19.5466 3.49908ZM16.3528 5.33427C17.0653 5.75024 17.6303 6.0194 18.0971 6.14175C18.5639 6.28856 18.9079 6.28856 19.129 6.14175C19.5958 5.87259 19.129 5.33427 17.7286 4.52678C16.3528 3.7193 15.4192 3.47461 14.9524 3.7193C14.7067 3.86612 14.7067 4.06187 14.9524 4.30656C15.1981 4.60019 15.6649 4.94276 16.3528 5.33427Z" transform="translate(35.1963 73.5474)" fill="white"/>
<path d="M2.16735 18.2847L32.3125 1.23259C35.5309 -0.597864 41.157 -0.357016 44.8668 1.73837L72.9236 17.6103C76.6334 19.7057 77.0511 22.8849 73.8327 24.7153L43.6875 41.7674C40.4691 43.5979 34.843 43.357 31.1332 41.2616L3.07637 25.3897C-0.633419 23.2943 -1.05108 20.1151 2.16735 18.2847Z" transform="translate(21 5)" fill="url(#paint15_linearayw)" fill-opacity="0.5"/>
<path d="M2.16735 18.2847L32.3125 1.23259C35.5309 -0.597864 41.157 -0.357016 44.8668 1.73837L72.9236 17.6103C76.6334 19.7057 77.0511 22.8849 73.8326 24.7153L43.6875 41.7674C40.4691 43.5979 34.843 43.357 31.1332 41.2616L3.07637 25.3897C-0.633419 23.2943 -1.05108 20.1151 2.16735 18.2847Z" transform="translate(21)" fill="url(#paint16_linear09222)"/>
<defs>
<filter id="filter0_d11" x="23.4551" y="92.6616" width="195.57" height="271.338" filterUnits="userSpaceOnUse" color-interpolation-filters="sRGB">
<feFlood flood-opacity="0" result="BackgroundImageFix"/>
<feColorMatrix in="SourceAlpha" type="matrix" values="0 0 0 0 0 0 0 0 0 0 0 0 0 0 0 0 0 0 255 0"/>
<feOffset dy="1"/>
<feGaussianBlur stdDeviation="4"/>
<feColorMatrix type="matrix" values="0 0 0 0 0.243137 0 0 0 0 0.658824 0 0 0 0 0.996078 0 0 0 1 0"/>
<feBlend mode="normal" in2="BackgroundImageFix" result="effect1_dropShadow"/>
<feBlend mode="normal" in="SourceGraphic" in2="effect1_dropShadow" result="shape"/>
</filter>
<filter id="filter1_d111" x="21" y="13.4998" width="104" height="102.5" filterUnits="userSpaceOnUse" color-interpolation-filters="sRGB">
<feFlood flood-opacity="0" result="BackgroundImageFix"/>
<feColorMatrix in="SourceAlpha" type="matrix" values="0 0 0 0 0 0 0 0 0 0 0 0 0 0 0 0 0 0 255 0"/>
<feOffset dy="4"/>
<feGaussianBlur stdDeviation="6.5"/>
<feColorMatrix type="matrix" values="0 0 0 0 0.192157 0 0 0 0 0.890196 0 0 0 0 0.65098 0 0 0 1 0"/>
<feBlend mode="normal" in2="BackgroundImageFix" result="effect1_dropShadow"/>
<feBlend mode="normal" in="SourceGraphic" in2="effect1_dropShadow" result="shape"/>
</filter>
<pattern id="pattern0111" patternContentUnits="objectBoundingBox" width="1" height="1">
<use xlink:href="#image0"/>
</pattern>
<pattern id="pattern133" patternContentUnits="objectBoundingBox" width="1" height="1">
<use xlink:href="#image1"/>
</pattern>
<pattern id="pattern200" patternContentUnits="objectBoundingBox" width="1" height="1">
<use xlink:href="#image2"/>
</pattern>
<pattern id="pattern3111" patternContentUnits="objectBoundingBox" width="1" height="1">
<use xlink:href="#image3"/>
</pattern>
<pattern id="pattern460" patternContentUnits="objectBoundingBox" width="1" height="1">
<use xlink:href="#image4"/>
</pattern>
<linearGradient id="paint0_linear222" x2="1" gradientUnits="userSpaceOnUse" gradientTransform="translate(31.3579 -55.7967) scale(111.218 114.102) rotate(38.4892)">
<stop offset="0" stop-color="#5C7BF7"/>
<stop offset="1" stop-color="#8960F7"/>
</linearGradient>
<linearGradient id="paint1_linear0222" x2="1" gradientUnits="userSpaceOnUse" gradientTransform="translate(-36.6753 33.6621) scale(155.104 52.8979) rotate(-90.7701)">
<stop offset="0" stop-color="#5C7BF7"/>
<stop offset="1"  stop-color="#8960F7"/>
</linearGradient>
<linearGradient id="paint2_linear666" x2="1" gradientUnits="userSpaceOnUse" gradientTransform="translate(33.4209 -59.3046) scale(118.535 121.275) rotate(38.4892)">
<stop offset="0" stop-color="#5C7BF7"/>
<stop offset="1"  stop-color="#8960F7"/>
</linearGradient>
<linearGradient id="paint3_linear88" x2="1" gradientUnits="userSpaceOnUse" gradientTransform="translate(-33.9608 29.9959) scale(143.615 47.1245) rotate(-90.7701)">
<stop offset="0" stop-color="#5C7BF7"/>
<stop offset="1" stop-color="#8960F7"/>
</linearGradient>
<linearGradient id="paint4_linear9222" x2="1" gradientUnits="userSpaceOnUse" gradientTransform="translate(30.9453 -52.8467) scale(109.755 108.039) rotate(38.4892)">
<stop offset="0" stop-color="#5C7BF7"/>
<stop offset="1" stop-color="#8960F7"/>
</linearGradient>
<linearGradient id="paint5_linear3664" x2="1" gradientUnits="userSpaceOnUse" gradientTransform="translate(17.6551 86.3458) scale(100.246 98.6782) rotate(-119.882)">
<stop offset="0" stop-color="#5C7BF7"/>
<stop offset="1"  stop-color="#8960F7"/>
</linearGradient>
<linearGradient id="paint6_linear11111" x2="1" gradientUnits="userSpaceOnUse" gradientTransform="translate(-35.3208 31.4381) scale(149.359 49.3944) rotate(-90.7701)">
<stop offset="0" stop-color="#315690"/>
<stop offset="1" stop-color="#75A6E5"/>
</linearGradient>
<linearGradient id="paint7_linear22334" x2="1" gradientUnits="userSpaceOnUse" gradientTransform="translate(32.1831 -55.3934) scale(114.145 113.243) rotate(38.4892)">
<stop offset="0" stop-color="#315690"/>
<stop offset="1"  stop-color="#75A6E5"/>
</linearGradient>
<linearGradient id="paint8_lineardd" x2="1" gradientUnits="userSpaceOnUse" gradientTransform="translate(18.3613 90.5036) scale(104.255 103.431) rotate(-119.882)">
<stop offset="0" stop-color="#315690"/>
<stop offset="1"  stop-color="#75A6E5"/>
</linearGradient>
<linearGradient id="paint9_linearsaaa" x2="1" gradientUnits="userSpaceOnUse" gradientTransform="translate(71.7791 -11.4485) scale(61.3807 60.8955) rotate(93.4148)">
<stop offset="0" stop-color="#315690"/>
<stop offset="1"  stop-color="#75A6E5"/>
</linearGradient>
<linearGradient id="paint10_linear325" x2="1" gradientUnits="userSpaceOnUse" gradientTransform="translate(-34.4175 30.741) scale(145.53 48.3158) rotate(-90.7701)">
<stop offset="0" stop-color="#315690"/>
<stop offset="1"  stop-color="#75A6E5"/>
</linearGradient>
<linearGradient id="paint11_linearaaa" x2="1" gradientUnits="userSpaceOnUse" gradientTransform="translate(31.3579 -54.1695) scale(111.218 110.77) rotate(38.4892)">
<stop offset="0" stop-color="#315690"/>
<stop offset="1"  stop-color="#75A6E5"/>
</linearGradient>
<linearGradient id="paint12_linearlll" x2="1" gradientUnits="userSpaceOnUse" gradientTransform="translate(17.8905 88.5171) scale(101.582 101.173) rotate(-119.882)">
<stop offset="0" stop-color="#315690"/>
<stop offset="1"  stop-color="#75A6E5"/>
</linearGradient>
<linearGradient id="paint13_linear933" x2="1" gradientUnits="userSpaceOnUse" gradientTransform="translate(69.9386 -11.2087) scale(59.8068 59.5657) rotate(93.4148)">
<stop offset="0" stop-color="#315690"/>
<stop offset="1" stop-color="#75A6E5"/>
</linearGradient>
<linearGradient id="paint14_linear003" x2="1" gradientUnits="userSpaceOnUse" gradientTransform="translate(-45.0123 65.2943) scale(142.993 142.416) rotate(-77.3965)">
<stop offset="0" stop-color="#315690"/>
<stop offset="1" stop-color="#75A6E5"/>
</linearGradient>
<linearGradient id="paint15_linearayw" x2="1" gradientUnits="userSpaceOnUse" gradientTransform="translate(-34.4107 30.2727) scale(145.53 47.557) rotate(-90.7701)">
<stop offset="0" stop-color="#31A9A6"/>
<stop offset="1" stop-color="#31E3A6"/>
</linearGradient>
<linearGradient id="paint16_linear09222" x2="1" gradientUnits="userSpaceOnUse" gradientTransform="translate(-34.4107 30.2727) scale(145.53 47.557) rotate(-90.7701)">
<stop offset="0" stop-color="#31A9A6"/>
<stop offset="1"  stop-color="#31E3A6"/>
</linearGradient>

</defs>
</svg>
