<svg xmlns="http://www.w3.org/2000/svg" xmlns:xlink="http://www.w3.org/1999/xlink" viewBox="0 0 637.63 529.4"><defs><style>.grp2-cls-1{fill:#5c7bf7;opacity:0.12;isolation:isolate;}.grp2-cls-2{opacity:0.24;}.grp2-cls-3{fill:url(#grp2-gradient_9);}.grp2-cls-4{opacity:0.19;}.grp2-cls-5{fill:url(#grp2-gradient_11);}.grp2-cls-6{opacity:0.21;}.grp2-cls-7{fill:url(#grp2-gradient_7);}.grp2-cls-8{opacity:0.26;}.grp2-cls-9{fill:url(#grp2-gradient_8);}.grp2-cls-10{opacity:0.18;}.grp2-cls-11{fill:url(#grp2-gradient_10);}.grp2-cls-12{fill:url(#grp2-gradient_6);}.grp2-cls-13{fill:url(#grp2-gradient_7-2);}.grp2-cls-14{fill:url(#grp2-gradient_8-2);}.grp2-cls-15{fill:url(#grp2-gradient_9-2);}.grp2-cls-16{fill:url(#grp2-gradient_10-2);}.grp2-cls-17{fill:url(#grp2-gradient_11-2);}.grp2-cls-18{fill:none;stroke:#fff;stroke-linecap:round;stroke-linejoin:round;stroke-width:3px;}.grp2-cls-19{fill:#fff;}</style><linearGradient id="grp2-gradient_9" x1="-18.57" y1="85.89" x2="97.69" y2="164.12" gradientTransform="translate(554.96 202.53) rotate(119.39)" gradientUnits="userSpaceOnUse"><stop offset="0" stop-color="#5cb3f7"/><stop offset="1" stop-color="#b1bd84"/></linearGradient><linearGradient id="grp2-gradient_11" x1="174.36" y1="188.41" x2="421.07" y2="361.54" gradientTransform="translate(554.96 202.53) rotate(119.39)" gradientUnits="userSpaceOnUse"><stop offset="0" stop-color="#5c7bf7"/><stop offset="1" stop-color="#8960f7"/></linearGradient><linearGradient id="grp2-gradient_7" x1="166.7" y1="128.7" x2="110.46" y2="-94.51" gradientTransform="translate(554.96 202.53) rotate(119.39)" gradientUnits="userSpaceOnUse"><stop offset="0" stop-color="#000594"/><stop offset="1" stop-color="#60b3f7"/></linearGradient><linearGradient id="grp2-gradient_8" x1="29.81" y1="-35.59" x2="201.3" y2="192.28" gradientTransform="translate(554.96 202.53) rotate(119.39)" gradientUnits="userSpaceOnUse"><stop offset="0" stop-color="#ff70cf"/><stop offset="1" stop-color="#439af7"/></linearGradient><linearGradient id="grp2-gradient_10" x1="114.28" y1="205.77" x2="-183.28" y2="333.83" gradientTransform="translate(554.96 202.53) rotate(119.39)" gradientUnits="userSpaceOnUse"><stop offset="0" stop-color="#dbc963"/><stop offset="1" stop-color="#8960f7"/></linearGradient><linearGradient id="grp2-gradient_6" x1="179.31" y1="131.73" x2="188.64" y2="-64.94" gradientTransform="translate(554.96 202.53) rotate(119.39)" gradientUnits="userSpaceOnUse"><stop offset="0" stop-color="#31a9a6"/><stop offset="1" stop-color="#31e3a6"/></linearGradient><linearGradient id="grp2-gradient_7-2" x1="171.03" y1="136.38" x2="122.53" y2="-56.12" xlink:href="#grp2-gradient_7"/><linearGradient id="grp2-gradient_8-2" x1="54.88" y1="-0.12" x2="200.88" y2="193.88" xlink:href="#grp2-gradient_8"/><linearGradient id="grp2-gradient_9-2" x1="-3.06" y1="93.6" x2="103.94" y2="165.6" xlink:href="#grp2-gradient_9"/><linearGradient id="grp2-gradient_10-2" x1="123.43" y1="204.73" x2="-144.57" y2="320.06" xlink:href="#grp2-gradient_10"/><linearGradient id="grp2-gradient_11-2" x1="175.96" y1="188.7" x2="403.96" y2="348.7" xlink:href="#grp2-gradient_11"/></defs><g id="grp2-lay2_2" data-name="Слой 2"><g id="Токены"><g id="grp2-bl"><g id="grp2-bl2_3" data-name="Blur 3"><path class="grp2-cls-1" d="M290.19,30.22C152.35,30.22,40.58,142,40.58,279.81S152.35,529.4,290.19,529.4,539.78,417.65,539.78,279.81,428,30.22,290.19,30.22Zm0,362A112.4,112.4,0,1,1,402.58,279.81,112.4,112.4,0,0,1,290.19,392.22Z"/></g><g id="grp2-bl2_2" data-name="Blur 2"><path class="grp2-cls-1" d="M290.19,39.31c-132.82,0-240.5,107.68-240.5,240.5s107.68,240.5,240.5,240.5,240.5-107.68,240.5-240.5S423,39.31,290.19,39.31Zm0,348.81A108.31,108.31,0,1,1,398.5,279.81h0A108.31,108.31,0,0,1,290.19,388.12Z"/></g><g id="grp2-bl2_1" data-name="Blur 1"><path class="grp2-cls-1" d="M290.19,49.81c-127,0-230,103-230,230s103,230,230,230,230-103,230-230S417.21,49.81,290.19,49.81Zm0,333.58A103.58,103.58,0,1,1,393.77,279.81,103.58,103.58,0,0,1,290.19,383.39Z"/></g></g><g id="grp2-dg2"><g id="grp2-Layer_2-2" data-name="Layer 2-2"><g id="grp2-Blick_1" data-name="Blick 1"><g class="grp2-cls-2"><path class="grp2-cls-3" d="M404.06,243.38a129.19,129.19,0,0,0-43.57-67.76L428.4,93.43c40.32,33.32,65.44,72.85,78.46,123.51Z"/></g><g class="grp2-cls-4"><path class="grp2-cls-5" d="M162.87,480C49.63,415.69,9.9,271.81,74.15,158.56c36-63.42,90.67-102.34,162.43-115.49L256,148.35A129.13,129.13,0,1,0,392.43,339.12l91.84,52.1C420,504.52,276.12,544.19,162.87,480Z"/></g><g class="grp2-cls-6"><path class="grp2-cls-7" d="M407.15,325a136.37,136.37,0,0,0,9.5-42.59l112.93,7a239.56,239.56,0,0,1-17.19,77.14Z"/></g><g class="grp2-cls-8"><path class="grp2-cls-9" d="M421.13,283.92a139.46,139.46,0,0,0-4.32-44L528,211.31a243.09,243.09,0,0,1,7.57,79.7Z"/></g><g class="grp2-cls-10"><path class="grp2-cls-11" d="M255.78,144,235.89,36c73.58-13.56,140.22,3.76,197.9,51.42l-69.4,84A132.58,132.58,0,0,0,255.76,144Z"/></g></g><g id="grp2-Body"><path class="grp2-cls-12" d="M469.58,382.72l-84.9-48.17.12-.22A117.92,117.92,0,0,0,392,319.42l90.76,35.88A228.32,228.32,0,0,1,469.58,382.72Z"/><path class="grp2-cls-13" d="M391.94,319.42a117.42,117.42,0,0,0,8.2-36.74l97.44,6.08a206.74,206.74,0,0,1-14.83,66.53Z"/><path class="grp2-cls-14" d="M400.14,282.69a118.69,118.69,0,0,0-3.68-37.43l94.63-24.36a207,207,0,0,1,6.49,67.86Z"/><path class="grp2-cls-15" d="M396.46,245.26a118.85,118.85,0,0,0-40.1-62.37l62.52-75.66c37.1,30.66,60.22,67,72.22,113.66Z"/><path class="grp2-cls-16" d="M258.58,158.26,240.67,61c66.26-12.22,126.26,3.37,178.21,46.28l-62.47,75.67A119.42,119.42,0,0,0,258.58,158.26Z"/><path class="grp2-cls-17" d="M172.58,464.7c-104.66-59.38-141.37-192.35-82-297C123.83,109.08,174.36,73.13,240.63,61l18,97.32A119.34,119.34,0,1,0,384.71,334.57l84.87,48.15C410.21,487.38,277.24,524.08,172.58,464.7Z"/></g></g></g><g id="grp2-line_1" data-name="Линия 1"><polyline class="grp2-cls-18" points="28.97 98.35 112.8 158.03 130.59 243.15"/><circle class="grp2-cls-19" cx="28.98" cy="98.36" r="4.17"/><circle class="grp2-cls-19" cx="112.8" cy="158.04" r="4.17"/><circle class="grp2-cls-19" cx="130.83" cy="243.02" r="4.17"/></g><g id="grp2-line_2" data-name="Линия 2"><polyline class="grp2-cls-18" points="333.94 119.74 374.14 11.39 426.76 11.39"/><circle class="grp2-cls-19" cx="333.94" cy="119.76" r="4.17" transform="translate(-19.35 152.04) rotate(-24.95)"/><circle class="grp2-cls-19" cx="374.16" cy="11.42" r="4.17" transform="translate(30.1 158.9) rotate(-24.95)"/><circle class="grp2-cls-19" cx="426.77" cy="11.41" r="4.17" transform="translate(35.01 181.09) rotate(-24.95)"/></g><g id="grp2-line_3" data-name="Линия 3"><line class="grp2-cls-18" x1="532.22" y1="111.4" x2="420.73" y2="187.91"/><circle class="grp2-cls-19" cx="532.23" cy="111.4" r="4.17" transform="translate(301.46 603.77) rotate(-76.71)"/><circle class="grp2-cls-19" cx="420.72" cy="187.9" r="4.17" transform="translate(141.13 554.16) rotate(-76.71)"/></g><g id="grp2-line_4" data-name="Линия 4"><line class="grp2-cls-18" x1="580.72" y1="251.31" x2="445.69" y2="258.37"/><circle class="grp2-cls-19" cx="580.71" cy="251.27" r="4.17" transform="translate(-7.59 484.22) rotate(-45)"/><circle class="grp2-cls-19" cx="445.67" cy="258.33" r="4.17"/></g><g id="grp2-line_5" data-name="Линия 5"><line class="grp2-cls-18" x1="581.29" y1="354.31" x2="451.43" y2="316.64"/><circle class="grp2-cls-19" cx="581.29" cy="354.34" r="4.17" transform="translate(-96.58 291.51) rotate(-26.07)"/><circle class="grp2-cls-19" cx="451.42" cy="316.64" r="4.17"/></g><g id="Линия_6" data-name="Линия 6"><polyline class="grp2-cls-18" points="437.35 351.6 558.75 411.13 533.02 480.88"/><circle class="grp2-cls-19" cx="437.37" cy="351.56" r="4.17"/><circle class="grp2-cls-19" cx="558.77" cy="411.1" r="4.17" transform="translate(-92.21 171.42) rotate(-16.13)"/><circle class="grp2-cls-19" cx="533.29" cy="480.76" r="4.17" transform="translate(-112.57 167.08) rotate(-16.13)"/></g><g id="grp2-text"><g id="_64" data-name="64"><path class="grp2-cls-19" d="M4,81.17A7,7,0,0,1,1.06,78.7,6.41,6.41,0,0,1,0,75a10.46,10.46,0,0,1,2.36-5.69l4.87-6.45a1.17,1.17,0,0,1,1-.55h3.89a.61.61,0,0,1,.61.61h0a.73.73,0,0,1-.15.35l-3.7,5.06a3.31,3.31,0,0,1,.77,0A7.56,7.56,0,0,1,13,69.2a7.37,7.37,0,0,1,2.61,2.35,5.94,5.94,0,0,1,1,3.41,6.53,6.53,0,0,1-1,3.57,7.2,7.2,0,0,1-2.89,2.58A9.31,9.31,0,0,1,8.38,82,10.43,10.43,0,0,1,4,81.17Zm6.39-4.06a3,3,0,0,0,0-4.15A3,3,0,0,0,8.3,72.2,3,3,0,0,0,6.21,73a3,3,0,0,0,0,4.17,3.08,3.08,0,0,0,2.09.74A3,3,0,0,0,10.39,77.11Z"/><path class="grp2-cls-19" d="M27.6,81.55a.66.66,0,0,1-.2-.48V78H18.79a.73.73,0,0,1-.71-.69V74.57a1.34,1.34,0,0,1,.32-.83l8.06-10.9a1.24,1.24,0,0,1,1-.46h4.23a.69.69,0,0,1,.51.19.64.64,0,0,1,.21.5V73.76h2.44a.68.68,0,0,1,.73.64v3a.73.73,0,0,1-.19.48.63.63,0,0,1-.5.2H32.44v3a.62.62,0,0,1-.21.5.69.69,0,0,1-.51.19H28A.65.65,0,0,1,27.6,81.55ZM23,73.9h4.48V67.64Z"/><path class="grp2-cls-19" d="M38.72,71.14a3.69,3.69,0,0,1-1.24-2.63V65.88a3.69,3.69,0,0,1,1.2-2.7,4.45,4.45,0,0,1,3.09-1,4.41,4.41,0,0,1,3.08,1,3.76,3.76,0,0,1,1.22,2.7v2.63a3.67,3.67,0,0,1-1.26,2.63,4.56,4.56,0,0,1-3,1A4.48,4.48,0,0,1,38.72,71.14Zm.37,10.47a.53.53,0,0,1-.19-.41.51.51,0,0,1,.11-.31L52.74,62.83a1.77,1.77,0,0,1,.41-.41,1,1,0,0,1,.55-.13h2.1a.64.64,0,0,1,.46.15.53.53,0,0,1,.19.4.52.52,0,0,1-.11.32L42.61,81.22a1.68,1.68,0,0,1-.43.41,1.06,1.06,0,0,1-.55.13H39.55A.69.69,0,0,1,39.09,81.61Zm3.52-12.34a1.54,1.54,0,0,0,.31-.92V66a1.64,1.64,0,0,0-.31-1,1.08,1.08,0,0,0-.91-.37c-.74,0-1.15.44-1.22,1.33v2.32a1.69,1.69,0,0,0,.35.94,1,1,0,0,0,.87.35A1.08,1.08,0,0,0,42.61,69.27Zm8,11.64a3.77,3.77,0,0,1-1.24-2.63V75.66a3.87,3.87,0,0,1,1.22-2.72,5.27,5.27,0,0,1,6.17,0A3.72,3.72,0,0,1,58,75.66v2.62a3.72,3.72,0,0,1-1.24,2.66,4.94,4.94,0,0,1-6.1,0Zm3.91-1.86a1.76,1.76,0,0,0,.35-1V75.77a1.69,1.69,0,0,0-.35-.94,1,1,0,0,0-.87-.35,1.1,1.1,0,0,0-.91.37,1.54,1.54,0,0,0-.31.92v2.32a1.64,1.64,0,0,0,.31,1,1.07,1.07,0,0,0,.91.37,1,1,0,0,0,.91-.4Z"/></g><g id="_14" data-name="14"><path class="grp2-cls-19" d="M445.79,21.15a.75.75,0,0,1-.22-.53V6.47l-4.05,3.11a.79.79,0,0,1-.44.16.77.77,0,0,1-.65-.36L438.55,7a.93.93,0,0,1-.12-.46.81.81,0,0,1,.32-.67l7-5.46a1.27,1.27,0,0,1,.69-.2h4a.8.8,0,0,1,.57.2.7.7,0,0,1,.22.55V20.62a.7.7,0,0,1-.22.55.8.8,0,0,1-.57.2h-4.17A.7.7,0,0,1,445.79,21.15Z"/><path class="grp2-cls-19" d="M464.43,21.15a.75.75,0,0,1-.22-.53V17.29h-9.4a.79.79,0,0,1-.75-.75V13.46a1.52,1.52,0,0,1,.34-.91L463.18.67a1.36,1.36,0,0,1,1.15-.51h4.61a.8.8,0,0,1,.57.2.7.7,0,0,1,.22.55V12.6h2.69a.73.73,0,0,1,.78.7.13.13,0,0,1,0,.06v3.18a.73.73,0,0,1-.21.52.74.74,0,0,1-.54.23h-2.69v3.33a.7.7,0,0,1-.22.55.8.8,0,0,1-.57.2h-4A.69.69,0,0,1,464.43,21.15Zm-5-8.35h4.89V6.06Z"/><path class="grp2-cls-19" d="M476.46,9.8a4,4,0,0,1-1.35-2.87V4.06a4,4,0,0,1,1.35-3,5.75,5.75,0,0,1,6.73,0,4.13,4.13,0,0,1,1.36,3V6.91a4,4,0,0,1-1.38,2.87,5.88,5.88,0,0,1-6.71,0Zm.41,11.43a.55.55,0,0,1-.21-.45.54.54,0,0,1,.12-.34L491.87.73a2.08,2.08,0,0,1,.44-.45,1.19,1.19,0,0,1,.61-.14h2.28a.76.76,0,0,1,.51.16.55.55,0,0,1,.2.45.54.54,0,0,1-.12.34l-15,19.71a1.83,1.83,0,0,1-.47.45,1.13,1.13,0,0,1-.6.14h-2.27a.77.77,0,0,1-.5-.18Zm3.88-13.47a1.8,1.8,0,0,0,.34-1V4.22a1.83,1.83,0,0,0-.34-1,1.21,1.21,0,0,0-1-.4c-.81,0-1.26.48-1.34,1.45V6.75a1.81,1.81,0,0,0,.39,1,1.47,1.47,0,0,0,2,0Zm8.69,12.7a4,4,0,0,1-1.37-2.91V14.7a4.15,4.15,0,0,1,1.33-3,5.72,5.72,0,0,1,6.73,0,4,4,0,0,1,1.3,3v2.85a4,4,0,0,1-1.36,2.91,4.8,4.8,0,0,1-3.29,1.09,4.89,4.89,0,0,1-3.24-1.11Zm4.29-2a2,2,0,0,0,.38-1.05V14.86a1.94,1.94,0,0,0-.38-1,1.18,1.18,0,0,0-1-.39,1.16,1.16,0,0,0-1,.41,1.74,1.74,0,0,0-.35,1v2.53a1.77,1.77,0,0,0,.35,1.05,1.45,1.45,0,0,0,2,0Z"/></g><g id="_10" data-name="10"><path id="grp2_1" data-name="1" class="grp2-cls-19" d="M554.68,119.68a.69.69,0,0,1-.22-.52v-14l-4,3.07a.82.82,0,0,1-.46.16.74.74,0,0,1-.61-.36l-1.86-2.39a.93.93,0,0,1-.12-.46.78.78,0,0,1,.32-.66l6.95-5.37a1.14,1.14,0,0,1,.69-.2h4a.79.79,0,0,1,.56.2.72.72,0,0,1,.21.54v19.46a.72.72,0,0,1-.21.54.79.79,0,0,1-.56.2h-4.18A.72.72,0,0,1,554.68,119.68Z"/><path id="_0" data-name="0" class="grp2-cls-19" d="M565.91,118a8.43,8.43,0,0,1-2.35-5.65v-5.9a8.81,8.81,0,0,1,1.12-4,7.13,7.13,0,0,1,2.91-2.77,11,11,0,0,1,9.26,0,7.15,7.15,0,0,1,2.92,2.69,8.93,8.93,0,0,1,1.11,4v5.9a8.41,8.41,0,0,1-2.37,5.69,10.18,10.18,0,0,1-12.6,0Zm8.39-3.25a4.6,4.6,0,0,0,.76-2.6v-5.56a4.61,4.61,0,0,0-.72-2.56,2.44,2.44,0,0,0-2-.94q-2.7,0-2.85,3.5v5.56q.13,3.5,2.85,3.5a2.47,2.47,0,0,0,2-.88Z"/><path id="_" data-name="%" class="grp2-cls-19" d="M584.94,108.36a4,4,0,0,1-1.34-2.83v-2.84a4,4,0,0,1,1.3-2.91,5.64,5.64,0,0,1,6.64,0,4.08,4.08,0,0,1,1.32,2.91v2.84a4,4,0,0,1-1.36,2.83,4.89,4.89,0,0,1-3.27,1A4.82,4.82,0,0,1,584.94,108.36Zm.4,11.28a.51.51,0,0,1-.2-.44.49.49,0,0,1,.12-.34L600.05,99.4a1.84,1.84,0,0,1,.44-.44,1.12,1.12,0,0,1,.59-.14h2.26a.75.75,0,0,1,.5.16.57.57,0,0,1,.08.78l-14.79,19.46a2.13,2.13,0,0,1-.46.44,1.13,1.13,0,0,1-.6.14h-2.24a.76.76,0,0,1-.49-.08Zm3.83-13.27a1.79,1.79,0,0,0,.34-1v-2.5a1.79,1.79,0,0,0-.34-1,1.14,1.14,0,0,0-1-.39c-.8,0-1.24.47-1.32,1.43v2.5a1.9,1.9,0,0,0,.38,1,1.38,1.38,0,0,0,1.92,0Zm8.6,12.53a4,4,0,0,1-1.36-2.87v-2.82a4.15,4.15,0,0,1,1.32-2.93,5.66,5.66,0,0,1,6.65,0,4,4,0,0,1,1.3,2.93V116a4,4,0,0,1-1.34,2.87,4.77,4.77,0,0,1-3.28,1.08,4.84,4.84,0,0,1-3.29-1Zm4.21-2a2,2,0,0,0,.38-1v-2.5a1.83,1.83,0,0,0-.38-1A1.17,1.17,0,0,0,601,112a1.15,1.15,0,0,0-1,.4,1.65,1.65,0,0,0-.34,1v2.5a1.79,1.79,0,0,0,.34,1,1.12,1.12,0,0,0,1,.39A1.1,1.1,0,0,0,602,117Z"/></g><g id="grp2-bl5" data-name="5"><path id="grp2_2" data-name=";" class="grp2-cls-19" d="M600,261.22a7,7,0,0,1-2.95-2.29,5.74,5.74,0,0,1-1.05-3.15.62.62,0,0,1,.62-.62h4.24a1,1,0,0,1,1,.58,3,3,0,0,0,1.12,1.43,3.19,3.19,0,0,0,1.75.46,3,3,0,0,0,2.13-.77,2.82,2.82,0,0,0,.86-2.17,2.69,2.69,0,0,0-.84-2,2.94,2.94,0,0,0-2.15-.81,2.87,2.87,0,0,0-1.19.2,3.67,3.67,0,0,0-.88.51,1.26,1.26,0,0,1-.78.36h-4.16a.66.66,0,0,1-.66-.66h0l1.1-10.47a.88.88,0,0,1,.32-.66,1,1,0,0,1,.68-.24h12.11a.72.72,0,0,1,.75.68v3.07a.7.7,0,0,1-.22.51.66.66,0,0,1-.53.22h-8.71l-.36,3.69a5.34,5.34,0,0,1,1.62-.76,8.68,8.68,0,0,1,2.33-.26,7.84,7.84,0,0,1,3.58.86,6.74,6.74,0,0,1,2.67,2.41,6.44,6.44,0,0,1,1,3.54,6.89,6.89,0,0,1-1.06,3.75,7,7,0,0,1-3,2.59,10.76,10.76,0,0,1-4.68.93A11.53,11.53,0,0,1,600,261.22Z"/><path id="grp2_3" data-name="%" class="grp2-cls-19" d="M617,250.34a4,4,0,0,1-1.33-2.83v-2.82a4,4,0,0,1,1.29-2.91,5.67,5.67,0,0,1,6.64,0,4.11,4.11,0,0,1,1.31,2.91v2.82a4,4,0,0,1-1.35,2.83,4.89,4.89,0,0,1-3.27,1A4.82,4.82,0,0,1,617,250.34Zm.4,11.26a.57.57,0,0,1-.2-.44.56.56,0,0,1,.08-.38L632,241.36a1.84,1.84,0,0,1,.44-.44,1.13,1.13,0,0,1,.6-.14h2.25a.77.77,0,0,1,.5.16.59.59,0,0,1,.08.78L621.24,261.2a2.13,2.13,0,0,1-.46.44,1.13,1.13,0,0,1-.6.14H618a.76.76,0,0,1-.58-.18Zm3.83-13.27a1.7,1.7,0,0,0,.33-1v-2.49a1.81,1.81,0,0,0-.33-1,1.19,1.19,0,0,0-1-.4q-1.2,0-1.32,1.44v2.49a2,2,0,0,0,.38,1,1.13,1.13,0,0,0,.94.38,1.15,1.15,0,0,0,1-.4Zm8.56,12.51a4,4,0,0,1-1.35-2.87v-2.81a4.06,4.06,0,0,1,1.31-2.92,5.63,5.63,0,0,1,6.63,0,4,4,0,0,1,1.28,2.92V258a4,4,0,0,1-1.34,2.87,4.76,4.76,0,0,1-3.24,1.08,4.88,4.88,0,0,1-3.27-1.14Zm4.22-2a1.94,1.94,0,0,0,.38-1v-2.49a1.77,1.77,0,0,0-.38-1,1.1,1.1,0,0,0-.93-.38,1.15,1.15,0,0,0-1,.4,1.74,1.74,0,0,0-.34,1v2.49a1.77,1.77,0,0,0,.34,1,1.17,1.17,0,0,0,1,.4,1.09,1.09,0,0,0,.93-.46Z"/></g><g id="_5-2" data-name="5"><path id="_5-3" data-name="5" class="grp2-cls-19" d="M598.85,364.1a6.86,6.86,0,0,1-3-2.29,5.75,5.75,0,0,1-1.06-3.15.61.61,0,0,1,.62-.61h4.24a1,1,0,0,1,1,.57,3.16,3.16,0,0,0,1.11,1.44,3.2,3.2,0,0,0,1.76.46,3.1,3.1,0,0,0,2.13-.78,2.82,2.82,0,0,0,.86-2.17,2.76,2.76,0,0,0-.84-2,3,3,0,0,0-2.15-.82,3.06,3.06,0,0,0-1.2.2,3.86,3.86,0,0,0-.87.52,1.44,1.44,0,0,1-.78.36h-4.16a.66.66,0,0,1-.66-.66h0L597,344.7a1,1,0,0,1,.32-.66,1,1,0,0,1,.68-.24h12.11a.72.72,0,0,1,.76.68v3.07a.74.74,0,0,1-.22.52.77.77,0,0,1-.54.22h-8.7L601,352a5.29,5.29,0,0,1,1.61-.76A8.72,8.72,0,0,1,605,351a7.72,7.72,0,0,1,3.59.85,6.81,6.81,0,0,1,2.67,2.41,6.44,6.44,0,0,1,1,3.55,6.87,6.87,0,0,1-1.05,3.74,7,7,0,0,1-3,2.59,10.77,10.77,0,0,1-4.68.94A11.37,11.37,0,0,1,598.85,364.1Z"/><path id="grpp2_4" data-name="%" class="grp2-cls-19" d="M615.78,353.23a4,4,0,0,1-1.34-2.83v-2.83a4,4,0,0,1,1.3-2.91,5.66,5.66,0,0,1,6.63,0,4.08,4.08,0,0,1,1.32,2.91v2.83a4,4,0,0,1-1.36,2.83,4.94,4.94,0,0,1-3.27,1A4.86,4.86,0,0,1,615.78,353.23Zm.4,11.25a.51.51,0,0,1-.2-.44.47.47,0,0,1,.08-.38l14.76-19.42a2.24,2.24,0,0,1,.43-.44,1.15,1.15,0,0,1,.6-.14h2.25a.81.81,0,0,1,.5.16.54.54,0,0,1,.2.44.5.5,0,0,1-.12.34L620,364.08a1.92,1.92,0,0,1-.46.44,1.13,1.13,0,0,1-.6.14h-2.23a.73.73,0,0,1-.57-.18ZM620,351.21a1.74,1.74,0,0,0,.34-1v-2.49a1.77,1.77,0,0,0-.34-1,1.17,1.17,0,0,0-1-.4c-.79,0-1.23.48-1.31,1.44v2.49a1.77,1.77,0,0,0,.38,1,1.1,1.1,0,0,0,.93.38,1.13,1.13,0,0,0,1-.4Zm8.57,12.51a4,4,0,0,1-1.36-2.87v-2.8a4.13,4.13,0,0,1,1.32-2.93,5.66,5.66,0,0,1,6.63,0,4,4,0,0,1,1.27,2.93v2.8a4,4,0,0,1-1.33,2.87,5.33,5.33,0,0,1-6.51-.06Zm4.22-2a2,2,0,0,0,.38-1v-2.49a2,2,0,0,0-.38-1,1.12,1.12,0,0,0-.94-.38,1.15,1.15,0,0,0-1,.4,1.65,1.65,0,0,0-.34,1v2.49a1.74,1.74,0,0,0,.34,1,1.15,1.15,0,0,0,1,.4,1.12,1.12,0,0,0,.94-.46Z"/></g><g id="_2-2" data-name="2"><path id="_2-3" data-name="2" class="grp2-cls-19" d="M513.25,516.25a.67.67,0,0,1-.21-.5v-2.18a1.78,1.78,0,0,1,.74-1.46l2.7-2.66q2.78-2.1,4.18-3.26a14.37,14.37,0,0,0,2.15-2.12,3,3,0,0,0,.74-1.79,2,2,0,0,0-1.7-2.16,1.77,1.77,0,0,0-.46,0,2.23,2.23,0,0,0-1.74.68,3.5,3.5,0,0,0-.82,1.71.89.89,0,0,1-1,.66H514a.64.64,0,0,1-.45-.19.57.57,0,0,1-.19-.43,6.74,6.74,0,0,1,1.07-3.48,7.06,7.06,0,0,1,2.82-2.49,9.19,9.19,0,0,1,4.16-.91,10.39,10.39,0,0,1,4.23.78,5.83,5.83,0,0,1,3.62,5.54,6.07,6.07,0,0,1-1.3,3.79,20.51,20.51,0,0,1-3.89,3.67l-2.43,2.43H529a.69.69,0,0,1,.73.66.11.11,0,0,1,0,.08v3.11a.71.71,0,0,1-.21.51.69.69,0,0,1-.52.21H513.76A.74.74,0,0,1,513.25,516.25Z"/><path id="_5-4" data-name="%" class="grp2-cls-19" d="M533.35,505.39a3.89,3.89,0,0,1-1.3-2.76v-2.76a3.87,3.87,0,0,1,1.24-2.84,5.51,5.51,0,0,1,6.47,0,4,4,0,0,1,1.29,2.84v2.76a3.92,3.92,0,0,1-1.33,2.76,5.53,5.53,0,0,1-6.37,0Zm.39,11a.54.54,0,0,1-.2-.43.52.52,0,0,1,.12-.33l14.4-18.95a2.19,2.19,0,0,1,.43-.43,1.08,1.08,0,0,1,.58-.13h2.2a.73.73,0,0,1,.49.15.56.56,0,0,1,.19.43.5.5,0,0,1-.12.33l-14.4,19a1.76,1.76,0,0,1-.43.43,1.08,1.08,0,0,1-.58.14h-2.18A.7.7,0,0,1,533.74,516.37Zm3.73-12.94a1.75,1.75,0,0,0,.33-1V500a1.77,1.77,0,0,0-.33-1,1.11,1.11,0,0,0-1-.38c-.78,0-1.21.46-1.29,1.39v2.43a2,2,0,0,0,.37,1,1.13,1.13,0,0,0,.92.36A1.11,1.11,0,0,0,537.47,503.43Zm8.38,12.2a3.91,3.91,0,0,1-1.33-2.8v-2.74a4,4,0,0,1,1.29-2.85,5.51,5.51,0,0,1,6.47,0,3.87,3.87,0,0,1,1.26,2.85v2.74a3.88,3.88,0,0,1-1.3,2.8,5.35,5.35,0,0,1-6.39,0Zm4.1-1.94a2.07,2.07,0,0,0,.37-1v-2.43a1.77,1.77,0,0,0-.37-1,1.1,1.1,0,0,0-.92-.37,1.12,1.12,0,0,0-.95.39,1.69,1.69,0,0,0-.33,1v2.43a1.74,1.74,0,0,0,.33,1,1.15,1.15,0,0,0,.95.39,1.13,1.13,0,0,0,.92-.43Z"/></g></g></g></g></svg>