<svg xmlns="http://www.w3.org/2000/svg" xmlns:xlink="http://www.w3.org/1999/xlink" viewBox="0 0 674.69 562.01"><defs><style>.grp-cls-1,.grp-cls-2,.grp-cls-3{opacity:0.12;isolation:isolate;}.grp-cls-1{fill:url(#grp1-grad_3);}.grp-cls-2{fill:url(#grp1-grad_3-2);}.grp-cls-3{fill:url(#grp1-grad_3-3);}.grp-cls-4{opacity:0.39;}.grp-cls-5{fill:url(#grp1-grad_10);}.grp-cls-6{opacity:0.35;}.grp-cls-7{fill:url(#grp1-grad_12);}.grp-cls-8{opacity:0.52;}.grp-cls-9{fill:url(#grp1-grad_9);}.grp-cls-10{opacity:0.4;}.grp-cls-11{fill:url(#grp1-grad_11);}.grp-cls-12{opacity:0.24;}.grp-cls-13{fill:url(#grp1-grad_13);}.grp-cls-14{fill:url(#grp1-grad_9-2);}.grp-cls-15{fill:url(#grp1-grad_10-2);}.grp-cls-16{fill:url(#grp1-grad_11-2);}.grp-cls-17{fill:url(#grp1-grad_12-2);}.grp-cls-18{fill:url(#grp1-grad_13-2);}.grp-cls-19{fill:none;stroke:#fff;stroke-linecap:round;stroke-linejoin:round;stroke-width:3px;}.grp-cls-20{fill:#fff;}</style><linearGradient id="grp1-grad_3" x1="133.45" y1="360.6" x2="632.64" y2="360.6" gradientTransform="matrix(1, 0, 0, -1, 0, 665.8)" gradientUnits="userSpaceOnUse"><stop offset="0" stop-color="#a9ffd9"/><stop offset="1" stop-color="#87f4ca"/></linearGradient><linearGradient id="grp1-grad_3-2" x1="142.54" y1="360.6" x2="623.54" y2="360.6" xlink:href="#grp1-grad_3"/><linearGradient id="grp1-grad_3-3" x1="153.04" y1="360.6" x2="613.04" y2="360.6" xlink:href="#grp1-grad_3"/><linearGradient id="grp1-grad_10" x1="290.77" y1="396.5" x2="162.72" y2="647.43" gradientTransform="matrix(1, 0, 0, -1, 0, 665.8)" gradientUnits="userSpaceOnUse"><stop offset="0" stop-color="#a592e3"/><stop offset="1" stop-color="#81cfc3"/></linearGradient><linearGradient id="grp1-grad_12" x1="271.01" y1="83.94" x2="437.94" y2="442.33" gradientTransform="matrix(1, 0, 0, -1, 0, 665.8)" gradientUnits="userSpaceOnUse"><stop offset="0" stop-color="#318c8a"/><stop offset="1" stop-color="#31d974"/></linearGradient><linearGradient id="grp1-grad_9" x1="364.18" y1="387.93" x2="323.56" y2="636.3" gradientTransform="matrix(1, 0, 0, -1, 0, 665.8)" gradientUnits="userSpaceOnUse"><stop offset="0" stop-color="#315690"/><stop offset="1" stop-color="#75a6e5"/></linearGradient><linearGradient id="grp1-grad_11" x1="389.13" y1="322.92" x2="-54.47" y2="442.7" gradientTransform="matrix(1, 0, 0, -1, 0, 665.8)" gradientUnits="userSpaceOnUse"><stop offset="0" stop-color="#3173a6"/><stop offset="1" stop-color="#31e3cc"/></linearGradient><linearGradient id="grp1-grad_13" x1="455.61" y1="389.21" x2="672.93" y2="518.6" gradientTransform="matrix(1, 0, 0, -1, 0, 665.8)" gradientUnits="userSpaceOnUse"><stop offset="0" stop-color="#31a9a6"/><stop offset="1" stop-color="#31e3a6"/></linearGradient><linearGradient id="grp1-grad_9-2" x1="366.66" y1="378.66" x2="325.99" y2="627.32" xlink:href="#grp1-grad_9"/><linearGradient id="grp1-grad_10-2" x1="299.82" y1="393.7" x2="184.49" y2="619.7" xlink:href="#grp1-grad_10"/><linearGradient id="grp1-grad_11-2" x1="389.63" y1="325.35" x2="-35.04" y2="440.01" xlink:href="#grp1-grad_11"/><linearGradient id="grp1-grad_12-2" x1="287.71" y1="128.98" x2="428.38" y2="430.98" xlink:href="#grp1-grad_12"/><linearGradient id="grp1-grad_13-2" x1="450.45" y1="385.98" x2="653.11" y2="506.65" xlink:href="#grp1-grad_13"/></defs><g id="lay-bg_2" data-name="Слой 2"><g id="Текст"><g id="Блюр" class="scal"><g id="Блюр-2"><g id="Blur_3" data-name="Blur 3" class="scal"><path id="Blick_5" data-name="Blick 5" class="grp-cls-1" d="M383,55.62c-137.84,0-249.59,111.75-249.59,249.59S245.21,554.8,383,554.8s249.6-111.75,249.6-249.59S520.89,55.62,383,55.62Zm0,362A112.4,112.4,0,1,1,495.46,305.21,112.4,112.4,0,0,1,383,417.62Z"/></g><g id="Blur_2" data-name="Blur 2" class="scal"><path id="Blick_4" data-name="Blick 4" class="grp-cls-2" d="M383,64.71c-132.82,0-240.5,107.68-240.5,240.5S250.23,545.71,383,545.71,623.54,438,623.54,305.21,515.87,64.71,383,64.71Zm0,348.78a108.31,108.31,0,1,1,108.32-108.3h0A108.31,108.31,0,0,1,383,413.49Z"/></g><g id="Blur_1" data-name="Blur 1" class="scal"><path id="Blick_3" data-name="Blick 3" class="grp-cls-3" d="M383,75.21c-127,0-230,103-230,230s103,230,230,230,230-103,230-230S510,75.21,383,75.21Zm0,333.58A103.58,103.58,0,1,1,486.63,305.21,103.58,103.58,0,0,1,383,408.79Z"/></g></g></g><g id="Диограма" class="scal"><g id="Layer_2-2" data-name="Layer 2-2"><g id="Диограма-2"><g id="Layer_2-2-2" data-name="Layer 2-2-2"><g id="Blick_1" data-name="Blick 1"><g class="grp-cls-4"><path class="grp-cls-5" d="M325.69,185a131.38,131.38,0,0,0-58.27,56.25l-97.83-52.05C194.69,142,229.1,108.73,277.14,85.27Z"/></g><g class="grp-cls-6"><path class="grp-cls-7" d="M525,520.27C405.21,598,245.07,564,167.3,444.27a256,256,0,0,1-29.06-61l112.7-36.62a140.08,140.08,0,0,0,209.52,74.17Z"/></g><g class="grp-cls-8"><path class="grp-cls-9" d="M383,75.21v99.88A128.72,128.72,0,0,0,328.64,187l-46-89.75A234.67,234.67,0,0,1,383,75.21Z"/></g><g class="grp-cls-10"><path class="grp-cls-11" d="M259,303a123,123,0,0,0,6,38.1L165.8,373.27c-20.2-62.16-15.19-119.47,15.5-177.18l92.1,49A122.56,122.56,0,0,0,259,303Z"/></g><g class="grp-cls-12"><path class="grp-cls-13" d="M617,300.62c0,82.58-37.13,151-106.4,195.94l-58.32-89.84a126.54,126.54,0,0,0-68.92-232.66V67C512.36,67,617,171.57,617,300.62Z"/></g></g><g id="Body"><path class="grp-cls-14" d="M383,84.33v99.88a117.31,117.31,0,0,0-51.74,11.93l-43.76-89.75A214.1,214.1,0,0,1,383,84.33Z"/><path class="grp-cls-15" d="M331.31,196.14a118.34,118.34,0,0,0-52.46,50.66l-88.16-46.88c22.59-42.49,53.6-72.44,96.86-93.53Z"/><path class="grp-cls-16" d="M265,302.21a117.65,117.65,0,0,0,5.76,36.47l-95,30.86C156.45,310,161.29,255.17,190.69,199.92l88.17,46.88A117.28,117.28,0,0,0,265,302.21Z"/><path class="grp-cls-17" d="M501.69,484.94c-100.91,65.55-235.85,36.85-301.39-64.07a215.93,215.93,0,0,1-24.48-51.33l95-30.86a118,118,0,0,0,176.51,62.5Z"/><path class="grp-cls-18" d="M600.93,302.21c0,77-34.63,140.78-99.22,182.73l-54.39-83.76a118,118,0,0,0-64.27-217V84.33C503.38,84.33,600.93,181.88,600.93,302.21Z"/></g></g></g></g></g><g id="_5" data-name=" 5"><g id="Линия_5" data-name="Линия 5"><polyline class="grp-cls-19" points="640.79 131.02 626.21 232.86 558.73 287.72"/><circle class="grp-cls-20" cx="640.8" cy="131.01" r="4.17" transform="translate(178.92 594.1) rotate(-56.63)"/><circle class="grp-cls-20" cx="626.22" cy="232.87" r="4.17" transform="translate(87.29 627.76) rotate(-56.63)"/><circle class="grp-cls-20" cx="558.95" cy="287.87" r="4.17"/></g></g><g id="_4" data-name=" 4"><g id="Линия_4" data-name="Линия 4"><polyline class="grp-cls-19" points="347.89 119 388.09 10.65 440.71 10.65"/><circle class="grp-cls-20" cx="347.89" cy="119.02" r="4.17" transform="translate(-17.74 157.86) rotate(-24.95)"/><circle class="grp-cls-20" cx="388.11" cy="10.66" r="4.17" transform="translate(31.72 164.71) rotate(-24.95)"/><circle class="grp-cls-20" cx="440.72" cy="10.67" r="4.17" transform="translate(36.63 186.9) rotate(-24.95)"/></g></g><g id="grp-bg_3" data-name=" 3"><g id="Линия_3" data-name="Линия 3"><line class="grp-cls-19" x1="277.68" y1="193.4" x2="173.75" y2="106.9"/><circle class="grp-cls-20" cx="277.68" cy="193.39" r="4.17"/><circle class="grp-cls-20" cx="173.75" cy="106.88" r="4.17"/></g></g><g id="_2" data-name=" 2"><g id="Линия_2" data-name="Линия 2"><polyline class="grp-cls-19" points="218.6 296.21 83.53 302.7 72.39 229.2"/><circle class="grp-cls-20" cx="218.6" cy="296.21" r="4.17" transform="translate(-145.43 241.33) rotate(-45)"/><circle class="grp-cls-20" cx="83.53" cy="302.68" r="4.17" transform="translate(-189.56 147.72) rotate(-45)"/><circle class="grp-cls-20" cx="72.22" cy="229.37" r="4.17"/></g></g><g id="_1" data-name=" 1"><g id="Линия_1" data-name="Линия 1"><polyline class="grp-cls-19" points="304.46 445.62 213.54 545.7 153.69 501.62"/><circle class="grp-cls-20" cx="304.46" cy="445.62" r="4.17"/><circle class="grp-cls-20" cx="213.53" cy="545.71" r="4.17"/><circle class="grp-cls-20" cx="153.69" cy="501.88" r="4.17"/></g></g><g id="Текст-2" data-name="Текст"><path class="grp-cls-20" d="M75.62,511.41a.68.68,0,0,1-.21-.48v-2.06a1.69,1.69,0,0,1,.73-1.38L78.78,505q2.72-2,4.08-3.09a13.77,13.77,0,0,0,2.11-2,2.75,2.75,0,0,0,.72-1.69,1.85,1.85,0,0,0-1.66-2,3.38,3.38,0,0,0-.45,0,2.22,2.22,0,0,0-1.71.65,3.22,3.22,0,0,0-.79,1.61.89.89,0,0,1-1,.65h-3.8a.64.64,0,0,1-.44-.19.53.53,0,0,1-.19-.4,6.24,6.24,0,0,1,1-3.29,6.92,6.92,0,0,1,2.76-2.35,9.1,9.1,0,0,1,4.08-.86,10.5,10.5,0,0,1,4.15.75A5.51,5.51,0,0,1,91.24,498,5.65,5.65,0,0,1,90,501.64a19.9,19.9,0,0,1-3.8,3.47l-2.38,2.29H91a.67.67,0,0,1,.72.63.09.09,0,0,1,0,.07v3a.64.64,0,0,1-.19.48.73.73,0,0,1-.51.2H76.12A.73.73,0,0,1,75.62,511.41Z"/><path class="grp-cls-20" d="M97.49,511.52a.63.63,0,0,1-.17-.43.66.66,0,0,1,.11-.36l4-5.27a3.22,3.22,0,0,1-.76,0,8.44,8.44,0,0,1-3.3-.92,6.83,6.83,0,0,1-2.64-2.21,5.68,5.68,0,0,1-1-3.28,6.4,6.4,0,0,1,1-3.4A6.86,6.86,0,0,1,97.49,493a9.77,9.77,0,0,1,4.49-1,10.84,10.84,0,0,1,4.56.88,6.64,6.64,0,0,1,2.88,2.41,6.17,6.17,0,0,1,1,3.43,6.06,6.06,0,0,1-.64,2.77,21.08,21.08,0,0,1-1.9,2.94l-.52.7-4.46,5.9a1.23,1.23,0,0,1-1,.55h-4A.6.6,0,0,1,97.49,511.52ZM104.2,501a2.88,2.88,0,0,0,0-4,3.2,3.2,0,0,0-4.12,0,2.9,2.9,0,0,0,0,4,3.26,3.26,0,0,0,4.14,0Z"/><path class="grp-cls-20" d="M113.68,501.1a3.58,3.58,0,0,1-1.27-2.6v-2.61a3.58,3.58,0,0,1,1.23-2.68,5.55,5.55,0,0,1,6.33,0,3.67,3.67,0,0,1,1.25,2.68v2.61a3.6,3.6,0,0,1-1.29,2.6,4.77,4.77,0,0,1-3.12,1A4.7,4.7,0,0,1,113.68,501.1Zm.38,10.38a.47.47,0,0,1-.19-.4.52.52,0,0,1,.11-.32l14.08-17.9a2,2,0,0,1,.42-.41,1.11,1.11,0,0,1,.57-.12h2.15a.71.71,0,0,1,.47.14.48.48,0,0,1,.19.41.51.51,0,0,1-.11.31l-14.08,17.9a1.72,1.72,0,0,1-.44.41,1.11,1.11,0,0,1-.57.13h-2.07a.76.76,0,0,1-.53-.11Zm3.65-12.23a1.63,1.63,0,0,0,.32-.92V496a1.58,1.58,0,0,0-.32-1,1.12,1.12,0,0,0-.93-.37c-.76,0-1.18.44-1.26,1.33v2.29a1.71,1.71,0,0,0,.36.94,1.12,1.12,0,0,0,.9.37,1.14,1.14,0,0,0,.93-.41Zm8.19,11.53a3.66,3.66,0,0,1-1.3-2.64v-2.59a3.77,3.77,0,0,1,1.26-2.7,5.55,5.55,0,0,1,6.33,0,3.61,3.61,0,0,1,1.23,2.7v2.59a3.63,3.63,0,0,1-1.27,2.64,4.61,4.61,0,0,1-3.12,1,4.69,4.69,0,0,1-3.13-1Zm4-1.83a1.85,1.85,0,0,0,.36-1V505.7a1.71,1.71,0,0,0-.36-.94,1.14,1.14,0,0,0-.9-.37,1.12,1.12,0,0,0-.93.37,1.53,1.53,0,0,0-.32.92V508a1.58,1.58,0,0,0,.32,1,1.12,1.12,0,0,0,.93.36,1.09,1.09,0,0,0,.9-.38Z"/><path class="grp-cls-20" d="M6.91,239.08a.67.67,0,0,1-.21-.49V225.34l-3.79,2.92a.8.8,0,0,1-.43.15.75.75,0,0,1-.59-.34L.13,225.8a.87.87,0,0,1-.13-.5.72.72,0,0,1,.3-.62l6.59-5.05a1.11,1.11,0,0,1,.66-.19h3.8a.72.72,0,0,1,.53.19.63.63,0,0,1,.21.51v18.41a.63.63,0,0,1-.21.51.72.72,0,0,1-.53.19H7.4A.67.67,0,0,1,6.91,239.08Z"/><path class="grp-cls-20" d="M18.47,238.7a6.65,6.65,0,0,1-2.78-2.14,4.83,4.83,0,0,1-.95-2.55.6.6,0,0,1,.19-.44.66.66,0,0,1,.44-.17h3.91a1,1,0,0,1,.53.14,1.15,1.15,0,0,1,.38.41q.54,1.38,3,1.38a3.18,3.18,0,0,0,2.16-.66,2.2,2.2,0,0,0,.76-1.76c0-1.41-.95-2.12-2.84-2.12H20.06a.72.72,0,0,1-.74-.7v-1.7a1.12,1.12,0,0,1,.47-1l4.58-3.78H16.54a.72.72,0,0,1-.7-.7v-2.8a.72.72,0,0,1,.19-.53.66.66,0,0,1,.51-.21H29.79a.64.64,0,0,1,.49.23.72.72,0,0,1,.19.53v2.51a1.08,1.08,0,0,1-.46,1l-4.2,3.78H26a7.38,7.38,0,0,1,4.07,1.76,5.22,5.22,0,0,1,1.5,4,5.42,5.42,0,0,1-1.1,3.33,7,7,0,0,1-3,2.19,11.57,11.57,0,0,1-4.35.76A11.31,11.31,0,0,1,18.47,238.7Z"/><path class="grp-cls-20" d="M35.05,228.45a3.81,3.81,0,0,1-1.27-2.69v-2.69A3.77,3.77,0,0,1,35,220.31a4.54,4.54,0,0,1,3.16-1,4.52,4.52,0,0,1,3.14,1,3.87,3.87,0,0,1,1.25,2.76v2.69a3.8,3.8,0,0,1-1.29,2.69,4.62,4.62,0,0,1-3.1,1A4.56,4.56,0,0,1,35.05,228.45Zm.38,10.69a.49.49,0,0,1-.19-.42.46.46,0,0,1,.11-.32l14-18.45a2.09,2.09,0,0,1,.42-.42,1.11,1.11,0,0,1,.57-.13h2.13a.73.73,0,0,1,.5.23.53.53,0,0,1,.19.41.47.47,0,0,1-.12.32L39,238.82a1.72,1.72,0,0,1-.44.41,1,1,0,0,1-.56.13H36a.73.73,0,0,1-.52-.22Zm3.63-12.61a1.59,1.59,0,0,0,.32-.94v-2.37a1.64,1.64,0,0,0-.32-1,1.1,1.1,0,0,0-.93-.38c-.76,0-1.17.45-1.25,1.36v2.37a1.77,1.77,0,0,0,.36,1,1.06,1.06,0,0,0,.89.36,1.09,1.09,0,0,0,.95-.38Zm8.25,11.87A3.81,3.81,0,0,1,46,235.67V233a4,4,0,0,1,1.25-2.79,4.59,4.59,0,0,1,3.16-1,4.56,4.56,0,0,1,3.16,1A3.8,3.8,0,0,1,54.82,233v2.66a3.77,3.77,0,0,1-1.27,2.73,4.52,4.52,0,0,1-3.1,1A4.57,4.57,0,0,1,47.31,238.4Zm4-1.89a1.86,1.86,0,0,0,.36-1v-2.36a1.72,1.72,0,0,0-.36-1,1.1,1.1,0,0,0-.89-.36,1.08,1.08,0,0,0-.92.38,1.66,1.66,0,0,0-.33.95v2.36a1.75,1.75,0,0,0,.33,1,1.11,1.11,0,0,0,.92.38,1.08,1.08,0,0,0,.82-.4Z"/><path class="grp-cls-20" d="M105.63,117.17a.71.71,0,0,1-.22-.52v-14l-4,3.08a1,1,0,0,1-.46.16.79.79,0,0,1-.62-.36l-1.86-2.4a.93.93,0,0,1-.12-.46.79.79,0,0,1,.32-.66l6.95-5.37a1.15,1.15,0,0,1,.7-.2h4a.82.82,0,0,1,.56.2.7.7,0,0,1,.22.54v19.46a.68.68,0,0,1-.22.54.78.78,0,0,1-.56.2h-4.17A.69.69,0,0,1,105.63,117.17Z"/><path class="grp-cls-20" d="M116.87,115.5a8.44,8.44,0,0,1-2.36-5.65v-5.91a8.86,8.86,0,0,1,1.12-4,7.15,7.15,0,0,1,2.91-2.78,11.09,11.09,0,0,1,9.26,0,7.17,7.17,0,0,1,2.92,2.7,9,9,0,0,1,1.12,4v5.91a8.47,8.47,0,0,1-2.38,5.69,10.17,10.17,0,0,1-12.59,0Zm8.38-3.26a4.49,4.49,0,0,0,.76-2.59v-5.57a4.56,4.56,0,0,0-.72-2.56,2.43,2.43,0,0,0-2-.93q-2.69,0-2.85,3.49v5.57q.14,3.5,2.85,3.49a2.44,2.44,0,0,0,2-.88Z"/><path class="grp-cls-20" d="M135.89,105.86a4,4,0,0,1-1.34-2.84v-2.83a4,4,0,0,1,1.3-2.92,5.69,5.69,0,0,1,6.65,0,4.1,4.1,0,0,1,1.31,2.92V103a4,4,0,0,1-1.35,2.84,5,5,0,0,1-3.28,1A4.87,4.87,0,0,1,135.89,105.86Zm.4,11.27a.53.53,0,0,1-.2-.44.54.54,0,0,1,.12-.34L151,96.89a2,2,0,0,1,.44-.44,1.13,1.13,0,0,1,.6-.14h2.25a.75.75,0,0,1,.5.16.54.54,0,0,1,.2.44.5.5,0,0,1-.12.34l-14.79,19.46a1.92,1.92,0,0,1-.46.44,1.13,1.13,0,0,1-.6.14h-2.23a.67.67,0,0,1-.5-.08Zm3.83-13.27a1.72,1.72,0,0,0,.34-1v-2.49a1.75,1.75,0,0,0-.34-1,1.17,1.17,0,0,0-1-.4q-1.2,0-1.32,1.44v2.49a2,2,0,0,0,.38,1,1.13,1.13,0,0,0,.94.38A1.17,1.17,0,0,0,140.12,103.86Zm8.6,12.53a3.93,3.93,0,0,1-1.35-2.87v-2.81a4.14,4.14,0,0,1,1.31-2.94,5.69,5.69,0,0,1,6.65,0,4,4,0,0,1,1.3,2.94v2.81a4,4,0,0,1-1.34,2.87,5.66,5.66,0,0,1-6.57.06Zm4.22-2a1.93,1.93,0,0,0,.37-1v-2.49a1.86,1.86,0,0,0-.37-1,1.13,1.13,0,0,0-.94-.38,1.15,1.15,0,0,0-1,.4,1.79,1.79,0,0,0-.34,1v2.49a1.77,1.77,0,0,0,.34,1,1.17,1.17,0,0,0,1,.4,1.15,1.15,0,0,0,.94-.36Z"/><path class="grp-cls-20" d="M463.25,21a.72.72,0,0,1-.18-.46.61.61,0,0,1,0-.27L470,4.87h-8.94a.78.78,0,0,1-.78-.78h0V.92a.74.74,0,0,1,.22-.56.74.74,0,0,1,.56-.22h14.21a.76.76,0,0,1,.78.74V3.73a2.64,2.64,0,0,1-.14.92l-.18.46L468.8,20.48a1.13,1.13,0,0,1-1.08.72h-4A.61.61,0,0,1,463.25,21Z"/><path class="grp-cls-20" d="M479.36,9.7A4,4,0,0,1,478,6.85V4a4,4,0,0,1,1.3-2.93,5.69,5.69,0,0,1,6.67,0A4.11,4.11,0,0,1,487.3,4V6.83a4,4,0,0,1-1.37,2.85,5.75,5.75,0,0,1-6.57,0Zm.4,11.32a.57.57,0,0,1-.2-.44.55.55,0,0,1,.12-.35L494.55.7a2.11,2.11,0,0,1,.5-.44,1.13,1.13,0,0,1,.6-.14h2.27a.77.77,0,0,1,.5.16.57.57,0,0,1,.2.44.54.54,0,0,1-.12.34L483.65,20.6a2.14,2.14,0,0,1-.46.44,1.13,1.13,0,0,1-.6.14h-2.25a.77.77,0,0,1-.56-.18Zm3.85-13.35a1.79,1.79,0,0,0,.34-1V4.17a1.8,1.8,0,0,0-.34-1,1.17,1.17,0,0,0-1-.4c-.8,0-1.24.48-1.32,1.45v2.5a1.8,1.8,0,0,0,.38,1,1.11,1.11,0,0,0,.94.38,1.14,1.14,0,0,0,1-.42Zm8.62,12.58a4,4,0,0,1-1.37-2.88V14.54a4.12,4.12,0,0,1,1.33-2.94,5.69,5.69,0,0,1,6.67,0,4,4,0,0,1,1.28,2.94v2.83a4,4,0,0,1-1.34,2.88,5.43,5.43,0,0,1-6.55,0Zm4.24-2a1.86,1.86,0,0,0,.38-1V14.7a1.83,1.83,0,0,0-.38-1,1.14,1.14,0,0,0-.94-.38,1.17,1.17,0,0,0-1,.4,1.65,1.65,0,0,0-.34,1v2.51a1.77,1.77,0,0,0,.34,1,1.17,1.17,0,0,0,1,.4,1.11,1.11,0,0,0,1-.44Z"/><path class="grp-cls-20" d="M625.88,114.79a.72.72,0,0,1-.23-.53v-3.42H616a.81.81,0,0,1-.77-.77v-3.15a1.57,1.57,0,0,1,.35-.93l9-12.18a1.4,1.4,0,0,1,1.14-.52h4.73a.79.79,0,0,1,.58.21.71.71,0,0,1,.22.56v12H634a.78.78,0,0,1,.81.72v3.34a.78.78,0,0,1-.21.54.73.73,0,0,1-.56.23h-2.75v3.42a.75.75,0,0,1-.23.55.79.79,0,0,1-.58.21h-4.15A.66.66,0,0,1,625.88,114.79Zm-5.2-8.55h5v-7Z"/><path class="grp-cls-20" d="M643,114.79a.76.76,0,0,1-.23-.53V99.75l-4.14,3.19a.83.83,0,0,1-.46.17.85.85,0,0,1-.66-.37l-1.92-2.49a.91.91,0,0,1-.13-.48.79.79,0,0,1,.33-.68L643,93.52a1.21,1.21,0,0,1,.71-.21h4.14a.79.79,0,0,1,.58.21.72.72,0,0,1,.23.56v20.2a.75.75,0,0,1-.23.56.82.82,0,0,1-.58.2h-4.41A.75.75,0,0,1,643,114.79Z"/><path class="grp-cls-20" d="M653.16,103.15a4.14,4.14,0,0,1-1.38-2.94V97.27a4.14,4.14,0,0,1,1.32-3,5.88,5.88,0,0,1,6.9,0,4.25,4.25,0,0,1,1.37,3v2.94a4.16,4.16,0,0,1-1.33,2.94,6,6,0,0,1-6.88,0Zm.42,11.71a.59.59,0,0,1-.09-.81l15.36-20.2a2,2,0,0,1,.45-.46,1.23,1.23,0,0,1,.62-.14h2.35a.78.78,0,0,1,.51.16.59.59,0,0,1,.09.81l-15.36,20.2a2,2,0,0,1-.45.46,1.23,1.23,0,0,1-.62.14h-2.32a.8.8,0,0,1-.52-.16Zm4-13.8a1.83,1.83,0,0,0,.35-1V97.43a1.9,1.9,0,0,0-.35-1.08,1.23,1.23,0,0,0-1-.41c-.83,0-1.28.5-1.37,1.49V100a2,2,0,0,0,.4,1.06,1.41,1.41,0,0,0,2,.08l.08-.08Zm8.93,13a4.1,4.1,0,0,1-1.41-3v-2.93a4.3,4.3,0,0,1,1.36-3,5.88,5.88,0,0,1,6.9,0,4.12,4.12,0,0,1,1.35,3v2.93a4.12,4.12,0,0,1-1.39,3,5.74,5.74,0,0,1-6.81,0Zm4.37-2.07a2.11,2.11,0,0,0,.39-1.08v-2.59a2,2,0,0,0-.39-1.06,1.44,1.44,0,0,0-2,0,1.78,1.78,0,0,0-.35,1v2.59a1.83,1.83,0,0,0,.35,1.08,1.21,1.21,0,0,0,1,.41,1.16,1.16,0,0,0,1-.43Z"/></g></g></g></svg>