<svg width="490" height="328" viewBox="0 0 490 328" fill="none" xmlns="http://www.w3.org/2000/svg">
<path opacity="0.08" d="M154.198 269.442L3.80615 182.496C-1.82372 179.26 -1.13152 173.575 5.37514 169.831L293.652 3.10372C300.159 -0.640356 309.942 -1.05637 315.572 2.17925L465.964 89.1712C471.593 92.4069 470.901 98.0923 464.395 101.836L176.163 268.563C169.657 272.307 159.828 272.723 154.198 269.442Z" transform="translate(10.1151 56.3405)" fill="#0B0244"/>
<path d="M489.939 80.2103L469.911 83.7233L329.118 2.27803C323.258 -1.09626 313.013 -0.680249 306.229 3.24872L35.1648 159.992L0.00119321 166.185V177.649C-0.0449533 179.867 1.24715 181.947 3.92365 183.519L160.822 274.209C166.682 277.583 176.927 277.167 183.71 273.238L484.355 99.3467C488.047 97.2204 489.939 94.4933 489.939 91.9048V80.2103Z" transform="translate(0.0299072 22.545)" fill="#312A91"/>
<path d="M489.939 80.2103L469.911 83.7233L329.118 2.27803C323.258 -1.09626 313.013 -0.680249 306.229 3.24872L35.1648 159.992L0.00119321 166.185V177.649C-0.0449533 179.867 1.24715 181.947 3.92365 183.519L160.822 274.209C166.682 277.583 176.927 277.167 183.71 273.238L484.355 99.3467C488.047 97.2204 489.939 94.4933 489.939 91.9048V80.2103Z" transform="translate(0.0299072 22.545)" fill="url(#paint0_radial)"/>
<path d="M484.312 7.44193L183.668 181.333C176.884 185.262 166.64 185.678 160.779 182.304L3.92707 91.5681C1.20442 89.9965 -0.0876801 87.8702 0.00461294 85.6978V88.7023C-0.0415336 90.921 1.25057 93.001 3.92707 94.5726L160.779 185.309C166.64 188.683 176.884 188.267 183.668 184.338L484.312 10.4464C488.004 8.32017 489.896 5.593 489.896 3.0045V-2.82124e-06C489.896 2.58849 488.004 5.31566 484.312 7.44193Z" transform="translate(0.0726318 107.424)" fill="url(#paint1_radial)"/>
<path d="M160.806 281.05L3.95355 190.36C-1.90706 186.986 -1.16871 181.069 5.61483 177.14L306.259 3.24872C313.043 -0.680249 323.287 -1.09626 329.148 2.27803L486 93.0141C491.861 96.3884 491.122 102.305 484.339 106.234L183.694 280.125C176.911 284.008 166.666 284.47 160.806 281.05Z" transform="translate(0.046814 4.00951)" fill="#312A91"/>
<path opacity="0.7" d="M160.806 281.05L3.95355 190.36C-1.90706 186.986 -1.16871 181.069 5.61483 177.14L306.259 3.24872C313.043 -0.680249 323.287 -1.09626 329.148 2.27803L486 93.0141C491.861 96.3884 491.122 102.305 484.339 106.234L183.694 280.125C176.911 284.008 166.666 284.47 160.806 281.05Z" transform="translate(0.046814 4.00951)" fill="url(#paint2_linear)"/>
<g opacity="0.4">
<path opacity="0.4" d="M489.939 80.2103L469.911 83.7233L329.118 2.27803C323.258 -1.09626 313.013 -0.68025 306.229 3.24872L35.1648 159.992L0.00119321 166.185V168.358C-0.0449533 170.577 1.24715 172.657 3.92365 174.228L160.776 264.964C166.636 268.339 176.881 267.923 183.664 263.994L484.309 90.1021C488.001 87.9758 489.893 85.2486 489.893 82.6601V80.2103H489.939Z" transform="translate(0.0299072 20.1414)" fill="#31E3A6"/>
<path opacity="0.7" d="M160.806 281.096L3.95355 190.36C-1.90706 186.986 -1.16871 181.069 5.61483 177.14L306.259 3.24872C313.043 -0.680249 323.287 -1.09626 329.148 2.27803L486 93.0141C491.861 96.3884 491.122 102.305 484.339 106.234L183.694 280.125C176.911 284.054 166.666 284.47 160.806 281.096Z" transform="translate(0.0462036 1.6059)" fill="url(#paint3_radial)"/>
<path opacity="0.4" d="M160.806 281.096L3.95355 190.36C-1.90706 186.986 -1.16871 181.069 5.61483 177.14L306.259 3.24872C313.043 -0.680249 323.287 -1.09626 329.148 2.27803L486 93.0141C491.861 96.3884 491.122 102.305 484.339 106.234L183.694 280.125C176.911 284.054 166.666 284.47 160.806 281.096Z" transform="translate(0.0462036 1.6059)" fill="#312A91"/>
</g>
<path d="M3.50714 3.28578C3.50714 4.39513 2.72265 4.85734 1.75357 4.30266C0.784496 3.74799 -2.81656e-06 2.3613 -2.81656e-06 1.25195C-2.81656e-06 0.142589 0.784496 -0.319648 1.75357 0.23503C2.72265 0.789708 3.50714 2.1302 3.50714 3.28578Z" transform="translate(119.043 265.688)" fill="#180D5B"/>
<path d="M3.50714 3.28576C3.50714 4.39512 2.72265 4.85736 1.75357 4.30268C0.784496 3.748 -2.81656e-06 2.36129 -2.81656e-06 1.25193C-2.81656e-06 0.142578 0.784496 -0.319631 1.75357 0.235047C2.72265 0.835948 3.50714 2.17641 3.50714 3.28576Z" transform="translate(125.965 269.663)" fill="#180D5B"/>
<path d="M3.50714 3.28577C3.50714 4.39513 2.72264 4.85736 1.75356 4.30269C0.784485 3.74801 0 2.3613 0 1.25194C0 0.142584 0.784485 -0.319654 1.75356 0.235024C2.72264 0.789702 3.50714 2.17641 3.50714 3.28577Z" transform="translate(132.933 273.685)" fill="#180D5B"/>
<path d="M3.50714 3.28576C3.50714 4.39512 2.72264 4.85736 1.75357 4.30268C0.784491 3.748 7.0414e-07 2.3613 7.0414e-07 1.25195C7.0414e-07 0.142589 0.784491 -0.319648 1.75357 0.23503C2.72264 0.789708 3.50714 2.13018 3.50714 3.28576Z" transform="translate(23.5197 210.451)" fill="#180D5B"/>
<path d="M3.50713 3.28577C3.50713 4.39512 2.72265 4.85735 1.75357 4.30267C0.784492 3.74799 0 2.36131 0 1.25195C0 0.142595 0.784492 -0.319642 1.75357 0.235036C2.6765 0.789714 3.50713 2.13019 3.50713 3.28577Z" transform="translate(30.4878 214.473)" fill="#180D5B"/>
<path d="M3.50713 3.28577C3.50713 4.39513 2.72265 4.85735 1.75357 4.30267C0.784492 3.74799 0 2.3613 0 1.25194C0 0.142584 0.784492 -0.31964 1.75357 0.235038C2.72265 0.789717 3.50713 2.17641 3.50713 3.28577Z" transform="translate(37.4098 218.448)" fill="#180D5B"/>
<path opacity="0.5" d="M160.806 281.096L3.95355 190.36C-1.90706 186.986 -1.16871 181.069 5.61483 177.14L306.259 3.24872C313.043 -0.680249 323.287 -1.09626 329.148 2.27803L486 93.0141C491.861 96.3884 491.122 102.305 484.339 106.234L183.694 280.125C176.911 284.054 166.666 284.47 160.806 281.096Z" transform="translate(0.0462036 1.6059)" fill="url(#paint4_radial)"/>
<path d="M160.806 281.096L3.95355 190.36C-1.90706 186.986 -1.16871 181.069 5.61483 177.14L306.259 3.24872C313.043 -0.680249 323.287 -1.09626 329.148 2.27803L486 93.0141C491.861 96.3884 491.122 102.305 484.339 106.234L183.694 280.125C176.911 284.054 166.666 284.47 160.806 281.096Z" transform="translate(0.0462036 1.6059)" fill="url(#paint5_radial)"/>
<path d="M163.574 280.946L6.72234 190.256C0.354124 186.373 -0.753392 182.306 8.38362 177.036L309.028 3.14456C312.074 1.38808 315.812 0.32495 319.55 0.00138744C314.981 -0.0448357 310.09 1.06452 306.306 3.23701L5.61483 177.129C-1.16871 181.058 -1.90706 186.974 3.95355 190.348L160.806 281.084C164.036 282.933 168.558 283.673 173.127 283.257C169.573 283.211 166.159 282.471 163.574 280.946Z" transform="translate(0 1.61855)" fill="url(#paint6_radial)"/>
<path d="M1.15366 17.1488H0V8.87485C0 8.13528 0.41532 7.44194 1.06137 7.07215L13.4748 -2.82124e-06L14.0747 1.01691L1.66128 8.08905C1.3844 8.27394 1.19981 8.55129 1.19981 8.87485V17.1488H1.15366Z" transform="translate(79.4031 226.217)" fill="#31E3A6"/>
<path d="M16.1051 10.9484C16.1051 12.3351 15.2745 12.9823 14.2131 12.3814L1.89201 5.263C0.830639 4.6621 -1.40828e-06 3.04427 -1.40828e-06 1.65757C-1.40828e-06 0.270878 0.830639 -0.376235 1.89201 0.224666L14.2131 7.34305C15.2745 7.94395 16.1051 9.51553 16.1051 10.9484Z" transform="translate(71.8812 238.057)" fill="#180D5B"/>
<path opacity="0.2" d="M7.81029 0.76268C9.61 1.77959 9.61 3.44363 7.81029 4.50676C6.01057 5.52367 3.14949 5.52367 1.34977 4.50676C-0.44994 3.48985 -0.44994 1.82581 1.34977 0.76268C3.14949 -0.25423 6.01057 -0.25423 7.81029 0.76268Z" transform="translate(436.427 114.519)" fill="#31E3A6"/>
<path opacity="0.6" d="M7.81029 0.797347C9.61001 1.81426 9.61001 3.47829 7.81029 4.54143C6.01058 5.55834 3.14949 5.55834 1.34978 4.54143C-0.449934 3.52452 -0.449934 1.86048 1.34978 0.797347C3.14949 -0.265786 6.05672 -0.265786 7.81029 0.797347Z" transform="translate(446.441 108.707)" fill="#31E3A6"/>
<path d="M7.81029 0.762684C9.61 1.77959 9.61 3.44362 7.81029 4.50676C6.01057 5.52367 3.14949 5.52367 1.34977 4.50676C-0.44994 3.48985 -0.44994 1.82582 1.34977 0.762684C3.14949 -0.254226 6.01057 -0.254226 7.81029 0.762684Z" transform="translate(456.501 102.917)" fill="#31E3A6"/>
<path d="M87.5127 33.1189C87.4204 33.1189 87.3281 33.0727 87.2358 33.0265L32.0446 1.13247L0.80339 19.2057C0.526511 19.3444 0.203482 19.2519 0.0650425 19.0208C-0.073397 18.7435 0.0189002 18.4199 0.249633 18.2813L31.7677 0.0693319C31.9523 -0.0231144 32.1369 -0.0231144 32.3215 0.0693319L87.5127 31.9633L139.474 1.87203C139.751 1.73336 140.074 1.82582 140.212 2.05694C140.35 2.33428 140.258 2.65783 140.027 2.7965L87.7896 33.0727C87.6973 33.0727 87.605 33.1189 87.5127 33.1189Z" transform="translate(88.752 210.201)" fill="#31E3A6"/>
<path d="M0.526516 106.563C0.34193 106.563 0.157344 106.471 0.065051 106.286C-0.0733886 106.009 0.0189016 105.685 0.249634 105.546L77.4066 61.0335L29.4604 32.6987C29.2758 32.6063 29.1835 32.4214 29.1835 32.2365C29.1835 32.0516 29.2758 31.8667 29.4604 31.7743L84.6055 0.0651562C84.8823 -0.0735133 85.2054 0.0189302 85.3438 0.250046C85.4823 0.527385 85.39 0.85095 85.1592 0.98962L30.8448 32.2365L78.791 60.5713C78.9756 60.6637 79.0679 60.8486 79.0679 61.0335C79.0679 61.2184 78.9756 61.4033 78.791 61.4957L0.849533 106.517C0.711094 106.517 0.618809 106.563 0.526516 106.563Z" transform="translate(120.27 104.678)" fill="#31E3A6"/>
<path d="M0.525063 34.8754C0.340477 34.8754 0.155891 34.7829 0.0635978 34.598C-0.0748417 34.3207 0.0174513 33.9971 0.29433 33.8585L61.8076 0.0693348C61.9922 -0.0231116 62.1768 -0.0231116 62.3153 0.0693348L115.384 30.2531L144.225 14.6759C144.502 14.5372 144.825 14.6296 144.964 14.907C145.102 15.1843 145.01 15.5079 144.733 15.6466L115.614 31.3624C115.43 31.4549 115.245 31.4549 115.107 31.3624L62.0384 1.17869L0.755796 34.8292C0.709649 34.8292 0.617356 34.8754 0.525063 34.8754Z" transform="translate(200.382 130.512)" fill="#31E3A6"/>
<path opacity="0.6" d="M55.2605 1.00535C52.9531 -0.335121 49.2153 -0.335121 46.9079 1.00535L1.73049 27.1677C-0.576831 28.5081 -0.576831 30.6806 1.73049 32.0211L31.2643 49.1237V64.1H57.1063L81.6563 78.2905L135.186 47.321L55.2605 1.00535Z" transform="translate(197.192 148.482)" fill="#0B0244"/>
<path d="M93.4928 49.6911L8.53711 0.555872C7.42959 -0.0912519 6.41436 -0.137474 5.67602 0.232312L5.58373 0.278531H5.53758L2.81656e-06 3.46793L4.33777 5.36308V55.2379C4.33777 57.9188 6.22978 61.1544 8.53711 62.4949L38.0709 79.5975L50.9919 102.016L63.9129 94.5276L91.0471 110.243L90.8164 115.143L96.4001 111.907C97.1384 111.445 97.5999 110.521 97.5999 109.227V56.9944C97.6922 54.2672 95.8002 51.0316 93.4928 49.6911Z" transform="translate(183.048 107.284)" fill="#312A91"/>
<path opacity="0.5" d="M93.4928 49.6911L8.53711 0.555872C7.42959 -0.0912519 6.41436 -0.137474 5.67602 0.232312L2.81656e-06 3.46793L4.33777 5.36308V55.2379C4.33777 57.9188 6.22978 61.1544 8.53711 62.4949L38.0709 79.5975L50.9919 102.016L63.9129 94.5276L91.0471 110.243L90.8164 115.143L96.4001 111.907C97.1384 111.445 97.5999 110.521 97.5999 109.227V56.9944C97.6922 54.2672 95.8002 51.0316 93.4928 49.6911Z" transform="translate(183.048 107.284)" fill="#5CFFF3"/>
<path d="M93.4928 49.6911L8.53711 0.555872C7.42959 -0.0912519 6.41436 -0.137474 5.67602 0.232312L2.81656e-06 3.46793L4.33777 5.36308V55.2379C4.33777 57.9188 6.22978 61.1544 8.53711 62.4949L38.0709 79.5975L50.9919 102.016L63.9129 94.5276L91.0471 110.243L90.8164 115.143L96.4001 111.907C97.1384 111.445 97.5999 110.521 97.5999 109.227V56.9944C97.6922 54.2672 95.8002 51.0316 93.4928 49.6911Z" transform="translate(183.048 107.284)" fill="url(#paint7_radial)"/>
<path d="M89.2012 49.7059L4.19933 0.57067C1.892 -0.769802 -5.63312e-06 0.339552 -5.63312e-06 2.97427V55.2065C-5.63312e-06 57.8874 1.892 61.123 4.19933 62.4635L33.7331 79.5661L46.6541 101.984L59.5752 94.4962L89.1089 111.599C91.4163 112.939 93.3083 111.83 93.3083 109.195V56.9629C93.3544 54.282 91.5085 51.0464 89.2012 49.7059Z" transform="translate(181.756 110.505)" fill="#312A91"/>
<path opacity="0.8" d="M89.2012 49.7059L4.19933 0.57067C1.892 -0.769802 -5.63312e-06 0.339552 -5.63312e-06 2.97427V55.2065C-5.63312e-06 57.8874 1.892 61.123 4.19933 62.4635L33.7331 79.5661L46.6541 101.984L59.5752 94.4962L89.1089 111.599C91.4163 112.939 93.3083 111.83 93.3083 109.195V56.9629C93.3544 54.282 91.5085 51.0464 89.2012 49.7059Z" transform="translate(181.756 110.505)" fill="url(#paint8_radial)"/>
<path opacity="0.5" d="M89.2012 49.7059L4.19933 0.57067C1.892 -0.769802 -5.63312e-06 0.339552 -5.63312e-06 2.97427V55.2065C-5.63312e-06 57.8874 1.892 61.123 4.19933 62.4635L33.7331 79.5661L46.6541 101.984L59.5752 94.4962L89.1089 111.599C91.4163 112.939 93.3083 111.83 93.3083 109.195V56.9629C93.3544 54.282 91.5085 51.0464 89.2012 49.7059Z" transform="translate(181.756 110.505)" fill="#5CFFF3"/>
<path d="M89.2012 49.7059L4.19933 0.57067C1.892 -0.769802 -5.63312e-06 0.339552 -5.63312e-06 2.97427V55.2065C-5.63312e-06 57.8874 1.892 61.123 4.19933 62.4635L33.7331 79.5661L46.6541 101.984L59.5752 94.4962L89.1089 111.599C91.4163 112.939 93.3083 111.83 93.3083 109.195V56.9629C93.3544 54.282 91.5085 51.0464 89.2012 49.7059Z" transform="translate(181.756 110.505)" fill="url(#paint9_radial)"/>
<path d="M89.5242 49.6911L4.5685 0.555872C3.46099 -0.0912519 2.44577 -0.137474 1.70743 0.232312L0 1.20299L0.0461493 1.15677C0.784494 0.740767 1.84586 0.833211 2.95337 1.48034L87.9091 50.6156C90.2164 51.956 92.1084 55.1917 92.1084 57.8726V110.105C92.1084 111.399 91.647 112.323 90.9548 112.786L92.4776 111.907C93.216 111.445 93.6774 110.521 93.6774 109.227V56.9944C93.7236 54.2672 91.8777 50.9853 89.5242 49.6911Z" transform="translate(183.002 109.595)" fill="#31E3A6"/>
<path d="M1.84586 4.52986L2.81656e-06 1.3867L5.12227 0L6.96813 3.14317L1.84586 4.52986Z" transform="translate(231.041 161.32)" fill="#31E3A6"/>
<path d="M4.79925 6.87954C3.69173 7.15687 1.93815 5.90884 0.830632 4.01369C-0.276885 2.11854 -0.276885 0.362074 0.830632 0.0385118C1.93815 -0.238827 3.69173 1.00919 4.79925 2.90434C5.86062 4.79949 5.86062 6.6022 4.79925 6.87954Z" transform="translate(235.609 159.063)" fill="#31E3A6"/>
<path d="M2.5842 3.88867C2.5842 3.1491 3.18412 3.01042 3.92246 3.51888L4.47621 3.88867C5.21455 4.44335 5.81446 5.46026 5.81446 6.19983V14.2889L8.39866 16.184V8.09498C8.39866 5.92249 6.6451 2.91798 4.47621 1.30017L3.92246 0.930391C1.75357 -0.641197 5.63312e-06 -0.178971 5.63312e-06 1.99352V10.0826L2.5842 11.9777V3.88867Z" transform="translate(220.934 168.109)" fill="#31E3A6"/>
<path d="M7.52188 4.83236L4.93768 2.93721L1.2921 0.302494C0.599899 -0.205961 0 -0.0672969 0 0.672274C0 1.36562 0.599899 2.38253 1.2921 2.89098L4.93768 5.52571L7.93721 7.74441C8.6294 8.25287 9.2293 8.1142 9.2293 7.37463C9.2293 6.68129 8.6294 5.66438 7.93721 5.15593L7.52188 4.83236Z" transform="translate(218.535 177.057)" fill="#31E3A6"/>
<path d="M3.46099 1.87408L1.2921 0.302483C0.599902 -0.205972 2.81656e-06 -0.067294 2.81656e-06 0.672277C2.81656e-06 1.36562 0.599902 2.38253 1.2921 2.89098L3.46099 4.46257L11.6289 10.4254C12.3211 10.9338 12.921 10.7951 12.921 10.0556C12.921 9.36223 12.3211 8.34532 11.6289 7.83687L3.46099 1.87408Z" transform="translate(225.503 182.188)" fill="#31E3A6"/>
<path d="M10.4291 24.0559C7.61417 22.0221 4.98382 19.0176 3.04566 15.5971C1.06136 12.1765 5.63312e-06 8.75604 5.63312e-06 5.93642C5.63312e-06 3.11681 1.10751 1.3141 3.04566 0.759423L5.67602 0.0198631C6.18363 -0.118806 7.06042 0.482095 7.56803 1.40656L20.8582 24.4257V25.0266C20.8582 25.3964 20.7198 25.6275 20.4429 25.6737L17.8125 26.4133C15.8282 26.9217 13.1979 26.0897 10.4291 24.0559ZM6.59895 3.44037L4.84539 3.90261C3.3687 4.31862 2.53806 5.70531 2.53806 7.78535C2.53806 9.91162 3.3687 12.5001 4.84539 15.0424C6.32208 17.6309 8.30637 19.8958 10.4291 21.4212C12.5518 22.9466 14.5361 23.5937 16.0128 23.1777L17.7664 22.7154L6.59895 3.44037Z" transform="translate(218.858 151.455)" fill="#31E3A6"/>
<path d="M1.87324 0.740746C1.36563 0.0936218 0.719576 -0.229932 0.488844 0.186077C-0.0649145 1.20299 -0.157207 2.68212 0.258111 4.4386C0.396551 5.13195 1.0426 5.87152 1.59636 6.01018C2.01168 6.14885 2.24241 5.77908 2.10397 5.2244C1.82709 3.97637 1.87324 2.95946 2.28856 2.21989C2.42699 1.89633 2.28856 1.29542 1.87324 0.740746Z" transform="translate(223.445 158.453)" fill="#31E3A6"/>
<path opacity="0.6" d="M2.81656e-06 30.9695L23.2117 44.4205V59.3968H49.0537L78.5875 76.4994C80.8949 77.8398 84.6327 77.8398 86.94 76.4994L132.117 50.3833C134.425 49.0428 134.425 46.8703 132.117 45.5298L53.53 -1.41062e-06L2.81656e-06 30.9695Z" transform="translate(181.895 45.8546)" fill="#0B0244"/>
<path d="M93.539 49.6911L8.53711 0.555871C7.42959 -0.0912533 6.41436 -0.137477 5.67602 0.232309L5.58373 0.278532H5.53758L0 3.46793L4.33777 5.36308V55.2379C4.33777 57.9188 6.22978 61.1544 8.53711 62.4949L38.0709 79.5975L50.9919 102.016L63.9129 94.5276L91.0932 110.243L90.8625 115.143L96.4462 111.907C97.1846 111.445 97.646 110.521 97.646 109.227V56.9944C97.6922 54.2672 95.8463 51.0316 93.539 49.6911Z" transform="translate(159.698)" fill="#312A91"/>
<path opacity="0.5" d="M93.539 49.6911L8.53711 0.555871C7.42959 -0.0912533 6.41436 -0.137477 5.67602 0.232309L0 3.46793L4.33777 5.36308V55.2379C4.33777 57.9188 6.22978 61.1544 8.53711 62.4949L38.0709 79.5975L50.9919 102.016L63.9129 94.5276L91.0932 110.243L90.8625 115.143L96.4462 111.907C97.1846 111.445 97.646 110.521 97.646 109.227V56.9944C97.6922 54.2672 95.8463 51.0316 93.539 49.6911Z" transform="translate(159.698)" fill="#5CFFF3"/>
<path d="M93.539 49.6911L8.53711 0.555871C7.42959 -0.0912533 6.41436 -0.137477 5.67602 0.232309L0 3.46793L4.33777 5.36308V55.2379C4.33777 57.9188 6.22978 61.1544 8.53711 62.4949L38.0709 79.5975L50.9919 102.016L63.9129 94.5276L91.0932 110.243L90.8625 115.143L96.4462 111.907C97.1846 111.445 97.646 110.521 97.646 109.227V56.9944C97.6922 54.2672 95.8463 51.0316 93.539 49.6911Z" transform="translate(159.698)" fill="url(#paint10_radial)"/>
<path d="M89.1551 49.7059L4.19933 0.570668C1.892 -0.769804 -5.63312e-06 0.339552 -5.63312e-06 2.97427V55.2065C-5.63312e-06 57.8874 1.892 61.123 4.19933 62.4635L33.7331 79.5661L46.6541 101.984L59.5751 94.4961L89.1089 111.599C91.4163 112.939 93.3083 111.83 93.3083 109.195V56.9629C93.3544 54.282 91.4624 51.0464 89.1551 49.7059Z" transform="translate(158.452 3.22083)" fill="#312A91"/>
<path opacity="0.8" d="M89.1551 49.7059L4.19933 0.570668C1.892 -0.769804 -5.63312e-06 0.339552 -5.63312e-06 2.97427V55.2065C-5.63312e-06 57.8874 1.892 61.123 4.19933 62.4635L33.7331 79.5661L46.6541 101.984L59.5751 94.4961L89.1089 111.599C91.4163 112.939 93.3083 111.83 93.3083 109.195V56.9629C93.3544 54.282 91.4624 51.0464 89.1551 49.7059Z" transform="translate(158.452 3.22083)" fill="url(#paint11_radial)"/>
<path opacity="0.5" d="M89.1551 49.7059L4.19933 0.570668C1.892 -0.769804 -5.63312e-06 0.339552 -5.63312e-06 2.97427V55.2065C-5.63312e-06 57.8874 1.892 61.123 4.19933 62.4635L33.7331 79.5661L46.6541 101.984L59.5751 94.4961L89.1089 111.599C91.4163 112.939 93.3083 111.83 93.3083 109.195V56.9629C93.3544 54.282 91.4624 51.0464 89.1551 49.7059Z" transform="translate(158.452 3.22083)" fill="#5CFFF3"/>
<path d="M89.1551 49.7059L4.19933 0.570668C1.892 -0.769804 -5.63312e-06 0.339552 -5.63312e-06 2.97427V55.2065C-5.63312e-06 57.8874 1.892 61.123 4.19933 62.4635L33.7331 79.5661L46.6541 101.984L59.5751 94.4961L89.1089 111.599C91.4163 112.939 93.3083 111.83 93.3083 109.195V56.9629C93.3544 54.282 91.4624 51.0464 89.1551 49.7059Z" transform="translate(158.452 3.22083)" fill="url(#paint12_radial)"/>
<path d="M89.5242 49.6911L4.5685 0.555871C3.46099 -0.0912534 2.44577 -0.137477 1.70743 0.232309L0 1.203L0.0461493 1.15677C0.784494 0.740764 1.84586 0.83321 2.95337 1.48033L87.9091 50.6156C90.2164 51.956 92.1084 55.1917 92.1084 57.8726V110.105C92.1084 111.399 91.647 112.323 90.9548 112.786L92.4776 111.907C93.216 111.445 93.6774 110.521 93.6774 109.227V56.9944C93.7236 54.2672 91.8316 51.0316 89.5242 49.6911Z" transform="translate(159.698 2.31116)" fill="#31E3A6"/>
<path d="M11.9058 25.3925C5.35299 21.972 0 13.7905 0 7.22682C0 0.663132 5.35299 -1.92537 11.9058 1.54137C18.4586 4.96189 23.8116 13.1434 23.8116 19.7071C23.8578 26.2708 18.5047 28.813 11.9058 25.3925ZM11.9058 4.68455C7.10656 2.14227 3.18411 4.03742 3.18411 8.84463C3.18411 13.6518 7.10656 19.6609 11.9058 22.1569C16.705 24.6992 20.6275 22.804 20.6275 17.9968C20.6736 13.1896 16.7512 7.22682 11.9058 4.68455Z" transform="translate(191.77 47.2253)" fill="#31E3A6"/>
<path d="M19.7507 42.1356C8.86013 36.4501 0 22.9067 0 11.998C0 1.08937 8.86013 -3.16316 19.7507 2.52229C30.6413 8.20774 39.5014 21.7511 39.5014 32.6598C39.5014 43.5685 30.6413 47.821 19.7507 42.1356ZM19.7507 5.71169C10.6137 0.904478 3.18411 4.46366 3.18411 13.6621C3.18411 22.8605 10.6137 34.1852 19.7507 38.9461C28.8877 43.7534 36.3173 40.1479 36.3173 30.9958C36.3173 21.8436 28.8877 10.5189 19.7507 5.71169Z" transform="translate(183.925 38.3402)" fill="#31E3A6"/>
<path d="M8.95242 7.36933C8.95242 9.81916 6.96812 10.7898 4.47621 9.49559C2.03044 8.20134 2.81656e-06 5.15061 2.81656e-06 2.70079C2.81656e-06 0.250958 1.98429 -0.719728 4.47621 0.57452C6.96812 1.86877 8.95242 4.9195 8.95242 7.36933Z" transform="translate(199.199 55.634)" fill="#31E3A6"/>
<path d="M8.30637 6.87012C8.30637 9.18128 6.46051 10.0595 4.15318 8.85771C1.84586 7.65591 -2.81656e-06 4.8363 -2.81656e-06 2.52514C-2.81656e-06 0.213979 1.84586 -0.664263 4.15318 0.53754C6.46051 1.73934 8.30637 4.55896 8.30637 6.87012Z" transform="translate(187.34 35.5639)" fill="#31E3A6"/>
<path d="M5.07612 4.2114C5.07612 5.5981 3.92246 6.15278 2.53806 5.41321C1.15367 4.67364 2.81656e-06 2.96338 2.81656e-06 1.53047C2.81656e-06 0.143771 1.15367 -0.41091 2.53806 0.328661C3.92246 1.06823 5.07612 2.82471 5.07612 4.2114Z" transform="translate(211.198 64.6161)" fill="#31E3A6"/>
<path opacity="0.6" d="M55.2604 1.00536C52.9531 -0.335117 49.2153 -0.335117 46.9079 1.00536L1.73049 27.1214C-0.576837 28.4619 -0.576837 30.6344 1.73049 31.9749L31.2643 49.0774V64.0538H57.1063L81.2409 78.0132L134.771 47.0436L55.2604 1.00536Z" transform="translate(313.62 81.6429)" fill="#0B0244"/>
<path d="M93.4929 49.6911L8.53712 0.55587C7.4296 -0.0912547 6.41437 -0.137477 5.67603 0.232309H5.58373H5.53759L1.12662e-05 3.42171L4.33777 5.31686V55.1917C4.33777 57.8726 6.22979 61.1082 8.53712 62.4487L38.0709 79.5513L50.9919 101.969L63.9129 94.4813L91.0932 110.197L90.8625 115.097L96.4462 111.861C97.1846 111.399 97.646 110.475 97.646 109.18V56.9481C97.6922 54.2672 95.8002 51.0316 93.4929 49.6911Z" transform="translate(299.476 40.4453)" fill="#312A91"/>
<path opacity="0.5" d="M93.4929 49.6911L8.53712 0.55587C7.4296 -0.0912547 6.41437 -0.137477 5.67603 0.232309L1.12662e-05 3.46793L4.33777 5.36308V55.2379C4.33777 57.9188 6.22979 61.1544 8.53712 62.4949L38.0709 79.5975L50.9919 102.016L63.9129 94.5276L91.0932 110.243L90.8625 115.143L96.4462 111.907C97.1846 111.445 97.646 110.521 97.646 109.227V56.9944C97.6922 54.2672 95.8002 51.0316 93.4929 49.6911Z" transform="translate(299.476 40.4453)" fill="#5CFFF3"/>
<path d="M93.4929 49.6911L8.53712 0.55587C7.4296 -0.0912547 6.41437 -0.137477 5.67603 0.232309L1.12662e-05 3.46793L4.33777 5.36308V55.2379C4.33777 57.9188 6.22979 61.1544 8.53712 62.4949L38.0709 79.5975L50.9919 102.016L63.9129 94.5276L91.0932 110.243L90.8625 115.143L96.4462 111.907C97.1846 111.445 97.646 110.521 97.646 109.227V56.9944C97.6922 54.2672 95.8002 51.0316 93.4929 49.6911Z" transform="translate(299.476 40.4453)" fill="url(#paint13_radial)"/>
<path d="M89.1551 49.7059L4.19933 0.570667C1.892 -0.769805 5.63312e-06 0.339553 5.63312e-06 2.97427V55.2065C5.63312e-06 57.8874 1.892 61.123 4.19933 62.4635L33.7331 79.5661L46.6541 101.984L59.5751 94.4961L89.1089 111.599C91.4163 112.939 93.3083 111.83 93.3083 109.195V56.9629C93.3544 54.282 91.4624 51.0001 89.1551 49.7059Z" transform="translate(298.23 43.6661)" fill="#312A91"/>
<path opacity="0.8" d="M89.1551 49.7059L4.19933 0.570667C1.892 -0.769805 5.63312e-06 0.339553 5.63312e-06 2.97427V55.2065C5.63312e-06 57.8874 1.892 61.123 4.19933 62.4635L33.7331 79.5661L46.6541 101.984L59.5751 94.4961L89.1089 111.599C91.4163 112.939 93.3083 111.83 93.3083 109.195V56.9629C93.3544 54.282 91.4624 51.0001 89.1551 49.7059Z" transform="translate(298.23 43.6661)" fill="url(#paint14_radial)"/>
<path opacity="0.5" d="M89.1551 49.7059L4.19933 0.570667C1.892 -0.769805 5.63312e-06 0.339553 5.63312e-06 2.97427V55.2065C5.63312e-06 57.8874 1.892 61.123 4.19933 62.4635L33.7331 79.5661L46.6541 101.984L59.5751 94.4961L89.1089 111.599C91.4163 112.939 93.3083 111.83 93.3083 109.195V56.9629C93.3544 54.282 91.4624 51.0001 89.1551 49.7059Z" transform="translate(298.23 43.6661)" fill="#5CFFF3"/>
<path d="M89.1551 49.7059L4.19933 0.570667C1.892 -0.769805 5.63312e-06 0.339553 5.63312e-06 2.97427V55.2065C5.63312e-06 57.8874 1.892 61.123 4.19933 62.4635L33.7331 79.5661L46.6541 101.984L59.5751 94.4961L89.1089 111.599C91.4163 112.939 93.3083 111.83 93.3083 109.195V56.9629C93.3544 54.282 91.4624 51.0001 89.1551 49.7059Z" transform="translate(298.23 43.6661)" fill="url(#paint15_radial)"/>
<path d="M89.5243 49.6911L4.5685 0.55587C3.46098 -0.0912541 2.44575 -0.137476 1.70741 0.23231L1.12662e-05 1.203H0.0461465C0.784491 0.786987 1.84585 0.879432 2.95337 1.52656L87.9091 50.6618C90.2165 52.0023 92.1085 55.2379 92.1085 57.9188V110.151C92.1085 111.445 91.647 112.37 90.9548 112.832L92.4776 111.954C93.216 111.491 93.6774 110.567 93.6774 109.273V57.0406C93.6774 54.2672 91.8316 51.0316 89.5243 49.6911Z" transform="translate(299.476 42.7102)" fill="#31E3A6"/>
<path d="M4.38778 14.1236L2.12659 11.4426C3.00337 10.2871 2.63422 7.97591 1.24982 6.1732C0.511479 5.20252 0.050008 4.04694 0.00386152 3.03003C-0.042285 2.01312 0.326893 1.22733 1.01909 0.85754L1.57285 0.580198C3.78789 -0.529158 6.74125 -0.0207019 9.69463 1.87445C10.5253 2.42913 11.3559 3.07625 12.1404 3.81582L14.5861 6.12698L13.5709 8.34569L11.1252 6.03453C10.5253 5.47986 9.92537 5.01763 9.32546 4.60162C7.15658 3.21492 4.94154 2.84514 3.32642 3.63093L2.77265 3.90827C2.68036 3.95449 2.63422 4.09316 2.63422 4.13939C2.63422 4.23183 2.68036 4.3705 2.77265 4.50917C5.31071 7.83724 6.00291 12.0436 4.38778 14.1236Z" transform="translate(346.126 105.688)" fill="#31E3A6"/>
<path d="M9.41389 17.7035C8.67555 17.5186 7.89104 17.1488 7.1527 16.5479C4.70693 14.6527 3.23025 11.2322 3.69171 8.73618C3.83015 7.95038 3.69171 6.9797 3.23025 6.05523C2.76878 5.08455 2.12274 4.29875 1.33825 3.74407L-1.12662e-05 2.81961L0.507617 0.184891L1.84585 1.10935C3.32254 2.17249 4.61466 3.74408 5.4453 5.54678C6.27594 7.34948 6.59896 9.15219 6.27593 10.6313C6.0452 11.6945 6.73739 13.2198 7.79876 14.0518C8.35252 14.4679 8.90628 14.699 9.41389 14.6065C9.9215 14.5141 10.2445 14.1443 10.3368 13.5896L10.4291 13.3585L10.8444 12.434C11.7674 10.4464 13.7978 9.79931 16.1513 10.7238L16.382 10.8162L16.6127 11.0011C18.6893 12.6189 20.8582 12.7114 21.9657 11.2785L22.6118 10.4927C22.6118 10.4464 22.6579 10.4002 22.6118 10.354C22.6118 10.3078 22.5657 10.2615 22.5195 10.2153L19.3815 6.93348C17.9971 5.45434 17.3511 3.28185 17.9049 1.9876L17.9971 1.8027L20.0276 1.41062e-06L22.1042 2.86584L20.3506 4.43742C20.3506 4.57609 20.4429 4.76098 20.5352 4.89965L23.6732 8.1815C24.3654 8.92107 24.9191 9.89176 25.1498 10.8624C25.3806 11.8331 25.2422 12.6651 24.8268 13.1736L24.1808 13.9594C22.4734 16.0857 19.2892 15.9932 16.1513 13.7283C14.8592 13.3123 13.7517 13.7283 13.1979 14.8376L12.8287 15.6697C12.5519 16.8715 11.7674 17.611 10.706 17.8421C10.383 17.8421 9.87535 17.8421 9.41389 17.7035Z" transform="translate(330.256 86.8083)" fill="#31E3A6"/>
<path d="M20.6404 40.4323C11.5495 38.2136 2.50481 27.4436 0.428221 16.3963C-1.64837 5.34894 4.02765 -1.81565 13.1185 0.403067C22.2094 2.62178 31.2541 13.3918 33.3307 24.4391C35.4073 35.4865 29.7313 42.651 20.6404 40.4323ZM13.7184 3.63869C6.10424 1.78976 1.30501 7.79877 3.05858 17.0434C4.81215 26.288 12.4263 35.3478 20.0405 37.2429C27.6547 39.0919 32.4539 33.0828 30.7004 23.8382C28.9468 14.5474 21.3326 5.48762 13.7184 3.63869Z" transform="translate(328.535 80.0727)" fill="#31E3A6"/>
<defs>
<radialGradient id="paint0_radial" cx="0.5" cy="0.5" r="0.5" gradientUnits="userSpaceOnUse" gradientTransform="translate(-459.231 -209.299) scale(771.076 772.356)">
<stop stop-color="#2D58D2"/>
<stop offset="0.2321" stop-color="#2B3CA0"/>
<stop offset="0.4434" stop-color="#29267B"/>
<stop offset="0.6128" stop-color="#281963"/>
<stop offset="0.7189" stop-color="#28145B"/>
</radialGradient>
<radialGradient id="paint1_radial" cx="0.5" cy="0.5" r="0.5" gradientUnits="userSpaceOnUse" gradientTransform="translate(-510.937 -479.971) scale(1366.43 1368.7)">
<stop stop-color="#2D297F"/>
<stop offset="0.7189" stop-color="#28145B"/>
</radialGradient>
<linearGradient id="paint2_linear" x2="1" gradientUnits="userSpaceOnUse" gradientTransform="translate(-0.0150482 -103.711) scale(489.962 490.776)">
<stop stop-color="#180D5B"/>
<stop offset="0.0949797" stop-color="#1A1660"/>
<stop offset="0.2466" stop-color="#1E2D6E"/>
<stop offset="0.436" stop-color="#255385"/>
<stop offset="0.6555" stop-color="#2F87A5"/>
<stop offset="0.8978" stop-color="#3CCACE"/>
<stop offset="1" stop-color="#42E8E0"/>
</linearGradient>
<radialGradient id="paint3_radial" cx="0.5" cy="0.5" r="0.5" gradientUnits="userSpaceOnUse" gradientTransform="translate(-400.886 -263.491) scale(814.114 815.466)">
<stop stop-color="#42E8E0"/>
<stop offset="0.1022" stop-color="#3CCACE"/>
<stop offset="0.3445" stop-color="#2F87A5"/>
<stop offset="0.564" stop-color="#255385"/>
<stop offset="0.7534" stop-color="#1E2D6E"/>
<stop offset="0.905" stop-color="#1A1660"/>
<stop offset="1" stop-color="#180D5B"/>
</radialGradient>
<radialGradient id="paint4_radial" cx="0.5" cy="0.5" r="0.5" gradientUnits="userSpaceOnUse" gradientTransform="translate(-294.661 -169.858) scale(666.249 667.356)">
<stop stop-color="#42E8E0"/>
<stop offset="0.1022" stop-color="#3CCACE"/>
<stop offset="0.3445" stop-color="#2F87A5"/>
<stop offset="0.564" stop-color="#255385"/>
<stop offset="0.7534" stop-color="#1E2D6E"/>
<stop offset="0.905" stop-color="#1A1660"/>
<stop offset="1" stop-color="#180D5B"/>
</radialGradient>
<radialGradient id="paint5_radial" cx="0.5" cy="0.5" r="0.5" gradientUnits="userSpaceOnUse" gradientTransform="translate(-475.756 -306.14) scale(941.761 943.325)">
<stop stop-color="#2D58D2"/>
<stop offset="0.2321" stop-color="#2B3CA0"/>
<stop offset="0.4434" stop-color="#29267B"/>
<stop offset="0.6128" stop-color="#281963"/>
<stop offset="0.7189" stop-color="#28145B"/>
</radialGradient>
<radialGradient id="paint6_radial" cx="0.5" cy="0.5" r="0.5" gradientUnits="userSpaceOnUse" gradientTransform="translate(-633.941 -466.348) scale(1258.22 1260.31)">
<stop stop-color="#2D297F"/>
<stop offset="0.7189" stop-color="#28145B"/>
</radialGradient>
<radialGradient id="paint7_radial" cx="0.5" cy="0.5" r="0.5" gradientUnits="userSpaceOnUse" gradientTransform="translate(-137.813 -122.11) scale(266.01 266.452)">
<stop stop-color="#2D58D2"/>
<stop offset="0.2321" stop-color="#2B3CA0"/>
<stop offset="0.4434" stop-color="#29267B"/>
<stop offset="0.6128" stop-color="#281963"/>
<stop offset="0.7189" stop-color="#28145B"/>
</radialGradient>
<radialGradient id="paint8_radial" cx="0.5" cy="0.5" r="0.5" gradientUnits="userSpaceOnUse" gradientTransform="translate(-221.706 -151.251) scale(392.398 393.05)">
<stop stop-color="#42E8E0"/>
<stop offset="0.1022" stop-color="#3CCACE"/>
<stop offset="0.3445" stop-color="#2F87A5"/>
<stop offset="0.564" stop-color="#255385"/>
<stop offset="0.7534" stop-color="#1E2D6E"/>
<stop offset="0.905" stop-color="#1A1660"/>
<stop offset="1" stop-color="#180D5B"/>
</radialGradient>
<radialGradient id="paint9_radial" cx="0.5" cy="0.5" r="0.5" gradientUnits="userSpaceOnUse" gradientTransform="translate(-267.096 -146.875) scale(392.399 393.051)">
<stop stop-color="#2D58D2"/>
<stop offset="0.2321" stop-color="#2B3CA0"/>
<stop offset="0.4434" stop-color="#29267B"/>
<stop offset="0.6128" stop-color="#281963"/>
<stop offset="0.7189" stop-color="#28145B"/>
</radialGradient>
<radialGradient id="paint10_radial" cx="0.5" cy="0.5" r="0.5" gradientUnits="userSpaceOnUse" gradientTransform="translate(-137.78 -122.099) scale(266.01 266.452)">
<stop stop-color="#2D58D2"/>
<stop offset="0.2321" stop-color="#2B3CA0"/>
<stop offset="0.4434" stop-color="#29267B"/>
<stop offset="0.6128" stop-color="#281963"/>
<stop offset="0.7189" stop-color="#28145B"/>
</radialGradient>
<radialGradient id="paint11_radial" cx="0.5" cy="0.5" r="0.5" gradientUnits="userSpaceOnUse" gradientTransform="translate(-221.719 -151.24) scale(392.398 393.05)">
<stop stop-color="#42E8E0"/>
<stop offset="0.1022" stop-color="#3CCACE"/>
<stop offset="0.3445" stop-color="#2F87A5"/>
<stop offset="0.564" stop-color="#255385"/>
<stop offset="0.7534" stop-color="#1E2D6E"/>
<stop offset="0.905" stop-color="#1A1660"/>
<stop offset="1" stop-color="#180D5B"/>
</radialGradient>
<radialGradient id="paint12_radial" cx="0.5" cy="0.5" r="0.5" gradientUnits="userSpaceOnUse" gradientTransform="translate(-267.109 -146.864) scale(392.399 393.051)">
<stop stop-color="#2D58D2"/>
<stop offset="0.2321" stop-color="#2B3CA0"/>
<stop offset="0.4434" stop-color="#29267B"/>
<stop offset="0.6128" stop-color="#281963"/>
<stop offset="0.7189" stop-color="#28145B"/>
</radialGradient>
<radialGradient id="paint13_radial" cx="0.5" cy="0.5" r="0.5" gradientUnits="userSpaceOnUse" gradientTransform="translate(-137.796 -122.126) scale(266.01 266.452)">
<stop stop-color="#2D58D2"/>
<stop offset="0.2321" stop-color="#2B3CA0"/>
<stop offset="0.4434" stop-color="#29267B"/>
<stop offset="0.6128" stop-color="#281963"/>
<stop offset="0.7189" stop-color="#28145B"/>
</radialGradient>
<radialGradient id="paint14_radial" cx="0.5" cy="0.5" r="0.5" gradientUnits="userSpaceOnUse" gradientTransform="translate(-221.735 -151.267) scale(392.398 393.05)">
<stop stop-color="#42E8E0"/>
<stop offset="0.1022" stop-color="#3CCACE"/>
<stop offset="0.3445" stop-color="#2F87A5"/>
<stop offset="0.564" stop-color="#255385"/>
<stop offset="0.7534" stop-color="#1E2D6E"/>
<stop offset="0.905" stop-color="#1A1660"/>
<stop offset="1" stop-color="#180D5B"/>
</radialGradient>
<radialGradient id="paint15_radial" cx="0.5" cy="0.5" r="0.5" gradientUnits="userSpaceOnUse" gradientTransform="translate(-267.125 -146.891) scale(392.399 393.051)">
<stop stop-color="#2D58D2"/>
<stop offset="0.2321" stop-color="#2B3CA0"/>
<stop offset="0.4434" stop-color="#29267B"/>
<stop offset="0.6128" stop-color="#281963"/>
<stop offset="0.7189" stop-color="#28145B"/>
</radialGradient>
</defs>
</svg>
