<svg viewBox="0 0 71 59" xmlns="http://www.w3.org/2000/svg">
<path d="M13.3 11.1V20.7C13.3 21.6 12.7 22.5 11.9 22.8C11.6 22.9 11.4 23 11.1 23H1.5V19H9.3V12.3V12.2L3.3 6.2L2.8 5.7L-3.8147e-07 2.9L2.8 0.0999992L2.9 7.62939e-07L12.9 10C13.1 10.4 13.3 10.7 13.3 11.1Z" transform="translate(27.4 25.2)" fill="white"/>
<path d="M11.8 22.9H2.3C1 22.9 0 21.9 0 20.6V11C0 10.6 0.2 10.3 0.4 10L10.4 7.62939e-07L13.2 2.8L4 12.1V12.2V18.9H11.8V22.9Z" transform="translate(0 25.2)" fill="white"/>
<path d="M9 4.3H-1.90735e-07C-1.90735e-07 1.9 1.9 7.62939e-07 4.3 7.62939e-07H4.7C7.1 0.100001 9 2 9 4.3Z" transform="translate(15.7 22.7)" fill="#31E3A6"/>
<path d="M20.8 17.3V23.1L20.3 22.6V35.9H20.8V42.7C20.8 42.9 20.8 43.1 20.7 43.2C20.6 43.5 20.4 43.8 20.2 44.1C19.8 44.5 19.3 44.7 18.8 44.7C17.7 44.7 16.8 43.8 16.8 42.7V16.4C16.8 15.1 16.6 13.7 16.3 12.5C15.7 10.3 14.7 8.3 13.3 6.5L10.4 2.8L7.5 6.5C5.3 9.3 4 12.8 4 16.4V42.7C4 43.3 3.8 43.8 3.4 44.1C3 44.5 2.5 44.7 2 44.7C0.9 44.7 1.90735e-07 43.8 1.90735e-07 42.7V17.3C1.90735e-07 12.2 1.7 7.3 4.9 3.3L5.8 2.2C6.9 0.8 8.6 1.90735e-07 10.3 1.90735e-07C12 1.90735e-07 13.7 0.8 14.8 2.2L15.9 3.3C16 3.5 16.2 3.7 16.3 3.8C18.3 6.4 19.6 9.5 20.3 12.7C20.7 14.2 20.8 15.7 20.8 17.3Z" transform="translate(9.8 8.3)" fill="white"/>
<path d="M2 14.5C0.899999 14.5 -7.62939e-07 13.6 -7.62939e-07 12.5V1.52588e-06H4V12.5C4 13.6 3.1 14.5 2 14.5Z" transform="translate(18.3 38.4)" fill="#31E3A6"/>
<path d="M2 8.2C0.900001 8.2 1.52588e-06 7.3 1.52588e-06 6.2V2C1.52588e-06 0.900001 0.900001 1.52588e-06 2 1.52588e-06C3.1 1.52588e-06 4 0.900001 4 2V6.2C4 7.3 3.1 8.2 2 8.2Z" transform="translate(33.4 49.9)" fill="#31E3A6"/>
<path d="M2 8.2C0.9 8.2 -4.76837e-08 7.3 -4.76837e-08 6.2V2C-4.76837e-08 0.900001 0.9 1.52588e-06 2 1.52588e-06C3.1 1.52588e-06 4 0.900001 4 2V6.2C4 7.3 3.1 8.2 2 8.2Z" transform="translate(3.3 49.9)" fill="#31E3A6"/>
<path d="M27.1 3.2H1.6C0.699999 3.2 7.62939e-07 2.5 7.62939e-07 1.6C7.62939e-07 0.7 0.699999 0 1.6 0H27.1C28 0 28.7 0.7 28.7 1.6C28.7 2.5 28 3.2 27.1 3.2Z" transform="translate(34.2 8.5)" fill="#31E3A6"/>
<path d="M27.1 3.2H1.6C0.699999 3.2 7.62939e-07 2.5 7.62939e-07 1.6C7.62939e-07 0.700001 0.699999 3.8147e-07 1.6 3.8147e-07H27.1C28 3.8147e-07 28.7 0.700001 28.7 1.6C28.7 2.5 28 3.2 27.1 3.2Z" transform="translate(34.2 18.1)" fill="#31E3A6"/>
<path d="M37.7 0H7.2C3.2 0 3.8147e-07 3.2 3.8147e-07 7.2V9.1C3.8147e-07 9.8 0.4 10.5 1 10.8C2.3 11.5 4 10.6 4 9V7.2C4 5.4 5.4 4 7.2 4H37.6C39.4 4 40.9 5.4 40.9 7.2V44.8C40.9 46.5 39.5 48 37.7 48H19.1C18.2 48 17.4 48.6 17.2 49.4C16.9 50.7 17.8 52 19.1 52H37.7C41.7 52 44.9 48.8 44.9 44.8V7.2C44.9 3.2 41.7 0 37.7 0Z" transform="translate(26.1)" fill="white"/>
</svg>
