<svg class="system__items__phone__black" width="157" height="412" viewBox="0 0 157 412" fill="none" xmlns="http://www.w3.org/2000/svg">
<g opacity="0.5">
<path opacity="0.5" d="M11.7961 0.478713L145.244 77.0743C146.046 77.5131 146.046 78.6701 145.244 79.1488L137.5 83.6567C136.417 84.295 135.133 84.295 134.05 83.6567L0.60184 7.06115C-0.200613 6.62232 -0.200613 5.46542 0.60184 4.9867L8.34551 0.478713C9.3887 -0.159584 10.7128 -0.159584 11.7961 0.478713Z" transform="translate(3.04932 327.865)" fill="#252525"/>
</g>
<path d="M-3.8264e-08 9.07529L15.5676 0.17903V0.218923C16.2096 -0.100225 17.012 -0.100225 17.8947 0.418391L152.105 77.4528C154.111 78.6097 155.756 81.7214 155.756 84.3943V387.904C155.756 389.38 155.235 390.378 154.472 390.817H154.512L138.945 399.713L138.584 382.838L17.8947 313.583C15.8886 312.426 14.2435 309.314 14.2435 306.641V17.054C13.9226 18.0513 13.6818 18.7694 13.6417 18.7694C13.5213 18.8492 -3.8264e-08 9.07529 -3.8264e-08 9.07529Z" transform="translate(1.24384)" fill="url(#paint0_radial-black)"/>
<path d="M46.6627 5.38563L6.13877 28.6436L4.89779e-06 25.1329L43.7738 1.21745e-06C45.2182 1.19681 46.3417 3.31116 46.6627 5.38563Z" transform="translate(110.217 77.8916)" fill="url(#phone-block_paint1_radial)"/>
<path d="M3.65116 313.598L137.861 390.633C139.868 391.79 141.513 390.553 141.513 387.88V84.4099C141.513 81.737 139.868 78.6253 137.861 77.4684L3.65116 0.433981C1.64503 -0.722932 0 0.513768 0 3.18664V306.697C0 309.33 1.64503 312.441 3.65116 313.598Z" transform="translate(0 8.84076)" fill="url(#paint2_radial-colored)"/>
<path d="M0 270.279L141.513 351.502V81.2232L0 1.21745e-06V270.279Z" transform="translate(0 28.6231)" fill="#252525"/>
<path d="M0 270.279L141.513 351.502V81.2232L0 1.21745e-06V270.279Z" transform="translate(0 28.6231)" fill="#252525"/>
<path d="M0 252.127L141.513 333.39V81.2232L0 0V252.127Z" transform="translate(0 37.28)" fill="url(#paint3_radial-colored)"/>
<path d="M1.48454 4.62765L27.0828 19.3883C27.8451 19.8271 28.447 19.9468 28.7278 19.2287C28.8081 18.9893 28.8883 18.7101 28.8883 18.3909C28.8883 17.0744 28.0859 15.5186 27.0828 14.9601L1.20368 0.119681C1.12343 0.0797877 1.04319 -6.08727e-07 0.962946 -6.08727e-07C0.160493 0.239361 -1.22445e-06 0.398938 -1.22445e-06 1.59574L0.120368 1.95478C0.120368 3.27127 0.481469 4.06914 1.48454 4.62765Z" transform="translate(58.2581 50.4848)" fill="#6B6B6B"/>
<path d="M1.60491 0.103189C1.52466 0.34255 1.44441 0.621804 1.44441 0.940953C1.44441 2.25744 2.24687 3.81329 3.24993 4.3718L29.1291 19.2122C29.2093 19.2521 29.2895 19.292 29.3698 19.3319C29.0889 20.05 28.447 20.2494 27.6846 19.8505L1.80552 5.01009C0.802456 4.45158 2.44889e-06 2.89574 2.44889e-06 1.57925C0.0401251 0.342552 0.72221 -0.255853 1.60491 0.103189Z" transform="translate(57.6161 50.3816)" fill="#BDBDBD"/>
<path d="M1.92589 0.387072L2.20674 0.2275C2.68822 -0.0517546 3.12957 -0.0517497 3.45055 0.107824L4.53387 0.746111L4.01226 0.786007C4.09251 1.02537 4.17275 1.34452 4.17275 1.70357V19.2966C4.17275 20.7328 3.29006 22.4083 2.20674 23.0067L1.92589 23.1663C1.80553 23.2461 1.64503 23.286 1.52467 23.3259L1.80552 23.9243L0.641963 23.2461H0.682088C0.280861 23.0067 -2.44889e-06 22.4482 -2.44889e-06 21.6902V4.09718C-2.44889e-06 2.7009 0.882704 1.02537 1.92589 0.387072Z" transform="translate(147.812 118.036)" fill="#E7E7E7"/>
<path d="M1.96601 23.1795L2.24687 23.02C3.33019 22.3817 4.21288 20.746 4.21288 19.3099V1.71681C4.21288 0.280639 3.33019 -0.397544 2.24687 0.240753L1.96601 0.400325C0.882699 1.03862 2.44889e-06 2.67425 2.44889e-06 4.11042V21.7035C2.44889e-06 23.1396 0.882699 23.8178 1.96601 23.1795Z" transform="translate(148.895 118.661)" fill="#BDBDBD"/>
<path d="M1.92589 0.387079L2.20674 0.227495C2.68822 -0.0517594 3.12957 -0.0517546 3.45055 0.10782L4.53387 0.746119L4.01226 0.786015C4.09251 1.02538 4.17275 1.34452 4.17275 1.70356V19.2966C4.17275 20.7328 3.29006 22.4083 2.20674 23.0067L1.92589 23.1663C1.80553 23.2461 1.64503 23.286 1.52467 23.3259L1.80552 23.9243L0.641963 23.2461H0.682088C0.280861 23.0067 -2.44889e-06 22.4482 -2.44889e-06 21.6902V4.09717C-2.44889e-06 2.66101 0.882704 0.985482 1.92589 0.387079Z" transform="translate(147.812 144.885)" fill="#E7E7E7"/>
<path d="M1.96601 23.1795L2.24687 23.02C3.33019 22.3817 4.21288 20.746 4.21288 19.3099V1.71681C4.21288 0.280644 3.33019 -0.397551 2.24687 0.240746L1.96601 0.40033C0.882699 1.03863 2.44889e-06 2.67426 2.44889e-06 4.11042V21.7035C2.44889e-06 23.1396 0.882699 23.8178 1.96601 23.1795Z" transform="translate(148.895 145.47)" fill="#BDBDBD"/>
<path d="M0 2.67287L3.97214 4.9468V2.27394L0 0V2.67287Z" transform="translate(116.155 140.804)" fill="#BDBDBD"/>
<path d="M0 15.5186L3.97214 17.7925V2.27393L0 4.86982e-06V15.5186Z" transform="translate(116.155 145.87)" fill="#BDBDBD"/>
<path d="M0 6.14361L3.97214 8.41753V2.27393L0 4.86982e-06V6.14361Z" transform="translate(116.155 163.822)" fill="#BDBDBD"/>
<path d="M0 6.1835L3.97214 8.45743V2.31383L0 -2.43491e-06V6.1835Z" transform="translate(116.155 172.679)" fill="#BDBDBD"/>
<path d="M4.89779e-06 6.14361L3.97215 8.41753V2.27393L4.89779e-06 4.86982e-06V6.14361Z" transform="translate(110.217 142.479)" fill="#BDBDBD"/>
<path d="M4.89779e-06 9.01594L3.97215 11.2899V2.27394L4.89779e-06 0V9.01594Z" transform="translate(110.217 151.376)" fill="#BDBDBD"/>
<path d="M4.89779e-06 7.77924L3.97215 10.0532V2.31383L4.89779e-06 -4.86982e-06V7.77924Z" transform="translate(110.217 163.463)" fill="#BDBDBD"/>
<path d="M0 6.14361L3.97214 8.45743V2.27393L0 4.86982e-06V6.14361Z" transform="translate(116.155 181.575)" fill="#BDBDBD"/>
<path d="M4.89779e-06 2.63298L3.97215 4.9069V2.27394L4.89779e-06 0V2.63298Z" transform="translate(110.217 137.413)" fill="#BDBDBD"/>
<path d="M2.44889e-06 2.55319L6.94122 6.54254V3.94946L2.44889e-06 2.43491e-06V2.55319Z" transform="translate(113.186 192.107)" fill="#BDBDBD"/>
<defs>
<radialGradient id="paint0_radial-black" cx="0.5" cy="0.5" r="0.5" gradientUnits="userSpaceOnUse" gradientTransform="translate(-357.921 -441.009) scale(902.705 897.55)">
<stop offset="0" stop-color="#5E5E5E"/>
<stop offset="0.2446" stop-color="#454545"/>
<stop offset="0.5357" stop-color="#2E2E2E"/>
<stop offset="0.7189" stop-color="#262626"/>
</radialGradient>
<radialGradient id="phone-block_paint1_radial" cx="0.5" cy="0.5" r="0.5" gradientUnits="userSpaceOnUse" gradientTransform="translate(42.7245 -4.95482) scale(-38.7799 38.5585)">
<stop  offset="0" stop-color="#5E5E5E"/>
<stop offset="0.2446" stop-color="#454545"/>
<stop offset="0.5357" stop-color="#2E2E2E"/>
<stop offset="0.7189" stop-color="#262626"/>
</radialGradient>
<radialGradient id="paint2_radial-colored" cx="0.5" cy="0.5" r="0.5" gradientUnits="userSpaceOnUse" gradientTransform="translate(-280.494 21.2912) scale(566.374 563.14)">
<stop  offset="0" stop-color="#5E5E5E"/>
<stop offset="0.2446" stop-color="#454545"/>
<stop offset="0.5357" stop-color="#2E2E2E"/>
<stop offset="0.7189" stop-color="#262626"/>
</radialGradient>
<radialGradient id="paint3_radial-colored" cx="0.5" cy="0.5" r="0.5" gradientUnits="userSpaceOnUse" gradientTransform="translate(-466.506 -211.165) scale(932.24 926.917)">
<stop  offset="0" stop-color="#5E5E5E"/>
<stop offset="0.2438" stop-color="#454545"/>
<stop offset="0.5355" stop-color="#2E2E2E"/>
<stop offset="0.7189" stop-color="#262626"/>
</radialGradient>
</defs>
</svg>
