<svg class="system__items__phone__colored" width="151" height="400" viewBox="0 0 151 400" fill="none" xmlns="http://www.w3.org/2000/svg">
<g opacity="0.5">
<path opacity="0.5" d="M11.3375 0.441361L139.662 74.8708C140.465 75.2737 140.465 76.3815 139.662 76.8851L132.238 81.2159C131.235 81.8202 129.93 81.8202 128.927 81.2159L0.601993 6.88721C-0.200664 6.48434 -0.200664 5.37646 0.601993 4.87288L8.02658 0.542084C9.0299 -0.162931 10.3342 -0.162937 11.3375 0.441361Z" transform="translate(2.90967 318.331)" fill="#24126A"/>
</g>
<path d="M4.78421e-08 8.86782L14.9495 0.206204C15.5515 -0.095945 16.3542 -0.095945 17.1568 0.407637L146.284 75.2399C148.191 76.3478 149.796 79.3693 149.796 81.9879V376.684C149.796 378.094 149.294 379.101 148.592 379.504L133.643 388.166L133.342 371.749L17.1568 304.47C15.2505 303.363 13.6452 300.341 13.6452 297.722V16.623C13.3442 17.5294 13.1435 18.2344 13.0432 18.3352C13.0432 18.3352 4.78421e-08 8.86782 4.78421e-08 8.86782Z" transform="translate(1.20398)" fill="url(#paint0_radial-coloredphone)"/>
<path d="M44.9488 5.23726L5.9196 27.7977L-1.53095e-06 24.3734L42.0392 -1.53681e-06C43.5442 1.10788 44.6478 3.22293 44.9488 5.23726Z" transform="translate(105.951 75.6428)" fill="url(#paint1_radial)"/>
<path d="M3.51163 304.533L132.539 379.366C134.445 380.473 136.051 379.265 136.051 376.747V81.9499C136.051 79.3313 134.445 76.3098 132.539 75.2019L3.51163 0.470336C1.60532 -0.738261 0 0.470337 0 3.08896V297.785C0 300.404 1.60532 303.425 3.51163 304.533Z" transform="translate(0 8.59891)" fill="url(#paint2_radial)"/>
<path d="M0 262.467L136.051 341.328V78.861L0 3.84203e-07V262.467Z" transform="translate(0 27.8025)" fill="#24126A"/>
<path d="M0 262.467L136.051 341.328V78.861L0 3.84203e-07V262.467Z" transform="translate(0 27.8025)" fill="#24126A"/>
<path d="M0 244.741L136.051 323.602V78.861L0 0V244.741Z" transform="translate(0 36.2627)" fill="url(#paint3_radial)"/>
<path d="M1.30432 4.53224L25.8857 18.834C26.588 19.2368 27.19 19.3376 27.491 18.7333C27.5914 18.5318 27.5914 18.2297 27.5914 17.9275C27.5914 16.6182 26.7887 15.1075 25.8857 14.6039L1.10365 0.100716C1.00332 0.100716 1.00332 7.68405e-07 0.902989 7.68405e-07C0.100331 0.201434 1.53095e-06 0.402866 1.53095e-06 1.51075L0.100332 1.8129C0.100332 3.12221 0.40133 3.92794 1.30432 4.53224Z" transform="translate(56.0857 49.0537)" fill="#5661D5"/>
<path d="M1.50498 0.124294C1.40465 0.325727 1.40465 0.627875 1.40465 0.930024C1.40465 2.23934 2.20731 3.75008 3.1103 4.25367L27.9927 18.6561C28.093 18.6561 28.1934 18.7568 28.1934 18.7568C27.8924 19.4618 27.2904 19.6633 26.588 19.2604L1.70565 4.85797C0.702326 4.25367 -7.65474e-07 2.84363 -7.65474e-07 1.53432C-7.65474e-07 0.325724 0.601993 -0.278572 1.50498 0.124294Z" transform="translate(55.4838 48.9294)" fill="#2DE1A4"/>
<path d="M1.90631 0.442532L2.20731 0.241103C2.70897 -0.0610466 3.1103 -0.061045 3.4113 0.140388L4.51496 0.744685H4.0133C4.11363 0.946118 4.11362 1.24827 4.11362 1.65113V18.6722C4.11362 20.0822 3.31097 21.6937 2.20731 22.298L1.90631 22.4994C1.80598 22.6002 1.60532 22.6001 1.50499 22.7009L1.80597 23.3052L0.702329 22.7009C0.301 22.4994 6.12379e-06 21.8951 6.12379e-06 21.1901V4.16904C0.100338 2.6583 0.90299 1.04683 1.90631 0.442532Z" transform="translate(142.07 114.58)" fill="#E7E7FB"/>
<path d="M1.90632 22.4917L2.2073 22.2902C3.21063 21.6859 4.11362 20.0745 4.11362 18.6644V1.64336C4.11362 0.233335 3.31096 -0.370965 2.2073 0.233333L1.90632 0.434771C0.902996 1.03907 -3.0619e-06 2.65053 -3.0619e-06 4.06056V21.0816C-3.0619e-06 22.3909 0.902996 23.096 1.90632 22.4917Z" transform="translate(143.174 115.293)" fill="#2DE1A4"/>
<path d="M1.90631 0.442536L2.20731 0.241106C2.70897 -0.0610435 3.1103 -0.0610496 3.4113 0.140383L4.51496 0.744688H4.0133C4.11363 0.946121 4.11362 1.24826 4.11362 1.65113V18.6722C4.11362 20.0822 3.31097 21.6937 2.20731 22.298L1.90631 22.4994C1.80598 22.6001 1.60532 22.6002 1.50499 22.7009L1.80597 23.3052L0.702329 22.7009C0.301 22.4994 6.12379e-06 21.8951 6.12379e-06 21.1901V4.16904C0.100338 2.75901 0.90299 1.04683 1.90631 0.442536Z" transform="translate(142.07 140.565)" fill="#E7E7FB"/>
<path d="M1.90632 22.4917L2.2073 22.2902C3.21063 21.6859 4.11362 20.0745 4.11362 18.6644V1.64336C4.11362 0.23333 3.31096 -0.370962 2.2073 0.233336L1.90632 0.434766C0.902996 1.03906 -3.0619e-06 2.65053 -3.0619e-06 4.06056V21.0816C-3.0619e-06 22.4917 0.902996 23.096 1.90632 22.4917Z" transform="translate(143.174 141.278)" fill="#2DE1A4"/>
<path d="M3.0619e-06 2.51791L3.81262 4.73367V2.21576L3.0619e-06 3.07362e-06V2.51791Z" transform="translate(111.67 136.778)" fill="#2DE1A4"/>
<path d="M3.0619e-06 15.1075L3.81262 17.3232V2.21576L3.0619e-06 6.14724e-06V15.1075Z" transform="translate(111.67 141.612)" fill="#2DE1A4"/>
<path d="M3.0619e-06 6.04298L3.81262 8.25875V2.21577L3.0619e-06 -6.14724e-06V6.04298Z" transform="translate(111.67 159.036)" fill="#2DE1A4"/>
<path d="M3.0619e-06 5.94226L3.81262 8.15804V2.21576L3.0619e-06 0V5.94226Z" transform="translate(111.67 167.698)" fill="#2DE1A4"/>
<path d="M-1.53095e-06 5.94227L3.91296 8.15803V2.21577L-1.53095e-06 -6.14724e-06V5.94227Z" transform="translate(105.951 138.389)" fill="#2DE1A4"/>
<path d="M-1.53095e-06 8.76233L3.91296 11.0788V2.21577L-1.53095e-06 -6.14724e-06V8.76233Z" transform="translate(105.951 146.95)" fill="#2DE1A4"/>
<path d="M-1.53095e-06 7.55374L3.91296 9.76949V2.21576L-1.53095e-06 6.14724e-06V7.55374Z" transform="translate(105.951 158.734)" fill="#2DE1A4"/>
<path d="M3.0619e-06 5.94227L3.81262 8.15803V2.21576L3.0619e-06 6.14724e-06V5.94227Z" transform="translate(111.67 176.359)" fill="#2DE1A4"/>
<path d="M-1.53095e-06 2.51791L3.91296 4.73367V2.21576L-1.53095e-06 0V2.51791Z" transform="translate(105.951 133.454)" fill="#2DE1A4"/>
<path d="M0 2.51791L6.62193 6.34513V3.82722L0 -3.07362e-06V2.51791Z" transform="translate(108.86 186.532)" fill="#2DE1A4"/>
<path class="ph-co-op" d="M70.04 55.6735C69.438 55.3713 68.9364 55.3713 68.535 55.6735C68.4347 55.7742 68.4347 55.7742 68.3344 55.8749C67.2307 56.7814 65.6254 56.9828 63.9198 56.0764C61.0101 54.5656 58.7025 51.3427 57.5988 47.5155C57.5988 47.4147 57.5988 47.4147 57.4985 47.314C57.0972 45.8033 56.8965 44.2925 56.8965 42.6811C56.8965 41.1703 57.1975 39.7603 57.6992 38.7531C57.6992 38.7531 57.6992 38.6524 57.6992 38.7531C58.9031 36.0338 61.3111 35.1273 64.3211 36.6381C66.0267 37.5445 67.6321 39.3574 68.6354 41.4725C68.6354 41.4725 68.6354 41.5732 68.7357 41.5732C69.3377 42.6811 70.1404 43.3861 70.943 43.4868L71.7457 43.3861C71.846 43.3861 71.9463 43.2854 72.0467 43.2854C72.448 42.9832 72.6487 42.4796 72.749 41.8753C72.8493 41.5732 72.749 41.1703 72.749 40.8682C72.6487 40.3646 72.5483 39.861 72.3477 39.4582C72.2473 39.156 72.0467 38.8538 71.9463 38.6524C70.341 35.6309 67.933 32.8109 64.6221 31.0987C61.9131 29.7894 59.5051 29.4872 57.4985 30.1922C56.8965 30.3937 56.3948 30.6958 55.8932 31.0987C55.0905 29.4872 53.9869 27.8758 52.5822 26.5664C50.9769 24.955 49.0706 23.5449 46.8633 22.4371C42.9503 20.4227 39.9404 20.2213 38.034 21.5306C36.2281 18.3077 33.3184 15.5883 29.4055 13.574C27.0978 12.3654 25.0912 11.8618 23.4859 11.8618C19.7736 11.8618 17.8673 14.8833 17.7669 19.8184V20.4227L17.6666 25.7607C17.5663 29.7894 15.4593 31.5015 11.5463 29.4872C7.63338 27.4729 5.62673 23.6457 5.72707 19.7177L6.12839 5.01312V5.11385C6.12839 7.02746 6.02806 7.02746 6.12839 5.11385C6.12839 3.20024 5.02474 0.984471 3.51976 0.279456C2.01477 -0.526275 0.710455 0.480895 0.710455 2.39451C0.710455 2.49522 0.710455 2.49522 0.710455 2.59594L0.00812911 17.0991C-0.192535 24.0485 3.31909 30.7965 10.844 34.7245L11.446 35.0266C13.6533 36.1345 15.5596 36.6381 17.1649 36.6381C20.8772 36.6381 22.7835 33.6166 22.8839 28.6815V27.6743L22.9842 22.7392C23.0845 18.7106 25.1915 16.9984 29.1045 19.0127C33.0174 21.027 35.0241 24.8543 34.9237 28.7822L34.6227 42.9832C34.6227 43.0839 34.6227 43.0839 34.6227 43.1847C34.6227 45.199 35.8267 47.4147 37.3317 48.2205C38.8367 49.0262 40.141 48.019 40.2413 46.0047C40.2413 45.2997 40.2413 45.2997 40.2413 46.0047L40.5423 31.6023C40.6427 27.5736 42.7497 25.8614 46.6626 27.8758C49.8732 29.4872 51.7796 32.408 52.2812 35.6309L52.1809 39.0553L52.0806 41.7746C52.2812 46.0047 53.5855 50.1341 55.5922 53.6592C57.6992 57.1842 60.5085 60.0043 63.7191 61.7165C63.8194 61.7165 63.8194 61.8172 63.9198 61.8172C64.0201 61.8172 64.1204 61.9179 64.2208 61.9179C67.3311 63.4286 69.6387 63.0258 71.3443 61.8172C71.545 61.7165 71.7457 61.515 71.846 61.4143C72.147 61.1122 72.2473 60.6086 72.2473 60.0043C72.3477 58.1914 71.3443 56.3785 70.04 55.6735Z" transform="translate(29.0883 131.865)" fill="#2DE1A4"/>
<defs>
<radialGradient id="paint0_radial-coloredphone" cx="0.5" cy="0.5" r="0.5" gradientUnits="userSpaceOnUse" gradientTransform="translate(-344.22 -428.163) scale(868.131 871.455)">
<stop offset="0" stop-color="#2D58D2"/>
<stop offset="0.2321" stop-color="#2B3CA0"/>
<stop offset="0.4434" stop-color="#29267B"/>
<stop offset="0.6128" stop-color="#281963"/>
<stop offset="0.7189" stop-color="#28145B"/>
</radialGradient>
<radialGradient id="paint1_radial" cx="0.5" cy="0.5" r="0.5" gradientUnits="userSpaceOnUse" gradientTransform="translate(41.133 -4.80196) scale(-37.2947 37.4375)">
<stop offset="0" stop-color="#2D58D2"/>
<stop offset="0.2321" stop-color="#2B3CA0"/>
<stop offset="0.4434" stop-color="#29267B"/>
<stop offset="0.6128" stop-color="#281963"/>
<stop offset="0.7189" stop-color="#28145B"/>
</radialGradient>
<radialGradient id="paint2_radial" cx="0.5" cy="0.5" r="0.5" gradientUnits="userSpaceOnUse" gradientTransform="translate(-269.751 20.6816) scale(544.682 546.767)">
<stop offset="0" stop-color="#2D58D2"/>
<stop offset="0.2321" stop-color="#2B3CA0"/>
<stop offset="0.4434" stop-color="#29267B"/>
<stop offset="0.6128" stop-color="#281963"/>
<stop offset="0.7189" stop-color="#28145B"/>
</radialGradient>
<radialGradient id="paint3_radial" cx="0.5" cy="0.5" r="0.5" gradientUnits="userSpaceOnUse" gradientTransform="translate(-448.638 -205.067) scale(896.535 899.968)">
<stop offset="0" stop-color="#2C59D0"/>
<stop offset="0.226" stop-color="#2A3DA0"/>
<stop offset="0.44" stop-color="#29277B"/>
<stop offset="0.6115" stop-color="#281963"/>
<stop offset="0.7189" stop-color="#28145B"/>
</radialGradient>
</defs>
</svg>
