<svg xmlns="http://www.w3.org/2000/svg" xmlns:xlink="http://www.w3.org/1999/xlink" viewBox="0 0 1061.75 709.59"><defs><style>.clse-1{isolation:isolate;}.clse-17,.clse-2{fill:#0b0244;}.clse-2{opacity:0.08;}.clse-3{fill:#312a91;}.clse-4{fill:url(#radial-gradient);}.clse-5{fill:url(#radial-gradient-2);}.clse-6,.clse-9{opacity:0.7;mix-blend-mode:lighten;}.clse-6{fill:url(#umc-panel_3);}.clse-7{opacity:0.4;}.clse-14,.clse-15,.clse-8{fill:#31e3a6;}.clse-9{fill:url(#umc-panel_28);}.clse-10{fill:#180d5b;}.clse-11,.clse-18{opacity:0.5;}.clse-11{fill:url(#umc-panel_28-2);}.clse-12{fill:url(#radial-gradient-3);}.clse-13{fill:url(#radial-gradient-4);}.clse-14{opacity:0.2;}.clse-15,.clse-17{opacity:0.6;}.clse-16{fill:none;stroke:#31e3a6;stroke-linecap:round;stroke-miterlimit:10;stroke-width:3px;}.clse-18{fill:#5cfff3;}.clse-19{fill:url(#radial-gradient-5);}.clse-20,.clse-23,.clse-26{opacity:0.8;}.clse-20{fill:url(#umc-panel_28-3);}.clse-21{fill:url(#radial-gradient-6);}.clse-22{fill:url(#radial-gradient-7);}.clse-23{fill:url(#umc-panel_28-4);}.clse-24{fill:url(#radial-gradient-8);}.clse-25{fill:url(#radial-gradient-9);}.clse-26{fill:url(#umc-panel_28-5);}.clse-27{fill:url(#radial-gradient-10);}</style><radialGradient id="radial-gradient" cx="-159.7" cy="431.44" r="835.46" gradientUnits="userSpaceOnUse"><stop offset="0" stop-color="#2d58d2"/><stop offset="0.23" stop-color="#2b3ca0"/><stop offset="0.44" stop-color="#29267b"/><stop offset="0.61" stop-color="#281963"/><stop offset="0.72" stop-color="#28145b"/></radialGradient><radialGradient id="radial-gradient-2" cx="373.42" cy="674.55" r="1480.53" gradientUnits="userSpaceOnUse"><stop offset="0" stop-color="#2d297f"/><stop offset="0.72" stop-color="#28145b"/></radialGradient><linearGradient id="umc-panel_3" y1="315.18" x2="1061.75" y2="315.18" gradientUnits="userSpaceOnUse"><stop offset="0" stop-color="#180d5b"/><stop offset="0.09" stop-color="#1a1660"/><stop offset="0.25" stop-color="#1e2d6e"/><stop offset="0.44" stop-color="#255385"/><stop offset="0.66" stop-color="#2f87a5"/><stop offset="0.9" stop-color="#3ccace"/><stop offset="1" stop-color="#42e8e0"/></linearGradient><radialGradient id="umc-panel_28" cx="13.41" cy="315.53" r="882.1" gradientUnits="userSpaceOnUse"><stop offset="0" stop-color="#42e8e0"/><stop offset="0.1" stop-color="#3ccace"/><stop offset="0.34" stop-color="#2f87a5"/><stop offset="0.56" stop-color="#255385"/><stop offset="0.75" stop-color="#1e2d6e"/><stop offset="0.91" stop-color="#1a1660"/><stop offset="1" stop-color="#180d5b"/></radialGradient><radialGradient id="umc-panel_28-2" cx="83.38" cy="357.88" r="721.88" xlink:href="#umc-panel_28"/><radialGradient id="radial-gradient-3" cx="-10.53" cy="361.57" r="1020.4" xlink:href="#radial-gradient"/><radialGradient id="radial-gradient-4" cx="-10.54" cy="357.88" r="1363.29" xlink:href="#radial-gradient-2"/><radialGradient id="radial-gradient-5" cx="386.18" cy="256.15" r="288.22" xlink:href="#radial-gradient"/><radialGradient id="umc-panel_28-3" cx="338.53" cy="337.01" r="425.17" xlink:href="#umc-panel_28"/><radialGradient id="radial-gradient-6" cx="240.17" cy="346.48" r="425.17" xlink:href="#radial-gradient"/><radialGradient id="radial-gradient-7" cx="335.65" cy="24.07" r="288.22" xlink:href="#radial-gradient"/><radialGradient id="umc-panel_28-4" cx="288" cy="104.94" r="425.17" xlink:href="#umc-panel_28"/><radialGradient id="radial-gradient-8" cx="189.64" cy="114.4" r="425.17" xlink:href="#radial-gradient"/><radialGradient id="radial-gradient-9" cx="638.52" cy="111.51" r="288.22" xlink:href="#radial-gradient"/><radialGradient id="umc-panel_28-5" cx="590.86" cy="192.38" r="425.17" xlink:href="#umc-panel_28"/><radialGradient id="radial-gradient-10" cx="492.5" cy="201.85" r="425.17" xlink:href="#radial-gradient"/></defs><title>hero stroke </title><g class="clse-1"><g id="Layer_2" data-name="Layer 2"><g id="Body"><g id="Body-2" data-name="Body"><path class="clse-2" d="M356,704.84,30.11,516.67c-12.18-7-10.65-19.32,3.41-27.44L658.2,128.58c14.07-8.12,35.34-9,47.52-2l325.92,188.17c12.18,7,10.65,19.32-3.41,27.44L403.56,702.87C389.49,711,368.21,711.88,356,704.84Z"/><path class="clse-3" d="M1061.74,222.26l-43.36,7.6L713.24,53.68c-12.7-7.34-34.9-6.42-49.57,2.05L76.2,394.92,0,408.26v24.8H0c-.12,4.76,2.66,9.33,8.53,12.72L348.51,642c12.7,7.33,34.9,6.41,49.57-2.05l651.54-376.16c8-4.62,12.07-10.52,12.1-16.12h0Z"/><path class="clse-4" d="M1061.74,222.26l-43.36,7.6L713.24,53.68c-12.7-7.34-34.9-6.42-49.57,2.05L76.2,394.92,0,408.26v24.8H0c-.12,4.76,2.66,9.33,8.53,12.72L348.51,642c12.7,7.33,34.9,6.41,49.57-2.05l651.54-376.16c8-4.62,12.07-10.52,12.1-16.12h0Z"/><path class="clse-5" d="M1049.62,248.5,398.08,624.67c-14.67,8.47-36.86,9.39-49.57,2.05L8.58,430.46c-5.88-3.39-8.66-8-8.53-12.72H0v6.5H0C-.08,429,2.7,433.57,8.58,437L348.51,633.22c12.7,7.33,34.9,6.41,49.57-2.05L1049.62,255c8-4.62,12.07-10.52,12.1-16.12h0v-6.5h0C1061.69,238,1057.61,243.89,1049.62,248.5Z"/><path class="clse-3" d="M348.51,616.73,8.58,420.47c-12.7-7.33-11.11-20.15,3.56-28.62L663.67,15.68c14.67-8.47,36.86-9.39,49.57-2.05l339.94,196.26c12.7,7.34,11.11,20.15-3.56,28.62L398.08,614.67C383.41,623.14,361.22,624.06,348.51,616.73Z"/><path class="clse-6" d="M348.51,616.73,8.58,420.47c-12.7-7.33-11.11-20.15,3.56-28.62L663.67,15.68c14.67-8.47,36.86-9.39,49.57-2.05l339.94,196.26c12.7,7.34,11.11,20.15-3.56,28.62L398.08,614.67C383.41,623.14,361.22,624.06,348.51,616.73Z"/><g class="clse-7"><path class="clse-8" d="M1061.74,217.09l-43.36,7.6L713.24,48.51c-12.7-7.33-34.9-6.42-49.57,2.05L76.2,389.74,0,403.09v4.66H0c-.12,4.76,2.66,9.33,8.53,12.72L348.51,616.73c12.7,7.33,34.9,6.41,49.57-2.05l651.54-376.16c8-4.62,12.07-10.52,12.1-16.12h0Z"/><path class="clse-9" d="M348.51,611.55,8.58,415.29c-12.7-7.34-11.11-20.15,3.56-28.62L663.67,10.51C678.34,2,700.53,1.12,713.24,8.45l339.94,196.26c12.7,7.33,11.11,20.15-3.56,28.62L398.08,609.5C383.41,618,361.22,618.89,348.51,611.55Z"/><path class="clse-3" d="M348.51,611.55,8.58,415.29c-12.7-7.34-11.11-20.15,3.56-28.62L663.67,10.51C678.34,2,700.53,1.12,713.24,8.45l339.94,196.26c12.7,7.33,11.11,20.15-3.56,28.62L398.08,609.5C383.41,618,361.22,618.89,348.51,611.55Z"/></g><path class="clse-10" d="M265.48,581.86c0,2.43-1.71,3.42-3.81,2.2a8.43,8.43,0,0,1-3.81-6.61c0-2.43,1.71-3.42,3.81-2.2A8.43,8.43,0,0,1,265.48,581.86Z"/><path class="clse-10" d="M280.52,590.55c0,2.43-1.71,3.42-3.81,2.2a8.43,8.43,0,0,1-3.81-6.61c0-2.43,1.71-3.42,3.81-2.2A8.43,8.43,0,0,1,280.52,590.55Z"/><path class="clse-10" d="M295.56,599.23c0,2.43-1.71,3.42-3.81,2.2a8.43,8.43,0,0,1-3.81-6.61c0-2.43,1.71-3.42,3.81-2.2A8.43,8.43,0,0,1,295.56,599.23Z"/><path class="clse-10" d="M58.51,462.37c0,2.43-1.71,3.42-3.81,2.2A8.43,8.43,0,0,1,50.89,458c0-2.43,1.71-3.42,3.81-2.2A8.43,8.43,0,0,1,58.51,462.37Z"/><path class="clse-10" d="M73.55,471.06c0,2.43-1.71,3.42-3.81,2.2a8.43,8.43,0,0,1-3.81-6.61c0-2.43,1.71-3.42,3.81-2.2A8.43,8.43,0,0,1,73.55,471.06Z"/><path class="clse-10" d="M88.59,479.74c0,2.43-1.71,3.42-3.81,2.2A8.43,8.43,0,0,1,81,475.33c0-2.43,1.71-3.42,3.81-2.2A8.43,8.43,0,0,1,88.59,479.74Z"/><path class="clse-11" d="M348.51,611.55,8.58,415.29c-12.7-7.34-11.11-20.15,3.56-28.62L663.67,10.51C678.34,2,700.53,1.12,713.24,8.45l339.94,196.26c12.7,7.33,11.11,20.15-3.56,28.62L398.08,609.5C383.41,618,361.22,618.89,348.51,611.55Z"/><path class="clse-12" d="M348.51,611.55,8.58,415.29c-12.7-7.34-11.11-20.15,3.56-28.62L663.67,10.51C678.34,2,700.53,1.12,713.24,8.45l339.94,196.26c12.7,7.33,11.11,20.15-3.56,28.62L398.08,609.5C383.41,618,361.22,618.89,348.51,611.55Z"/><path class="clse-13" d="M354.4,611.32,14.46,415.06C.68,406.71-1.79,397.9,18,386.44L669.56,10.28a55.88,55.88,0,0,1,22.82-6.77c-9.94-.11-20.5,2.26-28.7,7L12.14,386.67C-2.53,395.14-4.13,408,8.58,415.29L348.51,611.55c7,4,16.85,5.56,26.75,4.71C367.44,616.18,360,614.55,354.4,611.32Z"/><path class="clse-14 animate-op3" d="M962.58,249.41c3.85,2.23,3.85,5.83,0,8.06a15.42,15.42,0,0,1-14,0c-3.85-2.23-3.85-5.83,0-8.06A15.43,15.43,0,0,1,962.58,249.41Z"/><path class="clse-15 animate-op2" d="M984.32,236.86c3.85,2.23,3.85,5.83,0,8.06a15.42,15.42,0,0,1-14,0c-3.85-2.22-3.85-5.83,0-8.06A15.43,15.43,0,0,1,984.32,236.86Z"/><path class="clse-8 animate-op1" d="M1006.06,224.31c3.85,2.23,3.85,5.83,0,8.06a15.43,15.43,0,0,1-14,0c-3.85-2.23-3.85-5.83,0-8.06A15.42,15.42,0,0,1,1006.06,224.31Z"/><path class="clse-10" d="M190.64,538.66h0c0,3-1.83,4.39-4.09,3.09l-26.67-15.4c-2.26-1.3-4.09-4.8-4.09-7.81h0c0-3,1.83-4.39,4.09-3.09l26.67,15.4C188.81,532.15,190.64,535.65,190.64,538.66Z"/></g></g><g id="Lines"><g id="Lines-2" data-name="Lines"><path class="clse-16 animate-lines" d="M173.22,527.55V508.81a1.53,1.53,0,0,1,.76-1.32l91.24-53L426.16,361a2.75,2.75,0,0,0,0-4.73l-97.12-57.88a2.62,2.62,0,0,1,0-4.52l113.48-65"/><path class="clse-16 animate-lines2" d="M493.23,460.28,389,521.25a13.12,13.12,0,0,1-13.17,0L262.45,456.08"/><path class="clse-16 animate-lines3" d="M434.27,357.17l130.37-71.38a8.21,8.21,0,0,1,8,.06l108.74,61.6a5.63,5.63,0,0,0,5.45.05l58.95-32"/></g></g><g class="bounceIn" data-wow-delay="3s" id="_1" data-name="1"><g id="_1-2" data-name="1"><path class="clse-17" d="M547,323.45c-5-2.89-13.12-2.89-18.13,0L431,380c-5,2.89-5,7.58,0,10.47l64,37v32.36h56l53.2,30.71,116-67Z"/><path class="clse-3" d="M599.2,339.6,415.08,233.3c-2.41-1.39-4.58-1.54-6.2-.71v0l-.16.09-.08,0-12,6.94,9.42,4.05V351.55c0,5.78,4.06,12.81,9.06,15.7l64,37,28,48.54,28-16.18,58.85,34-.47,10.58,12.06-7h0l0,0h0c1.62-1,2.63-3,2.63-5.85v-113C608.26,349.52,604.2,342.49,599.2,339.6Z"/><path class="clse-18" d="M599.2,339.6,415.08,233.3c-2.41-1.39-4.58-1.54-6.2-.71l-12.29,7,9.42,4.05V351.55c0,5.78,4.06,12.81,9.06,15.7l64,37,28,48.54,28-16.18,58.85,34-.47,10.58,12.06-7h0l0,0h0c1.62-1,2.63-3,2.63-5.85v-113C608.26,349.52,604.2,342.49,599.2,339.6Z"/><path class="clse-19" d="M599.2,339.6,415.08,233.3c-2.41-1.39-4.58-1.54-6.2-.71l-12.29,7,9.42,4.05V351.55c0,5.78,4.06,12.81,9.06,15.7l64,37,28,48.54,28-16.18,58.85,34-.47,10.58,12.06-7h0l0,0h0c1.62-1,2.63-3,2.63-5.85v-113C608.26,349.52,604.2,342.49,599.2,339.6Z"/><path class="clse-3" d="M587.07,346.59,402.95,240.29c-5-2.89-9.06-.55-9.06,5.23v113c0,5.78,4.06,12.81,9.06,15.7l64,37,28,48.54,28-16.18,64,37c5,2.89,9.06.55,9.06-5.23v-113C596.13,356.51,592.07,349.48,587.07,346.59Z"/><path class="clse-20" d="M587.07,346.59,402.95,240.29c-5-2.89-9.06-.55-9.06,5.23v113c0,5.78,4.06,12.81,9.06,15.7l64,37,28,48.54,28-16.18,64,37c5,2.89,9.06.55,9.06-5.23v-113C596.13,356.51,592.07,349.48,587.07,346.59Z"/><path class="clse-18" d="M587.07,346.59,402.95,240.29c-5-2.89-9.06-.55-9.06,5.23v113c0,5.78,4.06,12.81,9.06,15.7l64,37,28,48.54,28-16.18,64,37c5,2.89,9.06.55,9.06-5.23v-113C596.13,356.51,592.07,349.48,587.07,346.59Z"/><path class="clse-21" d="M587.07,346.59,402.95,240.29c-5-2.89-9.06-.55-9.06,5.23v113c0,5.78,4.06,12.81,9.06,15.7l64,37,28,48.54,28-16.18,64,37c5,2.89,9.06.55,9.06-5.23v-113C596.13,356.51,592.07,349.48,587.07,346.59Z"/><path class="clse-8" d="M590.55,344.56,406.42,238.25c-2.41-1.39-4.58-1.54-6.2-.71l-3.67,2.1h0l.1-.06c1.63-.89,3.86-.73,6.32.69l184.12,106.3c5,2.89,9.06,9.92,9.06,15.7v113c0,2.8-1,4.78-2.52,5.76l3.34-1.93h0l0,0h0c1.62-1,2.63-3,2.63-5.85v-113C599.61,354.47,595.55,347.45,590.55,344.56Z"/><polygon class="clse-8" points="504.59 358.83 500.63 351.99 511.75 348.96 515.71 355.81 504.59 358.83"/><path class="clse-8" d="M520.87,359c-2.36.64-6.19-2.14-8.55-6.23s-2.36-7.91,0-8.55,6.19,2.14,8.55,6.23S523.23,358.35,520.87,359Z"/><path class="clse-8" d="M484.35,372.13c0-1.59,1.29-1.94,2.88-.78l1.16.84a7.2,7.2,0,0,1,2.88,5v17.48l5.6,4.08V381.24c0-4.68-3.8-11.25-8.48-14.65l-1.16-.84c-4.68-3.4-8.48-2.37-8.48,2.31v17.48l5.6,4.08Z"/><path class="clse-8" d="M489.83,393.54l-5.6-4.08-7.85-5.72c-1.55-1.13-2.8-.78-2.8.76h0a7,7,0,0,0,2.8,4.84l7.85,5.72,6.53,4.75c1.55,1.13,2.8.78,2.8-.76h0a7,7,0,0,0-2.8-4.84Z"/><path class="clse-8" d="M496.11,398.18l-4.72-3.43c-1.55-1.13-2.8-.78-2.8.76h0a7,7,0,0,0,2.8,4.84l4.72,3.43,17.65,12.85c1.55,1.13,2.8.78,2.8-.76h0a7,7,0,0,0-2.8-4.84Z"/><path class="clse-8" d="M496.79,379.68a60.33,60.33,0,0,1-16-18.33h0c-4.29-7.41-6.65-14.82-6.65-20.88s2.36-10,6.65-11.21l5.74-1.56c1.14-.29,3,1,4.09,3l28.82,49.81,0,1.26c0,.77-.32,1.29-.87,1.43l-5.73,1.56C508.55,385.88,502.85,384.1,496.79,379.68Zm-8.25-44.62-3.84,1c-3.23.88-5,3.88-5,8.44s1.78,10.15,5,15.73h0a45.45,45.45,0,0,0,12.08,13.8c4.57,3.32,8.86,4.67,12.09,3.79l3.84-1Z"/><path class="clse-8" d="M488.2,344.38h0c-1.08-1.44-2.54-2.07-3-1.24-1.23,2.17-1.42,5.42-.54,9.24a5.06,5.06,0,0,0,2.88,3.38h0c.95.26,1.41-.46,1.14-1.67-.6-2.67-.47-4.95.38-6.49C489.43,346.91,489.09,345.56,488.2,344.38Z"/></g></g><g class="bounceIn" data-wow-delay=".7" id="_2" data-name="2"><g id="_2-2" data-name="2"><path class="clse-17" d="M394.06,166.17l50.34,29.07v32.36h56l64,37c5,2.89,13.12,2.89,18.13,0l97.88-56.51c5-2.89,5-7.58,0-10.47L510.07,99.19Z"/><path class="clse-3" d="M548.67,107.52,364.55,1.22C362.14-.17,360-.32,358.34.51v0l-.16.09-.08,0-12,6.94,9.42,4.05V119.48c0,5.78,4.06,12.81,9.06,15.7l64,37,28,48.54,28-16.18,58.85,34L543,249.06l12.06-7h0l0,0h0c1.62-1,2.63-3,2.63-5.85v-113C557.73,117.44,553.67,110.41,548.67,107.52Z"/><path class="clse-18" d="M548.67,107.52,364.55,1.22C362.14-.17,360-.32,358.34.51l-12.28,7,9.42,4.05V119.48c0,5.78,4.06,12.81,9.06,15.7l64,37,28,48.54,28-16.18,58.85,34L543,249.06l12.06-7h0l0,0h0c1.62-1,2.63-3,2.63-5.85v-113C557.73,117.44,553.67,110.41,548.67,107.52Z"/><path class="clse-22" d="M548.67,107.52,364.55,1.22C362.14-.17,360-.32,358.34.51l-12.28,7,9.42,4.05V119.48c0,5.78,4.06,12.81,9.06,15.7l64,37,28,48.54,28-16.18,58.85,34L543,249.06l12.06-7h0l0,0h0c1.62-1,2.63-3,2.63-5.85v-113C557.73,117.44,553.67,110.41,548.67,107.52Z"/><path class="clse-3" d="M536.54,114.52,352.42,8.21c-5-2.89-9.06-.55-9.06,5.23v113c0,5.78,4.06,12.81,9.06,15.7l64,37,28,48.54,28-16.18,64,37c5,2.89,9.06.55,9.06-5.23v-113C545.6,124.43,541.54,117.41,536.54,114.52Z"/><path class="clse-23" d="M536.54,114.52,352.42,8.21c-5-2.89-9.06-.55-9.06,5.23v113c0,5.78,4.06,12.81,9.06,15.7l64,37,28,48.54,28-16.18,64,37c5,2.89,9.06.55,9.06-5.23v-113C545.6,124.43,541.54,117.41,536.54,114.52Z"/><path class="clse-18" d="M536.54,114.52,352.42,8.21c-5-2.89-9.06-.55-9.06,5.23v113c0,5.78,4.06,12.81,9.06,15.7l64,37,28,48.54,28-16.18,64,37c5,2.89,9.06.55,9.06-5.23v-113C545.6,124.43,541.54,117.41,536.54,114.52Z"/><path class="clse-24" d="M536.54,114.52,352.42,8.21c-5-2.89-9.06-.55-9.06,5.23v113c0,5.78,4.06,12.81,9.06,15.7l64,37,28,48.54,28-16.18,64,37c5,2.89,9.06.55,9.06-5.23v-113C545.6,124.43,541.54,117.41,536.54,114.52Z"/><path class="clse-8" d="M540,112.48,355.9,6.18c-2.41-1.39-4.58-1.54-6.2-.71L346,7.57h0l.1-.06c1.63-.89,3.86-.73,6.32.69l184.12,106.3c5,2.89,9.06,9.92,9.06,15.7v113c0,2.8-1,4.78-2.52,5.76l3.34-1.93h0l0,0h0c1.62-1,2.63-3,2.63-5.85v-113C549.08,122.4,545,115.37,540,112.48Z"/><path class="clse-8" d="M441.33,157.09c-14.24-7.44-25.83-25.08-25.83-39.32S427.09,98,441.33,105.43s25.83,25.08,25.83,39.32S455.57,164.53,441.33,157.09Zm0-44.76c-10.44-5.45-18.94-1.4-18.94,9s8.5,23.37,18.94,28.83,18.93,1.4,18.93-9S451.77,117.78,441.33,112.32Z"/><path class="clse-8" d="M441.33,174.09c-23.62-12.34-42.83-41.59-42.83-65.21s19.21-32.8,42.83-20.46,42.83,41.59,42.83,65.2S464.95,186.43,441.33,174.09Zm0-78.77c-19.82-10.35-35.94-2.65-35.94,17.17s16.12,44.36,35.94,54.71,35.94,2.65,35.94-17.17S461.15,105.67,441.33,95.32Z"/><path class="clse-8" d="M451,136.31c0,5.34-4.33,7.41-9.67,4.62s-9.67-9.38-9.67-14.72,4.33-7.41,9.67-4.62S451,131,451,136.31Z"/><path class="clse-8" d="M423.92,91.75c0,5-4,6.88-9,4.29s-9-8.71-9-13.66,4-6.88,9-4.29S423.92,86.8,423.92,91.75Z"/><path class="clse-8" d="M468.58,148.9c0,3-2.46,4.22-5.5,2.63s-5.5-5.34-5.5-8.38,2.46-4.22,5.5-2.63S468.58,145.86,468.58,148.9Z"/></g></g><g class="bounceIn" data-wow-delay="1s" id="_3" data-name="3"><g id="_3-2" data-name="3"><path class="clse-17" d="M799.31,178.81c-5-2.89-13.12-2.89-18.13,0L683.3,235.32c-5,2.89-5,7.58,0,10.47l64,37v32.36h56l52.29,30.19,116-67Z"/><path class="clse-3" d="M851.53,195,667.41,88.66c-2.41-1.39-4.58-1.54-6.2-.71v0L661,88l-.08,0-12,6.94L658.35,99V206.92c0,5.78,4.06,12.81,9.06,15.7l64,37,28,48.54,28-16.18,58.85,34-.47,10.58,12.06-7h0l0,0h0c1.62-1,2.63-3,2.63-5.85v-113C860.6,204.88,856.54,197.85,851.53,195Z"/><path class="clse-18" d="M851.53,195,667.41,88.66c-2.41-1.39-4.58-1.54-6.2-.71l-12.28,7L658.35,99V206.92c0,5.78,4.06,12.81,9.06,15.7l64,37,28,48.54,28-16.18,58.85,34-.47,10.58,12.06-7h0l0,0h0c1.62-1,2.63-3,2.63-5.85v-113C860.6,204.88,856.54,197.85,851.53,195Z"/><path class="clse-25" d="M851.53,195,667.41,88.66c-2.41-1.39-4.58-1.54-6.2-.71l-12.28,7L658.35,99V206.92c0,5.78,4.06,12.81,9.06,15.7l64,37,28,48.54,28-16.18,58.85,34-.47,10.58,12.06-7h0l0,0h0c1.62-1,2.63-3,2.63-5.85v-113C860.6,204.88,856.54,197.85,851.53,195Z"/><path class="clse-3" d="M839.4,202,655.28,95.66c-5-2.89-9.06-.55-9.06,5.23v113c0,5.78,4.06,12.81,9.06,15.7l64,37,28,48.54,28-16.18,64,37c5,2.89,9.06.55,9.06-5.23v-113C848.47,211.88,844.41,204.85,839.4,202Z"/><path class="clse-26" d="M839.4,202,655.28,95.66c-5-2.89-9.06-.55-9.06,5.23v113c0,5.78,4.06,12.81,9.06,15.7l64,37,28,48.54,28-16.18,64,37c5,2.89,9.06.55,9.06-5.23v-113C848.47,211.88,844.41,204.85,839.4,202Z"/><path class="clse-18" d="M839.4,202,655.28,95.66c-5-2.89-9.06-.55-9.06,5.23v113c0,5.78,4.06,12.81,9.06,15.7l64,37,28,48.54,28-16.18,64,37c5,2.89,9.06.55,9.06-5.23v-113C848.47,211.88,844.41,204.85,839.4,202Z"/><path class="clse-27" d="M839.4,202,655.28,95.66c-5-2.89-9.06-.55-9.06,5.23v113c0,5.78,4.06,12.81,9.06,15.7l64,37,28,48.54,28-16.18,64,37c5,2.89,9.06.55,9.06-5.23v-113C848.47,211.88,844.41,204.85,839.4,202Z"/><path class="clse-8" d="M842.88,199.92,658.76,93.62c-2.41-1.39-4.58-1.54-6.2-.71L648.89,95h0L649,95c1.63-.89,3.86-.73,6.32.69L839.4,202c5,2.89,9.06,9.92,9.06,15.7v113c0,2.8-1,4.78-2.52,5.76l3.34-1.93h0l0,0h0c1.62-1,2.63-3,2.63-5.85v-113C851.95,209.84,847.89,202.81,842.88,199.92Z"/><path class="clse-8" d="M759.51,259.24l-4.92-5.77c1.94-2.51,1.1-7.51-1.9-11.39a12.47,12.47,0,0,1-2.7-6.8c-.1-2.24.69-3.94,2.17-4.66l1.23-.6c4.81-2.36,11.23-1.34,17.62,2.79a37.21,37.21,0,0,1,5.32,4.19l5.32,5-2.17,4.82-5.32-5a27.46,27.46,0,0,0-3.92-3.09c-4.72-3-9.45-3.79-13-2.05l-1.23.6a.54.54,0,0,0-.25.54,1.41,1.41,0,0,0,.32.79C761.51,245.63,763,254.69,759.51,259.24Z"/><path class="clse-8" d="M736,226.11a13.13,13.13,0,0,1-4.88-2.52c-5.25-4.12-8.53-11.52-7.47-16.86a9.64,9.64,0,0,0-1-5.81,13,13,0,0,0-4.12-5l-2.88-2,1.09-5.71,2.88,2a24.63,24.63,0,0,1,7.83,9.58,18.32,18.32,0,0,1,1.84,11c-.46,2.33,1,5.57,3.27,7.38a4.55,4.55,0,0,0,3.49,1.16,2.55,2.55,0,0,0,2-2.16l.16-.47.91-2c2-4.27,6.41-5.7,11.54-3.74l.5.19.49.38c4.5,3.46,9.18,3.71,11.64.61l1.36-1.71a.3.3,0,0,0,0-.26.62.62,0,0,0-.16-.3l-6.83-7.09c-3-3.16-4.44-7.86-3.19-10.71l.16-.36,4.43-3.92,4.52,6.2-3.79,3.35a1.5,1.5,0,0,0,.43,1l6.83,7.09a12.63,12.63,0,0,1,3.17,5.76,6,6,0,0,1-.7,5L768.2,218c-3.7,4.65-10.62,4.41-17.38-.52-2.84-.91-5.25,0-6.35,2.36l-.82,1.77a5.75,5.75,0,0,1-4.6,4.65A7.46,7.46,0,0,1,736,226.11Z"/><path class="clse-8" d="M756.62,260.69c-19.65-4.8-39.3-28.12-43.8-52s7.83-39.37,27.48-34.57,39.3,28.12,43.8,52S776.27,265.49,756.62,260.69Zm-15-79.63c-16.51-4-26.87,9-23.09,29s20.29,39.64,36.79,43.67,26.87-9,23.09-29S758.11,185.09,741.6,181.06Z"/></g></g></g></g></svg>