<svg width="47" height="38" viewBox="0 0 47 38" fill="none" xmlns="http://www.w3.org/2000/svg">
<path d="M15.4051 4.39183C9.02259 4.39183 3.38593 7.62485 3.31847e-07 12.5623C0.689185 12.2569 1.3899 11.9564 2.10252 11.6621C8.67256 8.94952 14.9192 7.27402 19.6626 6.76929C17.2071 3.52657 13.7436 1.10988 9.74627 -1.21765e-07C12.7583 0.837801 15.4668 2.41888 17.6703 4.53471C16.9272 4.44398 16.1724 4.39183 15.4051 4.39183Z" transform="translate(18.7189 0.674973)" fill="#708AFF"/>
<path d="M0.160391 0.223155C0.106208 0.14934 0.0531511 0.0746706 -1.08709e-07 1.0205e-06C0.0529636 0.0747656 0.106302 0.149245 0.160391 0.223155Z" transform="translate(8.28582 30.1003)" fill="#708AFF"/>
<path d="M1.09853e-06 1.39159e-07C0.112678 0.019855 0.224886 0.0412297 0.336906 0.0631746C0.224886 0.0413247 0.112678 0.019855 1.09853e-06 1.39159e-07Z" transform="translate(26.7337 0.282623)" fill="#708AFF"/>
<path d="M-7.78125e-07 -1.21765e-07C0.120082 0.0242248 0.239601 0.0498747 0.358746 0.0764745C0.239507 0.0499697 0.120082 0.0242248 -7.78125e-07 -1.21765e-07Z" transform="translate(27.1759 0.366226)" fill="#708AFF"/>
<path d="M-8.23897e-07 -9.85713e-08C0.135643 0.0342947 0.270726 0.0700147 0.40515 0.107255C0.270632 0.0700147 0.135643 0.0341997 -8.23897e-07 -9.85713e-08Z" transform="translate(28.0418 0.562775)" fill="#708AFF"/>
<path d="M32.9784 3.32603C32.98 3.32451 32.9814 3.32299 32.983 3.32137C32.6396 2.1638 32.1904 1.05288 31.6465 6.95797e-07C28.0257 0.00921565 21.0998 1.84423 13.4937 4.98462C11.5615 5.78234 9.71937 6.60931 8.00278 7.44103C7.29138 9.4478 6.90282 11.6106 6.90282 13.8656C6.90282 19.2974 9.1557 24.1931 12.7618 27.6559C7.54804 27.019 2.99269 24.2151 4.57721e-08 20.1586C0.0389964 20.2116 0.0777114 20.2648 0.11727 20.3174C3.54276 24.8643 8.94628 27.7989 15.027 27.7989C25.3814 27.7989 33.7752 19.2923 33.7752 8.79895C33.7752 8.0285 33.7287 7.26917 33.6408 6.52276C33.64 6.52333 33.6394 6.5239 33.6386 6.52447C33.509 5.42628 33.285 4.35829 32.9784 3.32603Z" transform="translate(8.47302 10.2011)" fill="#708AFF"/>
<path d="M0 -3.01512e-07C0.0479017 0.102789 0.0967406 0.205009 0.146423 0.306754C0.0967406 0.204914 0.0479017 0.102694 0 -3.01512e-07Z" transform="translate(6.53839 27.1023)" fill="#708AFF"/>
<path d="M-2.68911e-07 -4.63865e-07C0.0412458 0.100319 0.0838048 0.199879 0.126738 0.299343C0.0838048 0.199879 0.0412458 0.100224 -2.68911e-07 -4.63865e-07Z" transform="translate(6.18995 26.3083)" fill="#708AFF"/>
<path d="M2.34582e-07 7.42184e-07C0.0389028 0.101175 0.0793052 0.20159 0.119895 0.301814C0.0793052 0.20159 0.0389028 0.101175 2.34582e-07 7.42184e-07Z" transform="translate(6.02759 25.901)" fill="#708AFF"/>
<path d="M-1.43038e-08 -1.18286e-06C0.0377777 0.105258 0.0771489 0.209758 0.116614 0.314163C0.0770552 0.209758 0.0376839 0.105258 -1.43038e-08 -1.18286e-06Z" transform="translate(5.87376 25.4876)" fill="#708AFF"/>
<path d="M0.021467 0.031255C0.0142489 0.0209 0.00721797 0.0104491 -9.72656e-08 -8.11764e-07C0.00721797 0.0104491 0.0143427 0.0209 0.021467 0.031255Z" transform="translate(8.13086 29.8793)" fill="#708AFF"/>
<path d="M-1.94531e-07 5.33445e-07C0.0442456 0.10089 0.0896163 0.201113 0.135549 0.301147C0.0896163 0.201113 0.0442456 0.10089 -1.94531e-07 5.33445e-07Z" transform="translate(6.36037 26.7089)" fill="#708AFF"/>
<path d="M9.38871e-05 9.97309e-07L-1.60202e-07 9.37703e-05C0.0953346 0.321572 0.198544 0.639633 0.310002 0.953701C0.19845 0.639728 0.0955224 0.321479 9.38871e-05 9.97309e-07Z" transform="translate(5.54398 24.4769)" fill="#708AFF"/>
<path d="M-1.35028e-06 -1.15966e-08C0.127674 0.0289748 0.254882 0.0594697 0.38162 0.0911045C0.254882 0.0594697 0.127768 0.0289748 -1.35028e-06 -1.15966e-08Z" transform="translate(27.6118 0.459702)" fill="#708AFF"/>
<path d="M0.0162171 0.199405C0.0106863 0.133 0.0048747 0.0665957 1.57341e-07 1.0205e-06C0.0048747 0.0665957 0.0106863 0.133 0.0162171 0.199405Z" transform="translate(4.80324 20.4104)" fill="#708AFF"/>
<path d="M-1.60202e-07 1.53655e-07C0.083617 0.00636512 0.16686 0.0143451 0.250196 0.0217551C0.16686 0.0143451 0.0837107 0.00627012 -1.60202e-07 1.53655e-07Z" transform="translate(24.9133 0.0536728)" fill="#708AFF"/>
<path d="M0.00543696 0.15732C0.00374962 0.10488 0.00121874 0.0526297 1.00126e-07 -6.95797e-08C0.00121874 0.0526297 0.00374962 0.10488 0.00543696 0.15732Z" transform="translate(4.75777 19.4729)" fill="#708AFF"/>
<path d="M-3.20404e-07 7.5378e-08C0.0742427 0.00370506 0.148019 0.00912007 0.222074 0.013775C0.148019 0.00921507 0.0742427 0.00380006 -3.20404e-07 7.5378e-08Z" transform="translate(24.4461 0.0241318)" fill="#708AFF"/>
<path d="M2.51746e-07 1.0147e-07C0.0593384 0.00152009 0.118208 0.00456005 0.177358 0.00665004C0.118114 0.00456005 0.0592447 0.00142509 2.51746e-07 1.0147e-07Z" transform="translate(23.9751 0.00627136)" fill="#708AFF"/>
<path d="M0.157204 0.311313C0.103959 0.208143 0.0515577 0.104311 1.1443e-07 1.43798e-06C0.0515577 0.104311 0.103865 0.208143 0.157204 0.311313Z" transform="translate(6.72305 27.4871)" fill="#708AFF"/>
<path d="M-5.26379e-07 -1.62353e-07C0.105739 0.0159598 0.21101 0.0335348 0.316281 0.0512997C0.21101 0.0335348 0.105739 0.0159598 -5.26379e-07 -1.62353e-07Z" transform="translate(26.2862 0.209282)" fill="#708AFF"/>
<path d="M0.0215604 0.206434C0.0141549 0.137654 0.00665561 0.0689689 -1.43038e-08 -7.42184e-07C0.00665561 0.0689689 0.0141549 0.137654 0.0215604 0.206434Z" transform="translate(4.84261 20.8741)" fill="#708AFF"/>
<path d="M7.32353e-07 -9.56721e-08C0.0987102 0.0124448 0.196855 0.02641 0.295096 0.0404699C0.196855 0.026505 0.0987102 0.0124448 7.32353e-07 -9.56721e-08Z" transform="translate(25.8334 0.146492)" fill="#708AFF"/>
<path d="M1.1443e-06 -1.79748e-07C0.0914925 0.00921477 0.182607 0.0200449 0.273724 0.0306848C0.182514 0.0201399 0.0914925 0.00921477 1.1443e-06 -1.79748e-07Z" transform="translate(25.3757 0.0945282)" fill="#708AFF"/>
<path d="M0.0107804 0.186768C0.0072182 0.124544 0.00299969 0.0624135 -2.57468e-08 -1.13647e-06C0.00299969 0.0624135 0.0072182 0.124544 0.0107804 0.186768Z" transform="translate(4.77493 19.9433)" fill="#708AFF"/>
<path d="M15.6908 20.2149C12.0846 16.7521 9.83176 11.8564 9.83176 6.42453C9.83176 4.16953 10.2203 2.00677 10.9317 3.01512e-07C5.89023 2.44272 1.93651 4.92668 1.45898e-07 6.83474C0.0954286 7.15622 0.198356 7.47447 0.309908 7.78853C0.316658 7.80744 0.322938 7.82653 0.329688 7.84544C0.367465 7.9507 0.406743 8.0552 0.446302 8.1596C0.458863 8.19266 0.470862 8.22591 0.483517 8.25897C0.52242 8.36015 0.562728 8.46056 0.603412 8.56079C0.617567 8.59584 0.63144 8.63118 0.645876 8.66614C0.687216 8.76646 0.729681 8.86602 0.772615 8.96548C0.787238 8.99921 0.80158 9.03312 0.816298 9.06675C0.860544 9.16764 0.905914 9.26796 0.951847 9.3679C0.966002 9.39868 0.980064 9.42946 0.994312 9.46015C1.04221 9.56294 1.09105 9.66516 1.14074 9.7669C1.15348 9.79293 1.16614 9.81896 1.17898 9.84499C1.23045 9.9493 1.28285 10.0531 1.33619 10.1563C1.33994 10.1563 1.3434 10.1564 1.34706 10.1564C1.71959 10.8772 2.13177 11.5733 2.58679 12.2374C2.59401 12.2477 2.60104 12.2583 2.60825 12.2686C2.65213 12.3324 2.69712 12.3952 2.74174 12.4583C2.79489 12.533 2.84795 12.6077 2.90213 12.6815C2.91104 12.6936 2.92004 12.7057 2.92894 12.7178C5.92163 16.7741 10.477 19.578 15.6908 20.2149Z" transform="translate(5.54408 17.6422)" fill="#3D6EDD"/>
<path d="M13.967 13.2372C17.3529 8.29982 22.9895 5.0668 29.3721 5.0668C30.1394 5.0668 30.8942 5.11895 31.6374 5.20977C29.4339 3.09394 26.7253 1.51287 23.7133 0.675066C23.7072 0.673356 23.7011 0.671742 23.695 0.670032C23.5606 0.632792 23.4255 0.597072 23.2899 0.562777C23.2738 0.558692 23.2577 0.554892 23.2416 0.550807C23.1149 0.519172 22.9878 0.488678 22.86 0.459703C22.8343 0.453813 22.8085 0.448398 22.7829 0.442698C22.6636 0.416098 22.5441 0.390448 22.4241 0.366223C22.3891 0.359193 22.3539 0.352638 22.3188 0.345798C22.2068 0.323853 22.0946 0.302479 21.9819 0.282624C21.9383 0.274929 21.8944 0.267994 21.8507 0.260584C21.7455 0.242819 21.6402 0.225244 21.5344 0.209284C21.482 0.201399 21.4293 0.194464 21.3767 0.186959C21.2786 0.172994 21.1803 0.158934 21.0816 0.146489C21.0204 0.138794 20.9589 0.132239 20.8975 0.125114C20.8064 0.114569 20.7154 0.103739 20.6238 0.0944294C20.5533 0.0873044 20.4823 0.0816044 20.4117 0.0753345C20.3283 0.0679245 20.2451 0.0599445 20.1615 0.0535796C20.08 0.0474046 19.9982 0.04294 19.9164 0.03781C19.8425 0.033155 19.7686 0.02774 19.6944 0.024035C19.5968 0.019095 19.4986 0.0161501 19.4006 0.0127301C19.3414 0.0107351 19.2826 0.0075998 19.2232 0.00607981C19.0654 0.00208983 18.907 -7.82772e-08 18.7482 -7.82772e-08C8.39386 -7.82772e-08 7.43796e-08 8.50654 7.43796e-08 18.9999C7.43796e-08 19.158 0.00206235 19.3156 0.00590574 19.4728C0.00712438 19.5253 0.00965526 19.5776 0.0113426 19.6301C0.0147173 19.7346 0.018092 19.8391 0.0230602 19.9432C0.02606 20.0056 0.0302785 20.0677 0.0338406 20.1299C0.0392776 20.2235 0.0446209 20.3171 0.0513703 20.4103C0.0562448 20.4769 0.0620568 20.5433 0.0675875 20.6097C0.0748993 20.6979 0.0822109 20.7861 0.0907414 20.874C0.097397 20.9429 0.104896 21.0116 0.112302 21.0804C0.119239 21.1452 0.125707 21.2101 0.1333 21.2747C3.46852 18.6013 8.30125 15.7475 13.967 13.2372Z" transform="translate(4.75196)" fill="#3D6EDD"/>
<path d="M46.8449 2.0792C46.1195 0.274496 42.9466 -0.323905 38.3816 0.161922C33.6382 0.666654 27.3916 2.34216 20.8215 5.05478C20.1089 5.34899 19.4082 5.64957 18.719 5.9549C13.0533 8.46517 8.22057 11.319 4.88526 13.9924C1.28607 16.8774 -0.570098 19.5519 0.155271 21.3562C0.880546 23.1603 4.05425 23.7569 8.61682 23.272C8.60791 23.2602 8.59929 23.248 8.59038 23.2362C8.55082 23.1836 8.51211 23.1304 8.47311 23.0774C8.46421 23.0653 8.45511 23.0533 8.4463 23.0411C8.39221 22.9672 8.33887 22.8928 8.28591 22.818C8.24129 22.7549 8.19629 22.692 8.15242 22.6283C8.1453 22.6179 8.13817 22.6075 8.13096 22.597C7.67594 21.9331 7.26376 21.2368 6.89123 20.516C6.88748 20.516 6.88401 20.5159 6.88036 20.5159C6.88036 20.5159 6.88036 20.5159 6.88026 20.5159C5.45399 20.5194 4.53945 20.2402 4.30013 19.6448C4.06081 19.0494 4.52127 18.2023 5.54398 17.1946L5.54408 17.1945C7.48058 15.2864 11.4343 12.8025 16.4758 10.3597C18.1924 9.52802 20.0345 8.70105 21.9667 7.90334C29.5728 4.76294 36.4987 2.92793 40.1196 2.91871C41.5466 2.9151 42.4606 3.19488 42.7 3.79043C42.9393 4.38569 42.4782 5.23271 41.456 6.24009C41.4544 6.24161 41.453 6.24313 41.4514 6.24474C41.7581 7.27701 41.982 8.34499 42.1118 9.44309C42.1125 9.44252 42.1132 9.44195 42.1139 9.44138C45.7115 6.55729 47.5701 3.88315 46.8449 2.0792Z" transform="translate(0 7.28233)" fill="#9DC1FF"/>
</svg>
