<svg viewBox="0 0 83 56" xmlns="http://www.w3.org/2000/svg">
<path d="M18.6272 19.5699C10.6877 19.5699 4.27509 13.2473 4.27509 5.41936C4.27509 5.21864 4.27509 5.01792 4.27509 4.8172C3.05363 3.21147 1.83218 1.60573 0.814303 -7.65674e-07C0.305363 1.70609 1.94145e-07 3.51255 1.94145e-07 5.41936C1.94145e-07 15.5556 8.3466 23.7849 18.6272 23.7849C20.2558 23.7849 21.7826 23.5842 23.3094 23.1828C21.7826 22.0789 20.2558 20.8746 18.6272 19.5699Z" transform="translate(6.35377 23.8853)" fill="#31E3A6"/>
<path d="M15.6753 0C14.6574 0 13.7414 0.100358 12.8253 0.200717C11.9092 0.301075 11.0949 0.501792 10.1788 0.802868C9.56806 1.00358 8.95733 1.2043 8.3466 1.40502C7.32872 1.80645 6.41263 2.30824 5.49654 2.91039C3.359 4.31541 1.42503 6.12186 -1.94145e-07 8.22939C0.712515 9.53405 1.6286 10.8387 2.5447 12.2437C4.78403 7.42652 9.77163 4.1147 15.5735 4.1147C23.513 4.1147 29.9256 10.4373 29.9256 18.2652C29.9256 24.1864 26.2613 29.2043 21.0701 31.3118C22.3933 32.3154 24.6327 34.2222 24.6327 34.2222L25.0398 34.0215C27.6863 32.4158 29.9256 30.2079 31.5542 27.5986C32.165 26.6953 32.5721 25.6918 32.9793 24.5878C33.1828 24.086 33.3864 23.4839 33.4882 22.9821C33.6918 22.3799 33.7936 21.7778 33.8953 21.1756C34.0989 20.172 34.2007 19.2688 34.2007 18.2652C34.2007 8.22939 25.9559 0 15.6753 0Z" transform="translate(9.30561 11.0394)" fill="#31E3A6"/>
<path d="M16.0329 18.8884C12.6739 16.2791 9.21315 13.168 5.95594 9.65542C4.02197 7.64825 2.18979 5.54072 0.459396 3.43319C-0.253119 2.52997 -0.151331 1.12495 0.866547 0.42244C1.78264 -0.280069 3.10588 -0.0793508 3.81839 0.823875C5.447 2.83104 7.17739 4.83821 9.00957 6.84538C12.165 10.1572 15.3204 13.0676 18.5776 15.5766L16.0329 18.8884Z" transform="translate(16.8875 25.47)" fill="#31E3A6"/>
<path d="M10.3238 12.7479C7.27015 10.3393 4.3183 7.52924 1.46824 4.51849C1.16288 4.21741 0.857517 3.81598 0.552153 3.5149C-0.262149 2.61168 -0.160363 1.30702 0.755728 0.50415C1.67182 -0.198359 2.89327 -0.198358 3.70758 0.704868C4.01294 1.00594 4.3183 1.30702 4.62366 1.70845C7.37194 4.61885 10.222 7.22816 13.0721 9.63677L10.3238 12.7479Z" transform="translate(27.9914 25.589)" fill="#31E3A6"/>
<path d="M42.8956 27.3139C42.7938 27.9161 42.5902 28.4179 42.3867 28.9197C41.9795 29.9232 41.4706 30.9268 40.9616 31.9304C45.6439 38.9555 46.4582 43.572 45.3385 44.6759C43.201 46.7835 31.8007 41.9663 19.5862 29.9232C7.37165 17.8802 2.48583 6.64009 4.62338 4.53256C5.43768 3.72969 8.89846 3.83005 14.8022 7.14188C15.7182 6.53973 16.6343 6.03794 17.6522 5.6365C18.2629 5.43579 18.8737 5.13471 19.4844 5.03435C11.1378 -0.184286 4.72516 -1.38859 1.67153 1.62217C-3.82501 7.04152 5.03053 21.4931 16.6343 32.934C25.7952 41.9663 36.8901 49.2924 43.8117 49.2924C45.6439 49.2924 47.2725 48.7906 48.3921 47.5863C53.0744 42.9698 46.56 32.4322 42.8956 27.3139Z" transform="translate(0 6.70758)" fill="white"/>
<path d="M27.5845 3.21147H1.62861C0.712516 3.21147 -7.76579e-07 2.50896 -7.76579e-07 1.60574C-7.76579e-07 0.702509 0.712516 0 1.62861 0H27.5845C28.5006 0 29.2131 0.702509 29.2131 1.60574C29.2131 2.50896 28.5006 3.21147 27.5845 3.21147Z" transform="translate(45.5421 8.53047)" fill="#31E3A6"/>
<path d="M27.5845 3.21147H1.62861C0.712516 3.21147 -7.76579e-07 2.50896 -7.76579e-07 1.60574C-7.76579e-07 0.70251 0.712516 3.82837e-07 1.62861 3.82837e-07H27.5845C28.5006 3.82837e-07 29.2131 0.70251 29.2131 1.60574C29.2131 2.50896 28.5006 3.21147 27.5845 3.21147Z" transform="translate(45.5421 18.1649)" fill="#31E3A6"/>
<path d="M19.6451 3.21147H1.11967C0.50894 3.21147 -1.55316e-06 2.50896 -1.55316e-06 1.60573C-1.55316e-06 0.702508 0.50894 7.65674e-07 1.11967 7.65674e-07H19.6451C20.2558 7.65674e-07 20.7647 0.702508 20.7647 1.60573C20.7647 2.50896 20.2558 3.21147 19.6451 3.21147Z" transform="translate(53.9905 27.2975)" fill="#31E3A6"/>
<path d="M19.7468 3.21147H1.11966C0.508938 3.21147 0 2.50896 0 1.60574C0 0.702511 0.508938 -7.65674e-07 1.11966 -7.65674e-07H19.7468C20.3576 -7.65674e-07 20.8665 0.702511 20.8665 1.60574C20.8665 2.50896 20.3576 3.21147 19.7468 3.21147Z" transform="translate(53.8887 36.9319)" fill="#31E3A6"/>
<path d="M38.2722 0H7.32872C3.25721 0 -7.7658e-07 3.21147 -7.7658e-07 7.22581V9.13262C-7.7658e-07 9.83513 0.407151 10.5376 1.01788 10.8387C2.34112 11.5412 4.07151 10.638 4.07151 9.03226V7.22581C4.07151 5.41935 5.49654 4.01434 7.32872 4.01434H38.2722C40.1044 4.01434 41.5294 5.41935 41.5294 7.22581V44.9606C41.5294 46.6667 40.1044 48.172 38.2722 48.172H19.3397C18.4236 48.172 17.6093 48.7742 17.4057 49.5771C17.1004 50.8817 18.0164 52.1864 19.3397 52.1864H38.2722C42.3437 52.1864 45.6009 48.9749 45.6009 44.9606V7.22581C45.6009 3.21147 42.3437 0 38.2722 0Z" transform="translate(37.3991)" fill="white"/>
</svg>
