<svg xmlns="http://www.w3.org/2000/svg" viewBox="0 0 41.46 65.58"><defs><style>.cls-1,.cls-2{fill:none;stroke:#31e3a6;stroke-linecap:round;stroke-linejoin:round;}.cls-2{stroke-width:0.3px;}</style></defs><title>Arrow</title><g id="Layer_2" data-name="Layer 2"><g id="OBJECTS"><path class="cls-1" d="M20.59,65.08S40.89,48,32.11,17.63l8.06-.09a.79.79,0,0,0,.55-1.35L26.08,1.34a2.8,2.8,0,0,0-3.93-.07L8.34,14.37a1.37,1.37,0,0,0,.88,2.36l9.27.43s3.3,28.37-18,38.6L16.29,55Z"/><path class="cls-2" d="M2.27,55.31c.11.1,1.13-1.5,1.25-1.39s.12,1.29.16,1.32l5-5.53C9,50,5.09,55.17,5.09,55.17c1.18,1.06,28.32-31.46,28.32-31.46L6.49,55.11C8.6,57,33.59,25,33.59,25c2.11,1.9-26,29.75-25.69,30L33.76,26.31S7,52.87,9.31,55c0,0,24.38-27.58,24.63-27.36.07.07-23.69,26.87-23.23,27.29,1,.94,22.6-26.59,23.34-25.92L12.12,54.83c1.45,1.3,22-24.42,22-24.42,1.07,1-20.58,24.35-20.58,24.35s19-24.39,20.63-22.91C36,33.53,14.93,54.7,14.93,54.7S34.19,33.31,34.19,33.31c1.36,1.22-18.3,20.92-17.85,21.32.08.07,17.75-19.71,17.75-19.71C35.27,36,15.52,54.39,16.84,55.58c0,0,16.12-20,17.15-19,1.21,1.09-16.78,20-16.72,20.06l16.57-18.4C34,38.36,17.7,57.6,17.7,57.6L33.54,40S17.62,58.16,18.14,58.61c0,0,14.06-17.73,15.11-16.79,0,0-15.59,17-14.68,17.8,0,0,12.91-16.86,14.16-15.73C33.18,44.3,18.26,60,19,60.64S32.18,46,32.18,46s-13.9,14.6-12.74,15.64c.47.42,11.61-13.42,11.87-13.19,0,0-12,13.71-11.44,14.2l10.3-11.44c.42.38-10.29,12.07-9.86,12.45s7.9-9.35,8.19-9.09c0,0-7.93,9.95-7.76,10.11.36.33,4.09-5.08,4.35-4.84"/><path class="cls-2" d="M32.32,17.3c.31.28,4.35-5.18,4.52-5,0,0-3.49,4.71-3.16,5,0,0,3.56-4.56,3.86-4.29.08.07-2.5,4.27-2.5,4.27s3.15-3.6,3.2-3.55l-1.84,3.53c.2.18,2.54-2.82,2.54-2.82s-1.19,2.78-1.17,2.8,1.88-2.08,1.88-2.08l-.51,2.06s1.21-1.35,1.21-1.35A10.39,10.39,0,0,0,40.64,17l.11-.12"/><path class="cls-2" d="M8.33,14.35c.07.07.59-.77.65-.72a16.14,16.14,0,0,1-.59,2.16S18.2,4.89,18.2,4.89,9,16.09,9.25,16.32L23.47.53c.86.77-13.26,15.6-13,15.88S23.9-.2,24.77.58c1.15,1-13.25,15.63-13,15.89.8.72,13.88-15.42,13.88-15.42S13,16.47,13.1,16.53C13.38,16.78,25.5.88,26.44,1.72c.39.35-12,14.87-12,14.87S26.82,2.14,27.14,2.43C28.13,3.33,15,16,15.68,16.65c.17.15,11.92-13.73,12.16-13.51S16.16,16,17,16.71L28.55,3.86S18,16.53,18.27,16.77c.92.83,11-12.2,11-12.2S18,17,18.74,17.75C19.12,18.09,29.44,4.82,30,5.28L18.81,19.16S29.65,5.09,30.66,6c.44.4-11.85,14.6-11.83,14.63.62.56,12.53-13.92,12.53-13.92,1.13,1-13.72,14.36-12.54,15.42.67.61,13.25-14.71,13.25-14.71S18.13,23.1,18.77,23.68c1.1,1,14-15.54,14-15.54.16.14-15.49,15.93-14.11,17.17.41.37,14.76-16.51,14.82-16.46s-16.19,17-15,18.13C18.5,27,33,8.55,34.18,9.56c0,0-16.78,18.35-15.9,19.15,0,0,16.4-18.62,16.6-18.44C36.33,11.58,18,30.55,18,30.55S34.36,9.89,35.58,11s-18,21.46-18,21.46C19.37,34,35.92,11.37,36.29,11.7c0,0-19.41,22.67-19.22,22.84,1.24,1.12,15-16.68,15-16.68,1.34,1.21-16.71,18.06-15.72,19S31.27,18.06,32.37,19c0,0-17.29,20-16.93,20.3,0,0,16.81-19.48,17.21-19.12L14,42.47c.84.76,18.77-21.22,19-21.05"/></g></g></svg>