<?xml version="1.0" encoding="utf-8"?>
<!-- Generator: Adobe Illustrator 19.2.0, SVG Export Plug-In . SVG Version: 6.00 Build 0)  -->
<svg version="1.1" id="Шар_1" xmlns="http://www.w3.org/2000/svg" xmlns:xlink="http://www.w3.org/1999/xlink" x="0px" y="0px"
	 viewBox="0 0 41.5 65.6" style="enable-background:new 0 0 41.5 65.6;" xml:space="preserve">
<style type="text/css">
	.st0{fill:none;stroke:#FC2A5D;stroke-linecap:round;stroke-linejoin:round;}
	.st1{fill:none;stroke:#FC2A5D;stroke-width:0.3;stroke-linecap:round;stroke-linejoin:round;}
</style>
<title>Arrow 2</title>
<g id="Layer_2">
	<g id="OBJECTS">
		<path class="st0" d="M25.2,55L41,55.8C19.7,45.5,23,17.2,23,17.2l9.3-0.4c0.4,0,0.7-0.2,0.9-0.4c0.5-0.5,0.5-1.4,0-1.9L19.3,1.3
			c-1.1-1.1-2.9-1-3.9,0.1L0.7,16.2c-0.1,0.1-0.2,0.3-0.2,0.6c0,0.4,0.3,0.8,0.8,0.8l8.1,0.1C0.6,48,20.9,65.1,20.9,65.1L25.2,55z"
			/>
		<path class="st1" d="M16.4,59.8c0.3-0.2,4,5.2,4.4,4.8c0.2-0.2-7.8-10.1-7.8-10.1c0.3-0.3,7.8,9.5,8.2,9.1
			c0.4-0.4-10.3-12.1-9.9-12.5l10.3,11.4c0.6-0.5-11.4-14.2-11.4-14.2c0.3-0.2,11.4,13.6,11.9,13.2C23.2,60.6,9.3,46,9.3,46
			s12.4,15.3,13.2,14.6S8.3,44.3,8.7,43.9c1.2-1.1,14.2,15.7,14.2,15.7c0.9-0.8-14.7-17.8-14.7-17.8c1-0.9,15.1,16.8,15.1,16.8
			C23.8,58.2,7.9,40,7.9,40l15.8,17.6c0,0-16.3-19.2-16.1-19.4l16.6,18.4c0.1-0.1-17.9-19-16.7-20.1c1-1,17.1,19,17.1,19
			C25.9,54.4,6.2,36,7.4,34.9c0,0,17.7,19.8,17.8,19.7c0.4-0.4-19.2-20.1-17.9-21.3l19.3,21.4c0,0-21.1-21.2-19.2-22.8
			c1.6-1.5,20.6,22.9,20.6,22.9S6.3,31.4,7.3,30.4c0,0,20.5,25.7,22,24.4L7.4,29c0.7-0.7,22.3,26.9,23.3,25.9
			c0.5-0.4-23.3-27.2-23.2-27.3C7.8,27.4,32.1,55,32.1,55c2.3-2.1-24.4-28.7-24.4-28.7L33.5,55c0.3-0.2-27.8-28.1-25.7-30
			c0,0,25,32,27.1,30.1L8,23.7c0,0,27.1,32.5,28.3,31.5c0,0-3.9-5.2-3.6-5.5l5,5.5c0,0,0-1.2,0.2-1.3s1.1,1.5,1.2,1.4"/>
		<path class="st1" d="M0.7,16.9L0.8,17c0.1-0.4,0.2-0.7,0.3-1.1l1.2,1.4l-0.5-2.1c0,0,1.9,2.1,1.9,2.1s-1.2-2.8-1.2-2.8
			s2.3,3,2.5,2.8l-1.8-3.5c0-0.1,3.2,3.6,3.2,3.6S3.8,13.1,3.9,13c0.3-0.3,3.9,4.3,3.9,4.3c0.3-0.3-3.2-5-3.2-5
			c0.2-0.2,4.2,5.3,4.5,5"/>
		<path class="st1" d="M8.4,21.4c0.2-0.2,18.2,21.8,19,21L8.8,20.2C9.2,19.8,26,39.3,26,39.3C26.4,39,9.1,19,9.1,19
			c1.1-0.9,15,18.8,16,17.9S8,19.1,9.4,17.9c0,0,13.8,17.8,15,16.7c0.2-0.2-19.2-22.8-19.2-22.8C5.5,11.4,22.1,34,23.9,32.5
			c0,0-19.2-20.3-18-21.5s17.6,19.5,17.6,19.5S5.1,11.6,6.6,10.3c0.2-0.2,16.6,18.4,16.6,18.4C24,27.9,7.3,9.6,7.3,9.6
			C8.4,8.6,22.9,27,23,27C24.2,25.9,7.9,8.9,8,8.9s14.4,16.8,14.8,16.5c1.4-1.2-14.3-17-14.1-17.2c0,0,12.9,16.5,14,15.5
			C23.3,23.1,9.4,7.4,9.4,7.4S22,22.7,22.6,22.1C23.8,21.1,9,7.7,10.1,6.7c0,0,11.9,14.5,12.5,13.9c0,0-12.3-14.2-11.8-14.6
			c1-0.9,11.9,13.2,11.9,13.2L11.4,5.3C12,4.8,22.3,18.1,22.7,17.8C23.4,17,12.2,4.6,12.2,4.6s10.1,13,11,12.2
			c0.3-0.2-10.3-12.9-10.3-12.9l11.6,12.8C25.3,16,13.4,3.4,13.6,3.1s12,13.7,12.2,13.5C26.4,16,13.3,3.3,14.3,2.4
			C14.6,2.1,27,16.6,27,16.6S14.6,2.1,15,1.7c0.9-0.8,13.1,15.1,13.3,14.8c0.1-0.1-12.6-15.5-12.6-15.5s13.1,16.1,13.9,15.4
			c0.2-0.3-14.2-14.9-13-15.9c0.9-0.8,14,16.1,14.3,15.8S17.1,1.3,18,0.5l14.2,15.8c0.2-0.2-9-11.4-9-11.4l9.8,10.9
			c-0.2-0.7-0.4-1.4-0.6-2.2c0.1-0.1,0.6,0.8,0.6,0.7"/>
	</g>
</g>
</svg>
