<svg xmlns="http://www.w3.org/2000/svg" xmlns:xlink="http://www.w3.org/1999/xlink" viewBox="0 0 2083.4 2015.65"><defs><style>.cls-1{isolation:isolate;}.cls-2{fill:#e1e6f0;}.cls-3{fill:#fff;}.cls-13,.cls-4{fill:#cad0e6;}.cls-5{fill:url(#linear-gradient);}.cls-6{fill:url(#linear-gradient-2);}.cls-7{fill:url(#linear-gradient-3);}.cls-8{fill:url(#linear-gradient-4);}.cls-9{fill:url(#linear-gradient-5);}.cls-10{fill:url(#linear-gradient-6);}.cls-11{fill:url(#linear-gradient-7);}.cls-12{fill:url(#linear-gradient-8);}.cls-13{mix-blend-mode:multiply;}.cls-14{fill:#e25987;}.cls-15{fill:#ce2454;}.cls-16{fill:#fc2a5d;}.cls-17{fill:#ff8c8c;}.cls-18{fill:url(#linear-gradient-9);}.cls-19{fill:#dce7f2;}.cls-20{fill:#ffb717;}.cls-21{fill:#4d81ff;}.cls-22{fill:#e2991a;}.cls-23{fill:#2abc84;}.cls-24{fill:#31e3a6;}</style><linearGradient id="linear-gradient" x1="608.1" y1="498.8" x2="510.05" y2="914.59" gradientUnits="userSpaceOnUse"><stop offset="0" stop-color="#e1e6f0"/><stop offset="1" stop-color="#fff"/></linearGradient><linearGradient id="linear-gradient-2" x1="502.35" y1="450.56" x2="709.92" y2="450.56" gradientUnits="userSpaceOnUse"><stop offset="0" stop-color="#fff"/><stop offset="1" stop-color="#e1e6f0"/></linearGradient><linearGradient id="linear-gradient-3" x1="60.71" y1="1200.95" x2="44.53" y2="1269.52" xlink:href="#linear-gradient"/><linearGradient id="linear-gradient-4" x1="0" y1="1182.79" x2="207.58" y2="1182.79" xlink:href="#linear-gradient-2"/><linearGradient id="linear-gradient-5" x1="414.01" y1="839.21" x2="364.38" y2="1049.65" xlink:href="#linear-gradient"/><linearGradient id="linear-gradient-6" x1="334.9" y1="808.76" x2="542.47" y2="808.76" xlink:href="#linear-gradient-2"/><linearGradient id="linear-gradient-7" x1="235.97" y1="1032.76" x2="205.59" y2="1161.58" xlink:href="#linear-gradient"/><linearGradient id="linear-gradient-8" x1="167.45" y1="1009.38" x2="375.03" y2="1009.38" xlink:href="#linear-gradient-2"/><linearGradient id="linear-gradient-9" x1="773.8" y1="870.99" x2="1096.87" y2="870.99" gradientUnits="userSpaceOnUse"><stop offset="0" stop-color="#dee8ff"/><stop offset="1" stop-color="#788acb"/></linearGradient></defs><title>Illustra 2</title><g class="cls-1"><g id="Layer_2" data-name="Layer 2"><g id="_1" data-name="1"><path class="cls-2" d="M1598.45,1698.09l459.44-265.26a50.55,50.55,0,0,0,25.51-44.19v-116l-559.65,323.11V1718.1A149.29,149.29,0,0,0,1598.45,1698.09Z"/><path class="cls-2" d="M598.54,1207l850.52,491.05a149.29,149.29,0,0,0,74.7,20V1595.76L573,1046.85v116A50.55,50.55,0,0,0,598.54,1207Z"/><path class="cls-3" d="M598.54,1091l850.52,491a149.39,149.39,0,0,0,149.39,0l459.44-265.26c34-19.64,34-68.74,0-88.38l-850.52-491a149.39,149.39,0,0,0-149.39,0L598.54,1002.66C564.52,1022.3,564.52,1071.4,598.54,1091Z"/><path class="cls-4" d="M620,1000.09l85.2-49.19a9.37,9.37,0,0,0,4.73-8.2V450.56L606.13,510.48v493.32A27.69,27.69,0,0,0,620,1000.09Z"/><path class="cls-5" d="M507.08,950.9l85.2,49.19a27.69,27.69,0,0,0,13.85,3.71V510.48L502.35,450.56V942.71A9.37,9.37,0,0,0,507.08,950.9Z"/><path class="cls-6" d="M507.08,458.75l85.2,49.19a27.71,27.71,0,0,0,27.71,0l85.2-49.19a9.46,9.46,0,0,0,0-16.39L620,393.17a27.7,27.7,0,0,0-27.71,0l-85.2,49.19A9.46,9.46,0,0,0,507.08,458.75Z"/><path class="cls-4" d="M117.64,1290.12l85.2-49.19a9.37,9.37,0,0,0,4.73-8.2v-49.95l-103.79,59.92v51.13A27.69,27.69,0,0,0,117.64,1290.12Z"/><path class="cls-7" d="M4.73,1240.93l85.2,49.19a27.69,27.69,0,0,0,13.85,3.71v-51.13L0,1182.79v49.95A9.37,9.37,0,0,0,4.73,1240.93Z"/><path class="cls-8" d="M4.73,1191l85.2,49.19a27.7,27.7,0,0,0,27.71,0l85.2-49.19a9.46,9.46,0,0,0,0-16.39l-85.2-49.19a27.71,27.71,0,0,0-27.71,0l-85.2,49.19A9.46,9.46,0,0,0,4.73,1191Z"/><path class="cls-4" d="M452.54,1096.77l85.2-49.19a9.37,9.37,0,0,0,4.73-8.19V808.76L438.69,868.68v231.8A27.69,27.69,0,0,0,452.54,1096.77Z"/><path class="cls-9" d="M339.63,1047.58l85.2,49.19a27.69,27.69,0,0,0,13.85,3.71V868.68L334.9,808.76v230.63A9.37,9.37,0,0,0,339.63,1047.58Z"/><path class="cls-10" d="M339.63,817l85.2,49.19a27.71,27.71,0,0,0,27.71,0L537.74,817a9.46,9.46,0,0,0,0-16.39l-85.2-49.19a27.7,27.7,0,0,0-27.71,0l-85.2,49.19A9.46,9.46,0,0,0,339.63,817Z"/><path class="cls-4" d="M285.09,1193.45l85.2-49.19a9.37,9.37,0,0,0,4.73-8.19V1009.38L271.24,1069.3v127.86A27.69,27.69,0,0,0,285.09,1193.45Z"/><path class="cls-11" d="M172.18,1144.25l85.2,49.19a27.69,27.69,0,0,0,13.85,3.71V1069.3l-103.79-59.92v126.68A9.37,9.37,0,0,0,172.18,1144.25Z"/><path class="cls-12" d="M172.18,1017.58l85.2,49.19a27.71,27.71,0,0,0,27.71,0l85.2-49.19a9.46,9.46,0,0,0,0-16.39L285.09,952a27.71,27.71,0,0,0-27.71,0l-85.2,49.19A9.46,9.46,0,0,0,172.18,1017.58Z"/><path class="cls-13" d="M1032.55,847.46,1856.26,1323a51.12,51.12,0,0,0,51.12,0l52.86-30.52a17.46,17.46,0,0,0,0-30.24L1136.52,786.71a51.12,51.12,0,0,0-51.12,0l-52.86,30.52A17.46,17.46,0,0,0,1032.55,847.46Z"/><path class="cls-14" d="M1917,502a120.45,120.45,0,0,0-44.12-44.12L1089.52,5.58a40.78,40.78,0,0,0-41.17,0l-24.13,13.93,864.2,498.95v720.63l24.13-13.93a40.78,40.78,0,0,0,20.58-35.65V562.23A120.45,120.45,0,0,0,1917,502Z"/><path class="cls-15" d="M1065.39,19.51l783.35,452.27A120.54,120.54,0,0,1,1909,576.16v627.27c0,31.69-34.31,51.5-61.75,35.65L1063.91,786.82a120.54,120.54,0,0,1-60.27-104.39V55.16C1003.64,23.47,1037.95,3.66,1065.39,19.51Z"/><path class="cls-3" d="M1096.42,71.06l721.11,416.33a106.28,106.28,0,0,1,53.14,92v576.66c0,27.95-30.25,45.41-54.45,31.44L1095.11,771.2a106.28,106.28,0,0,1-53.14-92V102.5C1042,74.55,1072.22,57.08,1096.42,71.06Z"/><path class="cls-16" d="M1116.3,217.24l435,251.15c27,15.61,36.68,35.29,36.68,58.19V874.44a21.9,21.9,0,0,1-32.85,19l-435-251.15a64.11,64.11,0,0,1-32.06-55.52V238.88C1088.08,222,1098.44,206.93,1116.3,217.24Z"/><path class="cls-2" d="M1631,518.26l192.33,111a44.05,44.05,0,0,1,22,38.15V786.08a15,15,0,0,1-22.57,13l-192.33-111a44.05,44.05,0,0,1-22-38.15V531.29A15,15,0,0,1,1631,518.26Z"/><path class="cls-2" d="M1631,952.57l89.5,51.67a44.05,44.05,0,0,1,22,38.15v60.25a15,15,0,0,1-22.57,13l-89.5-51.67a44.05,44.05,0,0,1-22-38.15V965.6A15,15,0,0,1,1631,952.57Z"/><polygon class="cls-3" points="1537.91 743.51 1431.37 709.39 1355.48 619.76 1293.72 647.84 1237.25 446.7 1126.83 446.7 1126.83 439.94 1242.38 439.94 1298.1 638.41 1357.34 611.49 1435.28 703.54 1539.98 737.07 1537.91 743.51"/><ellipse class="cls-3" cx="1538.95" cy="740.29" rx="14.32" ry="20.49" transform="translate(-168.39 703.18) rotate(-24.44)"/><ellipse class="cls-3" cx="1433.33" cy="706.46" rx="14.32" ry="20.49" transform="translate(-163.86 656.44) rotate(-24.44)"/><ellipse class="cls-3" cx="1356.41" cy="615.63" rx="14.32" ry="20.49" transform="translate(-133.17 616.47) rotate(-24.44)"/><ellipse class="cls-17" cx="1356.41" cy="615.63" rx="8.96" ry="12.82" transform="translate(-133.17 616.47) rotate(-24.44)"/><ellipse class="cls-3" cx="1295.91" cy="643.12" rx="14.32" ry="20.49" transform="translate(-149.97 593.9) rotate(-24.44)"/><ellipse class="cls-3" cx="1239.65" cy="445.7" rx="9.32" ry="13.33" transform="translate(-73.32 552.92) rotate(-24.44)"/><ellipse class="cls-3" cx="1126.83" cy="443.32" rx="14.32" ry="20.49" transform="matrix(0.91, -0.41, 0.41, 0.91, -82.45, 506.02)"/><path class="cls-4" d="M1609.64,713.72c0-4.14,2.52-6,5.62-4.25l73.22,42.27c3.1,1.79,5.62,6.6,5.62,10.73s-2.52,6-5.62,4.25l-73.22-42.27C1612.16,722.66,1609.64,717.85,1609.64,713.72Z"/><path class="cls-2" d="M1649.21,766.37c0-4.14,2.52-6,5.62-4.25L1728,804.4c3.1,1.79,5.62,6.6,5.62,10.73s-2.52,6-5.62,4.25l-73.22-42.27C1651.72,775.31,1649.21,770.51,1649.21,766.37Z"/><path class="cls-2" d="M1611.18,797.48c0-11.47,7-16.74,15.58-11.78l203,117.21c8.6,5,15.58,18.29,15.58,29.76s-7,16.74-15.58,11.78l-203-117.21C1618.15,822.28,1611.18,809,1611.18,797.48Z"/><path class="cls-2" d="M1350.74,311.2c0-11.47,7-16.74,15.58-11.78L1829.79,567c8.6,5,15.58,18.29,15.58,29.76s-7,16.74-15.58,11.78L1366.32,341C1357.72,336,1350.74,322.67,1350.74,311.2Z"/><path class="cls-2" d="M1084.58,157.53c0-11.47,7-16.74,15.58-11.78l212.36,122.61c8.6,5,15.58,18.29,15.58,29.76s-7,16.74-15.58,11.78L1100.16,187.29C1091.55,182.32,1084.58,169,1084.58,157.53Z"/><path class="cls-2" d="M1611.18,860.11c0-11.47,7-16.74,15.58-11.78l203,117.21c8.6,5,15.58,18.29,15.58,29.76s-7,16.74-15.58,11.78l-203-117.21C1618.15,884.91,1611.18,871.58,1611.18,860.11Z"/><path class="cls-2" d="M1703.33,767.8c0-4.14,2.52-6,5.62-4.25l20.1,11.61c3.1,1.79,5.62,6.6,5.62,10.73s-2.52,6-5.62,4.25l-20.1-11.61C1705.84,776.75,1703.33,771.94,1703.33,767.8Z"/><path class="cls-4" d="M1414.23,296.67c0-4.14,2.52-6,5.62-4.25l73.22,42.27c3.1,1.79,5.62,6.6,5.62,10.73s-2.52,6-5.62,4.25l-73.22-42.27C1416.75,305.61,1414.23,300.81,1414.23,296.67Z"/><path class="cls-2" d="M1507.92,350.76c0-4.14,2.52-6,5.62-4.25l20.1,11.61c3.1,1.79,5.62,6.6,5.62,10.73s-2.52,6-5.62,4.25l-20.1-11.61C1510.43,359.7,1507.92,354.89,1507.92,350.76Z"/><path class="cls-3" d="M1366.33,320.88c0-4.14,2.52-6,5.62-4.25l36.61,21.14c3.1,1.79,5.62,6.6,5.62,10.73s-2.52,6-5.62,4.25l-36.61-21.14C1368.84,329.82,1366.33,325,1366.33,320.88Z"/><path class="cls-2" d="M1803.45,525.1c0-4.14,2.52-6,5.62-4.25l20.1,11.61c3.1,1.79,5.62,6.6,5.62,10.73s-2.52,6-5.62,4.25l-20.1-11.61C1806,534,1803.44,529.23,1803.45,525.1Z"/><path class="cls-2" d="M1609.64,743c0-4.14,2.52-6,5.62-4.25l20.1,11.61c3.1,1.79,5.62,6.6,5.62,10.73s-2.52,6-5.62,4.25l-20.1-11.61C1612.16,752,1609.64,747.15,1609.64,743Z"/><path class="cls-2" d="M1757.9,1030.49c0-4.14,2.52-6,5.62-4.25l73.22,42.27c3.1,1.79,5.62,6.6,5.62,10.73s-2.52,6-5.62,4.25l-73.22-42.27C1760.41,1039.43,1757.9,1034.63,1757.9,1030.49Z"/><path class="cls-2" d="M1757.9,1087.73c0-4.14,2.52-6,5.62-4.25l73.22,42.27c3.1,1.79,5.62,6.6,5.62,10.73s-2.52,6-5.62,4.25l-73.22-42.27C1760.41,1096.67,1757.9,1091.87,1757.9,1087.73Z"/><path class="cls-4" d="M1757.9,1117c0-4.14,2.52-6,5.62-4.25l44.3,25.58c3.1,1.79,5.62,6.6,5.62,10.73s-2.52,6-5.62,4.25l-44.3-25.58C1760.41,1126,1757.9,1121.17,1757.9,1117Z"/><path class="cls-2" d="M1797.46,1083.15c0-4.14,2.52-6,5.62-4.25l31.72,18.31c3.1,1.79,5.62,6.6,5.62,10.73s-2.52,6-5.62,4.25l-31.72-18.31C1800,1092.09,1797.46,1087.28,1797.46,1083.15Z"/><path class="cls-4" d="M1757.9,1059.79c0-4.14,2.52-6,5.62-4.25l20.1,11.61c3.1,1.79,5.62,6.6,5.62,10.73s-2.52,6-5.62,4.25l-20.1-11.61C1760.41,1068.74,1757.9,1063.93,1757.9,1059.79Z"/><path class="cls-2" d="M1208.11,711.41l89.5,51.67a44.05,44.05,0,0,1,22,38.15v60.25a15,15,0,0,1-22.57,13l-89.5-51.67a44.05,44.05,0,0,1-22-38.15V724.44A15,15,0,0,1,1208.11,711.41Z"/><path class="cls-4" d="M1335,789.33c0-4.14,2.52-6,5.62-4.25l73.22,42.27c3.1,1.79,5.62,6.6,5.62,10.73s-2.52,6-5.62,4.25l-73.22-42.27C1337.5,798.27,1335,793.47,1335,789.33Z"/><path class="cls-2" d="M1335,846.57c0-4.14,2.52-6,5.62-4.25l73.22,42.27c3.1,1.79,5.62,6.6,5.62,10.73s-2.52,6-5.62,4.25L1340.6,857.3C1337.5,855.51,1335,850.71,1335,846.57Z"/><path class="cls-2" d="M1335,875.87c0-4.14,2.52-6,5.62-4.25l44.3,25.58c3.1,1.79,5.62,6.6,5.62,10.73s-2.52,6-5.62,4.25l-44.3-25.58C1337.5,884.81,1335,880,1335,875.87Z"/><path class="cls-4" d="M1374.55,842c0-4.14,2.52-6,5.62-4.25l31.72,18.31c3.1,1.79,5.62,6.6,5.62,10.73s-2.52,6-5.62,4.25l-31.72-18.31C1377.07,850.93,1374.55,846.12,1374.55,842Z"/><path class="cls-2" d="M1335,818.63c0-4.14,2.52-6,5.62-4.25l20.1,11.61c3.1,1.79,5.62,6.6,5.62,10.73s-2.52,6-5.62,4.25l-20.1-11.61C1337.5,827.57,1335,822.77,1335,818.63Z"/><path class="cls-2" d="M1649.21,933.63c0-4.14,2.52-6,5.62-4.25L1728,971.65c3.1,1.79,5.62,6.6,5.62,10.73s-2.52,6-5.62,4.25l-73.22-42.27C1651.72,942.57,1649.21,937.76,1649.21,933.63Z"/><path class="cls-2" d="M1609.64,910.27c0-4.14,2.52-6,5.62-4.25l20.1,11.61c3.1,1.79,5.62,6.6,5.62,10.73s-2.52,6-5.62,4.25L1615.26,921C1612.16,919.22,1609.64,914.41,1609.64,910.27Z"/><polygon class="cls-3" points="1531.11 660.54 1531.11 536.63 1551.3 548.29 1551.3 672.2 1531.11 660.54"/><polygon class="cls-3" points="1497.65 633.77 1497.65 551.78 1517.84 563.44 1517.84 645.42 1497.65 633.77"/><polygon class="cls-3" points="1464.2 614.45 1464.2 560.71 1484.39 572.37 1484.39 626.11 1464.2 614.45"/><polygon class="cls-3" points="1430.75 595.14 1430.75 560.7 1450.94 572.35 1450.94 606.79 1430.75 595.14"/><polygon class="cls-3" points="1397.29 575.82 1397.29 560.93 1417.48 572.59 1417.48 587.48 1397.29 575.82"/><path class="cls-13" d="M673.34,1085.88l224.47,129.6a73,73,0,0,0,73,0l224.47-129.6a24.93,24.93,0,0,0,0-43.18L970.81,913.1a73,73,0,0,0-73,0L673.34,1042.7A24.93,24.93,0,0,0,673.34,1085.88Z"/><path class="cls-2" d="M970.81,1154.34l224.47-129.6a24.7,24.7,0,0,0,12.47-21.59V946.47L934.31,1104.34v59.77A72.94,72.94,0,0,0,970.81,1154.34Z"/><path class="cls-2" d="M673.34,1024.74l224.47,129.6a72.94,72.94,0,0,0,36.5,9.78v-59.77L660.88,946.47v56.67A24.7,24.7,0,0,0,673.34,1024.74Z"/><path class="cls-3" d="M673.34,968.06l224.47,129.6a73,73,0,0,0,73,0l224.47-129.6a24.93,24.93,0,0,0,0-43.18L970.81,795.28a73,73,0,0,0-73,0L673.34,924.88A24.93,24.93,0,0,0,673.34,968.06Z"/><path class="cls-13" d="M1049.9,859.79c-29.58-20.15-70.45-32.61-115.59-32.61C844,827.18,770.84,877,770.84,938.52S844,1049.86,934.31,1049.86c45.14,0,86-12.46,115.59-32.61s47.88-48,47.88-78.73S1079.48,879.94,1049.9,859.79Z"/><path class="cls-18" d="M1039.93,803.65c-28.49-16.44-65.35-26.37-105.62-26.37s-77.13,9.92-105.62,26.37H770.84v49.71c0,61.49,73.19,111.34,163.47,111.34,45.14,0,86-12.46,115.59-32.61s47.88-48,47.88-78.73V803.65Z"/><path class="cls-19" d="M1049.9,724.92c-29.58-20.15-70.45-32.61-115.59-32.61-90.28,0-163.47,49.85-163.47,111.34H934.31Z"/><path class="cls-20" d="M1049.9,682.63C1020.32,662.48,979.45,650,934.31,650,844,650,770.84,699.86,770.84,761.35H934.31Z"/><path class="cls-3" d="M770.84,803.65C770.84,865.14,844,915,934.31,915c45.14,0,86-12.46,115.59-32.61L934.31,803.65Z"/><path class="cls-21" d="M1097.78,803.65c0-30.74-18.3-58.58-47.88-78.73L934.31,803.65l115.59,78.73C1079.48,862.23,1097.78,834.39,1097.78,803.65Z"/><rect class="cls-22" x="770.84" y="761.35" width="163.47" height="42.3"/><polygon class="cls-23" points="934.31 720.04 934.31 803.65 1049.9 882.38 1049.9 798.77 934.31 720.04"/><polygon class="cls-23" points="1097.78 720.04 1097.78 853.36 1049.9 882.38 1049.9 772.07 1097.78 720.04"/><path class="cls-4" d="M1097.78,720c0-30.74-18.3-58.58-47.88-78.73L934.31,720l115.59,78.73C1079.48,778.62,1097.78,750.79,1097.78,720Z"/><path class="cls-24" d="M1097.78,720c0-30.74-18.3-58.58-47.88-78.73L934.31,720l115.59,78.73C1079.48,778.62,1097.78,750.79,1097.78,720Z"/><path class="cls-2" d="M838.82,2000.22,1193,1795.74a39,39,0,0,0,19.67-34.06v-89.41L781.24,1921.34v94.31A115.08,115.08,0,0,0,838.82,2000.22Z"/><path class="cls-2" d="M369.5,1795.74l354.16,204.48a115.08,115.08,0,0,0,57.58,15.43v-94.31L349.83,1672.27v89.41A39,39,0,0,0,369.5,1795.74Z"/><path class="cls-3" d="M369.5,1706.33,723.66,1910.8a115.16,115.16,0,0,0,115.16,0L1193,1706.33c26.22-15.14,26.22-53,0-68.13L838.82,1433.73a115.16,115.16,0,0,0-115.16,0L369.5,1638.2C343.27,1653.34,343.27,1691.19,369.5,1706.33Z"/><path class="cls-14" d="M901.34,1639.87H895v17.71c0,19,20.39,35.05,48.73,40.84v-81.69C924.84,1620.59,909.47,1629,901.34,1639.87Z"/><path class="cls-14" d="M955,1615v85.07a119.58,119.58,0,0,0,12,.61v-86.28A119.6,119.6,0,0,0,955,1615Z"/><path class="cls-14" d="M966.92,1614.44v86.28c4,0,7.94-.21,11.77-.58V1615C974.86,1614.64,970.93,1614.44,966.92,1614.44Z"/><path class="cls-16" d="M1032.5,1639.87c-8.16-10.87-23.61-19.33-42.61-23.18v81.76c28.44-5.75,48.93-21.87,48.93-40.88v-17.71Z"/><path class="cls-14" d="M978.69,1615v85.11a112.08,112.08,0,0,0,11.21-1.68v-81.76A112.15,112.15,0,0,0,978.69,1615Z"/><path class="cls-14" d="M943.75,1616.73v81.69a112.13,112.13,0,0,0,11.21,1.7V1615A112.3,112.3,0,0,0,943.75,1616.73Z"/><ellipse class="cls-15" cx="966.92" cy="1639.87" rx="71.9" ry="43.14"/><path class="cls-14" d="M759.48,1587.87h-6.32v17.71c0,19,20.39,35.05,48.73,40.84v-81.69C783,1568.59,767.61,1577,759.48,1587.87Z"/><path class="cls-14" d="M813.1,1563v85.07a119.58,119.58,0,0,0,12,.61v-86.28A119.6,119.6,0,0,0,813.1,1563Z"/><path class="cls-14" d="M825.06,1562.44v86.28c4,0,7.94-.21,11.77-.58V1563C833,1562.65,829.07,1562.44,825.06,1562.44Z"/><path class="cls-16" d="M890.64,1587.87C882.48,1577,867,1568.54,848,1564.7v81.76c28.44-5.75,48.93-21.87,48.93-40.88v-17.71Z"/><path class="cls-14" d="M836.83,1563v85.11a112.09,112.09,0,0,0,11.21-1.68V1564.7A112.09,112.09,0,0,0,836.83,1563Z"/><path class="cls-14" d="M801.89,1564.73v81.69a112.13,112.13,0,0,0,11.21,1.7V1563A112.3,112.3,0,0,0,801.89,1564.73Z"/><ellipse class="cls-15" cx="825.06" cy="1587.87" rx="71.9" ry="43.14"/><ellipse class="cls-3" cx="825.06" cy="1587.87" rx="43.27" ry="25.96"/><path class="cls-14" d="M759.48,1563.17h-6.32v17.71c0,19,20.39,35.05,48.73,40.84V1540C783,1543.89,767.61,1552.34,759.48,1563.17Z"/><path class="cls-14" d="M813.1,1538.34v85.07a119.58,119.58,0,0,0,12,.61v-86.28A119.63,119.63,0,0,0,813.1,1538.34Z"/><path class="cls-14" d="M825.06,1537.74V1624c4,0,7.94-.21,11.77-.58v-85.11C833,1537.94,829.07,1537.74,825.06,1537.74Z"/><path class="cls-16" d="M890.64,1563.17C882.48,1552.31,867,1543.84,848,1540v81.76c28.44-5.75,48.93-21.87,48.93-40.88v-17.71Z"/><path class="cls-14" d="M836.83,1538.32v85.11a112.12,112.12,0,0,0,11.21-1.68V1540A112.12,112.12,0,0,0,836.83,1538.32Z"/><path class="cls-14" d="M801.89,1540v81.69a112.17,112.17,0,0,0,11.21,1.7v-85.07A112.33,112.33,0,0,0,801.89,1540Z"/><ellipse class="cls-15" cx="825.06" cy="1563.17" rx="71.9" ry="43.14"/><path class="cls-14" d="M759.48,1537.65h-6.32v17.71c0,19,20.39,35.05,48.73,40.84v-81.69C783,1518.37,767.61,1526.82,759.48,1537.65Z"/><path class="cls-14" d="M813.1,1512.82v85.07a119.58,119.58,0,0,0,12,.61v-86.28A119.6,119.6,0,0,0,813.1,1512.82Z"/><path class="cls-14" d="M825.06,1512.22v86.28c4,0,7.94-.21,11.77-.58V1512.8C833,1512.42,829.07,1512.22,825.06,1512.22Z"/><path class="cls-16" d="M890.64,1537.65c-8.16-10.87-23.61-19.33-42.61-23.18v81.76c28.44-5.75,48.93-21.87,48.93-40.88v-17.71Z"/><path class="cls-14" d="M836.83,1512.8v85.11a112.09,112.09,0,0,0,11.21-1.68v-81.76A112.12,112.12,0,0,0,836.83,1512.8Z"/><path class="cls-14" d="M801.89,1514.51v81.69a112.14,112.14,0,0,0,11.21,1.7v-85.07A112.31,112.31,0,0,0,801.89,1514.51Z"/><ellipse class="cls-15" cx="825.06" cy="1537.65" rx="71.9" ry="43.14"/><path class="cls-14" d="M759.48,1512.12h-6.32v17.71c0,19,20.39,35.05,48.73,40.84V1489C783,1492.84,767.61,1501.29,759.48,1512.12Z"/><path class="cls-14" d="M813.1,1487.29v85.07a119.58,119.58,0,0,0,12,.61v-86.28A119.6,119.6,0,0,0,813.1,1487.29Z"/><path class="cls-14" d="M825.06,1486.69V1573c4,0,7.94-.21,11.77-.58v-85.11C833,1486.9,829.07,1486.69,825.06,1486.69Z"/><path class="cls-16" d="M890.64,1512.12c-8.16-10.87-23.61-19.33-42.61-23.18v81.76c28.44-5.75,48.93-21.87,48.93-40.88v-17.71Z"/><path class="cls-14" d="M836.83,1487.27v85.11a112.09,112.09,0,0,0,11.21-1.68v-81.76A112.14,112.14,0,0,0,836.83,1487.27Z"/><path class="cls-14" d="M801.89,1489v81.69a112.17,112.17,0,0,0,11.21,1.7v-85.07A112.34,112.34,0,0,0,801.89,1489Z"/><ellipse class="cls-15" cx="825.06" cy="1512.12" rx="71.9" ry="43.14"/><path class="cls-14" d="M759.48,1486.6h-6.32v17.71c0,19,20.39,35.05,48.73,40.84v-81.69C783,1467.32,767.61,1475.77,759.48,1486.6Z"/><path class="cls-14" d="M813.1,1461.77v85.07a119.58,119.58,0,0,0,12,.61v-86.28A119.6,119.6,0,0,0,813.1,1461.77Z"/><path class="cls-14" d="M825.06,1461.17v86.28c4,0,7.94-.21,11.77-.58v-85.11C833,1461.37,829.07,1461.17,825.06,1461.17Z"/><path class="cls-16" d="M890.64,1486.6c-8.16-10.87-23.61-19.33-42.61-23.18v81.76c28.44-5.75,48.93-21.87,48.93-40.88V1486.6Z"/><path class="cls-14" d="M836.83,1461.75v85.11a112.09,112.09,0,0,0,11.21-1.68v-81.76A112.14,112.14,0,0,0,836.83,1461.75Z"/><path class="cls-14" d="M801.89,1463.46v81.69a112.14,112.14,0,0,0,11.21,1.7v-85.07A112.31,112.31,0,0,0,801.89,1463.46Z"/><ellipse class="cls-15" cx="825.06" cy="1486.6" rx="71.9" ry="43.14"/><path class="cls-14" d="M759.48,1461.07h-6.32v17.71c0,19,20.39,35.05,48.73,40.84v-81.69C783,1441.8,767.61,1450.24,759.48,1461.07Z"/><path class="cls-14" d="M813.1,1436.24v85.07a119.58,119.58,0,0,0,12,.61v-86.28A119.6,119.6,0,0,0,813.1,1436.24Z"/><path class="cls-14" d="M825.06,1435.64v86.28c4,0,7.94-.21,11.77-.58v-85.11C833,1435.85,829.07,1435.64,825.06,1435.64Z"/><path class="cls-16" d="M890.64,1461.07c-8.16-10.87-23.61-19.33-42.61-23.18v81.76c28.44-5.75,48.93-21.87,48.93-40.88v-17.71Z"/><path class="cls-14" d="M836.83,1436.23v85.11a112.09,112.09,0,0,0,11.21-1.68V1437.9A112.12,112.12,0,0,0,836.83,1436.23Z"/><path class="cls-14" d="M801.89,1437.94v81.69a112.14,112.14,0,0,0,11.21,1.7v-85.07A112.31,112.31,0,0,0,801.89,1437.94Z"/><ellipse class="cls-15" cx="825.06" cy="1461.07" rx="71.9" ry="43.14"/><path class="cls-14" d="M759.48,1435.55h-6.32v17.71c0,19,20.39,35.05,48.73,40.84v-81.69C783,1416.27,767.61,1424.72,759.48,1435.55Z"/><path class="cls-14" d="M813.1,1410.72v85.07a119.58,119.58,0,0,0,12,.61v-86.28A119.6,119.6,0,0,0,813.1,1410.72Z"/><path class="cls-14" d="M825.06,1410.12v86.28c4,0,7.94-.21,11.77-.58V1410.7C833,1410.32,829.07,1410.12,825.06,1410.12Z"/><path class="cls-16" d="M890.64,1435.55c-8.16-10.87-23.61-19.33-42.61-23.18v81.76c28.44-5.75,48.93-21.87,48.93-40.88v-17.71Z"/><path class="cls-14" d="M836.83,1410.7v85.11a112.09,112.09,0,0,0,11.21-1.68v-81.76A112.11,112.11,0,0,0,836.83,1410.7Z"/><path class="cls-14" d="M801.89,1412.41v81.69a112.14,112.14,0,0,0,11.21,1.7v-85.07A112.34,112.34,0,0,0,801.89,1412.41Z"/><ellipse class="cls-15" cx="825.06" cy="1435.55" rx="71.9" ry="43.14"/><path class="cls-14" d="M658.42,1665.2H652.1v17.71c0,19,20.39,35.05,48.73,40.84v-81.69C681.93,1645.92,666.56,1654.37,658.42,1665.2Z"/><path class="cls-14" d="M712,1640.37v85.07a119.58,119.58,0,0,0,12,.61v-86.28A119.6,119.6,0,0,0,712,1640.37Z"/><path class="cls-14" d="M724,1639.77V1726c4,0,7.94-.21,11.77-.58v-85.11C731.94,1640,728,1639.77,724,1639.77Z"/><path class="cls-16" d="M789.59,1665.2C781.43,1654.33,766,1645.86,747,1642v81.76c28.44-5.75,48.93-21.87,48.93-40.88V1665.2Z"/><path class="cls-14" d="M735.77,1640.35v85.11a112.09,112.09,0,0,0,11.21-1.68V1642A112.12,112.12,0,0,0,735.77,1640.35Z"/><path class="cls-14" d="M700.83,1642.06v81.69a112.13,112.13,0,0,0,11.21,1.7v-85.07A112.33,112.33,0,0,0,700.83,1642.06Z"/><ellipse class="cls-15" cx="724.01" cy="1665.2" rx="71.9" ry="43.14"/><ellipse class="cls-3" cx="724.01" cy="1665.2" rx="43.27" ry="25.96"/><path class="cls-14" d="M658.42,1640.5H652.1v17.71c0,19,20.39,35.05,48.73,40.84v-81.69C681.93,1621.22,666.56,1629.67,658.42,1640.5Z"/><path class="cls-14" d="M712,1615.67v85.07a119.58,119.58,0,0,0,12,.61v-86.28A119.6,119.6,0,0,0,712,1615.67Z"/><path class="cls-14" d="M724,1615.07v86.28c4,0,7.94-.21,11.77-.58v-85.11C731.94,1615.27,728,1615.07,724,1615.07Z"/><path class="cls-16" d="M789.59,1640.5c-8.16-10.87-23.61-19.33-42.61-23.18v81.76c28.44-5.75,48.93-21.87,48.93-40.88V1640.5Z"/><path class="cls-14" d="M735.77,1615.65v85.11a112.12,112.12,0,0,0,11.21-1.68v-81.76A112.12,112.12,0,0,0,735.77,1615.65Z"/><path class="cls-14" d="M700.83,1617.36V1699a112.14,112.14,0,0,0,11.21,1.7v-85.07A112.33,112.33,0,0,0,700.83,1617.36Z"/><ellipse class="cls-15" cx="724.01" cy="1640.5" rx="71.9" ry="43.14"/><path class="cls-14" d="M658.42,1615H652.1v17.71c0,19,20.39,35.05,48.73,40.84v-81.69C681.93,1595.69,666.56,1604.14,658.42,1615Z"/><path class="cls-14" d="M712,1590.14v85.07a119.58,119.58,0,0,0,12,.61v-86.28A119.6,119.6,0,0,0,712,1590.14Z"/><path class="cls-14" d="M724,1589.54v86.28c4,0,7.94-.21,11.77-.58v-85.11C731.94,1589.75,728,1589.54,724,1589.54Z"/><path class="cls-16" d="M789.59,1615c-8.16-10.87-23.61-19.33-42.61-23.18v81.76c28.44-5.75,48.93-21.87,48.93-40.88V1615Z"/><path class="cls-14" d="M735.77,1590.12v85.11a112.09,112.09,0,0,0,11.21-1.68V1591.8A112.09,112.09,0,0,0,735.77,1590.12Z"/><path class="cls-14" d="M700.83,1591.83v81.69a112.14,112.14,0,0,0,11.21,1.7v-85.07A112.31,112.31,0,0,0,700.83,1591.83Z"/><ellipse class="cls-15" cx="724.01" cy="1614.97" rx="71.9" ry="43.14"/><path class="cls-14" d="M658.42,1589.45H652.1v17.71c0,19,20.39,35.05,48.73,40.84v-81.69C681.93,1570.17,666.56,1578.62,658.42,1589.45Z"/><path class="cls-14" d="M712,1564.62v85.07a119.61,119.61,0,0,0,12,.61V1564A119.6,119.6,0,0,0,712,1564.62Z"/><path class="cls-14" d="M724,1564v86.28c4,0,7.94-.21,11.77-.58V1564.6C731.94,1564.22,728,1564,724,1564Z"/><path class="cls-16" d="M789.59,1589.45c-8.16-10.87-23.61-19.33-42.61-23.18V1648c28.44-5.75,48.93-21.87,48.93-40.88v-17.71Z"/><path class="cls-14" d="M735.77,1564.6v85.11A112.09,112.09,0,0,0,747,1648v-81.76A112.14,112.14,0,0,0,735.77,1564.6Z"/><path class="cls-14" d="M700.83,1566.31V1648a112.17,112.17,0,0,0,11.21,1.7v-85.07A112.31,112.31,0,0,0,700.83,1566.31Z"/><ellipse class="cls-15" cx="724.01" cy="1589.45" rx="71.9" ry="43.14"/><path class="cls-14" d="M730.33,1777.47H724v17.71c0,19,20.39,35.05,48.73,40.84v-81.69C753.83,1758.19,738.46,1766.64,730.33,1777.47Z"/><path class="cls-14" d="M783.95,1752.64v85.07a119.58,119.58,0,0,0,12,.61V1752A119.6,119.6,0,0,0,783.95,1752.64Z"/><path class="cls-14" d="M795.91,1752v86.28c4,0,7.94-.21,11.77-.58v-85.11C803.84,1752.24,799.92,1752,795.91,1752Z"/><path class="cls-16" d="M861.49,1777.47c-8.16-10.87-23.61-19.33-42.61-23.18v81.76c28.44-5.75,48.93-21.87,48.93-40.88v-17.71Z"/><path class="cls-14" d="M807.67,1752.62v85.11a112.09,112.09,0,0,0,11.21-1.68v-81.76A112.15,112.15,0,0,0,807.67,1752.62Z"/><path class="cls-14" d="M772.74,1754.33V1836a112.17,112.17,0,0,0,11.21,1.7v-85.07A112.33,112.33,0,0,0,772.74,1754.33Z"/><ellipse class="cls-15" cx="795.91" cy="1777.47" rx="71.9" ry="43.14"/><ellipse class="cls-3" cx="795.91" cy="1777.47" rx="43.27" ry="25.96"/><path class="cls-14" d="M730.33,1750.7H724v17.71c0,19,20.39,35.05,48.73,40.84v-81.69C753.83,1731.42,738.46,1739.87,730.33,1750.7Z"/><path class="cls-14" d="M783.95,1725.87v85.07a119.58,119.58,0,0,0,12,.61v-86.28A119.6,119.6,0,0,0,783.95,1725.87Z"/><path class="cls-14" d="M795.91,1725.27v86.28c4,0,7.94-.21,11.77-.58v-85.11C803.84,1725.47,799.92,1725.27,795.91,1725.27Z"/><path class="cls-16" d="M861.49,1750.7c-8.16-10.87-23.61-19.33-42.61-23.18v81.76c28.44-5.75,48.93-21.87,48.93-40.88V1750.7Z"/><path class="cls-14" d="M807.67,1725.85V1811a112.09,112.09,0,0,0,11.21-1.68v-81.76A112.12,112.12,0,0,0,807.67,1725.85Z"/><path class="cls-14" d="M772.74,1727.56v81.69a112.14,112.14,0,0,0,11.21,1.7v-85.07A112.33,112.33,0,0,0,772.74,1727.56Z"/><ellipse class="cls-15" cx="795.91" cy="1750.7" rx="71.9" ry="43.14"/><path class="cls-14" d="M535.49,1711h-6.32v17.71c0,19,20.39,35.05,48.73,40.84v-81.69C559,1691.72,543.62,1700.17,535.49,1711Z"/><path class="cls-14" d="M589.11,1686.17v85.07a119.58,119.58,0,0,0,12,.61v-86.28A119.6,119.6,0,0,0,589.11,1686.17Z"/><path class="cls-14" d="M601.07,1685.57v86.28c4,0,7.94-.21,11.77-.58v-85.11C609,1685.77,605.08,1685.57,601.07,1685.57Z"/><path class="cls-16" d="M666.65,1711c-8.16-10.87-23.61-19.33-42.61-23.18v81.76c28.44-5.75,48.93-21.87,48.93-40.88V1711Z"/><path class="cls-14" d="M612.83,1686.15v85.11a112.08,112.08,0,0,0,11.21-1.68v-81.76A112.11,112.11,0,0,0,612.83,1686.15Z"/><path class="cls-14" d="M577.9,1687.86v81.69a112.13,112.13,0,0,0,11.21,1.7v-85.07A112.33,112.33,0,0,0,577.9,1687.86Z"/><ellipse class="cls-15" cx="601.07" cy="1711" rx="71.9" ry="43.14"/></g></g></g></svg>