<svg xmlns="http://www.w3.org/2000/svg" xmlns:xlink="http://www.w3.org/1999/xlink" viewBox="0 0 357.6 391.44"><defs><style>.cls-1{fill:none;}.cls-2{clip-path:url(#clip-path);}.cls-3{fill:#fff;}</style><clipPath id="clip-path" transform="translate(0 -0.48)"><rect class="cls-1" width="357.84" height="392.88"/></clipPath></defs><title>Guest </title><g id="Layer_2" data-name="Layer 2"><g id="Layer_1-2" data-name="Layer 1"><g class="cls-2"><path class="cls-3" d="M122.15,15.2A154.76,154.76,0,0,0,33,155V177.6L3.83,233.2c-4.8,9.2-5.12,18.56-.8,25.68s12.72,11.2,23.12,11.2H33V317.2a38.2,38.2,0,0,0,38.16,38.16,4.66,4.66,0,0,0,1-.08l34.16-5,.08,34.4a7.28,7.28,0,1,0,14.56,0l-.08-42.8a7.72,7.72,0,0,0-2.48-5.52,7.2,7.2,0,0,0-5.76-1.68l-41.84,6.24A23.66,23.66,0,0,1,47.67,317.2V262.8a7.3,7.3,0,0,0-7.28-7.28H26.08c-5.2,0-9-1.52-10.72-4.24s-1.2-6.88,1.2-11.44l30-57.2a7,7,0,0,0,.8-3.36v-24.4A140.16,140.16,0,0,1,128.24,28.24,138.46,138.46,0,0,1,188,14.88c77.12,0,139.84,62.72,139.84,139.84A140.33,140.33,0,0,1,321.35,197a7.26,7.26,0,0,0,13.84,4.4,153.08,153.08,0,0,0,7.2-46.64C342.4,69.68,273.19.48,188.08.48A153.51,153.51,0,0,0,122.15,15.2Zm0,0" transform="translate(0 -0.48)"/></g><path class="cls-3" d="M216.87,291.28a7.3,7.3,0,0,0-7.28,7.28v86.08a7.3,7.3,0,0,0,7.28,7.28H350.31a7.31,7.31,0,0,0,7.28-7.28V298.48a7.31,7.31,0,0,0-7.28-7.28h-17.2V265.28a49.52,49.52,0,1,0-99,0,7.28,7.28,0,0,0,14.56,0,35,35,0,1,1,69.92,0V291.2H216.87Zm126.24,86.08h-119v-71.6h119Zm0,0" transform="translate(0 -0.48)"/></g></g></svg>