<?xml version="1.0" encoding="UTF-8"?><!DOCTYPE svg PUBLIC "-//W3C//DTD SVG 1.1//EN" "http://www.w3.org/Graphics/SVG/1.1/DTD/svg11.dtd"><svg xmlns="http://www.w3.org/2000/svg"><symbol id="icon-cake" viewBox="0 0 512 512">
    <path d="M462.261 414.841V231.542l-128.405-74.428c7.307-9.559 11.661-21.489 11.661-34.423 0-31.318-25.48-56.798-56.798-56.798-13.278 0-25.496 4.592-35.178 12.255-4.864-14.661-11.569-28.433-19.418-37.215C193.777-4.207 115.133 3.52 111.805 3.87l-10.747 1.134-2.328 10.552c-.658 2.98-14.402 67.494 13.762 113.071C71.392 158.59 49.806 200 49.806 249.495v165.346H0v15c0 43.56 35.439 79 79 79h354c43.56 0 79-35.44 79-79v-15h-49.739zM288.72 95.893c14.776 0 26.798 12.021 26.798 26.798 0 14.777-12.022 26.798-26.798 26.798s-26.798-12.021-26.798-26.798c0-14.777 12.021-26.798 26.798-26.798zm-162.456-62.79c23.464-.304 64.438 4.266 85.493 27.821 10.396 11.632 19.674 43.399 20.171 61.519-.001.083-.006.164-.006.247 0 .371.021.736.028 1.105l.002.139c0 1.148.06 2.281.175 3.399a56.35 56.35 0 0 0 6.138 21.39c-20.516 1.538-70.09-.698-94.014-27.464-15.245-17.058-18.966-42.516-19.401-60.868-.254-10.701.55-20.345 1.414-27.288zm6.167 118.138c39.821 32.1 101.581 27.985 110.732 27.173l70.498 1.669 93.871 54.411H80.644c3.88-33.931 21.249-61.84 51.787-83.253zm-52.624 203.76h36.834v-30H79.807v-60.506h352.454v60.506h-285.62v30h285.62v59.839H79.807v-59.839zM433 478.84H79c-21.789 0-40.303-14.295-46.652-34h447.304c-6.35 19.705-24.863 34-46.652 34z"/>
</symbol><symbol id="icon-close" viewBox="0 0 384.1 384.2">
    <path d="M373.6 322.7L243 192.1 373.6 61.5c14.1-14.1 14.1-36.8 0-50.9s-36.8-14.1-50.9 0L192.1 141.2 61.5 10.6c-14.1-14.1-36.8-14.1-50.9 0s-14.1 36.8 0 50.9l130.6 130.6L10.6 322.7c-14.1 14.1-14.1 36.8 0 50.9s36.8 14.1 50.9 0L192.1 243l130.6 130.6c14.1 14.1 36.8 14.1 50.9 0 14-14.1 14-36.9 0-50.9z"/>
</symbol><symbol id="icon-coffee-cup" viewBox="0 0 276.7 288.9">
    <path d="M268 116.7c-8.6-8.6-18.3-10.3-26.7-8.6l.6-3.5c0-3.5 0-8.7-3.5-12.2s-7-5.2-12.2-5.2H15.7c-5.2 0-8.7 1.7-12.2 5.2S0 99.3 0 104.5l13.9 76.6c7 41.8 43.5 73.1 87 73.1h40c43.3 0 79.7-29.4 86.9-72.6 3.1.7 6 1.3 8.8 1.3 13.9 0 26.1-7 33.1-19.1 10.5-15.8 8.7-36.7-1.7-47.1zM141 238.5h-40c-34.8 0-64.4-24.4-69.6-59.2l-12.2-73.1h203.6l-12.2 73.1c-5.3 34.8-34.8 59.2-69.6 59.2zm113.1-85.3c-3 6-9.9 12-22.9 10.2l6.9-38.2c3.8-2.3 9.4-4.6 15.9 1.9 5.3 5.2 5.3 17.4.1 26.1z"/>
    <path d="M71.3 54c0 10.4 5.2 17.4 5.2 19.1 1.7 1.7 3.5 3.5 7 3.5h5.2c5.2-3.5 5.2-8.7 3.5-12.2 0 0-3.5-5.2-3.5-10.4s3.5-10.4 3.5-10.4 5.2-8.7 5.2-19.1S92.2 7 92.2 5.3C88.7.1 83.5.1 80 1.8c-5.2 3.5-5.2 8.7-3.5 12.2 0 0 3.5 5.2 3.5 10.4s-3.5 10.4-3.5 10.4-5.2 8.8-5.2 19.2z"/>
    <path d="M109.6 54c0 10.4 5.2 19.1 5.2 19.1 1.7 1.7 3.5 3.5 7 3.5h5.2c5.2-3.5 5.2-8.7 3.5-12.2 0 0-3.5-5.2-3.5-10.4s3.5-10.4 3.5-10.4 5.2-8.7 5.2-19.1-5.2-17.5-5.2-19.2C127 .1 121.8.1 118.3 1.8c-5.2 3.5-5.2 8.7-3.5 12.2 0 0 3.5 5.2 3.5 10.4s-3.5 10.4-3.5 10.4-5.2 8.8-5.2 19.2z"/>
    <path d="M147.9 54c0 10.4 5.2 19.1 5.2 19.1 1.7 1.7 3.5 3.5 7 3.5h5.2c5.2-3.5 5.2-8.7 3.5-12.2 0 0-3.5-5.2-3.5-10.4s3.5-10.4 3.5-10.4 5.2-8.7 5.2-19.1-5.2-17.5-5.2-19.2c-3.5-5.2-7-7-12.2-3.5-5.2 3.5-5.2 8.7-3.5 12.2 0 0 3.5 5.2 3.5 10.4s-3.5 10.4-3.5 10.4-5.2 8.8-5.2 19.2z"/>
    <path d="M234.9 271.5H8.7c-5.2 0-8.7 3.5-8.7 8.7 0 5.2 3.5 8.7 8.7 8.7h226.2c5.2 0 8.7-3.5 8.7-8.7 0-5.2-3.5-8.7-8.7-8.7z"/>
</symbol><symbol id="icon-gift" viewBox="0 0 460.8 512">
    <path d="M435.2 128H345c7.6-2.8 14.2-5.7 19.1-8.6 30.6-17.7 41.1-56.8 23.4-87.4C375.7 11.5 354.2 0 332 0c-10.9 0-21.9 2.8-31.9 8.6-19.1 11-52 42.9-69.7 72.8-17.7-29.8-50.6-61.7-69.7-72.8C150.6 2.8 139.6 0 128.8 0c-22.1 0-43.6 11.5-55.5 32-17.7 30.6-7.2 69.8 23.4 87.4 4.9 2.8 11.5 5.8 19.1 8.6H25.6C11.5 128 0 139.5 0 153.6v76.8C0 244.5 11.5 256 25.6 256v230.4c0 14.1 11.5 25.6 25.6 25.6h358.4c14.1 0 25.6-11.5 25.6-25.6V256c14.1 0 25.6-11.5 25.6-25.6v-76.8c0-14.1-11.5-25.6-25.6-25.6zM312.9 30.8c5.8-3.4 12.5-5.2 19.1-5.2 13.7 0 26.5 7.4 33.3 19.2 10.6 18.3 4.3 41.9-14.1 52.5-14.5 8.4-55.5 20.6-86.8 20.6-11.7 0-18.1-1.8-20.7-3 .4-17.5 41.8-68.3 69.2-84.1zM153.6 486.4H51.2V256h102.4v230.4zm0-256h-128v-76.8h128v76.8zM109.5 97.3C91.2 86.7 84.9 63.1 95.4 44.8c6.8-11.8 19.6-19.2 33.3-19.2 6.7 0 13.3 1.8 19.1 5.2 27.4 15.8 68.8 66.7 69.1 84.1-2.6 1.2-9 3-20.7 3-31.2-.1-72.2-12.3-86.7-20.6zm172.1 389.1H179.2V153.6h102.4v332.8zm128 0H307.2V256h102.4v230.4zm25.6-256h-128v-76.8h128v76.8z"/>
</symbol><symbol id="icon-mouse" viewBox="0 0 360.5 512">
    <path d="M180.3 0C80.9 0 0 82.1 0 183.1v145.8C0 429.9 80.9 512 180.3 512s180.3-81.9 180.3-182.5V183.1C360.5 82.1 279.7 0 180.3 0zm146.3 329.5c0 82-65.7 148.6-146.4 148.6S33.8 411.2 33.8 328.9V183.1c0-82.3 65.7-149.2 146.4-149.2s146.4 66.9 146.4 149.2v146.4z"/>
</symbol></svg>