<?xml version="1.0" encoding="UTF-8"?>
<svg width="257px" height="462px" viewBox="0 0 257 462" version="1.1" xmlns="http://www.w3.org/2000/svg" xmlns:xlink="http://www.w3.org/1999/xlink">
    <!-- Generator: Sketch 49.1 (51147) - http://www.bohemiancoding.com/sketch -->
    <title>Cake</title>
    <desc>Created with Sketch.</desc>
    <defs>
        <polygon id="path-1" points="0 0.548947008 256.817137 0.548947008 256.817137 462 0 462"></polygon>
    </defs>
    <g id="ðŸ–¥ï¸-Desktop" stroke="none" stroke-width="1" fill="none" fill-rule="evenodd" opacity="0.42113904">
        <g id="Final-Flavors" transform="translate(-416.000000, -1761.000000)">
            <g id="Group-2" transform="translate(269.000000, 1761.000000)">
                <g id="Cake" transform="translate(147.000000, 0.000000)">
                    <path d="M86.1383796,197.913906 C83.5423522,198.426907 81.4803501,200.900009 81.2874366,203.654302 C81.0140361,202.765467 80.4493491,201.993222 79.6508662,201.384205 C78.9673649,200.864346 78.1420531,200.529661 77.3026879,200.476166 C76.3943338,200.418557 76.0544996,200.928814 75.5064209,200.022147 C75.392717,199.83423 75.4859798,198.507834 75.4527629,198.326775 C74.7015502,194.13224 70.0562965,192.611069 67.2009219,195.453148 C66.6426227,196.007299 67.3580633,196.968832 68.0032374,196.569679 C70.2070501,195.207621 73.2693914,195.520359 74.0142162,198.643629 C74.2237381,199.517376 73.8034167,200.642137 74.3272215,201.406152 C74.6913297,201.936984 75.0541603,201.927383 75.5728547,202.060434 C76.2882953,202.242864 77.0803903,201.875259 77.8149945,202.108442 C79.0900119,202.510338 79.7377412,203.680364 80.1976673,204.907999 C79.5435501,205.126093 78.907319,205.42923 78.3094151,205.81741 C77.6489101,206.245368 78.2302056,207.296059 78.9098742,206.920224 C80.9654884,205.78449 83.1590804,205.940859 85.3079574,206.695272 C85.9710176,206.928454 86.3542893,205.877763 85.7742714,205.506043 C84.7598788,204.855876 83.6547786,204.559598 82.5420129,204.54451 C82.852463,202.303217 84.0763775,200.146968 86.3159621,199.687462 C88.8800502,199.163488 90.6750396,201.223721 91.7609763,203.397802 C92.0560955,203.988987 93.067933,203.753062 92.9963889,203.038427 C92.6501668,199.647684 89.1802798,197.313119 86.1383796,197.913906" id="Fill-1" fill="#171714"></path>
                    <path d="M200.663236,190.545435 C198.586475,189.3741 195.907314,190.15499 194.716435,192.259553 C193.559726,194.30267 194.287415,196.957697 196.190796,198.214802 C193.228153,198.264728 190.979278,200.694449 190.387002,203.535097 C188.483621,201.836341 185.798132,201.305079 183.340442,202.583947 C179.990542,204.327509 179.217293,208.199956 179.731105,211.647395 C179.636189,211.662757 179.540007,211.670438 179.44256,211.68964 C179.809569,209.599158 177.827724,207.212962 175.936998,206.716265 C174.205731,206.261812 172.480792,207.000458 171.388625,208.304929 C171.283585,208.238361 171.159562,208.208917 171.049459,208.292127 C170.898859,208.40606 170.777367,208.540476 170.66853,208.682572 C170.421748,205.676785 167.765367,203.200978 164.782475,203.049921 C162.894281,202.95391 157.437246,204.893334 159.431747,207.640532 C159.769648,208.105225 160.451777,207.71606 160.199933,207.187359 C159.681059,206.088992 161.967901,204.909976 162.691793,204.675709 C163.84344,204.303186 165.05963,204.294225 166.198621,204.717954 C168.331066,205.514206 169.306802,207.465151 169.77632,209.582516 C169.838332,209.859028 170.058537,209.944798 170.271148,209.905113 C170.277476,210.058731 170.302787,210.211069 170.349612,210.360846 C170.330629,210.441496 170.297725,210.517024 170.285069,210.598954 C170.214199,211.035484 170.660936,211.295354 170.962136,211.16862 C171.384829,211.282553 171.89864,210.779455 171.603768,210.331403 C171.550615,210.250753 171.513914,210.166264 171.473417,210.083054 C172.182123,208.527674 173.872892,207.413945 175.610487,207.914483 C177.673327,208.509752 177.891001,210.30836 178.078302,212.077525 C177.508806,212.284909 176.955762,212.538378 176.433092,212.823851 C175.706668,213.220697 176.345769,214.278099 177.073458,213.931179 C178.727527,213.142608 180.428421,213.059398 182.209044,212.853294 C182.789929,212.786727 182.984824,211.955911 182.353316,211.771569 C181.750916,211.593629 181.135861,211.542423 180.524602,211.569306 C180.33477,209.167748 180.952357,206.59081 182.865862,205.004707 C185.067912,203.179216 188.644345,203.160014 190.342708,205.794558 C190.732496,206.401348 191.818335,206.215727 191.775306,205.401553 C191.606988,202.286953 193.531884,200.417937 196.16422,199.605043 C196.165485,200.568994 196.451499,201.548307 196.994418,202.430329 C197.389268,203.070403 198.265026,202.513539 197.97395,201.850422 C197.338646,200.410256 197.574038,198.706379 198.176438,197.287975 C198.404236,196.751593 197.766401,196.091036 197.303211,196.606936 C197.189312,196.732391 197.110848,196.870647 197.017198,197.002502 C196.068038,196.006547 195.590927,194.47421 196.278119,193.18382 C196.995683,191.834544 198.767448,191.458181 200.131706,191.820463 C200.877113,192.018886 201.35802,190.938441 200.663236,190.545435" id="Fill-3" fill="#171714"></path>
                    <path d="M57.9215946,319.1864 C57.2410367,314.827862 51.0550889,313.469619 48.935637,318.089164 C48.8876739,314.231097 44.4193248,312.431932 41.4365365,314.476898 C41.4080179,312.396456 40.921905,310.222254 38.6780082,309.463311 C36.6052231,308.762651 34.402808,309.705311 33.4889158,311.602036 C33.4539157,311.671722 33.4383601,311.742675 33.4357675,311.809827 C33.2516928,311.648916 33.0637292,311.498141 32.8848396,311.360036 C36.5676304,309.122484 35.9544801,302.87989 32.9742844,300.36106 C29.9176069,297.776345 24.6118475,298.961006 24.0077713,303.167503 C23.9001783,303.91631 24.9411079,304.244468 25.1938866,303.488058 C26.376113,299.969552 31.0116849,299.398127 33.0429883,302.551733 C33.8920654,303.871965 34.0450289,305.459537 33.6172496,306.950816 C33.2141001,308.358472 32.2431707,309.252986 31.580761,310.459187 C30.8781659,310.038537 30.1353855,309.695175 29.3472346,309.425301 C28.6498247,309.185834 28.1481563,310.314747 28.8377883,310.606161 C29.8761253,311.042014 30.835388,311.610905 31.6663168,312.363513 C32.3766897,313.008425 32.8874322,314.049913 33.81688,314.378071 C34.2187332,314.519976 34.6154013,314.153809 34.6244754,313.776237 C34.6361421,313.247891 34.3535485,312.765158 33.9685472,312.333105 C34.1137329,312.330571 34.2576223,312.265953 34.3548448,312.094906 C35.1857737,310.634035 37.1859659,309.823144 38.793379,310.702454 C40.7313488,311.762947 40.3256066,314.253903 40.1337541,315.965643 C40.055976,316.656167 40.9854238,316.694178 41.3133879,316.277329 C43.5754329,313.412604 47.3061868,315.069862 47.431928,318.219666 C46.9769264,318.157583 46.5089618,318.142378 46.0422935,318.17152 C45.0830308,318.233604 45.0661789,319.615919 46.0422935,319.64126 C47.5745211,319.683071 48.7774883,320.345721 50.0284186,321.143942 C50.6078651,321.515178 51.477683,320.743565 51.025274,320.168339 C50.6610135,319.707145 50.2241601,319.340977 49.7445287,319.044495 C49.8119364,318.997615 49.8715662,318.936798 49.9130479,318.849374 C51.6306465,315.259914 57.1489993,316.287465 56.4178856,320.57125 C56.3012185,321.260508 57.13474,321.905419 57.7115939,321.307387 C59.5484522,319.397992 63.1897614,317.455655 64.7647669,321.578529 C64.9929159,322.17276 66.0714382,322.156289 65.9962528,321.416351 C65.5373622,316.948848 60.9069755,317.258 57.9215946,319.1864" id="Fill-5" fill="#171714"></path>
                    <path d="M226.824895,299.746544 C225.14731,298.165083 222.067216,297.122499 220.190749,299.025528 C219.231206,299.999025 218.94838,301.628219 219.597976,302.776317 C217.243674,301.837992 214.531642,303.782473 214.172621,306.206794 C212.482121,304.945645 209.820455,304.606491 208.086046,305.514669 C205.869928,306.674072 205.000787,309.162456 205.538027,311.371979 C203.983129,310.617048 201.830292,310.65222 200.534974,311.436042 C199.182832,312.253779 198.46479,313.777458 198.453167,315.289832 C197.501373,314.185699 196.011046,313.497342 194.399325,313.522465 C191.652424,313.563917 189.77983,315.469458 188.778961,317.746813 C187.071672,315.415445 184.490076,313.542563 181.391903,314.105307 C178.112927,314.70071 176.184801,317.726715 177.334186,320.737646 C177.505948,321.188595 178.174916,321.016505 178.078058,320.537922 L181.220141,315.520959 C183.025579,315.222002 184.521071,315.617681 185.707908,316.706741 C186.865041,317.557138 187.634742,318.627356 188.310167,319.868407 C188.625279,320.447481 189.56545,320.300514 189.732047,319.686269 C189.977421,318.362314 190.592148,317.229289 191.578811,316.287196 C195.542252,314.851445 197.788073,315.515935 198.356308,318.230421 C197.571111,318.558269 196.859525,319.074536 196.310661,319.751588 C195.80829,320.370857 196.652894,321.253913 197.225004,320.640924 C198.409258,319.373494 200.101049,319.078305 201.769594,319.457655 C202.473431,319.618438 202.999049,318.599721 202.28488,318.266848 C201.633993,317.965378 200.949528,317.837254 200.268937,317.847303 C200.261188,317.824692 200.258605,317.800826 200.244399,317.77696 C199.229324,316.040995 199.435955,313.49483 201.484185,312.52887 C202.37399,312.106812 203.369693,312.163338 204.276287,312.50626 C205.24487,312.873048 205.695583,313.552612 206.398129,314.229663 C206.789436,314.609013 207.295682,314.31508 207.377043,313.885485 C207.748979,313.786251 208.05376,313.384291 207.773517,313.025039 C206.39038,311.242598 206.608634,308.177654 208.758888,306.998153 C209.779129,306.439177 211.056367,306.456763 212.125682,306.871284 C213.353845,307.348611 213.86784,308.234179 214.594923,309.213957 C214.924241,309.657369 215.802423,309.565672 215.759805,308.908718 C215.723645,308.374865 215.557048,307.89377 215.309091,307.461663 C215.24581,306.36381 215.655198,305.238322 216.628947,304.620308 C217.66081,303.964611 218.88639,304.112834 220.006072,304.446963 C219.752949,305.166723 219.782652,305.970642 220.256612,306.686634 C220.58593,307.185315 221.411163,306.875052 221.252315,306.278393 C220.91654,305.023524 222.093045,303.606616 223.423232,303.653092 C224.129652,303.679471 224.232968,302.675827 223.585954,302.48364 C222.767179,302.23744 221.963901,302.414553 221.31043,302.829074 C221.291059,302.814001 221.280727,302.796415 221.257481,302.783854 C220.114553,302.131925 220.520067,300.375863 221.511896,299.757849 C222.936358,298.871025 224.889021,299.882206 226.068109,300.701199 C226.650551,301.104415 227.325976,300.218847 226.824895,299.746544" id="Fill-7" fill="#171714"></path>
                    <path d="M35.491658,457.822665 C34.4215594,458.081693 33.5367316,456.776543 34.1830499,455.676613 C34.4322072,455.25366 33.8763948,454.75938 33.5814522,455.131028 C32.9649476,455.903106 32.7796768,457.189486 33.3152585,458.092955 C33.8827834,459.050232 34.9656593,459.252949 35.8015075,458.686091 C36.2103809,458.409545 35.9282156,457.716301 35.491658,457.822665" id="Fill-9" fill="#171714"></path>
                    <path d="M40.8624147,453.578247 C40.6972092,454.046513 40.052561,454.498055 39.6112427,454.294797 C39.041688,454.033649 38.9342466,453.259209 39.2369309,452.731766 C39.5049566,452.26736 38.8926564,451.741204 38.5518478,452.142575 C37.688851,453.158866 37.8367273,455.083387 39.0047189,455.751052 C40.3332949,456.511341 42.0419591,455.441019 41.9992136,453.749344 C41.9795738,452.986482 41.0946267,452.919587 40.8624147,453.578247" id="Fill-11" fill="#171714"></path>
                    <path d="M45.0421583,424.082377 C44.6450649,424.165482 43.9528186,424.026974 43.8141322,423.542196 C43.6635924,423.017124 44.3605801,422.485757 44.7979755,422.577676 C45.6846198,422.760255 45.9726607,421.521238 45.1642497,421.168672 C43.5580959,420.466059 41.7646563,422.074011 42.0254341,423.856986 C42.2838411,425.62863 44.4696326,426.744248 45.772336,425.415831 C46.3448616,424.83032 45.7391461,423.937573 45.0421583,424.082377" id="Fill-13" fill="#171714"></path>
                    <path d="M43.165576,418.133099 C42.6430773,418.742385 43.4714289,419.593132 44.0678421,419.020129 C45.4926069,417.652677 47.5775042,418.570984 47.7852293,420.438876 C47.8680645,421.192037 48.8735559,421.182029 48.9716837,420.438876 C49.3858595,417.277347 45.1510711,415.819816 43.165576,418.133099" id="Fill-15" fill="#171714"></path>
                    <path d="M217.938543,453.541635 C217.767704,452.655008 216.700558,452.953719 216.629575,453.741228 C216.490016,455.287734 214.650482,455.51041 214.266695,454.004637 C214.072996,453.234778 212.961335,453.35562 213.001038,454.197441 C213.07563,455.84578 214.29196,457.156033 215.787408,456.984954 C217.321355,456.807085 218.254958,455.198121 217.938543,453.541635" id="Fill-17" fill="#171714"></path>
                    <path d="M219.68236,446.027891 C219.111161,445.181037 217.897531,444.786066 216.808892,445.116157 C215.630206,445.473566 214.772735,446.587907 215.053631,447.649889 C215.30227,448.585526 216.514557,449.381159 217.600507,448.805208 C218.021179,448.58325 217.896187,447.896888 217.326331,447.948109 C216.896252,447.98681 216.772604,447.473461 216.85862,447.191177 C216.960764,446.864501 217.247036,446.540101 217.639483,446.438797 C218.375994,446.249848 218.55609,447.119467 218.318202,447.549724 C218.068218,448.00616 218.584314,448.494467 219.144761,448.247468 C220.136632,447.808105 220.194424,446.789376 219.68236,446.027891" id="Fill-19" fill="#171714"></path>
                    <path d="M209.557662,446.083251 C209.176286,446.20456 209.113106,446.81791 209.557662,446.909742 C210.134321,447.02765 210.891329,447.692017 210.517994,448.328041 C210.229664,448.822348 209.348594,448.888104 209.00168,448.426675 C208.598478,447.893821 207.739234,448.348448 208.076958,448.959529 C208.802951,450.274658 210.994714,450.385764 211.766655,449.04796 C212.561571,447.669342 211.201484,445.553798 209.557662,446.083251" id="Fill-21" fill="#171714"></path>
                    <path d="M192.054434,382.007204 C190.440187,382.133452 189.303441,384.182736 190.493243,385.449729 C190.923332,385.90738 191.75529,385.297555 191.381643,384.76438 C190.932363,384.127502 191.767707,383.277579 192.4484,383.452298 C193.348089,383.682251 193.527575,384.786925 193.716092,385.539907 C193.86397,386.128315 194.844936,386.177913 194.958949,385.539907 C195.26035,383.882895 193.862842,381.864047 192.054434,382.007204" id="Fill-23" fill="#171714"></path>
                    <path d="M200.852437,383.217843 C200.625385,382.62032 199.642218,382.753913 199.561827,383.406087 C199.531408,383.645338 199.468399,383.706062 199.283715,383.79229 C199.137055,383.859086 198.878499,383.855443 198.838303,383.814151 C198.441777,383.389084 198.829612,382.551095 199.193547,382.204969 C199.767151,381.659669 199.034936,380.717236 198.417877,381.081579 C196.94367,381.949929 196.34182,384.618134 197.980069,385.699018 C199.46188,386.674243 201.57922,385.129429 200.852437,383.217843" id="Fill-25" fill="#171714"></path>
                    <path d="M195.96443,376.65094 C195.281568,375.137069 192.823033,374.334258 191.549055,375.699582 C190.495729,376.826794 191.00323,378.804876 192.683674,378.996021 C193.28292,379.064834 193.329373,378.220517 192.818388,378.053401 C192.184302,377.846964 192.249337,376.780919 192.676706,376.41392 C193.478023,375.726889 194.764777,376.551545 195.339635,377.104228 C195.679904,377.431906 196.1305,377.017939 195.96443,376.65094" id="Fill-27" fill="#171714"></path>
                    <path d="M225.939413,346.429444 C225.459333,346.964131 224.785374,347.983498 224.052559,348.064278 C223.6071,348.113003 222.936603,347.377007 223.338209,346.933358 C223.722504,346.506377 223.223959,345.749866 222.747341,346.081962 C221.470973,346.976953 221.97875,349.000301 223.151254,349.705524 C224.836152,350.719762 226.723006,348.932343 226.990743,347.109022 C227.086528,346.458935 226.41834,345.897322 225.939413,346.429444" id="Fill-29" fill="#171714"></path>
                    <path d="M226.085402,345.073733 C225.749186,345.569032 226.485163,346.052251 226.914964,345.682149 C227.815005,344.905704 229.537676,345.55146 229.840386,346.601363 C230.01947,347.224056 230.965726,347.0736 230.996921,346.452005 C231.121702,344.004062 227.419865,343.106813 226.085402,345.073733" id="Fill-31" fill="#171714"></path>
                    <path d="M77.9071712,355.764413 C77.6624443,354.976515 76.5012402,355.235505 76.3988544,355.942538 C76.2952201,356.645199 75.5760226,357.419985 74.695755,357.327098 C73.8579399,357.239675 73.2848295,356.361075 73.4321651,355.682454 C73.5869923,354.967772 72.5081961,354.727359 72.2047847,355.386309 C71.4968248,356.919489 72.7067246,358.732421 74.5696457,358.973927 C76.581151,359.235103 78.4415749,357.48883 77.9071712,355.764413" id="Fill-33" fill="#171714"></path>
                    <path d="M78.6535944,353.049545 C77.5703644,352.853528 76.6755847,353.244201 76.0958481,354.131725 C75.6757908,354.775588 76.7475124,355.365001 77.1661311,354.7225 C77.449526,354.290989 77.9875446,353.986073 78.5255632,353.942514 C79.0261795,353.903038 79.2232612,353.152999 78.6535944,353.049545" id="Fill-35" fill="#171714"></path>
                    <path d="M80.6535979,354.160427 C80.5353802,353.929907 79.9726639,353.945275 80.0010362,354.222996 C80.1161014,355.39535 80.28003,356.505135 80.6504454,357.65334 C80.8474749,358.262569 82.1510221,358.000217 81.9855173,357.396476 C81.6781513,356.274616 81.202128,355.235085 80.6535979,354.160427" id="Fill-37" fill="#171714"></path>
                    <path d="M189.784572,269.328328 C189.373413,270.048468 188.936058,271.131168 188.104628,271.339236 C187.753833,271.427696 187.256114,271.37163 187.057937,270.995364 C186.858622,270.614113 187.038575,270.170567 187.375703,269.987418 C187.815336,269.748202 187.500987,268.895995 187.036297,269.106555 C185.569336,269.768136 185.732205,272.036949 187.069327,272.764564 C187.876839,273.204372 188.91214,272.987583 189.633092,272.448101 C190.496413,271.802717 190.910989,270.792279 190.997549,269.687152 C191.054496,268.945832 190.103477,268.770158 189.784572,269.328328" id="Fill-39" fill="#171714"></path>
                    <path d="M192.739792,264.076268 C191.17863,263.738651 189.280472,264.538206 189.01113,266.151942 C188.860503,267.058755 190.285079,267.47072 190.482937,266.539531 C190.698666,265.515711 191.995592,265.375545 192.820212,265.833827 C193.943533,266.460307 194.183516,267.723019 194.807725,268.710274 C195.13068,269.222185 196.005084,269.016202 195.999978,268.401909 C195.983383,266.628506 194.635397,264.487015 192.739792,264.076268" id="Fill-41" fill="#171714"></path>
                    <path d="M198.937437,271.575745 C198.567385,271.879201 198.055442,272.192268 197.604796,271.928632 C197.126907,271.649893 197.819335,270.782092 198.195063,270.709318 C198.459548,270.65714 198.442521,270.146346 198.195063,270.080437 C197.494688,269.892322 196.88853,270.007663 196.412911,270.710691 C195.899832,271.470016 195.824914,272.451784 196.416316,273.171289 C197.448148,274.423558 199.408516,274.293114 199.962459,272.530051 C200.176998,271.848992 199.423273,271.176173 198.937437,271.575745" id="Fill-43" fill="#171714"></path>
                    <path d="M56.067227,228.159982 C55.8565514,228.637685 55.0628742,229.037218 54.5275726,228.892046 C53.7842455,228.691038 53.5404448,228.004884 53.3721693,227.390695 C53.2449689,226.927881 52.561267,226.865842 52.3081912,227.260412 C51.4230887,228.632722 52.579817,230.420694 54.0611713,230.866137 C55.8062013,231.389748 57.6413316,230.320191 57.9765575,228.652574 C58.2163832,227.458938 56.5482034,227.069331 56.067227,228.159982" id="Fill-45" fill="#171714"></path>
                    <path d="M98.8805423,181.46935 C98.6846322,180.964458 97.8721811,181.013069 97.8664191,181.60082 C97.860657,182.043843 97.4250449,182.621651 96.9179833,182.601765 C96.4328175,182.582983 96.0456068,182.049367 96.121666,181.609659 C96.2311453,180.977716 95.3702929,180.751233 95.1259814,181.346717 C94.6592542,182.484656 95.546612,183.915366 96.8442289,183.996016 C98.2409532,184.08219 99.3795371,182.755331 98.8805423,181.46935" id="Fill-47" fill="#171714"></path>
                    <g id="Group-51">
                        <mask id="mask-2" fill="white">
                            <use xlink:href="#path-1"></use>
                        </mask>
                        <g id="Clip-50"></g>
                        <path d="M240.372022,288.291226 C240.236541,288.335103 240.14106,288.415115 240.070094,288.504159 C239.452046,288.220249 238.654648,288.638372 238.861094,289.432031 C240.168156,294.468863 237.874024,298.522332 234.595402,302.333187 C230.618734,306.955768 226.066598,307.749427 220.821577,304.569628 C220.723515,304.510265 220.621582,304.511556 220.524811,304.538656 C220.500295,304.388958 220.496424,304.243131 220.462877,304.093433 C220.348041,303.564327 219.466774,303.539807 219.370003,304.093433 C218.806147,307.306785 218.123585,309.840042 215.570105,312.090679 C210.867005,316.239645 204.751039,314.990439 201.367904,309.869723 C201.018236,309.339327 200.268578,309.185757 199.795043,309.665824 C196.152559,313.723165 191.951381,313.898673 187.19538,310.205254 C186.743779,309.589684 185.67284,309.934249 185.588971,310.773075 C184.6419,320.15374 174.274435,319.66593 168.78555,314.518115 C167.684934,313.487003 166.708186,311.174422 165.20371,310.779528 C164.189543,310.514975 164.239865,310.722746 163.318599,310.980846 C161.944442,311.365416 160.798666,312.974673 159.407736,313.417316 C156.642649,314.297439 153.758855,313.363115 151.551172,311.640293 C151.642782,311.19507 151.717619,310.742103 151.760199,310.277522 C151.867292,309.136718 150.269916,309.121232 149.912506,310.027165 C147.370639,316.470645 142.952692,320.604126 135.934815,321.441662 C130.138841,322.135953 115.784387,319.698193 113.888954,312.676567 C113.73799,312.11907 113.052847,312.06745 112.726404,312.406852 C112.419315,311.957757 111.585789,312.045511 111.354828,312.643014 C108.699415,319.500746 98.3590463,316.695193 96.0094318,311.891941 C95.6442803,311.14474 94.6043081,311.284115 94.2043188,311.891941 C89.4044472,319.193606 79.9466356,309.072193 79.4898737,304.689645 C79.4305204,304.117953 78.7711832,304.017293 78.510545,304.395411 C78.3015184,304.119243 77.8434661,304.023746 77.6666966,304.409606 C76.440923,307.108047 74.0784055,309.069612 71.0823566,307.247422 C70.6346267,306.975126 69.9030333,307.213869 69.8011006,307.770075 C68.9817677,312.223601 64.562531,314.30131 60.8465014,311.722885 C61.341972,311.055696 60.3149027,310.418187 59.7587886,310.88793 C51.8648062,317.548215 41.26638,317.496595 35.9310389,307.745556 C35.6510463,307.235807 35.0549333,307.182897 34.5723655,307.390668 C26.4551633,310.877606 23.9171667,304.647059 23.7300749,299.668299 C23.7674933,299.651522 23.8087825,299.636036 23.8462008,299.617969 C24.5352147,299.287601 24.2229649,298.052589 23.4449212,298.139053 C18.9121393,298.633316 13.8606615,300.150947 9.68141844,297.455087 C3.49835803,293.463561 3.32287886,281.034729 8.91756791,276.688316 C9.80270552,276.003059 8.8324089,274.631254 7.87372486,274.894517 C3.0041777,271.92636 1.58357054,268.982723 3.61190338,266.059735 C4.04673046,265.276399 4.58220001,264.561461 5.16282964,263.880075 C5.73442725,263.886528 6.29441227,263.400008 6.09312733,262.836059 C6.36279754,262.495366 6.0428061,261.94174 5.64152651,262.072081 C3.52287351,258.834209 3.53964725,254.849137 6.15635145,251.791936 C9.43239285,247.961723 14.9057948,247.650712 19.3972876,249.145115 C20.0333996,249.356757 20.5766109,248.582455 20.2514583,248.035282 C17.7973304,243.89793 24.9158496,243.952131 27.1467577,245.511059 C27.4073959,245.691729 27.708033,245.325226 27.546747,245.090355 C27.7544834,245.018087 27.9402849,244.877422 28.0202827,244.649003 C29.275733,241.091087 29.6783029,238.2765 33.8549654,236.489154 C36.0136173,235.566444 38.6780621,235.647746 40.970904,235.868422 C44.9269273,236.250411 48.2468384,237.862249 51.5112673,239.908986 C52.173185,244.829673 52.8957463,249.736165 53.7976577,254.602651 C53.969266,255.52536 55.3292296,255.455673 55.6169639,254.700729 C78.1724896,264.705997 105.885297,267.148919 130.231742,267.359271 C142.963014,267.468964 155.703319,266.61336 168.301692,264.769232 C180.580073,262.974142 193.175865,260.972573 203.708486,254.025796 C204.300729,253.636064 204.357501,252.993394 204.12912,252.491388 C204.634913,248.582455 205.181995,244.678684 205.714884,240.772332 C208.56384,240.991718 210.949583,240.367115 213.777894,241.831835 C215.990738,242.979092 217.022969,244.967757 218.744213,246.481517 C218.520993,247.334539 219.768702,247.890746 220.376428,247.100958 C226.240787,244.994858 229.426508,246.20664 229.933591,250.735014 C230.100038,251.504154 231.074206,251.64998 231.595482,251.175075 C234.579919,248.457277 239.815908,243.553366 244.257079,247.689427 C247.250547,250.476913 246.151222,254.903338 244.961576,258.196701 C244.818354,258.590304 245.125443,258.893573 245.467369,258.956807 C244.969318,259.182645 244.735776,259.936299 245.351243,260.226662 C252.107192,263.401299 256.291596,267.884506 254.157459,275.924338 C252.314928,282.865953 246.743464,286.223841 240.372022,288.291226 M237.941119,349.312651 C220.799642,355.616757 201.859504,357.361517 183.979982,360.392908 C164.690175,363.663042 145.40553,364.545746 125.873149,364.58188 C88.8457524,364.652858 53.2015446,361.258835 19.6656675,344.63845 C19.5043815,343.396986 19.3430955,342.156813 19.18439,340.915349 C23.2965381,342.84336 27.0099872,345.367584 30.3957031,348.41188 C30.7453711,348.726763 31.2589058,348.222176 30.9156891,347.893098 C27.4590074,344.580377 23.4604047,342.029053 19.0798767,340.115237 C18.8411734,338.265947 18.6011798,336.415366 18.3624766,334.564785 C18.386992,334.602209 18.4192492,334.634472 18.463119,334.664154 C23.717172,338.050433 28.9557416,341.443165 34.3220496,344.650064 C34.7981659,344.935265 35.214929,344.208712 34.7542961,343.909316 C29.5144363,340.502388 24.164902,337.291617 18.8127871,334.06407 C18.588277,333.927277 18.3844114,334.075684 18.3237679,334.266679 C18.1650625,333.045863 18.0089376,331.823757 17.8489419,330.604232 C17.7973304,330.210628 17.75088,329.815735 17.7005588,329.420841 C17.7070102,329.423422 17.7134617,329.424712 17.7186228,329.427293 C17.732816,329.432455 17.7431383,329.423422 17.7547509,329.426003 C17.8463613,329.593768 17.9470038,329.753791 18.0037765,329.832511 C18.3973143,330.380975 19.4153516,330.846846 19.9675949,331.237869 C21.446265,332.288338 22.9249352,333.338807 24.4087664,334.382824 C27.2086915,336.350841 30.0886145,338.17045 33.0549868,339.880366 C33.5272322,340.152662 33.9401244,339.439014 33.4807818,339.151232 C28.088668,335.768824 23.0062233,331.906349 17.5921746,328.560075 C17.217991,325.557075 16.8709035,322.525684 16.4902686,319.496874 C22.3443055,323.009623 28.3299519,326.331377 34.3362428,329.570539 C34.8213911,329.832511 35.2458959,329.112411 34.7684893,328.831081 C28.7080063,325.253807 22.5868797,321.735897 16.3599495,318.452858 C16.0993113,316.422897 15.8038353,314.398098 15.4838439,312.379751 C20.6862854,315.922182 26.1042049,319.065846 31.7827627,321.781064 C32.2356538,321.997869 32.6356431,321.337131 32.1801714,321.099679 C26.6048367,318.163785 21.1456279,315.031735 15.8218993,311.659651 C15.6464202,311.547377 15.4838439,311.596416 15.3741694,311.707399 C15.0115984,309.489025 14.5961257,307.286137 14.1122677,305.102606 C22.1572138,310.538204 30.6408578,315.260154 39.4741699,319.285232 C40.0470578,319.545913 40.5554313,318.709668 39.9748017,318.427047 C31.2472932,314.151612 22.8062287,309.437405 14.5625782,304.293461 C14.3135526,304.138601 14.0813007,304.248293 13.9638845,304.439288 C13.7213104,303.387528 13.4671236,302.33964 13.18197,301.302075 C16.2528556,301.765366 19.5417998,301.307237 22.4023685,300.224506 C21.7094838,303.343651 22.785584,306.553131 25.4835764,308.589545 C27.2357876,309.91231 29.2808942,310.299461 31.4201918,310.366567 C34.6033324,310.468517 33.7543229,309.479992 36.3568339,311.987439 C43.004398,318.393494 53.4776663,320.116316 59.9858793,312.744964 C63.9419025,316.61002 70.1520589,314.518115 71.3288017,309.278673 C74.1906606,310.29817 77.6486326,309.230925 78.4473209,306.304064 C79.3737477,313.40312 89.694762,319.748522 95.01591,314.209684 C99.0725756,319.290394 111.126447,321.370684 112.683824,314.063858 C114.180559,321.596522 129.204673,324.368522 135.252253,323.938785 C141.86756,323.470332 149.068658,319.46074 151.189891,312.99145 C153.100808,314.898813 155.600096,315.874433 158.495502,315.655047 C160.371581,315.513092 161.48768,314.381321 163.130217,313.996751 C165.684987,313.400539 164.9792,314.106444 167.112046,316.191897 C167.89009,316.955874 168.719745,317.643712 169.607463,318.273478 C175.755686,322.628925 188.812111,321.245506 187.617304,311.953885 C189.787568,314.074182 192.522979,315.158204 195.824826,314.469075 C197.324141,314.156774 199.216994,312.155204 200.642762,312.348779 C201.459514,312.459763 204.410403,315.48083 205.378119,315.884757 C212.615345,318.903243 221.123504,313.354081 220.680936,305.692366 C224.473092,310.698226 231.594192,308.88636 235.613439,305.008399 C238.761742,301.974427 244.693196,293.952662 241.168129,289.517204 C242.250681,289.530109 243.284202,289.42945 244.269982,289.233293 C242.041654,309.281254 240.645563,329.329215 237.941119,349.312651 M236.773408,357.409265 C236.274067,360.623908 235.742468,363.830807 235.194096,367.035126 C219.412582,375.484047 201.930469,377.936003 184.358036,379.907891 C166.402387,381.924947 148.315129,384.721466 130.240774,385.287997 C111.32128,385.882919 92.2082431,384.015561 73.5945475,380.720908 C65.0244542,379.204567 56.4491997,377.46755 48.0571661,375.143355 C38.9941827,372.633327 30.7840798,368.86764 22.2939843,365.007746 C22.1714069,364.04245 22.0488296,363.077154 21.9262522,362.113148 C21.844964,361.462735 21.7572245,360.812321 21.674646,360.163198 C25.8874366,362.741623 30.0950659,365.321338 34.3891446,367.76555 C34.7942951,367.99655 35.1452534,367.388723 34.7530059,367.142237 C30.4098962,364.408953 25.9816276,361.825366 21.5546492,359.234036 C21.1624017,356.176835 20.7637026,353.118344 20.3675842,350.061142 C25.3351933,352.870567 30.0911951,355.974226 34.7788116,359.231455 C35.2226707,359.539885 35.6187891,358.826237 35.1981552,358.513936 C30.4795718,355.002478 25.4397066,351.95431 20.2540389,349.187472 C20.1224295,348.177008 19.9934007,347.166545 19.8617913,346.154791 C50.5487124,365.261975 89.5102508,367.156433 124.651246,367.093198 C144.737161,367.057064 164.437279,365.802696 184.342553,363.073282 C193.626175,361.800846 202.721416,359.573439 211.926331,357.868684 C220.710612,356.24136 229.267803,354.989573 237.573387,351.863975 C237.312749,353.711975 237.059852,355.561265 236.773408,357.409265 M32.9504734,418.355841 C33.4562663,418.25131 33.9943165,418.348098 34.4239824,418.723634 C34.7955854,419.048841 34.9388073,419.437282 34.9710645,419.851534 C34.2872119,419.367595 33.6175524,418.865589 32.9504734,418.355841 M223.359574,423.35912 C223.296349,423.622383 223.307962,423.861126 223.364735,424.075349 C210.279923,434.457444 195.957726,437.899215 179.585261,439.623327 C163.126346,441.355182 146.565499,442.485662 130.016264,442.729567 C112.772854,442.982506 95.4829942,442.194008 78.4086123,439.686561 C61.6258354,437.221701 45.7449699,432.439098 29.6576583,427.246115 C29.7957191,427.030601 29.8873296,426.7725 29.8486209,426.424064 C29.4383093,422.831304 29.011224,419.239835 28.5854289,415.647075 C29.6124982,416.631729 30.6769859,417.564763 31.7724404,418.453919 C31.6098641,418.61007 31.4589004,418.780416 31.3414842,418.976573 C31.2034234,419.203701 31.5440594,419.393405 31.6950231,419.181763 C31.8163102,419.010126 31.9685642,418.865589 32.1350114,418.740411 C33.0369227,419.459221 33.9594787,420.14964 34.9078404,420.807796 C34.8936473,420.903293 34.8768735,421.000081 34.8600998,421.095578 C34.7710699,421.61307 35.4265362,422.166696 35.8458798,421.669852 C35.8884593,421.618232 35.9103942,421.56274 35.9465223,421.508539 C37.3813226,422.453187 38.8470899,423.356539 40.3799521,424.169556 C40.7980054,424.391522 41.1657375,423.768209 40.7515551,423.535919 C39.2161123,422.669992 37.7335713,421.724053 36.2768361,420.744561 C36.4858627,419.660539 35.8549119,418.43069 34.8497775,417.915779 C34.0859269,417.523466 33.1827253,417.58412 32.4420999,417.964818 C31.0834266,416.909187 29.7518493,415.817422 28.469303,414.663712 C28.2551152,412.858299 28.0254439,411.056757 27.8073852,409.252634 C31.3543871,411.828478 35.1542854,414.081696 39.1115989,415.958087 C39.5322328,416.156824 39.9012552,415.55545 39.4819116,415.323159 C35.5413719,413.131885 31.6859911,410.845115 27.8667384,408.449941 C27.8099658,408.415098 27.7544834,408.400902 27.7028719,408.397031 C27.4719103,406.488377 27.2319167,404.579723 26.9970843,402.67107 C31.5840584,405.661165 36.258772,408.540277 41.1863821,410.931578 C41.6934654,411.178064 42.1334536,410.452802 41.6328218,410.167601 C36.7374689,407.385277 31.765989,404.75007 26.9041835,401.908383 C26.6951569,400.195885 26.4732273,398.483388 26.2629104,396.769601 C30.6163423,400.064254 35.1142865,403.118874 39.9670599,405.644388 C40.3464046,405.841835 40.6702669,405.295953 40.3025348,405.068824 C35.4833089,402.085182 30.6950499,399.060243 26.1287204,395.698483 C25.8861463,393.733047 25.6358304,391.770193 25.3932562,389.806047 C29.5234683,393.245237 34.1530219,396.07531 39.1077281,398.151729 C39.5386843,398.332399 39.8522243,397.591651 39.4277195,397.392913 C34.3917252,395.028712 29.7286241,392.236064 25.2810012,388.91302 C25.0229435,386.828858 24.7597248,384.747277 24.5016672,382.665696 C29.8008803,386.094561 35.1684786,389.489874 40.6741378,392.563852 C41.2121879,392.864539 41.6676596,392.074751 41.1554152,391.740511 C35.7194316,388.212277 30.0524864,384.966662 24.393283,381.799768 C24.1765146,380.052427 23.9558753,378.307668 23.7391069,376.560327 C28.1131835,378.999377 32.4988726,381.41907 36.9400441,383.731651 C37.3890644,383.965232 37.7826022,383.301913 37.3387431,383.050265 C32.8111223,380.487327 28.2202774,378.039243 23.6204004,375.609226 C23.3455691,373.399885 23.0694474,371.190545 22.7933258,368.981204 C22.8010675,368.988947 22.8049384,368.99798 22.8152607,369.004433 C27.4280405,372.189394 32.2382344,375.013014 37.3064859,377.409478 C37.7671188,377.627573 38.1748498,376.955221 37.7116364,376.716478 C32.7453176,374.144506 27.8989956,371.378958 23.206218,368.334662 C23.0100942,368.206902 22.825583,368.285623 22.7236502,368.43274 C22.6539747,367.868791 22.5842991,367.306131 22.5133333,366.743472 C36.0278105,376.361589 54.7421486,379.514288 70.5572094,382.410176 C89.8431451,385.939701 109.387138,387.792863 128.999517,387.128254 C148.604154,386.464936 168.168792,383.784561 187.6444,381.54683 C203.800097,379.689796 220.097725,377.253327 234.705077,369.820031 C231.547742,387.794154 227.663975,405.606964 223.359574,423.35912 M228.710398,418.252601 C237.826283,417.822863 237.208235,428.246254 233.116732,433.217271 C231.502582,435.178835 229.303931,436.621617 227.165923,437.944383 C222.301537,440.949964 216.85007,443.30255 211.589566,445.4835 C202.47239,449.259511 192.992644,452.183791 183.361934,454.328606 C162.677326,458.936992 141.364348,460.01198 120.247493,458.762774 C97.8055128,457.432265 75.612558,453.514299 53.7021764,448.603936 C43.6611547,446.353299 32.545323,444.692422 23.4204058,439.698176 C17.9018437,436.677109 11.2865368,430.539478 13.5767981,423.424936 C15.251592,418.222919 20.5688691,415.861299 25.3816436,414.213327 C25.9067909,418.284863 26.4306478,422.356399 26.9674077,426.424064 C27.0680501,427.180299 27.6306157,427.610036 28.23189,427.737796 C27.9828644,428.219154 28.0254439,428.847628 28.6112347,429.122506 C60.5226391,444.098791 98.8003249,446.496545 133.511654,445.773863 C150.955059,445.411232 168.56362,444.3285 185.866383,442.04302 C199.508599,440.238897 215.81784,436.86036 224.891146,425.512969 C225.003401,425.373595 225.073076,425.229059 225.116946,425.087103 C225.555644,424.994187 225.944021,424.688338 226.093694,424.112774 C226.635615,422.033774 227.15044,419.94574 227.667845,417.858997 C227.900097,418.113226 228.247185,418.274539 228.710398,418.252601 M61.3613263,250.235589 C59.2749305,248.996707 57.1485358,247.840416 55.0169799,246.684126 C54.8324687,244.92517 54.6157003,243.164925 54.3898999,241.404679 C57.0349905,243.541751 59.9562026,245.23231 63.263211,246.139534 C63.7548107,246.275036 63.9238384,245.570422 63.4683668,245.392332 C60.1781322,244.100539 57.0582156,242.553226 54.2595808,240.378729 C53.7576588,236.588522 53.1731583,232.804768 52.5731743,229.030047 C55.8350226,231.213578 59.1949327,233.197081 62.7135482,234.954746 C63.1948257,235.194779 63.6180402,234.488874 63.1393433,234.225612 C59.5239561,232.247271 55.944697,230.195372 52.4183398,228.06217 C52.1718947,226.517439 51.92674,224.972707 51.6790047,223.433137 C54.7563417,225.514718 58.0143191,227.29174 61.5548696,228.455774 C61.9303434,228.578372 62.2000136,227.967964 61.8284106,227.809232 C59.8671728,226.972986 57.942063,226.088992 56.0646938,225.117243 C77.7363722,234.749556 102.881506,238.219718 126.275719,238.231332 C153.211773,238.246818 180.052345,233.026735 205.640048,224.813975 C204.26331,233.976545 202.998828,243.154601 201.810473,252.345561 C191.086888,258.644506 178.565933,260.58155 166.397226,262.27598 C154.029815,263.998802 141.534666,264.78988 129.049838,264.646634 C116.55985,264.500807 104.081474,263.423237 91.7566423,261.394567 C79.5350338,259.382673 67.7172854,255.78217 55.5976096,253.36764 C55.4672905,251.372522 55.2879404,249.372243 55.0840749,247.370673 C57.0633768,248.523092 59.0426787,249.666478 61.0658504,250.740176 C61.3987447,250.916975 61.6864789,250.429165 61.3613263,250.235589 M50.7796739,217.787187 C50.7164498,217.380679 50.654516,216.969008 50.5912919,216.5625 C53.3034774,218.551165 56.1704975,220.259791 59.2878334,221.599332 C59.7368537,221.791617 60.136843,221.146366 59.6787907,220.929561 C56.4556511,219.400316 53.3589598,217.633617 50.4416184,215.58688 C50.0803378,213.235584 49.7203474,210.875254 49.3551959,208.513634 C52.7551049,210.81331 56.1666266,213.070399 59.6775004,215.198439 C60.1703905,215.497835 60.5884438,214.754506 60.1239401,214.435751 C56.6130663,212.021221 53.019614,209.757679 49.391324,207.525109 C49.3229387,207.482522 49.257134,207.467036 49.1939099,207.463165 C49.1642333,207.269589 49.1358469,207.076014 49.10488,206.882439 C71.9416885,217.380679 99.6673984,218.600204 124.350609,219.209321 C152.396311,219.902321 180.248469,217.268405 207.700638,211.502439 C207.500643,212.818751 207.301939,214.132483 207.092912,215.437182 C206.762598,217.508439 206.446478,219.582277 206.129067,221.656115 C180.56717,229.697237 154.325291,235.224461 127.449881,235.747115 C100.851883,236.264606 76.2577021,230.902567 51.4286888,221.876791 C51.2106301,220.510148 50.9912812,219.146087 50.7796739,217.787187 M48.0403924,200.312489 C50.9125736,202.425042 53.9563631,204.279494 57.2762743,205.593226 C57.6104589,205.726148 57.8491622,205.163489 57.5227193,205.008628 C54.2660323,203.462606 51.1048265,201.815925 48.1423251,199.752411 C48.070069,199.703372 48.002974,199.696919 47.9436207,199.717567 C47.6107264,197.763746 47.2520263,195.815087 46.8791331,193.870299 C49.5164819,196.41388 52.4751124,198.579344 55.8259905,200.115042 C56.3717824,200.36669 56.8530598,199.59626 56.3059777,199.292992 C52.7615564,197.324975 49.4597092,195.069176 46.5565611,192.228779 C46.2275376,190.584679 45.8791598,188.94574 45.5101375,187.313254 C47.0391288,188.203701 48.5513464,189.121249 50.0519514,190.060735 C49.9461478,190.556288 50.0467903,191.087975 50.4674242,191.557718 C50.8945096,192.032623 51.6686824,191.56288 51.6183612,191.027321 C52.0015767,191.205411 52.2918915,190.636299 51.9383526,190.373036 C51.8273878,190.289154 51.7099716,190.213014 51.5964263,190.130422 C51.8931925,189.84264 52.4983376,189.694232 52.8118776,189.841349 C53.6854026,190.25431 54.094424,191.370595 54.5047356,192.175869 C54.7460194,192.649483 55.4440653,192.311372 55.3331005,191.826142 C54.9821421,190.293025 53.9705563,188.164986 52.0751231,188.336623 C51.4003025,188.398567 50.7990282,188.783137 50.4183933,189.295466 C48.7719857,188.17531 47.0468705,187.177751 45.2649827,186.286014 C44.925637,184.829036 44.5785495,183.37593 44.1940436,181.933148 C44.9411204,182.281584 45.7217447,182.551299 46.5126913,182.775846 C48.9564969,184.65998 51.509977,186.398288 54.2324848,187.855265 C54.5679597,188.034645 54.8389202,187.561031 54.5279607,187.350679 C52.486725,185.964679 50.4454893,184.585131 48.4158662,183.186226 C51.1912758,183.577249 53.9563631,183.097182 55.9679222,181.298221 C54.8982734,183.551439 55.6969617,186.657679 57.8943223,187.984316 C59.6865324,189.065757 62.4735547,188.896701 64.1496389,187.562321 C63.1483753,193.866427 66.9198873,200.117623 73.570032,201.605573 C80.449848,203.145142 86.4961379,199.005209 89.219936,192.995338 C90.4857086,195.667969 93.5204661,197.33788 96.5578042,196.79974 C99.5706268,196.265472 101.876372,193.800612 102.508613,190.899561 C103.490522,191.651925 105.147252,192.032623 106.029809,192.005522 C107.429771,191.964226 109.242626,191.347366 110.349693,190.234953 C113.491545,198.991014 127.026667,199.449142 132.005888,191.765489 C133.319401,196.319673 138.431523,198.534176 143.013336,198.307047 C148.369321,198.039913 153.293061,194.470383 156.654261,190.296897 C157.32005,192.396545 159.167742,194.087103 161.48639,194.192925 C163.687621,194.294874 166.167555,192.814668 166.918503,190.698243 C168.246209,194.380047 173.616388,197.341751 176.821464,198.824539 C182.105193,201.267461 188.036647,201.992723 193.708754,200.637696 C201.97821,198.660645 214.097886,188.963807 208.486423,179.535394 C210.384437,179.855439 212.250193,179.161148 213.909504,177.868064 C211.052806,187.933986 209.607683,198.611606 208.067079,209.04274 C207.923857,209.020802 207.772894,209.013059 207.606447,209.049193 C180.70265,214.81645 153.113711,217.64007 125.587995,217.23098 C99.6532053,216.84512 73.3932626,214.042148 48.8610156,205.315768 C48.5977968,203.647148 48.3229654,201.978528 48.0403924,200.312489 M40.2483427,175.480634 C36.9077869,169.607556 38.7258028,162.520115 43.0121398,157.754288 C43.6082528,157.55426 44.0727566,156.999344 43.7966349,156.310215 C43.0147203,154.357684 42.3360288,152.313528 43.6482518,150.39326 C45.0056348,148.408466 47.461053,147.960662 49.6300273,148.54655 C50.5358095,148.791746 51.1938564,147.804511 50.9112833,147.08312 C51.1267614,146.890835 51.241597,146.574662 51.1886952,146.267522 C49.3384221,135.702176 67.2889097,139.773712 71.8694324,141.07583 C72.2436159,141.181651 72.4190951,140.679645 72.1236191,140.474455 C72.0836202,140.447355 72.0397504,140.426707 71.9997514,140.399606 C72.118458,140.324757 72.212649,140.224098 72.2371645,140.074399 C72.8332775,136.50874 73.6384173,133.30055 77.8150798,132.441075 C81.0795086,131.770014 84.0071722,133.42702 86.3529159,135.555059 C87.2845039,141.438461 88.2960897,147.290891 89.2534835,153.071053 C89.3928346,153.90988 90.4792571,153.998925 91.0211781,153.540796 C95.3617072,157.684601 102.157654,158.22145 107.822019,159.153193 C116.223085,160.535321 124.733825,161.290265 133.244565,161.477388 C147.911269,161.802595 165.65015,162.010366 178.791734,154.631271 C178.987857,154.521578 179.08979,154.370589 179.141402,154.210567 C179.58268,154.240249 180.0317,154.03764 180.125891,153.526601 C181.043286,148.49493 181.667786,143.401316 182.294866,138.314154 C182.434217,138.360612 182.580019,138.387712 182.736144,138.365774 C185.670259,137.957975 187.747623,139.261383 189.951435,141.002271 C190.121753,141.328768 190.529484,141.542992 190.884313,141.377807 C190.987536,141.345545 191.081727,141.295215 191.155274,141.221656 C192.52685,140.304109 194.008101,139.622723 195.709991,140.007293 C197.867352,140.496394 199.267315,142.509578 199.450536,144.640198 C199.451826,144.649232 199.456987,144.655684 199.458277,144.666008 C199.396344,144.779573 199.321507,144.884103 199.262154,145.001539 C198.777005,145.961673 200.046649,146.649511 200.671148,145.82488 C205.078772,140.016327 213.295327,135.859617 219.604835,141.79593 C225.667899,147.498662 222.062834,156.223751 215.426883,159.252561 C215.230759,159.211265 215.039796,159.164807 214.828189,159.137707 C214.11595,159.048662 213.963696,160.081064 214.486263,160.406271 C219.235813,163.370556 217.953267,168.622902 215.423012,172.558936 C213.454032,175.62388 210.928938,177.022785 208.027081,178.875947 C207.455483,178.404913 206.441316,178.850137 206.689052,179.695416 C209.731551,190.122679 199.548598,197.586947 190.295942,198.611606 C186.546365,199.027148 182.820013,198.574182 179.258818,197.288841 C177.147907,196.527444 167.554615,192.259751 167.902993,189.419355 C167.913315,189.341925 167.826866,189.269656 167.7559,189.272237 C167.595904,189.276109 167.434618,189.281271 167.274622,189.285142 C167.225591,189.286433 167.185592,189.307081 167.143013,189.318696 C167.140432,189.197388 167.140432,189.076081 167.126239,188.952193 C167.068176,188.454059 166.348195,188.105623 166.069493,188.665701 C165.194678,190.429818 164.079869,192.223617 161.885089,192.374606 C159.811596,192.519142 158.135512,191.10217 157.45424,189.256751 C157.698104,188.922511 157.931646,188.588271 158.153576,188.250159 C158.637434,187.515863 157.584559,186.78931 156.978123,187.342936 C153.427251,190.58726 150.303463,194.416182 145.446819,195.735075 C140.148896,197.173986 135.410958,194.978841 132.645871,190.361422 C132.543938,190.189785 132.396846,190.12526 132.253624,190.130422 C131.990405,189.956204 131.61106,189.932975 131.303972,190.175589 C127.945352,192.818539 124.813823,195.337601 120.274589,194.971098 C116.037283,194.627824 113.100587,192.041656 111.287733,188.428249 C111.303216,188.317265 111.343215,188.217897 111.347086,188.103042 C111.359989,187.629427 110.941936,187.416494 110.55872,187.490053 C110.294211,187.466824 110.010348,187.659109 109.896802,187.935277 C109.029729,188.725064 108.383294,189.605187 107.182036,190.038796 C106.642696,190.232372 102.420873,190.564031 103.010535,189.041237 C103.215691,188.50955 102.502161,188.210154 102.13701,188.525036 C102.00282,188.557299 101.880242,188.632148 101.827341,188.803785 C101.067361,191.313813 99.5474017,193.989025 96.8623122,194.838176 C93.9643252,195.754433 90.8986007,194.096137 89.8637897,191.326718 C89.9683031,191.013126 90.075397,190.700824 90.1618463,190.380779 C90.3631312,189.63874 89.3683191,189.267075 88.9605881,189.873612 C85.5890654,194.876891 82.8872021,199.987282 75.9157757,199.642718 C68.5495212,199.278796 64.5483379,191.862277 65.7818533,185.155534 C65.8553997,184.759349 65.5366985,184.533511 65.2438031,184.579969 C65.0463891,184.506411 64.8012343,184.52964 64.6425289,184.674176 C63.0941832,186.082115 61.0323029,187.464243 58.9136499,186.239556 C56.7782231,185.004545 56.6633875,182.125433 57.740778,180.179355 C57.9265795,179.845115 57.5756212,179.596047 57.2840161,179.719936 C57.4027226,179.536684 57.5356222,179.375372 57.6440064,179.176634 C57.9549659,178.606232 57.3253053,177.936461 56.7446756,178.275863 C50.8906387,181.691824 44.1475933,182.334494 40.2483427,175.480634 M134.000674,140.123439 C118.988172,140.132472 101.795083,138.958115 88.8676873,130.622757 C88.8160758,130.590494 88.763174,130.573718 88.7115625,130.567265 C88.5193096,129.092221 88.3180246,127.618466 88.1115785,126.146003 C90.1076542,127.983679 92.5011385,129.576159 95.0778438,130.443377 C95.4791234,130.57888 95.7384713,129.959439 95.365578,129.759411 C92.9411268,128.462455 90.6121568,127.184858 88.3838293,125.563986 C88.2586714,125.47236 88.1296426,125.520109 88.0367418,125.607863 C87.813522,124.037321 87.5799798,122.46936 87.3309542,120.90398 C99.4557912,130.236897 118.21787,131.549338 132.879413,131.941651 C149.129301,132.37526 167.688805,130.73374 182.065194,122.425483 C181.781331,124.756131 181.516822,127.086779 181.217475,129.395489 C181.06006,130.613723 180.887161,131.834539 180.720714,133.054064 C165.287579,137.134634 150.060889,140.111824 134.000674,140.123439 M96.2558768,152.056718 C94.5152782,150.875908 92.735971,149.692517 90.8624727,148.714316 C90.6960255,147.230237 90.5231269,145.735835 90.3528089,144.245304 C91.0108558,144.636327 91.6676124,145.02864 92.3295302,145.413209 C92.5385569,146.077818 93.0637041,146.59531 93.9049719,146.521751 C94.0043241,146.514008 94.0869026,146.481746 94.1630296,146.44174 C94.5849538,146.677902 95.0004265,146.923098 95.4275119,147.150226 C95.8662098,147.386388 96.2468448,146.739846 95.8184691,146.480455 C95.3629975,146.204288 94.899784,145.947478 94.4404415,145.681634 C94.379798,145.534517 94.2623817,145.406757 94.0649677,145.340941 C93.779814,145.245444 93.8765856,144.459528 94.0765803,144.291763 C94.7759164,143.708455 95.4752525,145.147366 95.5591212,145.627433 C95.6533123,146.173316 96.3965182,145.970707 96.44942,145.506126 C96.6507049,143.751042 94.415926,141.857874 92.8611289,143.20774 C92.50759,143.51488 92.3192079,143.963975 92.2546935,144.429846 C91.5876146,144.059472 90.9192454,143.692969 90.2482956,143.326466 C90.0470106,141.56364 89.8418548,139.796941 89.6328282,138.028953 C91.8030927,139.341394 94.0133561,140.573824 96.2803923,141.709466 C96.0945908,142.479897 96.279102,143.363891 96.7668309,144.016885 C97.9397027,145.587427 100.128031,145.369332 101.676377,144.555025 C102.436357,144.154969 102.09314,142.891567 101.236389,142.927701 C100.476409,142.959964 99.186121,143.294204 98.5048489,142.856723 C98.2996931,142.725092 97.9126067,142.145656 98.2248564,141.944338 C99.2183782,141.304249 98.3448532,139.798232 97.2984296,140.35702 C96.9461809,140.545433 96.6894136,140.809986 96.5100635,141.114545 C94.2378663,139.697573 91.9114769,138.38126 89.5283148,137.156573 C89.3399328,135.576997 89.143809,133.99355 88.9438143,132.410103 C90.8986007,134.12002 93.0753167,135.444075 95.5604115,136.313874 C95.7604062,136.384852 95.8907253,136.258383 95.9242728,136.100941 C106.351091,140.991947 119.659122,141.442332 130.475607,141.762377 C147.129355,142.254059 164.57921,140.440902 180.444593,135.072411 C179.599454,141.10293 178.718187,147.143774 178.216265,153.196232 C178.142719,153.211718 178.067882,153.220751 177.990465,153.260757 C165.228225,159.750696 148.428675,159.589383 134.445823,159.363545 C127.274402,159.247399 120.121045,158.698936 113.010267,157.751707 C106.314963,156.858679 97.0158565,156.567025 91.3089124,152.643897 C91.2018184,151.708282 91.0947245,150.757182 90.9889209,149.818986 C92.5321054,150.912042 94.1772227,151.874757 95.8094371,152.820696 C96.3074883,153.109768 96.7216708,152.374182 96.2558768,152.056718 M85.618742,111.436852 C88.2999606,113.185483 90.9656957,114.953472 93.7049773,116.609187 C94.1127083,116.855673 94.4688278,116.23107 94.07529,115.97555 C91.3760073,114.215304 88.6057589,112.572494 85.8484133,110.905165 C85.7180942,110.826444 85.6058391,110.874193 85.5258412,110.958075 C85.0690793,108.702277 84.5852212,106.455511 84.0407197,104.234556 C87.8380375,106.308394 92.1695345,105.479891 95.5952493,103.09117 C98.6274263,104.748176 101.540897,106.589723 104.478883,108.405461 C104.925322,108.681628 105.296925,108.006696 104.884033,107.712461 C103.552456,106.76007 102.166686,105.896723 100.752531,105.079835 C101.809277,105.321159 102.818282,105.148232 103.74987,104.718494 C105.547241,106.073522 107.491705,107.262075 109.53036,108.179623 C110.046476,108.410623 110.499367,107.691813 109.983252,107.404031 C108.162655,106.384534 106.382058,105.327612 104.616943,104.234556 C105.731752,103.497679 106.70463,102.417528 107.460738,101.288338 C110.645169,108.241567 115.694067,115.393534 124.203516,115.185763 C129.213705,115.063165 133.352949,111.569774 133.999383,107.000103 C134.810974,108.182204 136.176099,108.99393 137.786379,109.108785 C141.093387,109.346237 143.321715,106.624567 144.182337,103.711902 C145.667458,104.412645 147.195159,103.158277 148.174488,101.613545 C148.242873,101.73098 148.312549,101.845835 148.379644,101.964561 C149.587353,105.771545 153.237578,108.427399 157.427144,108.103483 C160.851568,107.836349 164.211478,105.341807 165.460477,102.11555 C165.948206,102.700148 166.584318,103.155696 167.21914,103.32088 C168.74297,103.719645 170.202286,102.795645 170.853881,101.471589 C172.538998,107.19755 178.618835,110.552858 184.2832,109.329461 C183.365805,112.984165 182.790336,116.735656 182.306478,120.500053 C182.288414,120.509087 182.272931,120.507796 182.254867,120.51812 C168.380399,129.06383 150.0196,130.50274 134.071639,130.279483 C118.226902,130.057517 101.020911,127.555232 87.2303118,119.308919 C87.1722488,119.275366 87.1141859,119.26117 87.0548326,119.248265 C86.8832243,118.214573 86.702584,117.18217 86.5193631,116.151059 C88.6147909,117.475115 90.7166701,118.77336 92.8869347,119.97869 C93.1720883,120.136131 93.4120819,119.720589 93.1411214,119.543791 C90.9385997,118.107461 88.6831761,116.784696 86.4032371,115.478707 C86.1580824,114.124969 85.8871219,112.781556 85.618742,111.436852 M98.3654978,103.764813 C97.645517,103.385405 96.9190849,103.016321 96.1887818,102.656271 C96.5900614,102.34526 96.982309,102.016182 97.3526217,101.663874 C97.448103,102.436885 97.7732556,103.155696 98.3654978,103.764813 M84.8781166,87.3496173 L84.8806972,87.3470363 C84.9877911,87.210243 85.0935947,87.0721592 85.2019789,86.9392374 C85.6587409,86.3688352 84.9697271,85.6706732 84.3994198,86.1365447 C84.3478082,86.1804218 84.2987773,86.2268799 84.2471658,86.270757 C82.7697859,85.4874218 81.5169162,84.5660028 81.2588586,82.7102598 C80.9311254,80.3550922 82.6110805,78.1638184 84.5336097,76.9881704 C86.7593566,75.6279804 93.3695024,73.7322318 95.2455812,76.5016508 C95.4455759,76.7958855 95.8752418,76.797176 96.1139451,76.6100531 C96.4339366,76.9881704 97.1655299,77.0113994 97.2519792,76.4100251 C98.6158137,66.8332039 109.343269,72.8159749 111.861911,76.1183715 C112.104485,76.4358352 112.565118,76.584243 112.881239,76.2500028 C117.955941,70.8853827 128.100186,68.9676955 133.158115,75.4782821 C133.319401,78.1973715 133.501332,80.9138799 133.734874,83.6239358 C132.843285,83.7284665 131.987824,84.1065838 131.291069,84.7182821 C131.307842,83.3890642 130.75818,82.0482318 129.494988,81.4597626 C128.009866,80.7680531 125.612511,81.3255503 125.434451,83.1993603 C125.373808,83.8381592 126.261526,84.1414274 126.673128,83.7129804 C127.296337,83.0638575 127.980189,82.5179749 128.913068,83.023852 C129.946588,83.5839302 130.060134,84.9363771 129.769819,85.9494218 C129.483375,85.8358575 129.196931,85.7145503 128.901455,85.6203436 C128.315664,85.4345112 128.065348,86.2346229 128.509208,86.5533771 C129.030484,86.9289134 129.576276,87.2579916 130.124648,87.5935223 C130.663989,87.9238911 131.016237,88.2000587 131.635576,87.9096955 C131.875569,87.7961313 131.947825,87.4928631 131.901375,87.2567011 C131.851054,87.0037626 131.719444,86.8463212 131.559449,86.719852 C132.223947,85.9003827 133.181341,85.3480475 134.226474,85.3970866 C134.333568,85.4409637 134.448404,85.4525782 134.561949,85.4396732 C134.61356,85.4487067 134.663882,85.4499972 134.715493,85.4616117 C135.960621,85.7442318 136.594153,86.719852 137.096075,87.8090363 C137.280586,88.2078017 137.725735,88.2349022 138.050888,88.0490698 C138.079274,88.0993994 138.10379,88.147148 138.132176,88.1961872 C136.969626,88.2516788 135.765788,88.6685112 134.96968,89.1898743 C134.435501,89.5396006 134.896134,90.2919637 135.459989,90.0325726 C136.247065,89.6725223 137.080591,89.533148 137.939923,89.6247737 C138.73216,89.7086564 139.40311,90.1396844 140.172121,90.2532486 C140.828878,90.3526173 141.283059,89.6699413 140.822427,89.1356732 C140.458565,88.7136788 139.977288,88.4581592 139.444399,88.3174944 C139.486978,88.1729581 139.485688,88.0064832 139.40569,87.8309749 C138.119273,84.9815447 141.546278,82.5553994 143.70622,84.8576564 C144.072662,85.2486788 144.863609,85.1944777 145.106183,84.6782765 C146.011965,82.7425223 147.651921,83.6587793 148.640282,84.8163603 C148.962854,85.1931872 149.654448,84.8925 149.628643,84.4072709 C149.48284,81.7462542 146.775816,81.2790922 144.920381,82.3786006 C145.115215,80.3628352 145.286823,78.3290028 145.440368,76.2848464 C145.562945,76.2848464 145.695845,76.2448408 145.823583,76.135148 C149.383488,73.0792374 154.171747,70.0013883 159.101938,70.3859581 C164.3547,70.796338 165.221774,75.5892654 169.23328,77.749567 C169.883585,78.0992933 170.482278,77.4153268 170.225511,76.8333101 C171.665473,75.1866285 173.0435,73.812243 175.271828,73.3102374 C178.825281,72.5075447 182.80582,74.4252318 181.127155,78.7987458 C180.826518,79.582081 181.807137,80.1163492 182.432926,79.8014665 C185.710258,78.1612374 189.248228,79.3975391 190.636578,82.7321983 C191.895899,85.7597179 190.381101,87.9922877 188.084388,90.0054721 C187.858588,90.202919 187.826331,90.4352095 187.907619,90.6313659 C187.797944,90.8726899 187.806976,91.1566006 188.050841,91.363081 C193.679077,96.1172933 191.485587,105.180494 184.471582,107.163997 C178.55303,108.836489 173.80606,104.582992 171.398383,99.6468184 C171.262903,99.3693603 171.008716,99.3551648 170.808721,99.4713101 C170.599695,99.435176 170.377765,99.5255112 170.323573,99.7874832 C170.077128,100.954098 168.83071,101.83293 167.656547,101.280595 C166.660445,100.814723 166.674638,99.7694162 166.401097,98.8596117 C166.318519,98.5873156 166.096589,98.4208408 165.848854,98.3730922 C165.555959,97.6658966 164.490181,97.4929693 164.229542,98.3950307 C163.221827,101.88455 161.310911,105.335355 157.263277,105.694115 C154.736893,105.918662 152.420826,104.846254 150.682808,103.135047 C150.757645,102.93502 150.753774,102.701439 150.615713,102.457534 C150.038954,101.44836 149.433809,100.462416 148.841567,99.463567 C148.454481,98.8092821 147.564182,99.0118911 147.322898,99.6623045 C147.104839,101.183807 146.130672,101.856159 144.399105,101.67936 C144.022341,101.085729 142.983659,101.128316 142.818502,101.887131 C142.426255,103.665444 141.712725,105.495377 140.092124,106.544556 C137.737348,108.06864 134.403243,106.815561 134.066478,103.811271 C134.049705,103.657701 133.937449,103.55317 133.80713,103.488645 C133.790357,103.42283 133.786486,103.357014 133.767131,103.291198 C133.568427,102.55174 132.294913,102.670466 132.386523,103.478321 C133.409722,112.563461 123.256445,115.272226 116.805005,110.823863 C112.685115,107.984757 110.321307,103.554461 108.462002,99.0183436 C108.18459,98.3421201 107.182036,98.0246564 106.773015,98.7976676 C105.465953,102.73112 102.921505,102.996964 99.1461221,99.6171369 C99.195153,99.5500307 99.2493451,99.4867961 99.2970858,99.4196899 C100.004164,98.4079358 98.3616269,97.4761927 97.6519685,98.4582654 C94.4314095,102.914372 87.5915924,105.153394 83.262676,100.853439 C78.7673124,96.3870084 81.6794925,91.4095391 84.8781166,87.3496173 M135.10516,80.5280196 C136.558025,81.4158855 138.119273,82.1695391 139.756649,82.577338 C138.745063,83.1116061 137.939923,84.0162486 137.639286,85.118338 C137.017367,84.3233883 136.098682,83.8226732 135.089677,83.6561983 C135.107741,82.6134721 135.099999,81.5707458 135.10516,80.5280196 M139.995352,9.25871229 C140.213411,8.49086313 139.014733,7.93207542 138.670226,8.69992458 C136.497381,13.5251145 135.907719,18.811014 136.880597,23.916243 C130.989141,22.1340587 131.502676,13.8490307 133.901321,9.56068994 C135.657403,6.42347765 138.157982,4.3186676 141.166934,2.59068436 C141.326929,5.4762486 141.670146,8.2934162 142.255937,11.1428464 C143.059786,15.0504888 145.833905,24.7705559 138.779901,24.2685503 C138.164433,19.2252654 138.560552,14.3342598 139.995352,9.25871229 M245.911228,258.900025 C245.895745,258.896154 245.882842,258.901316 245.867359,258.898735 C245.957679,258.850986 246.042838,258.78517 246.09961,258.678059 C248.437612,254.401332 249.407909,248.354036 244.608037,245.249087 C239.951388,242.238344 234.85475,245.340712 231.306458,248.6715 C229.241997,243.954712 223.680855,240.731036 219.874506,244.869679 C219.404841,243.992137 218.469382,242.784226 218.029394,242.314483 C216.851361,241.060115 215.3714,240.050941 213.8037,239.356651 C211.679886,238.414584 208.415457,237.627377 206.021973,238.495885 C206.701955,233.551969 207.401291,228.610634 208.117401,223.67188 C208.325137,223.331187 208.372878,222.918226 208.286428,222.537528 C208.783189,219.122858 209.27995,215.708187 209.802517,212.297388 C211.60763,200.477673 214.438522,188.543103 215.290112,176.608534 C219.953213,171.687846 222.17767,162.198779 216.794588,159.693913 C224.782761,157.266478 227.605912,146.97988 221.571234,140.720941 C215.434624,134.358763 205.166512,136.484221 200.382124,143.187092 C199.600209,138.758087 193.799074,136.229992 190.506259,139.728545 C188.439217,137.653416 185.426395,135.371807 182.524537,136.495835 C182.714209,134.965299 182.905172,133.434763 183.110328,131.908098 C184.128365,124.321232 185.613487,116.607897 185.657356,108.935858 C186.268953,108.717763 186.874098,108.460953 187.459889,108.124131 C193.801655,104.473299 195.389999,95.297824 189.455964,90.7152486 C192.650718,88.8440196 193.675206,84.1427179 192.009444,80.8687123 C190.366908,77.6437458 186.644427,76.7016788 183.409674,77.5482486 C184.680608,70.6466397 172.455129,68.5663492 169.634559,76.0861089 C166.437225,72.3333268 163.914712,68.2669525 158.427117,68.4037458 C153.419509,68.5289246 148.730602,71.027338 145.543591,74.7994777 C146.595175,59.9057849 146.604207,44.3952318 145.49456,29.7957737 C145.440368,29.0911592 144.675227,28.9569469 144.307495,29.3582933 C142.995272,28.1155391 141.19403,27.6741872 139.352788,27.7877514 C139.250856,27.3063939 139.174729,26.8301983 139.09086,26.3527123 C141.575955,26.236567 143.969439,24.9899413 145.162956,22.6050922 C146.204218,20.5235112 145.915194,18.2664218 145.431336,16.0919246 C144.319107,11.1002598 143.026239,6.60285754 142.868823,1.40213128 C142.833986,0.266488827 141.057259,0.262617318 141.099839,1.40213128 C141.099839,1.41374581 141.099839,1.42406983 141.101129,1.43568436 C131.999437,4.43223184 124.062875,19.2342989 134.721945,25.3241816 C135.563212,25.8042486 136.49222,26.1075168 137.441872,26.2559246 C137.608319,26.8301983 137.772186,27.4057626 137.981212,27.9710028 C135.836754,28.4175168 133.790357,29.5518687 132.567164,31.0256229 C132.331041,31.310824 132.636839,31.8167011 132.992959,31.5779581 C133.056183,31.5353715 133.127149,31.5056899 133.192953,31.4643939 C133.169728,31.5831201 133.187792,31.7095894 133.315531,31.7973436 C135.648371,33.3833715 138.06121,34.7345279 140.684366,35.7733827 C141.103709,35.9398575 141.408217,35.2287905 140.994035,35.0403771 C138.487005,33.8918296 136.005781,32.6593994 133.644554,31.2333939 C133.630361,31.2243603 133.620039,31.2333939 133.605845,31.2269413 C135.179997,30.3158464 136.943821,29.7815782 138.774739,29.7415726 C140.697269,29.7002765 142.22626,30.5236173 144.006858,30.9830363 C142.430126,47.7376341 142.264969,65.6678799 143.513967,82.4650642 C142.422384,81.9320866 141.246931,81.9720922 140.221152,82.3708575 C140.270183,82.2405168 140.248248,82.0895279 140.085672,82.0185503 C138.386363,81.2700587 136.71544,80.5641536 135.109031,79.6646732 C135.111612,78.1896285 135.092257,76.7132933 135.075484,75.2369581 C137.248329,76.6487682 139.521816,77.9160419 141.970783,78.7742263 C142.302387,78.8903715 142.537219,78.3509413 142.213357,78.2025335 C139.779874,77.0849581 137.372196,75.9738352 135.070322,74.6123547 C135.048387,73.0714944 135.012259,71.5319246 134.97097,69.9910642 C136.577379,71.6622654 138.457329,72.895986 140.695978,73.5876955 C141.154031,73.7296508 141.32951,73.0405223 140.890812,72.8792095 C138.684419,72.0700642 136.638022,70.8298911 134.963228,69.176757 C134.960648,69.174176 134.956777,69.1754665 134.952906,69.1728855 C134.915488,67.801081 134.850973,66.430567 134.800652,65.0587626 C136.269,66.2511872 137.97218,67.2113212 139.835356,67.562338 C140.323085,67.6539637 140.520499,66.9712877 140.041802,66.8138464 C138.127015,66.1827905 136.373513,65.4601089 134.769685,64.2418743 C134.716783,62.8403883 134.648398,61.4389022 134.587755,60.0374162 C136.529638,61.2595223 138.515392,62.6326173 140.65727,63.3514274 C141.021131,63.4740251 141.341122,62.9462095 141.041776,62.6919804 C139.164406,61.0982095 136.734794,60.0606453 134.538724,58.9237123 C134.460016,57.2163771 134.365825,55.5116229 134.279376,53.8055782 C136.62899,55.5671145 138.948928,57.4538296 141.498538,58.8914497 C141.871431,59.1018017 142.307548,58.5830196 141.968202,58.2823324 C139.599234,56.1723603 136.832856,54.4908352 134.223893,52.6905838 C134.141315,51.0542263 134.057446,49.4204497 133.970997,47.7853827 C136.422544,49.2075168 138.737321,50.8270978 141.01597,52.5112039 C141.366928,52.7718855 141.830142,52.1769637 141.485635,51.9020866 C139.177309,50.0669916 136.67028,48.5429078 134.054866,47.1840084 C134.013576,47.1620698 133.978739,47.1762654 133.94003,47.1736844 C133.838097,45.1837291 133.746487,43.1976453 133.645844,41.2076899 C135.529665,42.5356173 137.398002,43.8867737 139.332144,45.139852 C139.696005,45.3747235 140.021158,44.8030307 139.668909,44.5629972 C137.694768,43.2144218 135.647081,41.9742486 133.622619,40.7031034 C133.549073,39.2525782 133.479397,37.8033436 133.408431,36.3541089 C135.404507,38.1169358 137.729606,39.7545838 140.235346,40.5740531 C140.761783,40.7469804 141.023712,39.9997793 140.597916,39.7158687 C138.186368,38.1169358 135.670306,36.7709413 133.342627,35.0313436 C133.300047,34.1460587 133.251016,33.2594832 133.212308,32.3754888 C133.17747,31.5921536 131.965889,31.5844106 131.987824,32.3754888 C132.347815,45.856081 132.322009,59.4153939 133.017474,72.9101816 C131.051075,70.9176453 128.318245,70.0026788 125.271875,69.8503994 C122.936453,69.7329637 120.620386,70.0801089 118.434638,70.9344218 C116.421789,71.7216285 113.996047,74.256176 111.878685,73.9412933 C110.765166,73.7761089 108.332973,71.0608911 106.989783,70.5717905 C105.215637,69.9252486 103.198917,69.6374665 101.33187,70.0104218 C98.1938895,70.6376061 96.1565246,72.5643268 95.992658,75.6253994 C93.5772388,71.2944721 84.8961807,74.3426397 82.1723826,76.8617011 C80.2963037,78.5935559 79.0589175,81.2507011 79.8111554,83.8136397 C80.2924328,85.4525782 81.4730464,86.9147179 83.0291338,87.3805894 C78.4808684,91.8650866 76.4835025,98.2608184 82.3826995,103.119561 C82.5517273,103.257645 82.7233356,103.373791 82.8949439,103.498969 C83.2123547,113.420355 84.4794176,123.456595 86.0200216,133.416696 C83.4458969,130.945383 79.6498694,129.781349 76.1622207,131.095081 C72.9752092,132.295249 69.7198124,136.239025 70.9417152,139.754355 C66.7740848,137.35402 61.6297063,136.781036 56.9369286,137.921841 C54.7073108,138.463852 52.4041466,139.325908 50.9422502,141.175198 C50.2235598,142.085003 50.0596932,144.522763 49.4726121,145.067355 C48.885531,145.610656 46.5630125,145.13317 45.6701332,145.349975 C43.9875975,145.756483 42.3657054,146.765656 41.3360556,148.165852 C39.783839,150.278405 39.5257814,152.820696 40.3270503,155.09069 C40.5386575,155.773366 40.8651004,156.407003 41.3025081,156.974824 C41.3954088,157.109036 41.4715358,157.252282 41.5721783,157.382623 C35.232993,161.539332 34.7904242,171.665908 38.9141849,177.688684 C39.8019031,178.98693 41.096062,180.143221 42.596667,181.072383 C43.8959871,192.735947 46.4288226,204.292399 48.2597413,215.878534 C49.4132589,223.18536 50.282913,230.559293 51.2493388,237.911288 C47.2700904,234.536623 41.7076585,233.115779 36.5490868,233.816522 C30.4150574,234.647606 27.3467524,238.373288 26.6216105,244.300567 C24.6694046,242.776483 22.3288221,241.497595 19.8837262,243.062975 C18.3134456,244.068277 17.8399099,245.700763 18.2321575,247.239042 C13.2955153,245.992416 7.6969554,246.295684 4.16027581,250.436908 C1.09326108,254.028377 0.761657045,259.782729 4.09576141,263.197399 C1.34873812,265.464813 -0.625402626,268.471684 0.182317704,272.281249 C0.806817128,275.221014 2.85966544,276.967064 5.38733976,277.26388 C1.36035071,282.667215 1.35647984,291.903344 5.4802405,297.073098 C7.07632684,299.074668 9.20272157,300.309679 11.5342721,300.948478 C11.4387908,311.255723 13.4361567,321.666209 14.776766,331.865053 C16.1573742,342.365874 17.5108864,352.870567 18.8837529,363.373969 C21.0153088,379.682053 23.0397708,396.005623 25.1364889,412.318869 C19.5701862,412.934439 13.9290468,415.972282 11.4865314,421.194947 C8.14597565,428.340461 12.7561749,435.582763 18.5018277,439.775606 C26.3080705,445.471885 36.5955372,447.300528 45.7952911,449.475025 C57.7949701,452.312841 69.8578733,454.899008 82.0136771,456.976718 C126.129916,464.519707 172.985437,465.233355 214.852704,447.358601 C223.356993,443.725835 235.530861,439.254243 238.639165,429.461908 C240.867492,422.444154 236.458578,414.858578 228.710398,415.348969 C228.54137,415.359293 228.40589,415.414785 228.266539,415.466405 C233.06254,395.743651 236.815988,375.735696 239.784941,355.670958 C240.042998,353.921036 240.299766,352.167243 240.555243,350.412159 C240.63266,350.23536 240.666207,350.043075 240.637821,349.840466 C243.561614,329.662165 246.125416,309.081226 246.086708,288.732578 C258.993459,284.32293 261.793384,262.406321 245.911228,258.900025" id="Fill-49" fill="#171714" mask="url(#mask-2)"></path>
                    </g>
                    <path d="M147.91657,143.142954 C147.386779,143.590096 146.87834,144.280839 146.165725,144.541763 C145.666627,144.725816 144.573683,144.227788 145.127495,143.792555 C145.50382,143.495904 144.952677,143.077994 144.563007,143.334586 C143.387325,144.10653 144.229386,145.586539 145.473126,145.917835 C146.325863,146.143031 147.189275,145.879942 147.853849,145.43713 C148.599827,144.940185 148.937452,144.26893 148.998838,143.505648 C149.033535,143.057423 148.282219,142.834393 147.91657,143.142954" id="Fill-52" fill="#171714"></path>
                    <path d="M150.934445,142.077432 C149.771503,140.97309 147.934081,140.702297 146.415549,141.336375 C145.553783,141.696317 146.161195,142.963357 147.065987,142.697023 C148.027723,142.412858 149.166622,142.424002 149.896782,143.136085 C150.528238,143.750104 150.556078,144.73298 150.451046,145.511925 C150.380181,146.049052 151.248275,146.154918 151.529203,145.769345 C152.394766,144.579196 151.99109,143.081481 150.934445,142.077432" id="Fill-54" fill="#171714"></path>
                    <path d="M96.8112728,145.323481 C93.0838066,143.19651 89.3406183,140.83476 85.4402081,139.026327 C85.171621,138.901957 84.8296636,139.247146 85.0969406,139.457812 C88.4627967,142.11145 92.5256693,144.158469 96.4286998,145.959288 C96.8636801,146.159802 97.2397022,145.567143 96.8112728,145.323481" id="Fill-56" fill="#171714"></path>
                    <path d="M98.846328,143.390607 C96.449282,141.832634 93.9486359,140.456159 91.4687098,139.043915 C91.1151746,138.842544 90.8043745,139.38704 91.1514347,139.599009 C93.5886257,141.088092 96.0038018,142.61427 98.5225779,143.957625 C98.8890631,144.153696 99.1959782,143.618474 98.846328,143.390607" id="Fill-58" fill="#171714"></path>
                    <path d="M65.8071124,275.260268 C63.872835,274.26331 61.8966842,273.337935 59.9880711,272.295423 C58.0916147,271.258118 56.3180768,269.92537 54.3540828,269.024723 C54.1217533,268.916698 53.8759164,269.186111 54.0704247,269.380036 C57.0083112,272.303232 61.5968172,274.504089 65.4950886,275.974798 C65.9246279,276.137487 66.2082859,275.467208 65.8071124,275.260268" id="Fill-60" fill="#171714"></path>
                    <path d="M35.8133529,397.267547 C30.8166789,394.523621 25.9380666,391.531402 21.3285842,388.045417 C21.082305,387.859197 20.8677629,388.293711 21.0988082,388.481342 C25.6118102,392.181762 30.3266596,395.410989 35.4477426,397.96023 C35.8654015,398.169022 36.2360897,397.498912 35.8133529,397.267547" id="Fill-62" fill="#171714"></path>
                    <path d="M36.773069,369.164053 C30.3907829,365.878559 24.2033758,362.313362 18.3685457,358.04958 C18.0941766,357.848837 17.85186,358.309208 18.1095618,358.512627 C23.7879759,363.009271 29.7971713,366.957218 36.329463,369.956319 C36.8358919,370.189181 37.2871905,369.427695 36.773069,369.164053" id="Fill-64" fill="#171714"></path>
                </g>
            </g>
        </g>
    </g>
</svg>