<?xml version="1.0" encoding="UTF-8"?>
<svg width="67px" height="67px" viewBox="0 0 67 67" version="1.1" xmlns="http://www.w3.org/2000/svg" xmlns:xlink="http://www.w3.org/1999/xlink">
    <!-- Generator: sketchtool 49.1 (51147) - http://www.bohemiancoding.com/sketch -->
    <title>0390A355-CFBD-412E-89E0-1CF03E978021</title>
    <desc>Created with sketchtool.</desc>
    <defs></defs>
    <g id="ðŸ–¥ï¸-Desktop" stroke="none" stroke-width="1" fill="none" fill-rule="evenodd">
        <g id="Final-About-us" transform="translate(-940.000000, -1399.000000)" fill="#F67E56" fill-rule="nonzero">
            <g id="Group-9" transform="translate(894.000000, 1369.000000)">
                <g id="Group-Copy" transform="translate(16.000000, 0.000000)">
                    <g id="cake" transform="translate(30.000000, 30.000000)">
                        <g id="wedding-cake">
                            <path d="M65.8833333,46.8979523 L62.5333333,46.8979523 L62.5333333,33.4964941 C62.5333333,31.0293694 60.5335229,29.0293413 58.0666667,29.0293413 L53.6,29.0293413 L53.6,17.8614595 C53.6,15.3943348 51.6001896,13.3943067 49.1333333,13.3943067 L35.7534333,13.3943067 L41.6516667,8.81547517 C43.7987375,7.14378285 44.1842667,4.048046 42.5128958,1.90074152 C40.841525,-0.246562963 37.7459854,-0.632134084 35.5989146,1.03941863 C35.0922271,1.43392406 34.6676146,1.92363568 34.3488063,2.48105258 L33.8027563,3.43702327 L33.2567063,2.48105258 C31.9038646,0.11988316 28.8934708,-0.697605791 26.5325583,0.655243497 C24.1716458,2.00809278 23.3543854,5.01881413 24.7070875,7.37998355 C25.0247792,7.93460848 25.4474375,8.42208653 25.9514729,8.81533557 L31.8452396,13.3941671 L17.8666667,13.3941671 C15.3998104,13.3941671 13.4,15.3941952 13.4,17.8613199 L13.4,29.0292017 L8.93333333,29.0292017 C6.46647708,29.0292017 4.46666667,31.0292298 4.46666667,33.4963545 L4.46666667,46.8978127 L1.11666667,46.8978127 C0.4999875,46.8978127 0,47.3978546 0,48.0146009 C0.00362916667,51.0969362 2.50133333,53.5949122 5.58333333,53.5985418 L30.15,53.5985418 L30.15,60.2992709 L25.6833333,60.2992709 C22.6013333,60.3029005 20.1036292,62.8008764 20.1,65.8832118 C20.1,66.4999581 20.5999875,67 21.2166667,67 L45.7833333,67 C46.4000125,67 46.9,66.4999581 46.9,65.8832118 C46.8963708,62.8008764 44.3986667,60.3029005 41.3166667,60.2992709 L36.85,60.2992709 L36.85,53.5985418 L61.4166667,53.5985418 C64.4986667,53.5949122 66.9963708,51.0969362 67,48.0146009 C67,47.3978546 66.5000125,46.8979523 65.8833333,46.8979523 Z M27.3237167,7.04648268 C26.1796917,6.16156764 25.9408646,4.5300797 26.78325,3.35438094 C27.2814229,2.64256807 28.0975667,2.22084093 28.9663333,2.22642487 C29.01435,2.22642487 29.0634833,2.22642487 29.1115,2.22642487 C30.0313542,2.26369768 30.8656438,2.77630346 31.3146833,3.57997215 L32.83,6.23569446 C33.1362458,6.77105479 33.8183896,6.95672083 34.3538313,6.65044167 C34.5266354,6.55160592 34.6697083,6.40837783 34.7685333,6.23569446 L36.2849667,3.58332252 C37.0223854,2.29203618 38.6668167,1.84308733 39.9581021,2.58058633 C40.2960333,2.77365108 40.5881813,3.03763189 40.8141667,3.35438094 C41.65725,4.52924211 41.4199583,6.16059045 40.27705,7.04648268 L33.8003833,12.085431 L27.3237167,7.04648268 Z M15.6333333,20.0950358 L16.75,20.0950358 L16.75,17.8614595 L15.6333333,17.8614595 C15.6333333,16.6278273 16.6331688,15.6278831 17.8666667,15.6278831 L49.1333333,15.6278831 C50.3668313,15.6278831 51.3666667,16.6278273 51.3666667,17.8614595 L50.25,17.8614595 L50.25,20.0950358 L51.3666667,20.0950358 L51.3666667,23.0601085 C49.8968542,22.5391268 48.6554,21.5207555 47.8569833,20.1810285 C47.5391521,19.6525085 46.8531,19.4816399 46.3244979,19.7995058 C46.168025,19.8935952 46.0369563,20.0246782 45.9428771,20.1810285 C44.0538958,23.3531258 39.9514021,24.3931348 36.7795104,22.5039479 C35.8242021,21.9349444 35.0257854,21.1364408 34.4568438,20.1810285 C34.1390125,19.6525085 33.4529604,19.4816399 32.9243583,19.7995058 C32.7678854,19.8935952 32.6369563,20.0246782 32.5428771,20.1810285 C30.6538958,23.3531258 26.5514021,24.3931348 23.3795104,22.5039479 C22.4240625,21.9349444 21.6257854,21.1364408 21.0568438,20.1810285 C20.694625,19.6525085 19.9724208,19.5176563 19.4439583,19.8799145 C19.3258708,19.9608817 19.2238354,20.0629282 19.1428771,20.1810285 C18.3444604,21.5207555 17.1030063,22.5391268 15.6331938,23.0601085 L15.6331938,20.0950358 L15.6333333,20.0950358 Z M15.6333333,25.3863783 C17.3643063,24.9438509 18.9212188,23.9885782 20.1,22.64578 C23.351175,26.3465369 28.9865729,26.7106098 32.6869271,23.4589414 C32.9751667,23.2057097 33.2467958,22.934051 33.5,22.64578 C36.751175,26.3465369 42.3865729,26.7106098 46.0869271,23.4589414 C46.3751667,23.2057097 46.6467958,22.934051 46.9,22.64578 C48.0787813,23.9885782 49.6356938,24.9438509 51.3666667,25.3863783 L51.3666667,29.0293413 L15.6333333,29.0293413 L15.6333333,25.3863783 Z M6.7,35.7300704 L8.93333333,35.7300704 L8.93333333,33.4964941 L6.7,33.4964941 C6.7,32.2628619 7.69983542,31.2629177 8.93333333,31.2629177 L58.0666667,31.2629177 C59.3001646,31.2629177 60.3,32.2628619 60.3,33.4964941 L58.0666667,33.4964941 L58.0666667,35.7300704 L60.3,35.7300704 L60.3,39.080435 C57.9425771,39.0869961 55.7576792,37.8451276 54.5569833,35.8160631 C54.2391521,35.2875431 53.5531,35.1166745 53.0244979,35.4345403 C52.868025,35.5286298 52.7369562,35.6597128 52.6428771,35.8160631 C50.7538958,38.9881604 46.6514021,40.0281693 43.4795104,38.1389825 C42.5242021,37.569979 41.7257854,36.7714754 41.1568437,35.8160631 C40.794625,35.2875431 40.0724208,35.1526909 39.5439583,35.5149491 C39.4258708,35.5959162 39.3238354,35.6979628 39.2428771,35.8160631 C37.3538958,38.9881604 33.2514021,40.0281693 30.0795104,38.1389825 C29.1240625,37.569979 28.3257854,36.7714754 27.7568437,35.8160631 C27.394625,35.2875431 26.6724208,35.1526909 26.1439583,35.5149491 C26.0258708,35.5959162 25.9238354,35.6979628 25.8428771,35.8160631 C23.9538958,38.9881604 19.8514021,40.0281693 16.6795104,38.1389825 C15.7240625,37.569979 14.9257854,36.7714754 14.3568437,35.8160631 C13.994625,35.2875431 13.2724208,35.1526909 12.7439583,35.5149491 C12.6258708,35.5959162 12.5238354,35.6979628 12.4428771,35.8160631 C11.2423208,37.844988 9.05742292,39.0868565 6.7,39.080435 L6.7,35.7300704 Z M6.7,41.3140113 C9.26763542,41.3240624 11.7127167,40.2174649 13.4,38.2819314 C16.651175,41.9826883 22.2865729,42.3467612 25.9869271,39.0950928 C26.2751667,38.8418611 26.5467958,38.5702024 26.8,38.2819314 C30.051175,41.9826883 35.6865729,42.3467612 39.3869271,39.0950928 C39.6751667,38.8418611 39.9467958,38.5702024 40.2,38.2819314 C43.451175,41.9826883 49.0865729,42.3467612 52.7869271,39.0950928 C53.0751667,38.8418611 53.3467958,38.5702024 53.6,38.2819314 C55.2872833,40.2174649 57.7325042,41.3240624 60.3,41.3140113 L60.3,46.8979523 L6.7,46.8979523 L6.7,41.3140113 Z M41.3166667,62.5329869 C42.73595,62.534662 44.0007146,63.4289302 44.4757167,64.7665632 L22.5242833,64.7665632 C22.9992854,63.4289302 24.26405,62.534662 25.6833333,62.5329869 L41.3166667,62.5329869 Z M32.3833333,60.2994105 L32.3833333,53.5986814 L34.6166667,53.5986814 L34.6166667,60.2994105 L32.3833333,60.2994105 Z M61.4166667,51.365105 L5.58333333,51.365105 C4.16405,51.3634298 2.89928542,50.4691617 2.42428333,49.1315286 L64.5757167,49.1315286 C64.1007146,50.4690221 62.83595,51.3632902 61.4166667,51.365105 Z" id="Shape"></path>
                            <rect id="Rectangle-path" x="26" y="18" width="3" height="3"></rect>
                            <rect id="Rectangle-path" x="40" y="18" width="3" height="3"></rect>
                            <rect id="Rectangle-path" x="19" y="33" width="3" height="3"></rect>
                            <rect id="Rectangle-path" x="33" y="33" width="3" height="3"></rect>
                            <rect id="Rectangle-path" x="46" y="33" width="3" height="3"></rect>
                        </g>
                    </g>
                </g>
            </g>
        </g>
    </g>
</svg>