<?xml version="1.0" encoding="UTF-8"?>
<svg width="69px" height="75px" viewBox="0 0 69 75" version="1.1" xmlns="http://www.w3.org/2000/svg" xmlns:xlink="http://www.w3.org/1999/xlink">
    <!-- Generator: sketchtool 49.1 (51147) - http://www.bohemiancoding.com/sketch -->
    <title>D171F7C0-AC7D-426E-9456-AB8540598667</title>
    <desc>Created with sketchtool.</desc>
    <defs>
        <polygon id="path-1" points="0 0.31325716 73.7976373 0.31325716 73.7976373 72.5944693 0 72.5944693"></polygon>
    </defs>
    <g id="ðŸ–¥ï¸-Desktop" stroke="none" stroke-width="1" fill="none" fill-rule="evenodd" opacity="0.074388587">
        <g id="Final-Contacs-" transform="translate(-961.000000, -751.000000)">
            <g id="Page-1" transform="translate(997.978943, 788.702655) rotate(-338.000000) translate(-997.978943, -788.702655) translate(960.978943, 752.202655)">
                <path d="M16.8167292,49.1131249 C16.6888035,48.9943827 16.4838315,49.0079103 16.368989,49.1401801 C16.2403364,49.2716984 16.2526929,49.4843822 16.3813455,49.6031244 L16.8676088,50.0660686 L17.9935009,50.2381696 L16.8167292,49.1131249 Z M11.8639668,52.0771706 C11.7876474,52.0110357 11.7106012,51.9712045 11.6342819,51.9449008 C11.5826755,51.9321248 11.5187126,51.9058211 11.4685599,51.8795175 L11.0586159,52.1433055 C10.751158,52.3289341 10.6610284,52.7392711 10.8529171,53.0428904 C10.9684864,53.2555742 11.1734584,53.3600372 11.3907868,53.3600372 C11.5056293,53.3600372 11.6204717,53.3337336 11.7229577,53.2683502 L12.6315214,52.6859122 L11.8639668,52.0771706 Z M7.59080999,47.7107646 C7.55156004,47.4732802 7.41200465,47.2748755 7.20703268,47.1553818 L6.79708874,47.195213 C6.43802437,47.2215166 6.16981636,47.5394151 6.20833946,47.9099208 C6.23305239,48.2676504 6.5797603,48.5449661 6.88649141,48.5186624 L7.75653201,48.451776 C7.64168956,47.9895833 7.60316645,47.7242921 7.59080999,47.7107646 Z" id="Fill-1" fill="#1E1210"></path>
                <path d="M21.1194064,8.0883889 L21.1194064,8.21868667 C21.1194064,8.15415825 21.0958287,8.11072566 21.0958287,8.06605214 C21.0958287,8.06605214 21.0958287,8.0883889 21.1194064,8.0883889" id="Fill-3" fill="#1E1210"></path>
                <path d="M22.8129373,24.818622 C22.5759003,24.818622 22.3705644,24.6270415 22.3403044,24.3658665 C22.3086034,24.0835786 22.4930455,23.8255315 22.7531377,23.7903432 C23.5802452,23.6777408 24.9160095,23.3782497 25.2949804,23.0631194 C25.5003163,22.891088 25.8000347,22.9325319 25.9614216,23.1593006 C26.1213675,23.3860693 26.0817412,23.7098012 25.8720824,23.8833966 C25.1537669,24.4792509 23.2466644,24.7631027 22.8727368,24.8147122 C22.8511225,24.8170581 22.8309492,24.818622 22.8129373,24.818622" id="Fill-5" fill="#1E1210"></path>
                <path d="M27.7573647,22.9572253 C27.6099152,22.9572253 27.4659269,22.8823165 27.378011,22.7441353 C27.237484,22.5237725 27.2935564,22.2263192 27.5012317,22.0779561 C27.5406901,22.0495926 28.4620764,21.3826862 28.196252,20.4772353 C28.1228733,20.2241454 28.2571701,19.9550556 28.4987657,19.8772377 C28.7438227,19.7965108 28.9951099,19.9419647 29.069873,20.1943274 C29.5378348,21.78923 28.0716467,22.8335895 28.0086519,22.8772256 C27.9311197,22.9310436 27.8445883,22.9572253 27.7573647,22.9572253" id="Fill-7" fill="#1E1210"></path>
                <path d="M40.4307391,13.6502421 C40.2125366,13.6502421 40.0108766,13.5104448 39.9376173,13.287894 C39.523269,12.0257012 37.6626404,11.6030957 37.6437348,11.5982751 C37.3617259,11.5404279 37.180547,11.2592265 37.2388393,10.972401 C37.2955562,10.686379 37.5610227,10.4983758 37.8524844,10.5594366 C37.9525267,10.5803259 40.3157298,11.0953262 40.9238608,12.9520591 C41.0144502,13.2300468 40.8687194,13.5305306 40.5953755,13.6229254 C40.5402341,13.6414043 40.4850927,13.6502421 40.4307391,13.6502421" id="Fill-9" fill="#1E1210"></path>
                <path d="M38.2852901,19.8548976 C38.186727,19.8548976 38.0875024,19.8209335 38.0054767,19.7509675 C37.8202574,19.5920157 37.7951205,19.3094347 37.9499109,19.119236 C39.0956243,17.7090481 39.4713548,16.4632462 39.4746623,16.4510192 C39.5454425,16.2132707 39.7875506,16.0808109 40.0197362,16.1507769 C40.2492757,16.2221014 40.3815752,16.4713976 40.3114565,16.7084668 C40.2949191,16.7655264 39.8887597,18.1329196 38.6206692,19.6932286 C38.5346746,19.7998758 38.4103131,19.8548976 38.2852901,19.8548976" id="Fill-11" fill="#1E1210"></path>
                <path d="M32.1235671,27.3004842 C31.9717338,27.3004842 31.8213536,27.2213275 31.7276383,27.0755539 C31.5779845,26.8396515 31.6339231,26.5175389 31.852592,26.3560907 C33.8598417,24.874059 35.1907434,23.705519 35.20382,23.6937631 C35.4094123,23.5150729 35.7108993,23.5448546 35.8794415,23.7682174 C36.0465307,23.9892289 36.0152923,24.3152602 35.8111529,24.4963016 C35.7973498,24.5080576 34.4366626,25.7008932 32.3952686,27.2103553 C32.3124505,27.2714862 32.2172823,27.3004842 32.1235671,27.3004842" id="Fill-13" fill="#1E1210"></path>
                <path d="M37.7265155,23.5776909 C37.5746545,23.5776909 37.4227935,23.5112718 37.3253305,23.3855755 C37.1613811,23.1763197 37.2097348,22.8813619 37.4303488,22.7263841 C37.4643475,22.702816 40.863465,20.2981601 42.5845563,16.3615805 C44.1756969,12.7228153 41.20723,11.5037041 41.0803014,11.4544254 C40.8256887,11.3544397 40.7063153,11.0780507 40.8120892,10.8373708 C40.917863,10.5981193 41.2049634,10.4845642 41.4648648,10.5838357 C41.5049077,10.6002619 45.4729373,12.2250294 43.5062996,16.721529 C41.6756569,20.9095012 38.1707656,23.3827188 38.0226822,23.4855612 C37.9327745,23.5476952 37.8292672,23.5776909 37.7265155,23.5776909" id="Fill-15" fill="#1E1210"></path>
                <path d="M45.0843444,17.3730354 C45.0368855,17.3730354 44.9887675,17.3640001 44.9413086,17.3451765 C44.7139013,17.2555762 44.5945949,16.9717166 44.6730339,16.7127041 C45.7230623,13.2694942 44.1911942,11.4097242 44.1753745,11.3909006 C44.0092683,11.1936295 44.0119049,10.8788991 44.1859209,10.6876515 C44.3566412,10.4971569 44.6321665,10.5016745 44.8009093,10.6996986 C44.8786892,10.7915577 46.7196993,13.0240347 45.495655,17.0402344 C45.4323764,17.245035 45.2642928,17.3730354 45.0843444,17.3730354" id="Fill-17" fill="#1E1210"></path>
                <path d="M32.7400154,29.1618808 C32.5849025,29.1618808 32.4326754,29.078242 32.3424935,28.9237093 C32.1982024,28.6807585 32.2588047,28.3549654 32.47957,28.1956533 C33.7536603,27.2764229 35.8249588,25.5614288 35.8451596,25.5439045 C36.0558245,25.3718475 36.3530642,25.4148617 36.5125058,25.6490504 C36.6697831,25.8808494 36.6272172,26.2114219 36.4179952,26.385072 C36.3314205,26.4567625 34.2990806,28.1390976 33.0004608,29.0766489 C32.9203793,29.1340012 32.8294759,29.1618808 32.7400154,29.1618808" id="Fill-19" fill="#1E1210"></path>
                <path d="M27.7491677,31.0232775 C27.5745986,31.0232775 27.4068221,30.9165029 27.3348209,30.7385454 C27.2397249,30.5033622 27.3490853,30.2339833 27.5773156,30.136979 L29.7821838,29.1976423 C30.0090556,29.0992422 30.2712488,29.2109018 30.3683826,29.4467828 C30.4634786,29.681966 30.3547974,29.9513449 30.1258878,30.0483492 L27.9210197,30.987686 C27.8646413,31.0114136 27.8062252,31.0232775 27.7491677,31.0232775" id="Fill-21" fill="#1E1210"></path>
                <path d="M10.7687748,30.4028119 C10.6176296,30.4028119 10.4731347,30.3032434 10.4060262,30.1342575 C10.3238032,29.9267063 9.61281604,28.0748728 10.0922487,26.9396519 C10.1895863,26.7096628 10.4277912,26.6150026 10.6260937,26.7271924 C10.8237917,26.8400835 10.9060147,27.1170521 10.8092817,27.3470413 C10.5426615,27.9774079 10.9628453,29.3236859 11.1315234,29.7458002 C11.2240243,29.9778929 11.13636,30.252758 10.9362437,30.3593384 C10.8818315,30.3887882 10.8250008,30.4028119 10.7687748,30.4028119" id="Fill-23" fill="#1E1210"></path>
                <path d="M10.442801,25.4390875 C10.3609617,25.4390875 10.2791224,25.4206831 10.2027391,25.3800401 C9.95098582,25.2496758 9.85433751,24.943703 9.98683923,24.6967775 C10.0749139,24.5342055 12.1403818,20.693825 13.3812214,19.3940156 C13.5768563,19.1908006 13.9010958,19.1800647 14.1092015,19.3710102 C14.3149688,19.5619556 14.3258807,19.8832654 14.1318047,20.0872473 C12.9860546,21.2873662 10.9182484,25.1308142 10.8979834,25.1683898 C10.8060116,25.3409308 10.627524,25.4390875 10.442801,25.4390875" id="Fill-25" fill="#1E1210"></path>
                <path d="M15.3678857,17.9935009 C15.2451197,17.9935009 15.123798,17.9471651 15.029918,17.8530455 C14.8443247,17.6655303 14.8450468,17.3628996 15.0313623,17.1775563 L16.5601606,15.6513707 C16.7471982,15.4645795 17.0490582,15.4653035 17.2339294,15.6520947 C17.420245,15.8396099 17.4188007,16.1422406 17.2332073,16.3283079 L15.7044091,17.8544935 C15.6112513,17.9471651 15.4892074,17.9935009 15.3678857,17.9935009" id="Fill-27" fill="#1E1210"></path>
                <path d="M19.1194492,14.8911732 C18.9862879,14.8911732 18.8546572,14.8379243 18.7551689,14.7322096 C18.5615493,14.5270447 18.5676716,14.2005036 18.7697095,14.0023864 L20.2406062,12.5544862 C20.4403481,12.3548028 20.7602414,12.3626335 20.9546263,12.5685815 C21.1482459,12.7737463 21.1421235,13.1010705 20.9400857,13.2984046 L19.4699543,14.7463049 C19.3727618,14.8434058 19.2457229,14.8911732 19.1194492,14.8911732" id="Fill-29" fill="#1E1210"></path>
                <path d="M7.96459206,27.9209497 L7.95203223,27.9209497 C7.66629599,27.9146029 7.43943397,27.7016316 7.44571389,27.4442325 C7.44885385,27.3574925 7.51165302,25.2877216 8.32568732,23.8342981 C8.45442562,23.6036967 8.76449654,23.5120203 9.02197316,23.6276736 C9.2770948,23.7426217 9.37992845,24.0225873 9.25197513,24.2524835 C8.54469944,25.5169126 8.48268525,27.4477585 8.48268525,27.466799 C8.47562034,27.7192617 8.24483338,27.9209497 7.96459206,27.9209497" id="Fill-31" fill="#1E1210"></path>
                <path d="M9.70742921,22.3367598 C9.63156003,22.3367598 9.55447693,22.3141078 9.48528423,22.2669161 C9.30198428,22.1398132 9.25160713,21.8824612 9.37360479,21.6905484 L10.4339526,20.039469 C10.5559502,19.8488146 10.8029803,19.7978476 10.989922,19.9243213 C11.1738289,20.0514242 11.2235991,20.3087762 11.1016014,20.500689 L10.0412536,22.1517684 C9.96417055,22.2719499 9.83731726,22.3367598 9.70742921,22.3367598" id="Fill-33" fill="#1E1210"></path>
                <path d="M12.8601321,19.234432 C12.7603726,19.234432 12.6606132,19.1989388 12.5772525,19.1264734 C12.3831999,18.957141 12.3531354,18.6502722 12.5089241,18.4402704 L14.08936,16.3158511 C14.2451487,16.1028915 14.5287116,16.0710955 14.7234475,16.2411673 C14.9168169,16.4104997 14.9475647,16.7173685 14.7917759,16.9266309 L13.21134,19.0517896 C13.1218298,19.1723188 12.9920059,19.234432 12.8601321,19.234432" id="Fill-35" fill="#1E1210"></path>
                <path d="M38.939365,31.0232775 C38.8033313,31.0232775 38.6672975,30.9642533 38.5754214,30.8490841 C38.4101866,30.6453787 38.440812,30.3459389 38.6416577,30.1796635 C51.3034793,19.729503 49.1632625,10.6117056 49.1404715,10.5210099 C49.0763718,10.2676378 49.2273622,10.0077874 49.4780631,9.94228498 C49.7266274,9.87822214 49.9851627,10.0272222 50.0499746,10.2813142 C50.1532463,10.6743289 52.4045692,20.0476578 39.2363602,30.9160262 C39.1494695,30.9880069 39.0447734,31.0232775 38.939365,31.0232775" id="Fill-37" fill="#1E1210"></path>
                <path d="M42.6748404,30.4028119 C42.5024467,30.4028119 42.3358968,30.310513 42.2489695,30.1471586 C42.1233267,29.9127487 42.2109845,29.6197363 42.4461996,29.4930085 C42.4805322,29.4732301 46.0628147,27.4734206 49.5165324,20.4022992 C53.7650142,11.7064241 50.6619278,7.65333022 50.6290561,7.61304101 C50.4646977,7.40500222 50.4961084,7.10100187 50.7021043,6.93471734 C50.9066391,6.76477016 51.2083281,6.79626899 51.3777999,7.00284272 C51.5246267,7.18304534 54.9294021,11.5240238 50.3828837,20.8278997 C46.7735734,28.2169395 43.0561518,30.2628985 42.8990983,30.346407 C42.8275111,30.3844986 42.75008,30.4028119 42.6748404,30.4028119" id="Fill-39" fill="#1E1210"></path>
                <path d="M39.5706831,35.3665363 C39.4095333,35.3665363 39.2513003,35.2855202 39.1608814,35.1394018 C39.0216072,34.9144373 39.0916089,34.6200304 39.3191144,34.4818689 C39.3526569,34.4608915 42.7710739,32.3602586 46.5008526,28.5691369 C54.5743835,20.3582952 53.5972762,11.7908377 53.5863385,11.7062047 C53.5535252,11.444349 53.7409256,11.2056407 54.003432,11.1723662 C54.276147,11.1383684 54.5087569,11.3257182 54.5415702,11.5861272 C54.588238,11.9550401 55.5850332,20.698997 47.1906612,29.2353501 C43.3719219,33.1176149 39.9659011,35.2081208 39.8222517,35.2963705 C39.7434998,35.3433888 39.657456,35.3665363 39.5706831,35.3665363" id="Fill-41" fill="#1E1210"></path>
                <path d="M33.9680086,36.6074674 C33.8041145,36.6074674 33.6451233,36.5146023 33.561075,36.3496738 C33.439205,36.1119391 33.5232533,35.8140277 33.747382,35.6855024 C34.9842921,34.9767557 39.5670231,31.7584217 39.6125492,31.7257332 C39.8233703,31.5756631 40.1126364,31.6373256 40.2534172,31.8639165 C40.394198,32.0890216 40.3360646,32.3936192 40.1238428,32.5429463 C39.9333334,32.6766721 35.4612659,35.8184853 34.1879349,36.5480337 C34.1185951,36.5881515 34.0422513,36.6074674 33.9680086,36.6074674" id="Fill-43" fill="#1E1210"></path>
                <path d="M31.643743,44.053054 L31.0232775,44.2491211 C31.0974173,44.1386782 31.1831036,44.0964866 31.2687898,44.0741498 L31.643743,44.053054 Z" id="Fill-45" fill="#1E1210"></path>
                <path d="M31.643743,44.053054 L31.0232775,44.2491211 C31.0974173,44.1386782 31.1831036,44.0964866 31.2687898,44.0741498 L31.643743,44.053054 Z" id="Fill-47" fill="#1E1210"></path>
                <path d="M21.0958287,8.06605214 C21.0958287,8.10948473 21.1194064,8.15291732 21.1194064,8.21868667 L21.1194064,8.0883889 C21.0958287,8.0883889 21.0958287,8.06605214 21.0958287,8.06605214" id="Fill-49" fill="#1E1210"></path>
                <g id="Group-53">
                    <mask id="mask-2" fill="white">
                        <use xlink:href="#path-1"></use>
                    </mask>
                    <g id="Clip-52"></g>
                    <path d="M68.4963131,52.8993683 L53.5853933,30.3446661 L59.3681192,27.216763 L72.2494311,51.132836 L68.4963131,52.8993683 Z M65.504478,59.4223932 L50.1491764,37.2352973 L52.9775192,31.1708774 L67.7746427,53.509638 L65.504478,59.4223932 Z M60.432619,62.1682459 L44.2404102,38.5201137 L49.3756495,37.7820123 L64.921812,60.2608822 L60.432619,62.1682459 Z M57.3507552,66.4791334 L39.2701036,44.4068693 L43.3912592,38.9519969 L59.6720562,62.7402383 L57.3507552,66.4791334 Z M49.9972079,67.0511258 L32.2579452,45.1695259 L38.4713686,44.9275846 L56.3878078,66.8091846 L49.9972079,67.0511258 Z M48.424946,67.3566218 L45.6873521,70.6621892 L25.9566538,50.4330119 L31.2316176,45.3977451 L48.8181915,67.1024029 C48.6532589,67.139958 48.5257782,67.2287901 48.424946,67.3566218 Z M38.9150303,69.2379858 L17.9181678,49.8992968 L25.0822947,50.9284498 C25.0945386,50.9284498 25.1067825,50.9421719 25.1197466,50.9284498 L44.3419626,70.6499116 C44.3419626,70.6499116 39.0165827,69.2379858 38.9150303,69.2379858 Z M35.4031892,70.0136422 L12.6043115,52.2515435 L16.6750509,49.7209102 L16.8025316,49.7339101 L38.0147429,69.4409276 L35.4031892,70.0136422 Z M8.14248721,49.5555235 C7.97755456,48.9965309 7.85007386,48.5256482 7.77444972,48.1825972 L8.90232976,48.0937651 L9.95530589,50.0386838 C10.0561381,50.2553476 10.2858914,50.3694572 10.5134841,50.3694572 C10.5768643,50.3694572 16.2947695,48.2078747 16.2947695,48.2078747 L24.0667705,49.0218084 C24.2331436,49.0348082 24.397356,48.9842533 24.5241165,48.8946989 L30.7238555,44.113651 L24.954814,49.6320781 L16.6253551,48.4238163 C16.4856305,48.399261 16.3329417,48.4368161 16.2061813,48.5133706 L11.4519436,51.4758871 C9.98123416,50.9797269 8.30669963,50.0769611 8.14248721,49.5555235 Z M7.22995591,46.9367803 C7.20330741,46.9245027 7.17881959,46.9107807 7.15289131,46.8985031 C7.08951108,46.8732256 0.698911103,44.26676 1.6114424,40.0584267 C2.62696657,35.3792107 3.78005465,33.3700151 3.79373902,33.3447376 C3.91977925,33.1165184 3.93202316,32.8362999 3.80598293,32.5950808 C3.78005465,32.5690812 2.1580969,29.4671777 4.35047674,24.8132392 C6.15105151,20.999234 12.6043115,14.0696033 19.9967513,9.30227734 C20.2257844,10.4715397 20.6449582,12.3283485 21.2787605,14.0190484 C21.2283444,14.031326 21.189452,14.0566034 21.1390359,14.0826031 C20.4029609,14.5910408 10.8692776,23.2626485 11.9964374,28.0176968 C12.352231,29.5047328 13.6327998,30.4204984 15.8006918,30.7129946 C16.4597022,30.8018267 17.1064686,30.8408262 17.7409912,30.8408262 C24.9807422,30.8408262 31.4851385,25.6524503 33.438402,23.9487506 C36.5692415,21.202898 38.585165,18.3422135 38.585165,16.663069 C38.585165,15.6721932 38.1803958,14.8322599 37.4191128,14.2219901 C36.1767162,13.2563918 34.1478285,13.0404502 31.674559,13.6369979 C29.2409021,14.2219901 26.9584936,13.2816692 25.7535489,12.6331222 C32.1441489,9.18744552 44.3174748,5.79232369 46.8778921,10.0779338 C49.464958,14.3880991 45.3942185,21.6095037 36.0247476,29.4159006 C27.6816044,36.3585311 16.2443534,39.3080477 11.1213581,39.1173836 C8.81446171,39.0285514 7.62176098,38.1763405 7.02613085,37.3248517 C6.41753658,36.4596409 6.39232853,35.621152 6.39232853,35.5445974 C6.39232853,35.2015464 6.11359955,34.9213279 5.75852621,34.9213279 C5.41569677,34.9213279 5.12472389,35.2015464 5.12472389,35.5575973 C5.12472389,35.5958745 5.20034803,40.1725363 11.0839062,40.3884779 C11.2488388,40.4014778 11.4260154,40.4014778 11.6168763,40.4014778 C17.2714013,40.4014778 28.4176794,37.400684 36.8357265,30.395221 C46.8778921,22.0291093 50.9356674,14.3880991 47.9690404,9.42866456 C44.4816872,3.59318607 30.1037376,8.67900779 24.5118726,11.8574658 C24.0422827,11.5144148 23.0411631,10.5603718 22.254672,8.50062126 C23.87735,7.62313285 34.8831832,1.83820924 43.3660511,1.83820924 C44.4816872,1.83820924 45.520979,1.94004123 46.4594386,2.14370521 C54.6765416,3.89868203 56.42598,7.71268722 57.9478258,11.1078091 C57.9218976,11.1836414 57.9218976,11.2594737 57.9341415,11.3490281 L58.9619095,16.9057325 L57.5538601,17.6676669 C57.3507552,17.7824987 57.224715,17.9854404 57.224715,18.2028265 L57.0216102,24.0123053 L51.1265284,27.9411423 C51.024976,28.0054192 50.9479114,28.0935292 50.896775,28.208361 L48.0072126,34.667109 L41.9075855,36.1548672 C41.7678609,36.1931444 41.6540646,36.269699 41.5654763,36.3708088 L37.1915201,41.7874039 L30.4573705,42.8042794 C30.355818,42.830279 30.2557061,42.8685563 30.1663976,42.9313888 L23.9536944,47.7247144 L16.2825256,46.9245027 C16.1809732,46.9245027 16.0794208,46.9245027 15.9915527,46.9620578 L10.8044569,48.9452538 L9.81630151,47.1144447 C9.70106473,46.8985031 9.46122817,46.7713936 9.20698701,46.7843935 L7.22995591,46.9367803 Z M20.8098908,8.29767949 L20.8098908,8.14457041 C21.8743906,11.603247 23.6115852,12.8237864 24.093419,13.1032827 L24.1056629,13.1162825 C24.1179068,13.1292824 24.1438351,13.14156 24.1820073,13.1668374 C24.7272213,13.5488879 28.1123019,15.7993026 31.9792163,14.8712594 C34.021068,14.3750992 35.7200904,14.5022087 36.6326217,15.226588 C37.0899677,15.5833611 37.3175603,16.0665213 37.3175603,16.663069 C37.3175603,17.7442214 35.6941621,20.2618548 32.6014949,22.9954298 C30.5848512,24.7626843 23.4336884,30.4587757 15.9656245,29.4541779 C13.5694196,29.1241267 13.3151784,28.0682517 13.2265901,27.7252007 C12.4026471,24.2289691 20.2509924,16.320018 21.7728382,15.2013105 C22.0263592,15.7480255 22.3050881,16.2441857 22.6219893,16.663069 L24.434808,19.1055923 C24.4859443,19.3973662 24.397356,19.5497531 24.3210116,19.6508629 C23.9536944,20.147023 22.8503022,20.3124097 22.4952288,20.3254095 C22.2417079,20.3376872 22.0393233,20.5666286 22.0515672,20.8208474 C22.0515672,21.0880661 22.2669159,21.2787303 22.5211571,21.2787303 L22.5470854,21.2787303 C22.7235417,21.2787303 24.372148,21.1776205 25.0822947,20.2235776 C25.3862317,19.8292494 25.47482,19.3330893 25.3487797,18.8000964 C25.3350953,18.7358194 25.2976434,18.6722647 25.2594712,18.6209876 L23.6238291,16.42185 C25.462576,18.2779366 27.2631508,18.9524832 27.389191,19.0030381 C27.4403274,19.0153157 27.5029874,19.0283156 27.5541237,19.0283156 C27.7449846,19.0283156 27.9221612,18.9012061 27.9985056,18.710542 C28.0863736,18.4693229 27.9603334,18.1891044 27.7197766,18.1002723 C27.6816044,18.0872724 25.221299,17.1592291 23.1931316,14.4379317 C25.4503321,16.8161781 27.8587809,17.0068423 29.6593557,17.1469515 C30.6993677,17.2235061 31.5096264,17.2863386 31.8654199,17.7694989 C32.0807687,18.0497174 32.1578333,18.367491 32.0937328,18.748097 C31.8776638,20.1983001 29.8235681,21.9915542 29.0507614,22.5628244 C28.8483768,22.7159335 28.7972405,23.0207073 28.949209,23.2243713 C29.0507614,23.3514807 29.1897658,23.4280352 29.3302107,23.4280352 C29.4310428,23.4280352 29.5325953,23.389758 29.6219038,23.3262032 C29.7486642,23.2373711 32.7152912,21.0245114 33.0321924,18.8882063 C33.1337448,18.2526591 32.9940202,17.6806667 32.6259827,17.1975064 C32.0181087,16.3705729 30.9651325,16.2947406 29.7357001,16.1936308 C27.0859743,15.9899668 23.4841045,15.7097483 20.8098908,8.30995711 L20.8098908,8.37351183 C20.8098908,8.33523455 20.7962065,8.30995711 20.7962065,8.28467967 C20.7962065,8.28467967 20.7962065,8.29767949 20.8098908,8.29767949 Z M59.9637493,17.8084983 C60.2043061,17.6806667 60.3440307,17.4011704 60.2928944,17.1339517 L59.4314994,12.4041808 C60.0905098,12.8996187 60.9022089,13.790107 61.0793855,15.226588 C61.256562,16.5489594 61.4589466,17.4770027 61.6116354,18.0114401 L59.1779785,19.3330893 C58.9741534,19.4479211 58.8344288,19.6638627 58.8344288,19.8928041 L58.8481132,26.0467784 L52.5086496,29.4794553 C52.3811689,29.5437323 52.2925806,29.6455642 52.2284801,29.7719515 L49.0717124,36.5491953 L43.2263265,37.3624068 C43.0621141,37.3876842 42.9094253,37.4772386 42.8078729,37.6166256 L38.2300916,43.6687679 L30.8513362,44.0378186 C30.9392043,43.9735417 37.6222176,42.9956657 37.6222176,42.9956657 C37.7741861,42.9826659 37.9131905,42.8938337 38.0147429,42.7790019 L42.4153476,37.3371293 L48.6150867,35.8240938 C48.8059476,35.7858165 48.9586363,35.6464294 49.0457842,35.4680429 L51.9886436,28.894463 L57.9852778,24.9020713 C58.1631746,24.7879617 58.264727,24.5972976 58.2776911,24.3936336 L58.4800757,18.60871 L59.9637493,17.8084983 Z M72.0981828,43.9865415 L72.2119792,49.0730855 L60.0905098,26.5552162 C60.1157179,26.5169389 60.1157179,26.466384 60.1157179,26.4281067 L60.1027537,20.2748547 L62.0430531,19.2189797 L72.0981828,43.9865415 Z M73.6063443,43.8088772 C73.6063443,43.720045 73.5941004,43.618213 73.5559282,43.5416585 L63.1968614,18.0114401 C63.1846175,17.9984403 62.8410678,17.0068423 62.6012313,15.0359238 C62.2454377,12.2517939 60.1790981,10.9669776 59.3681192,10.5740939 L59.3544348,10.5350944 C57.7692088,7.00058551 55.7921777,2.58858822 46.7763397,0.643669463 C45.7377682,0.427005658 44.5954836,0.312896054 43.3660511,0.312896054 C35.1496683,0.312896054 25.0822947,5.28460817 22.1408757,6.83519881 L21.2528322,3.8856822 C21.0634118,3.23713521 19.9967513,3.23713521 19.7950869,3.8856822 C19.2873248,5.57710431 19.2491526,7.19124966 19.2750809,7.96690609 C12.4026471,12.3659035 5.14921171,19.5627529 2.96907577,24.1646922 C0.889772029,28.5766895 1.84119574,31.8447019 2.28413713,32.9381319 C1.89161183,33.7390657 0.953152261,35.8753709 0.128489016,39.7406531 C-0.910802742,44.5462563 4.64289008,47.4459403 6.2014676,48.1450422 C6.29077611,48.5386481 6.44346485,49.1871951 6.69698578,50.0004065 C7.15289131,51.5141643 9.96899025,52.5945945 11.0075618,52.9506454 L34.7564228,71.4371234 C34.9335993,71.5779549 35.1619122,71.6277876 35.3909453,71.5779549 L39.0547549,70.7640212 L45.520979,72.5565531 C45.5850795,72.5811083 45.6607036,72.5948304 45.7240838,72.5948304 C45.9531169,72.5948304 46.1684657,72.4929984 46.3067498,72.3146119 L49.3756495,68.6017164 L57.6172403,68.2969427 C57.8714815,68.2846651 58.0997943,68.1568334 58.2387987,67.9408918 L60.9389406,63.6054491 L66.1130723,61.4178669 C66.303213,61.3420345 66.4559017,61.1766478 66.5315259,60.9859837 L69.0933837,54.2982942 L73.3665077,52.2890985 C73.6322725,52.1627113 73.8094491,51.8824928 73.7972052,51.577719 L73.6063443,43.8088772 Z" id="Fill-51" fill="#1E1210" mask="url(#mask-2)"></path>
                </g>
            </g>
        </g>
    </g>
</svg>