<?xml version="1.0" encoding="UTF-8"?>
<svg width="55px" height="44px" viewBox="0 0 55 44" version="1.1" xmlns="http://www.w3.org/2000/svg" xmlns:xlink="http://www.w3.org/1999/xlink">
    <!-- Generator: sketchtool 49.1 (51147) - http://www.bohemiancoding.com/sketch -->
    <title>124C1888-E8A9-43E0-BD42-B8B0F8600E4B</title>
    <desc>Created with sketchtool.</desc>
    <defs>
        <polygon id="path-1" points="0.0004 0.603 50 0.603 50 36.9991 0.0004 36.9991"></polygon>
        <polygon id="path-3" points="0 37.3975 50 37.3975 50 1.0005 0 1.0005"></polygon>
    </defs>
    <g id="ðŸ–¥ï¸-Desktop" stroke="none" stroke-width="1" fill="none" fill-rule="evenodd">
        <g id="Final-About-us" transform="translate(-673.000000, -1412.000000)">
            <g id="Group-5" transform="translate(609.000000, 1369.000000)">
                <g id="Group" transform="translate(28.000000, 0.000000)">
                    <g id="Dollar" transform="translate(63.404012, 64.782597) rotate(-12.000000) translate(-63.404012, -64.782597) translate(38.404012, 45.782597)">
                        <g id="Group-3" transform="translate(0.000000, 0.397500)">
                            <mask id="mask-2" fill="white">
                                <use xlink:href="#path-1"></use>
                            </mask>
                            <g id="Clip-2"></g>
                            <path d="M7.4694,4.6021 C5.5564,4.6021 4.0004,6.1591 4.0004,8.0721 L4.0004,29.5311 C4.0004,31.4441 5.5564,32.9991 7.4694,32.9991 L42.5314,32.9991 C44.4444,32.9991 46.0004,31.4441 46.0004,29.5311 L46.0004,8.0721 C46.0004,6.1591 44.4444,4.6021 42.5314,4.6021 L7.4694,4.6021 Z M42.5314,36.9991 L7.4694,36.9991 C3.3504,36.9991 0.0004,33.6491 0.0004,29.5311 L0.0004,8.0721 C0.0004,3.9531 3.3504,0.6021 7.4694,0.6021 L42.5314,0.6021 C46.6494,0.6021 50.0004,3.9531 50.0004,8.0721 L50.0004,29.5311 C50.0004,33.6491 46.6494,36.9991 42.5314,36.9991 Z" id="Fill-1" fill="#F67E56" mask="url(#mask-2)"></path>
                        </g>
                        <path d="M21.6946,26.6158 C20.8656,26.6158 20.1946,25.9448 20.1946,25.1158 C20.1946,24.2878 20.8656,23.6158 21.6946,23.6158 L25.6856,23.6158 C26.5026,23.6158 27.1676,22.9508 27.1676,22.1338 C27.1676,21.3198 26.5056,20.6548 25.6916,20.6508 L24.4926,20.6448 C22.1586,20.6348 20.0766,18.9268 19.8546,16.6028 C19.5986,13.9338 21.6986,11.6798 24.3156,11.6798 L28.3056,11.6798 C29.1336,11.6798 29.8056,12.3518 29.8056,13.1798 C29.8056,14.0098 29.1336,14.6798 28.3056,14.6798 L24.3156,14.6798 C23.4986,14.6798 22.8336,15.3448 22.8336,16.1628 C22.8336,16.9758 23.4946,17.6408 24.3076,17.6438 L25.7066,17.6508 C28.3196,17.6638 30.4156,19.9318 30.1436,22.5978 C29.9076,24.9208 27.8136,26.6158 25.4796,26.6158 L21.6946,26.6158 Z" id="Fill-4" fill="#F67E56"></path>
                        <mask id="mask-4" fill="white">
                            <use xlink:href="#path-3"></use>
                        </mask>
                        <g id="Clip-7"></g>
                        <polygon id="Fill-6" fill="#F67E56" mask="url(#mask-4)" points="23.604 13.1965 26.604 13.1965 26.604 9.4485 23.604 9.4485"></polygon>
                        <polygon id="Fill-8" fill="#F67E56" mask="url(#mask-4)" points="23.526 28.9485 26.526 28.9485 26.526 25.2715 23.526 25.2715"></polygon>
                        <path d="M40.0045,8.2055 C39.3115,8.6595 39.1175,9.5895 39.5715,10.2825 C40.0255,10.9755 40.9555,11.1685 41.6485,10.7145 L43.6705,9.3895 C44.3625,8.9355 44.5565,8.0055 44.1025,7.3135 C43.6485,6.6195 42.7185,6.4265 42.0255,6.8805 L40.0045,8.2055 Z" id="Fill-9" fill="#F67E56" mask="url(#mask-4)"></path>
                        <path d="M6.633,28.6328 C5.955,29.1078 5.792,30.0438 6.268,30.7218 C6.745,31.3998 7.68,31.5628 8.358,31.0868 L10.336,29.6968 C11.013,29.2218 11.177,28.2858 10.701,27.6078 C10.224,26.9298 9.289,26.7658 8.611,27.2428 L6.633,28.6328 Z" id="Fill-10" fill="#F67E56" mask="url(#mask-4)"></path>
                    </g>
                </g>
            </g>
        </g>
    </g>
</svg>