<?xml version="1.0" encoding="UTF-8"?>
<svg width="51px" height="36px" viewBox="0 0 51 36" version="1.1" xmlns="http://www.w3.org/2000/svg" xmlns:xlink="http://www.w3.org/1999/xlink">
    <!-- Generator: sketchtool 49.1 (51147) - http://www.bohemiancoding.com/sketch -->
    <title>EFC6A38B-7F22-4FD6-BC06-BC977D336601</title>
    <desc>Created with sketchtool.</desc>
    <defs>
        <polygon id="path-1" points="0 0.662 37.925 0.662 37.925 27.6632 0 27.6632"></polygon>
    </defs>
    <g id="ðŸ–¥ï¸-Desktop" stroke="none" stroke-width="1" fill="none" fill-rule="evenodd">
        <g id="Final-About-us" transform="translate(-1494.000000, -1415.000000)">
            <g id="Group-13" transform="translate(1456.000000, 1364.000000)">
                <g id="Group-6">
                    <g id="Drive" transform="translate(38.000000, 50.000000)">
                        <polygon id="Fill-1" fill="#F67E56" points="36.138 19.9133 49.279 19.9133 49.279 16.9363 36.138 16.9363"></polygon>
                        <g id="Group-19" transform="translate(0.000000, 0.338300)">
                            <path d="M43.0807,8.1216 L37.9247,8.1216 L37.9247,11.0986 L41.7057,11.0986 C42.1967,11.0986 42.6637,11.3136 42.9827,11.6876 L47.7887,17.3386 L47.7347,29.4106 L39.9967,29.4106 C40.1317,29.8026 40.2117,30.2206 40.2117,30.6576 C40.2117,31.2826 40.0487,31.8646 39.7847,32.3866 L47.7347,32.3866 C49.4097,32.3866 50.7667,31.0286 50.7667,29.3536 L50.7667,16.5326 C50.7667,16.3486 50.7017,16.1696 50.5817,16.0286 L44.3577,8.7126 C44.0387,8.3376 43.5727,8.1216 43.0807,8.1216" id="Fill-2" fill="#F67E56"></path>
                            <path d="M32.9327,28.9224 L18.4217,28.9534 C18.6787,29.4694 18.8357,30.0424 18.8357,30.6574 C18.8357,31.5074 18.5527,32.2844 18.0877,32.9214 L33.2227,32.8884 C32.7727,32.2574 32.5017,31.4914 32.5017,30.6574 C32.5017,30.0294 32.6667,29.4454 32.9327,28.9224" id="Fill-4" fill="#F67E56"></path>
                            <g id="Group-8">
                                <mask id="mask-2" fill="white">
                                    <use xlink:href="#path-1"></use>
                                </mask>
                                <g id="Clip-7"></g>
                                <path d="M36.357,26.8032 C36.917,26.8032 37.445,26.9282 37.925,27.1432 L37.925,11.0982 L37.925,8.1212 L37.925,4.3302 C37.925,2.3042 36.282,0.6612 34.255,0.6612 L1.984,0.6612 C0.888,0.6612 0,1.5502 0,2.6462 C0,3.7412 0.888,4.6292 1.984,4.6292 L33.957,4.6292 L33.957,27.6632 C34.617,27.1332 35.444,26.8032 36.357,26.8032" id="Fill-6" fill="#F67E56" mask="url(#mask-2)"></path>
                            </g>
                            <path d="M11.5318,28.9683 L8.1608,28.9763 L8.1608,15.3593 L4.1928,15.3593 L4.1928,29.1413 C4.1928,29.9923 4.4298,30.8453 4.9528,31.5153 C5.6678,32.4313 6.7248,32.9453 7.8618,32.9453 L7.8698,32.9453 L11.8858,32.9363 C11.4138,32.2963 11.1258,31.5133 11.1258,30.6573 C11.1258,30.0483 11.2798,29.4803 11.5318,28.9683" id="Fill-9" fill="#F67E56"></path>
                            <path d="M36.357,28.2905 C35.052,28.2905 33.99,29.3525 33.99,30.6575 C33.99,31.9625 35.052,33.0235 36.357,33.0235 C37.662,33.0235 38.724,31.9625 38.724,30.6575 C38.724,29.3525 37.662,28.2905 36.357,28.2905 M36.357,35.9995 C33.411,35.9995 31.014,33.6025 31.014,30.6575 C31.014,27.7115 33.411,25.3145 36.357,25.3145 C39.303,25.3145 41.699,27.7115 41.699,30.6575 C41.699,33.6025 39.303,35.9995 36.357,35.9995" id="Fill-11" fill="#F67E56"></path>
                            <path d="M14.9811,28.2905 C13.6761,28.2905 12.6141,29.3525 12.6141,30.6575 C12.6141,31.9625 13.6761,33.0235 14.9811,33.0235 C16.2861,33.0235 17.3481,31.9625 17.3481,30.6575 C17.3481,29.3525 16.2861,28.2905 14.9811,28.2905 M14.9811,35.9995 C12.0351,35.9995 9.6381,33.6025 9.6381,30.6575 C9.6381,27.7115 12.0351,25.3145 14.9811,25.3145 C17.9271,25.3145 20.3231,27.7115 20.3231,30.6575 C20.3231,33.6025 17.9271,35.9995 14.9811,35.9995" id="Fill-13" fill="#F67E56"></path>
                            <path d="M14.9581,11.145 L2.8331,11.145 C1.8681,11.145 1.0851,10.363 1.0851,9.397 C1.0851,8.431 1.8681,7.648 2.8331,7.648 L14.9581,7.648 C15.9241,7.648 16.7071,8.431 16.7071,9.397 C16.7071,10.363 15.9241,11.145 14.9581,11.145" id="Fill-15" fill="#F67E56"></path>
                            <path d="M10.0084,16.5708 L5.0334,16.4888 C4.2124,16.4758 3.5564,15.7988 3.5704,14.9758 C3.5844,14.1548 4.2614,13.4998 5.0824,13.5128 L10.0574,13.5948 C10.8794,13.6088 11.5344,14.2858 11.5204,15.1078 C11.5074,15.9288 10.8294,16.5848 10.0084,16.5708" id="Fill-17" fill="#F67E56"></path>
                        </g>
                    </g>
                </g>
            </g>
        </g>
    </g>
</svg>