<?xml version="1.0" encoding="UTF-8"?>
<svg width="31px" height="20px" viewBox="0 0 31 20" version="1.1" xmlns="http://www.w3.org/2000/svg" xmlns:xlink="http://www.w3.org/1999/xlink">
    <!-- Generator: Sketch 49.1 (51147) - http://www.bohemiancoding.com/sketch -->
    <title>Page 1</title>
    <desc>Created with Sketch.</desc>
    <defs></defs>
    <g id="ðŸ–¥ï¸-Desktop" stroke="none" stroke-width="1" fill="none" fill-rule="evenodd">
        <g id="Main-Page-" transform="translate(-1213.000000, -1824.000000)" fill="#222127">
            <path d="M1243.72033,1833.28512 C1243.70254,1833.26735 1243.6746,1833.27497 1243.65427,1833.25719 L1234.68105,1824.2876 C1234.29489,1823.90413 1233.67245,1823.90413 1233.28883,1824.2876 C1232.90521,1824.67107 1232.90521,1825.29325 1233.28883,1825.67672 L1240.61578,1833.0007 L1213.99844,1833.0007 C1213.44714,1833.0007 1213,1833.44765 1213,1833.99873 C1213,1834.55235 1213.44714,1834.9993 1213.99844,1834.9993 L1240.61578,1834.9993 L1233.28883,1842.32074 C1232.90521,1842.70675 1232.90521,1843.32893 1233.28883,1843.7124 C1233.67245,1844.09587 1234.29489,1844.09587 1234.68105,1843.7124 L1243.65427,1834.74027 C1243.6746,1834.72503 1243.70254,1834.73265 1243.72033,1834.71488 C1243.91849,1834.51679 1244.00487,1834.25776 1243.99979,1833.99873 C1244.00487,1833.74224 1243.91849,1833.48321 1243.72033,1833.28512" id="Page-1"></path>
        </g>
    </g>
</svg>