<?xml version="1.0" encoding="UTF-8"?>
<svg width="46px" height="47px" viewBox="0 0 46 47" version="1.1" xmlns="http://www.w3.org/2000/svg" xmlns:xlink="http://www.w3.org/1999/xlink">
    <!-- Generator: sketchtool 49.1 (51147) - http://www.bohemiancoding.com/sketch -->
    <title>19A20DA9-2CFF-44F0-A849-2541CF0C3B64</title>
    <desc>Created with sketchtool.</desc>
    <defs>
        <polygon id="path-1" points="0 0.833 45.8839 0.833 45.8839 47 0 47"></polygon>
    </defs>
    <g id="ðŸ–¥ï¸-Desktop" stroke="none" stroke-width="1" fill="none" fill-rule="evenodd">
        <g id="Final-About-us" transform="translate(-406.000000, -1409.000000)">
            <g id="Group-12" transform="translate(364.000000, 1369.000000)">
                <g id="List" transform="translate(42.000000, 39.000000)">
                    <polygon id="Fill-1" fill="#F67E56" points="6.445 47.167 39.734 47.167 39.734 43.167 6.445 43.167"></polygon>
                    <g id="Group-11" transform="translate(0.000000, 0.167000)">
                        <g id="Group-4">
                            <mask id="mask-2" fill="white">
                                <use xlink:href="#path-1"></use>
                            </mask>
                            <g id="Clip-3"></g>
                            <path d="M3.9999,4.833 L3.9999,39.686 C3.9999,41.513 5.4869,43 7.3139,43 C9.1429,43 10.6289,41.513 10.6289,39.686 L10.6289,35.15 C10.6289,33.956 11.6009,32.984 12.7959,32.984 L34.6559,32.984 L34.7319,4.833 L3.9999,4.833 Z M39.5269,47 L39.5269,43 C40.8269,43 41.8839,41.943 41.8839,40.644 L41.8839,36.984 L14.6289,36.984 L14.6289,39.686 C14.6289,43.719 11.3479,47 7.3139,47 C3.2809,47 -0.0001,43.719 -0.0001,39.686 L-0.0001,3.959 C-0.0001,2.235 1.4019,0.833 3.1259,0.833 L35.6089,0.833 C37.3329,0.833 38.7339,2.235 38.7339,3.959 L38.6559,32.984 L43.7179,32.984 C44.9119,32.984 45.8839,33.956 45.8839,35.15 L45.8839,40.644 C45.8839,44.148 43.0319,47 39.5269,47 Z" id="Fill-2" fill="#F67E56" mask="url(#mask-2)"></path>
                        </g>
                        <path d="M27.3515,15.0615 L10.7315,15.0615 C9.9035,15.0615 9.2315,14.3895 9.2315,13.5615 C9.2315,12.7335 9.9035,12.0615 10.7315,12.0615 L27.3515,12.0615 C28.1795,12.0615 28.8515,12.7335 28.8515,13.5615 C28.8515,14.3895 28.1795,15.0615 27.3515,15.0615" id="Fill-5" fill="#F67E56"></path>
                        <path d="M27.3515,21.3848 L10.7315,21.3848 C9.9035,21.3848 9.2315,20.7128 9.2315,19.8848 C9.2315,19.0568 9.9035,18.3848 10.7315,18.3848 L27.3515,18.3848 C28.1795,18.3848 28.8515,19.0568 28.8515,19.8848 C28.8515,20.7128 28.1795,21.3848 27.3515,21.3848" id="Fill-7" fill="#F67E56"></path>
                        <path d="M20.3515,27.707 L10.7315,27.707 C9.9035,27.707 9.2315,27.035 9.2315,26.207 C9.2315,25.379 9.9035,24.707 10.7315,24.707 L20.3515,24.707 C21.1795,24.707 21.8515,25.379 21.8515,26.207 C21.8515,27.035 21.1795,27.707 20.3515,27.707" id="Fill-9" fill="#F67E56"></path>
                    </g>
                </g>
            </g>
        </g>
    </g>
</svg>