<?xml version="1.0" encoding="UTF-8"?>
<svg width="232px" height="33px" viewBox="0 0 232 33" version="1.1" xmlns="http://www.w3.org/2000/svg" xmlns:xlink="http://www.w3.org/1999/xlink">
    <!-- Generator: sketchtool 49.1 (51147) - http://www.bohemiancoding.com/sketch -->
    <title>DDAFCE7A-BB32-4D3D-807B-308D23BBF1EA</title>
    <desc>Created with sketchtool.</desc>
    <defs>
        <polygon id="path-1" points="0.0270729988 0.15005 50.7807246 0.15005 50.7807246 19.79005 0.0270729988 19.79005"></polygon>
        <polygon id="path-3" points="0.185425 0.21976087 52.905675 0.21976087 52.905675 21.8682391 0.185425 21.8682391"></polygon>
        <polygon id="path-5" points="0 0.196728569 42.7548241 0.196728569 42.7548241 23.8492908 0 23.8492908"></polygon>
    </defs>
    <g id="Symbols" stroke="none" stroke-width="1" fill="none" fill-rule="evenodd">
        <g id="Menu" transform="translate(-379.000000, -27.000000)">
            <g id="Group">
                <g transform="translate(379.000000, 27.000000)">
                    <g id="Logo">
                        <path d="M79.2392618,18.2099149 C76.6480842,20.7351139 74.7435277,22.0002744 73.673221,22.0030916 C72.8359989,22.0030916 72.3780037,21.6086893 72.3780037,20.8990213 C72.3780037,19.6364218 73.5196477,18.0588128 75.8009541,16.0868014 C78.0896914,14.109668 79.9947433,13.0826854 81.3717012,13.0801244 C82.1323843,13.0801244 82.4368062,13.3976951 82.4368062,13.9460166 C82.4395309,14.6577335 81.3741782,16.0793744 79.2392618,18.2099149 Z M58.9574325,24.1515595 C56.5200758,27.3887314 54.5384851,29.5989207 52.9383505,30.8640812 C51.338216,32.1266807 49.6615425,32.7595171 47.9843736,32.7595171 C47.3728051,32.7595171 46.9145622,32.6081588 46.612122,32.3699808 C46.2281887,32.1343639 46.0723862,31.8987469 46.0723862,31.5043446 C46.0723862,29.5323333 49.5798018,27.322144 56.5919085,24.7869569 C58.0411945,24.3080399 58.9574325,23.9953352 59.2598728,23.8365499 C59.0319898,24.0747279 58.9574325,24.1515595 58.9574325,24.1515595 Z M62.4576649,19.021769 C60.2481912,20.9937803 58.7248433,22.0207628 57.8105868,22.0258849 C56.8916241,22.0258849 56.4336289,21.6314827 56.4336289,20.9195097 C56.4336289,19.6594713 57.5752729,18.0818623 59.9385676,16.1072899 C62.222351,14.1301564 64.0503685,13.10343 65.4248494,13.1006128 C66.1902388,13.1006128 66.5716951,13.4181835 66.5716951,13.9665051 C66.574172,14.8344462 65.2021681,16.5710967 62.4576649,19.021769 Z M50.630045,14.3068691 C52.0020489,13.5155035 53.0698786,13.1211013 53.906853,13.1159791 C54.4421302,13.1159791 54.6700131,13.2747645 54.6722424,13.6717278 C54.6722424,14.301747 53.90933,15.0111589 52.3862298,15.7231318 C50.8604049,16.5144974 48.9528761,17.0651239 46.74365,17.4646483 C48.0388673,16.2020488 49.3368093,15.1750663 50.630045,14.3068691 Z M112.795025,13.0394036 L115.76964,13.0314644 L116,12.7984085 L112.948598,12.8009695 L115.613837,9.56379768 C115.158072,9.72514406 114.699581,9.72514406 114.241586,9.72514406 C113.86013,9.72514406 113.401887,9.72514406 112.941167,9.56635873 L110.201618,12.8060916 L107.91288,12.8086527 L107.687474,13.0442696 L110.050521,13.0417086 L106.671909,17.0935516 C103.528611,20.2948687 101.232195,21.9644196 99.9146846,21.9669807 C99.3078224,21.9669807 99.0004281,21.7313638 99.0004281,21.2601299 C99.0004281,20.8631666 99.6868016,19.8364401 101.133363,18.258575 C102.579676,16.7603585 103.26605,15.6542395 103.263325,14.8651788 C103.263325,14.3096863 103.035442,13.8433184 102.574722,13.4463551 C102.11648,13.0519528 101.58145,12.8188969 100.895572,12.8188969 C100.05835,12.8188969 99.1418642,13.1364676 98.1485918,13.8484405 C97.1625027,14.4787158 95.7902511,15.7436202 93.9600043,17.4800146 C95.104373,16.2148541 95.7112351,15.2723864 95.7112351,14.5604134 C95.7085104,14.0866185 95.4833522,13.6947773 95.1762056,13.3772066 C94.7920247,12.9856215 94.3362588,12.8291411 93.8012293,12.8291411 C92.9615302,12.8291411 91.3638727,13.9357724 89.0008257,16.2225373 L88.6964038,16.542669 C88.6193694,16.542669 88.5450598,16.6220616 88.3914865,16.6991494 C87.0192349,18.1971097 85.6469833,19.4625263 84.2749794,20.4098601 C82.9076817,21.4394036 81.9144093,21.9900302 81.3050702,21.9900302 C80.6930063,21.9928473 80.3885844,21.6775816 80.3833828,21.2063478 C80.3833828,20.6531602 81.1487722,19.546785 82.5212715,17.8129516 L86.6305954,12.9958657 C85.9442219,13.0724412 85.4091924,13.0724412 85.0277362,13.0750023 C84.6490046,13.0750023 84.2675484,13.0750023 83.8090578,13.0007317 L82.5903795,14.5760359 C82.7417235,14.2633312 82.8182624,14.0251532 82.8182624,13.8717461 C82.8135562,13.1595171 82.2832329,12.8445075 81.3694719,12.8445075 C80.2273325,12.8473246 78.7733403,13.2440318 76.9480475,13.9534437 C74.476013,14.9317662 72.7198281,15.9638708 71.6968319,17.0833074 C70.2626556,18.404555 68.9597596,19.4443428 67.8002813,20.1947315 C66.581603,20.9889143 64.9792392,21.7777188 62.9976484,22.5690844 L68.7093361,15.4621604 C69.9280144,13.8842953 70.611911,13.0954907 70.7652365,13.0160981 C70.0023241,13.0954907 69.3932326,13.0954907 69.0115287,13.0954907 C68.7068591,13.0980518 68.3231736,13.0980518 67.8674077,13.0212202 L66.5716951,14.680783 C66.7252683,14.3606512 66.802055,14.1278515 66.802055,13.9665051 C66.799578,13.2568371 66.3415828,12.867813 65.4248494,12.870118 C64.0503685,12.870118 62.2988899,13.4235617 59.9358429,14.4528492 C58.3035075,15.1878716 57.0528761,15.9410775 56.1807284,16.734748 C56.1386196,16.7631757 56.0942815,16.7910912 56.046971,16.8243849 C52.5445093,20.2971737 49.5721232,21.9567365 47.1298125,21.9618586 C45.681022,21.9618586 44.9948962,21.4880637 44.9921715,20.5430348 C44.9921715,19.7567914 45.5249717,18.8066404 46.5157671,17.7030824 C49.9488731,17.2239093 52.3887068,16.6707217 53.8374973,16.1175341 C55.2840586,15.5617854 55.9704321,14.9292052 55.9704321,14.1429617 C55.9704321,13.7485594 55.8143818,13.5080765 55.3586159,13.2722034 C54.9771597,13.0394036 54.5186692,12.8829233 53.9836396,12.8854843 C52.6859454,12.8880454 51.0087765,13.2773255 48.9528761,14.0740693 C46.1714657,15.1699442 44.3654934,16.3915668 43.5929207,17.7671088 C40.6948442,20.5842678 38.6092199,22.0489344 37.4450353,22.0514955 C36.9075288,22.0514955 36.6026115,21.736742 36.6026115,21.2626909 C36.6026115,20.8711058 37.1354118,19.9209549 38.2029938,18.5787067 C39.2653741,17.2392756 43.0752301,12.6626726 49.550078,5 C49.0172778,5.08195372 48.4824959,5.16134638 47.8729091,5.16134638 C47.5684872,5.16134638 47.1075196,5.16416354 46.6495245,5.08195372 C44.7496743,7.53313821 42.3866273,10.3730906 39.6443534,13.6899113 C37.3608177,16.3762005 35.9885661,18.0334583 35.6093392,18.5838288 C35.2278829,19.2189701 35,19.7695966 35,20.3970548 C35.002477,20.9502424 35.2306076,21.3472057 35.6118162,21.7390469 C36.0703067,22.0514955 36.6026115,22.2899296 37.2912143,22.2899296 C38.5941103,22.2871124 40.585609,20.932315 43.325406,18.3638343 C43.2139415,18.688832 43.1594477,19.0192079 43.1594477,19.359828 C43.1619247,20.1511936 43.5433809,20.8608616 44.3085227,21.411232 C44.9948962,21.9618586 45.9111342,22.2768682 46.9789639,22.2743071 C49.2305465,22.2717461 51.9230329,20.8938992 55.0561757,18.1382054 C54.8059998,18.6273667 54.6799211,19.1344553 54.6799211,19.6620324 C54.6799211,20.3740053 54.9870677,21.0040245 55.5193725,21.4726973 C56.1311886,21.9493094 56.8197914,22.2640629 57.5827039,22.2615019 C58.3456163,22.2591969 59.0292652,22.0207628 59.7921776,21.5495289 C60.4760741,21.0734291 61.6972294,20.0461904 63.3739029,18.3891887 L59.4902327,23.5983719 C59.0319898,23.7597183 58.0411945,24.0747279 56.4408122,24.6304765 C49.3494419,26.9251806 45.7674689,29.2173237 45.7674689,31.5069057 C45.7674689,31.8987469 46.0005535,32.2931492 46.3820097,32.5287661 C46.8400049,32.8463368 47.3750344,33 48.0586832,33 C49.8869484,33 52.0218648,32.285466 54.5409621,30.7821275 C57.1321397,29.28135 59.494939,27.1479923 61.6276261,24.3846154 L62.7672885,22.886399 C65.7446286,21.6980701 68.1051986,20.4331656 70.0124797,18.9346931 C70.3515795,18.6580993 70.661203,18.4122382 70.9339195,18.1894265 C70.7231277,18.6324888 70.6215712,19.0909174 70.6215712,19.5621513 C70.6215712,20.3486509 70.9287178,20.9786701 71.461518,21.45477 C72.0758111,22.0053965 72.7619369,22.2410134 73.5248494,22.2410134 C74.2877618,22.2358913 75.1272132,21.9183207 75.9644353,21.3676941 C76.7273478,20.8913382 77.9437968,19.787524 79.4696217,18.2867465 C78.9368215,18.9987195 78.7089386,19.6312997 78.7089386,20.1819263 C78.7089386,20.8145065 78.9392985,21.2857404 79.3977891,21.598189 C79.8533072,21.9928473 80.4651234,22.2307692 81.1514969,22.2307692 C82.2213082,22.2282082 83.5910828,21.4370987 85.4191003,19.8569286 C87.3340601,18.2739413 88.4462279,17.2392756 88.7558515,16.8067136 C88.8177762,16.7706028 88.8821779,16.7065764 88.926516,16.6220616 C91.2873337,14.2505259 92.8131586,13.0647581 93.6479037,13.062197 C94.0318369,13.062197 94.1854102,13.2212385 94.1854102,13.6156407 C94.1878872,14.1685722 93.1946148,15.587396 91.1411914,17.9591878 L87.4824317,22.0617397 C88.015232,21.982347 88.4732271,21.982347 89.0060273,21.982347 C89.1620776,21.979786 89.6175958,21.979786 90.3829852,22.0617397 C95.104373,16.0611909 98.5273233,13.0570749 100.818538,13.0545139 C101.50714,13.0545139 101.809333,13.2901308 101.809333,13.7641818 C101.814535,14.0763743 101.205196,14.9499497 99.9094829,16.2891247 C98.7678389,17.5519802 98.0049265,18.3433458 97.6977799,18.8168847 C97.3928626,19.2087259 97.242014,19.6825208 97.242014,20.1565718 C97.242014,20.7069423 97.5516376,21.1832983 98.0096327,21.5753956 C98.4653986,21.9669807 99.0774625,22.2025976 99.7633406,22.2025976 C100.754136,22.2025976 102.203174,21.4137931 104.031439,19.8310619 C104.608578,19.3547059 105.113636,18.92701 105.544632,18.5505351 C105.138653,19.1859325 104.947677,19.7260587 104.947677,20.2254642 C104.947677,20.7763468 105.17556,21.2498857 105.639005,21.6442879 C106.17131,21.9567365 106.783126,22.1897924 107.469499,22.1897924 C108.916061,22.1897924 111.125287,20.691576 114.023611,17.8488064 L115.011929,16.8986554 C115.165255,16.7398701 115.242289,16.6630385 115.239812,16.5836458 C115.242289,16.5042532 115.242289,16.5042532 115.165255,16.5042532 C115.011929,16.5042532 114.934895,16.5836458 114.858356,16.6655996 C111.506991,20.1360834 109.146173,21.9541754 107.769215,21.9541754 C107.011009,21.9567365 106.627076,21.6442879 106.627076,21.1707491 C106.627076,20.694137 106.931993,20.1409494 107.617871,19.3547059 L112.795025,13.0394036 Z" id="Fill-1" fill="#FFFFFF"></path>
                        <g id="Group-5" transform="translate(181.000000, 13.000000)">
                            <mask id="mask-2" fill="white">
                                <use xlink:href="#path-1"></use>
                            </mask>
                            <g id="Clip-4"></g>
                            <path d="M37.2103391,11.15255 C34.8623681,14.31005 32.8174406,16.47255 31.2258464,17.70505 C29.6342522,18.93755 27.9660348,19.5548 26.3697594,19.55755 C25.0812087,19.56005 24.472658,19.17505 24.472658,18.33005 C24.4701942,16.40505 27.9561797,14.24505 34.9362812,11.7723 C36.3775855,11.3048 37.2867159,10.99755 37.5131362,10.84255 C37.2867159,11.0748 37.2103391,11.15255 37.2103391,11.15255 M17.2439623,1.5548 C18.5322667,0.78505 19.5943971,0.3973 20.4271507,0.3973 C20.9617884,0.39255 21.2645855,0.54755 21.2645855,0.93505 C21.2672957,1.55005 20.5084551,2.2423 18.9143971,2.94255 C17.3991797,3.7098 15.5020783,4.2523 13.3019333,4.64005 C14.5902377,3.40505 15.876571,2.40255 17.2439623,1.5548 M50.6304841,3.74505 C50.6304841,3.74505 50.4777304,3.8248 50.2532812,4.0548 C48.6594696,5.4398 47.220629,6.59755 45.934542,7.3673 C44.6410638,8.21755 43.0494696,8.91005 41.1548319,9.60755 C44.411687,5.52505 46.9841072,2.36255 48.8812087,0.28255 C48.272658,0.36005 47.8193246,0.36005 47.3635275,0.36005 C46.8338174,0.36005 46.4519333,0.36005 46.0747304,0.28505 L43.9509623,2.82755 C40.543571,6.98755 37.9667159,9.07005 36.2962812,9.0748 C35.6901942,9.0748 35.3893681,8.76505 35.3871507,8.3048 C35.3871507,7.84255 35.9907739,6.92005 37.2790783,5.45505 L41.8247304,0.29005 C41.1449768,0.3673 40.5364261,0.3673 40.1570058,0.37005 C39.7009623,0.37005 39.3193246,0.37005 38.9421217,0.29505 L35.8675855,3.95755 C35.7912087,4.0123 35.702513,4.0748 35.6088899,4.1473 C34.1700493,5.53755 32.8790348,6.23255 31.6643971,6.23255 C30.7552667,6.23255 30.220629,5.7723 30.220629,4.85005 C30.220629,4.54255 30.3709188,4.15505 30.5234261,3.61505 L30.8267159,3.46255 C31.5089333,3.15505 32.0388899,2.92255 32.3443971,2.84505 C34.4654551,1.84255 35.5275855,1.06755 35.5275855,0.61005 C35.5275855,0.30005 35.3009188,0.15005 34.8451217,0.15005 C34.162658,0.15255 33.4038174,0.45505 32.4897594,1.15005 C31.6570058,1.77005 30.900629,2.61505 30.294542,3.54005 C29.614542,3.92755 28.8581652,4.46505 28.0229478,5.08255 C29.3090348,3.7723 29.9175855,2.61505 29.9151217,1.84755 C29.912658,0.69255 29.306571,0.15505 28.0892232,0.16005 C27.2567159,0.16005 25.6675855,1.23755 23.2407739,3.47255 L22.8909188,3.82755 C22.8071507,3.86505 22.7206725,3.92505 22.634687,4.01505 C19.1482087,7.40505 16.1130928,9.02755 13.6862812,9.02755 C12.3188899,9.03005 11.562513,8.57255 11.5600493,7.64505 C11.5600493,6.87505 12.0897594,5.95255 13.1516435,4.87005 C16.4875855,4.40755 18.9143971,3.8673 20.3581652,3.32005 C21.7994696,2.78255 22.5558464,2.16755 22.5558464,1.39505 C22.5533826,1.0123 22.3291797,0.78005 21.9472957,0.54755 C21.5654116,0.31755 21.1096145,0.16505 20.5059913,0.16755 C19.2913536,0.17255 17.6209188,0.5548 15.5735275,1.32755 C12.7870058,2.3873 11.0229478,3.56255 10.2589333,4.8873 C7.47512174,7.66755 5.4301942,9.1173 4.12686087,9.1173 C3.59715072,9.1173 3.29164348,8.96505 3.29164348,8.65755 C3.29164348,8.50005 3.51831014,8.19505 3.82381739,7.73255 C4.5801942,6.65255 4.95715072,5.9598 4.95715072,5.57755 C4.95715072,4.88505 4.11922319,4.26755 2.52541159,3.73255 C3.36038261,3.50005 4.3486,2.88005 5.63715072,1.88005 C6.6201942,1.03505 7.45516522,0.6473 8.13787536,0.64255 C8.59367246,0.64255 8.82033913,0.72255 8.82033913,1.03005 C8.82033913,1.33755 8.66758551,1.57005 8.21671594,1.79755 C7.2312087,2.26005 6.69903478,2.6473 6.69903478,3.03255 C6.69903478,3.41505 7.07845507,3.6473 7.68454203,3.6473 C8.29062899,3.64255 8.89917971,3.41505 9.50526667,2.87505 C10.0374406,2.41255 10.3402377,1.87255 10.3402377,1.3348 C10.3380203,0.5648 9.80806377,0.1798 8.58874493,0.18505 C7.68207826,0.18505 6.69657101,0.57005 5.86135362,1.26505 C4.11922319,2.65255 2.90729565,3.5023 2.1482087,3.73505 C1.76657101,3.58005 1.31323768,3.58005 0.781063768,3.58005 C0.251353623,3.58005 0.0222231884,3.66005 0.0271507246,3.81255 C0.0222231884,4.04505 0.327730435,4.1173 0.859904348,4.1173 C1.23686087,4.1173 1.69265797,4.04505 2.3012087,3.8873 C2.83091884,4.11255 3.05758551,4.26755 3.05758551,4.5023 C3.05758551,4.73255 2.90729565,5.04005 2.60671594,5.42505 L2.60425217,5.50005 C1.69733913,6.65755 1.31816522,7.4298 1.31816522,7.8148 C1.31816522,8.19755 1.54483188,8.5848 2.0770058,8.89255 C2.5328029,9.19755 3.13888986,9.35005 3.82628116,9.35005 C5.2082087,9.34755 7.29033913,7.99505 10.0029478,5.43255 C9.87729565,5.77755 9.81570145,6.13005 9.81570145,6.4923 C9.81570145,7.2623 10.192658,7.95505 10.8800493,8.4923 C11.6364261,9.03255 12.5504841,9.33755 13.6123681,9.33755 C15.8864261,9.33255 18.6160348,7.94505 21.7994696,5.17005 L22.7874406,4.32255 C22.927629,4.17755 23.0384986,4.0648 23.1028029,3.98005 L23.1052667,3.97755 C23.1496145,3.94505 23.1937159,3.90505 23.2407739,3.86005 C25.5145855,1.54755 27.0300493,0.39005 27.9391797,0.38505 C28.2444406,0.38505 28.4711072,0.54005 28.4711072,0.84755 C28.4738174,1.3873 27.4856,2.69755 25.5958899,4.85505 L21.8043971,9.17005 C22.7159913,9.09005 23.1693246,9.09505 23.2481652,9.09005 C23.3982087,9.09005 23.8542522,9.09005 24.6894696,9.17005 C26.1283101,7.3973 27.1901942,6.16255 27.7962812,5.62255 C28.3999043,5.0023 29.2351217,4.46505 30.1442522,3.85005 C29.9964261,4.31005 29.9200493,4.69505 29.9200493,5.0023 C29.922513,5.92755 30.454687,6.3873 31.6668609,6.3873 C32.6523681,6.3873 33.790629,5.92255 34.9261797,5.07255 C34.9510638,5.05255 34.9779188,5.03255 35.0028029,5.0123 C34.194687,6.07255 33.790629,6.85005 33.790629,7.3873 C33.790629,7.92255 34.0222232,8.30755 34.4730928,8.69255 C34.9313536,9.0748 35.4635275,9.30755 36.1459913,9.3048 C36.9048319,9.3048 37.5897594,9.07005 38.3458899,8.53255 C39.0310638,8.06755 40.1668609,7.07005 41.8299043,5.52755 L37.7375855,10.61255 L37.3630928,10.77005 C36.2223681,11.0748 35.3893681,11.3873 34.7835275,11.6173 C27.6533826,13.93755 24.0907739,16.17505 24.0932377,18.33005 C24.0932377,18.71505 24.3221217,19.10255 24.7754551,19.33005 C25.1575855,19.6373 25.6897594,19.79005 26.2983101,19.79005 C28.1929478,19.78755 30.3142522,19.09255 32.8174406,17.62505 C35.2464696,16.31255 37.5922232,14.15755 39.7899043,11.3773 L40.9281652,9.99505 C43.9610638,8.8348 46.3878754,7.5223 48.2800493,6.05755 C49.9504841,4.74755 50.7807739,3.97505 50.7807739,3.82005 C50.7807739,3.74505 50.7807739,3.74505 50.6304841,3.74505" id="Fill-3" fill="#FFFFFF" mask="url(#mask-2)"></path>
                        </g>
                        <path d="M167.578899,18.043186 C164.925334,20.5235296 163.103274,21.7662169 162.040221,21.7687325 C161.202059,21.7712481 160.750798,21.381336 160.750798,20.6870411 C160.745619,19.4468693 161.885116,17.8972835 164.158683,15.95527 C166.436936,14.0157722 168.333467,13.0067805 169.69958,13.0020009 C170.38239,13.0020009 170.762387,13.3139305 170.762387,13.8547762 C170.764853,14.5515868 169.704265,15.9477234 167.578899,18.043186 M187.559909,5.08049797 C187.254137,5.08049797 186.797944,5.08049797 186.115134,5.00503112 L178.056298,14.928921 C177.538703,15.5552958 177.109389,16.0883432 176.76934,16.5162402 C176.744681,16.5313336 176.719775,16.5439114 176.690184,16.5590048 C175.324318,18.0331238 173.957958,19.2732956 172.594557,20.2040533 C171.230909,21.2127934 170.239367,21.7586703 169.633,21.7586703 C169.028853,21.7586703 168.72308,21.4492562 168.720614,20.9836258 C168.720614,20.4430316 169.480114,19.3563091 170.843515,17.6505069 L174.939636,12.9215029 C174.256579,12.9967182 173.721477,12.9967182 173.346659,12.9994854 C172.964443,12.9994854 172.587159,12.9994854 172.130966,12.9265341 L170.917492,14.4761199 C171.067913,14.1667059 171.14189,13.9352742 171.14189,13.7793094 C171.14189,13.0824989 170.609254,12.7730848 169.69958,12.7730848 C168.557864,12.7730848 167.115061,13.1629968 165.221243,13.8623229 C161.122903,15.4949223 158.99729,17.2784553 159.000003,19.3688869 C159.000003,20.1436798 159.308241,20.7650235 159.838165,21.2304024 C160.371048,21.7712481 161.051392,22.0051953 161.890047,21.9999126 C162.649547,21.9976486 163.485244,21.6882345 164.242524,21.1448733 C165.080687,20.6792428 166.293914,19.5927719 167.805762,18.1186529 C167.277811,18.8204945 167.048728,19.4393226 167.050948,19.9826839 C167.050948,20.601512 167.280277,21.0668909 167.738936,21.3737894 C168.192663,21.7586703 168.72308,21.9898504 169.484799,21.9898504 C170.468943,21.9898504 171.911253,21.2127934 173.733806,19.660692 C174.327844,19.1751887 174.838287,18.7425121 175.269821,18.3601468 L173.58092,20.4329694 C173.127193,20.9788462 172.744731,21.4467406 172.44389,21.9096039 C173.050503,21.8316215 173.583386,21.7511236 173.889159,21.7511236 C174.268909,21.7511236 174.72017,21.829106 175.102386,21.9045728 L175.408158,21.5196919 C176.086283,20.8203658 176.91976,19.7336433 177.90859,18.4152376 C178.81851,17.1778329 179.955047,15.7816963 181.242498,14.3050617 L184.906838,9.8072379 C185.663872,8.88151129 186.270486,8.17715409 186.652702,7.71403923 C187.485932,6.78353306 188.016349,6.08672254 188.46761,5.62385924 C188.699159,5.38991202 188.926023,5.15344925 189,5 C188.31719,5.08049797 187.860997,5.08049797 187.559909,5.08049797" id="Fill-6" fill="#FFFFFF"></path>
                        <g id="Group-10" transform="translate(118.000000, 0.000000)">
                            <mask id="mask-4" fill="white">
                                <use xlink:href="#path-3"></use>
                            </mask>
                            <g id="Clip-9"></g>
                            <path d="M38.043175,2.4891087 C40.810425,1.30541304 43.430675,0.789130435 46.048175,0.7865 C47.970675,0.781717391 49.513175,1.14782609 50.668175,1.95608696 C51.823175,2.7665 52.440675,3.79715217 52.443175,5.04780435 C52.445425,5.93043478 52.213175,6.6715 51.753175,7.40802174 L51.753175,7.5515 C51.753175,7.62563043 51.833175,7.69736957 51.983175,7.69736957 C52.138175,7.69736957 52.370675,7.40586957 52.595675,6.74084783 C52.828175,6.08108696 52.905675,5.49019565 52.905675,4.97391304 C52.902925,3.64913043 52.287925,2.5465 50.973175,1.73823913 C49.743175,0.927586957 48.050675,0.487586957 45.968175,0.487586957 C43.277925,0.49476087 40.580425,1.08804348 37.735675,2.2691087 C34.500675,0.946717391 30.645675,0.214978261 26.180675,0.21976087 C20.103175,0.226934783 14.635675,1.4873913 9.635675,3.84976087 C4.632925,6.28913043 2.175675,8.94084783 2.178175,11.8895652 C2.178175,13.2858478 2.798175,14.4623696 4.108175,15.2706304 C5.418175,16.1532609 7.190675,16.5930217 9.345675,16.5882391 C12.652925,16.5834565 16.043175,15.550413 19.428175,13.4843261 C22.810425,11.4947609 24.578175,9.42891304 24.573175,7.4391087 C24.570425,5.82019565 23.188175,5.00954348 20.493175,5.01456522 C17.720675,5.0191087 14.948175,5.76041304 12.333175,7.30758696 C9.640675,8.78302174 8.335675,10.4067174 8.338175,11.9515 C8.340425,12.6165217 8.570425,13.130413 9.110675,13.6469348 C9.650675,14.0869348 10.265675,14.3045435 10.960675,14.3045435 C11.267925,14.3045435 11.423175,14.2306522 11.423175,14.1538913 C11.420675,14.0845435 11.265675,14.0845435 11.035675,14.0128043 C10.570425,14.0128043 10.110675,13.8645435 9.725425,13.6445435 C9.340425,13.350413 9.188175,13.0538913 9.185425,12.6880217 C9.183175,11.1408478 10.490675,9.59606522 13.105675,7.82171739 C15.798175,6.12867391 18.260675,5.31347826 20.648175,5.31084783 C22.955425,5.30845652 24.115675,6.04258696 24.115675,7.51323913 C24.115675,9.42891304 22.425675,11.3465 19.115675,13.3408478 C15.735675,15.330413 12.500675,16.2917174 9.345675,16.2965 C7.497925,16.2988913 5.958175,16.0071522 4.800675,15.2706304 C3.723175,14.6106304 3.105675,13.7282391 3.105675,12.5493261 C3.100675,10.2658696 5.098175,7.83128261 9.100675,5.24867391 C13.943175,2.14954348 19.715425,0.521304348 26.260675,0.513891304 C30.958175,0.509108696 34.500675,1.24323913 36.965425,2.56347826 C35.503175,3.22802174 33.735675,4.40932609 31.503175,5.9588913 C29.348175,7.58019565 27.503175,9.13 25.968175,10.6769348 C22.815675,13.8478043 20.738175,15.8373696 19.892925,16.650413 C18.968175,17.4634565 17.968175,18.197587 16.738175,18.9365 C13.973175,20.562587 10.890675,21.4497609 7.505675,21.4521522 C5.503175,21.4547826 3.963175,21.1628043 2.652925,20.5745435 C1.420675,20.060413 0.725675,19.3238913 0.723175,18.4438913 C0.723175,17.9249783 0.878175,17.6332391 1.110675,17.6308478 C1.188175,17.6308478 1.260675,17.7791087 1.188175,17.9991087 C1.188175,18.5158696 1.573175,18.8097609 2.418175,18.8097609 C2.878175,18.8049783 3.263175,18.6591087 3.573175,18.4391087 C3.880675,18.2169565 4.035675,17.922587 4.038175,17.5519348 C4.033175,16.8178043 3.573175,16.5236739 2.648175,16.5260652 C1.955425,16.5260652 1.415675,16.6743261 0.955425,17.042587 C0.495675,17.4849783 0.185425,17.9249783 0.185425,18.4438913 C0.188175,19.400413 0.882925,20.1345435 2.267925,20.7971739 C3.733175,21.4547826 5.425675,21.7486739 7.505675,21.7462826 C10.043175,21.7415 12.968175,21.222587 16.203175,20.1897826 C18.975425,19.2282391 21.125675,18.2693261 22.585675,17.1645435 C24.125675,15.9832391 25.895675,14.1395435 27.738175,11.6334565 C30.735675,7.50606522 33.885675,4.55758696 37.350425,2.78323913 C38.507925,3.66802174 39.120675,4.55041304 39.122925,5.58106522 C39.128175,6.68345652 38.665675,7.645 37.743175,8.45541304 C36.818175,9.26606522 35.513175,9.85695652 33.895675,10.1532391 C32.740675,10.0049783 31.815675,9.8591087 31.122925,9.8615 C30.122925,9.8615 29.662925,10.0097609 29.662925,10.1580217 C29.662925,10.4521522 30.203175,10.5241304 31.430675,10.5241304 L32.510675,10.5241304 L33.895675,10.3732391 C36.363175,11.1791087 37.593175,12.4321522 37.598175,14.1251957 C37.600425,15.9665 36.600425,17.6595435 34.678175,19.2091087 C32.680675,20.7586739 30.445425,21.497587 28.060425,21.497587 C27.060425,21.5023696 26.210675,21.2823696 25.443175,20.8399783 C24.745675,20.3999783 24.438175,19.8093261 24.435425,19.1469348 C24.435425,17.8221522 25.283175,16.5691087 26.973175,15.392587 C28.585675,14.1371522 30.360675,13.5441087 32.130675,13.5417174 C33.053175,13.5393261 33.823175,13.6851957 34.360675,14.0534565 C34.978175,14.4217174 35.213175,14.9358478 35.213175,15.5267391 C35.215425,16.1171522 34.828175,16.8515217 34.060425,17.5901957 C33.983175,17.6619348 33.905675,17.7360652 33.905675,17.8101957 C33.905675,17.8843261 33.983175,17.8843261 34.215425,17.8843261 C34.445425,17.8819348 34.753175,17.5880435 35.138175,16.9995435 C35.445425,16.4088913 35.673175,15.8971522 35.673175,15.5267391 C35.673175,14.8641087 35.363175,14.2734565 34.670675,13.9051957 C34.055675,13.4699783 33.208175,13.2451957 32.130675,13.2451957 C30.280675,13.2499783 28.433175,13.9147609 26.590425,15.1701957 C24.818175,16.4973696 23.898175,17.750413 23.898175,19.0751957 C23.900675,19.9602174 24.285675,20.6199783 25.210675,21.1341087 C26.058175,21.6506304 27.215425,21.8682391 28.675675,21.8682391 C31.755675,21.8658478 34.372925,21.1962826 36.680675,19.8667174 C38.990675,18.5395435 40.140675,16.9923696 40.138175,15.2251957 C40.135675,12.8673696 38.130675,11.1767174 34.277925,10.3015 C38.975425,9.84954348 41.360675,8.52476087 41.355675,6.23867391 C41.355675,4.76802174 40.275675,3.51736957 38.043175,2.4891087" id="Fill-8" fill="#FFFFFF" mask="url(#mask-4)"></path>
                        </g>
                        <g id="Group-13" transform="translate(0.000000, 2.000000)">
                            <mask id="mask-6" fill="white">
                                <use xlink:href="#path-5"></use>
                            </mask>
                            <g id="Clip-12"></g>
                            <path d="M40.0303947,3.1505617 C37.1471182,3.15337021 33.64363,2.68843404 29.4346888,1.75166809 C31.3798065,1.11566809 33.4868065,0.719923404 35.8214535,0.717625532 C37.4579829,0.717625532 38.9354124,0.873114894 40.2633535,1.18205106 C41.5859829,1.57524255 42.2082182,1.88954043 42.2082182,2.36162553 C42.2107476,2.91311489 41.5103535,3.1505617 40.0303947,3.1505617 M20.8827476,13.2384766 C24.0723359,11.269966 27.4212771,10.3199234 30.8461006,10.3150723 C32.1740418,10.3150723 33.3401006,10.5522638 34.1975712,11.0220511 C35.1359829,11.5686894 35.6013947,12.1967745 35.6039241,12.9857106 C35.6039241,14.8697106 33.8181594,16.7593277 30.2342359,18.4929447 C26.7358065,20.3080085 23.0732182,21.2552426 19.3350006,21.2606043 C18.5582182,21.2629021 17.6982182,21.1837532 16.8407476,21.0305617 C16.2971771,20.4790723 16.0616888,19.8509872 16.0616888,19.2203489 C16.0591594,17.1777957 17.6122182,15.2092851 20.8827476,13.2384766 M40.4985888,0.949710638 C38.9354124,0.556774468 37.1445888,0.324434043 34.9614535,0.326731915 C32.0829829,0.329285106 29.5864535,0.725029787 27.4088829,1.43481702 C22.5802359,0.656093617 18.6824124,0.191412766 15.8011594,0.196774468 C10.5829829,0.204178723 6.53592412,1.22826383 3.65264765,3.12273191 C1.16092412,4.77439149 -0.00260529412,6.58715745 -7.58823529e-05,8.47422128 C-7.58823529e-05,9.80673191 0.546277059,10.909966 1.56335353,11.8518383 C2.57511824,12.714817 3.82211824,13.1848596 5.30157118,13.1820511 C6.08315941,13.1794979 6.77874765,13.0237532 7.40629471,12.7097106 C7.95011824,12.3931149 8.26098294,11.9999234 8.25870647,11.6041787 C8.25870647,10.8997532 7.71715941,10.5829021 6.70286529,10.5854553 C6.23239471,10.5854553 5.76217706,10.6671574 5.37745353,10.9020511 C4.98792412,11.1369447 4.83388294,11.3743915 4.83388294,11.688434 C4.83615941,12.2401787 5.22341235,12.4750723 6.08315941,12.4725191 C6.39200059,12.4725191 6.54857118,12.4725191 6.54857118,12.5514128 C6.54857118,12.7888596 6.15651235,12.8629021 5.30157118,12.8682638 C4.05482412,12.8705617 3.04305941,12.4773702 2.18533588,11.7729447 C1.32786529,10.9863064 0.857394706,10.1182213 0.857394706,9.09694468 C0.852335882,6.81949787 2.48633588,4.85098723 5.75433588,3.19677447 C9.10327706,1.53949787 13.0769829,0.74826383 17.7515888,0.745455319 C20.0859829,0.738051064 23.1238065,1.04698723 26.7866476,1.67226383 C24.2190418,2.61949787 22.9722947,3.80443404 22.9745712,5.29524255 C22.9745712,6.3984766 23.8371006,7.17949787 25.6281771,7.73098723 C23.1339241,7.88698723 20.9535712,8.20868936 19.0087065,8.68332766 C15.8899418,9.39311489 13.3198065,10.4986468 11.4533535,11.8367745 C9.58664765,13.2560936 8.65557118,14.749966 8.65557118,16.3227319 C8.65557118,17.4994979 9.28286529,18.5233277 10.6841594,19.4631574 C12.0121006,20.3261362 13.9600006,20.953966 16.3702771,21.3448596 C18.09053,22.9914128 20.5868065,23.8518383 23.9332182,23.8492851 C24.8693535,23.8469872 25.9567476,23.767583 27.1278653,23.5301362 C28.2916476,23.3718383 28.8377476,23.2163489 28.8377476,23.0552426 C28.8377476,22.9786468 28.7618653,22.9786468 28.6837065,22.9786468 L28.4482182,22.9786468 C27.2846888,23.3718383 25.7240418,23.5326894 23.9309418,23.5354979 C20.8956476,23.5403489 18.6341006,22.8333702 17.1518653,21.4189021 C17.9309241,21.4977957 18.7099829,21.4977957 19.5699829,21.4977957 C23.7738653,21.4929447 27.5907476,20.6986468 30.9371594,18.9650298 C34.2812947,17.2314128 35.9934535,15.2629021 35.9886476,13.1412 C35.9886476,12.1173702 35.5232359,11.3309872 34.4328065,10.7846043 C33.4185124,10.1565191 32.0931006,9.84528511 30.3022771,9.84758298 C26.5612771,9.85268936 23.0580418,10.8027319 19.9471182,12.6129447 C16.7547476,14.4254553 15.1210006,16.4705617 15.1258065,18.5922638 C15.1258065,19.4603489 15.4371771,20.2441787 16.0616888,20.9516681 C12.7914124,20.4024766 11.2307653,19.069966 11.2279829,16.9454553 C11.2229241,13.8816255 14.1798065,11.2850298 20.0204712,9.30885957 C22.3548653,8.5199234 24.3809241,8.0478383 26.1717476,7.88698723 C27.4190006,8.11907234 28.6657476,8.1984766 29.7559241,8.1959234 C30.6111182,8.1959234 31.0788065,8.11651915 31.0788065,7.95822128 C31.07653,7.72332766 30.2188065,7.5678383 28.5875888,7.57039149 C28.0412359,7.57039149 27.1835124,7.57268936 26.0933359,7.64673191 C25.3142771,7.33549787 24.9224712,6.78630638 24.9224712,6.08162553 C24.9224712,4.42996596 26.2425712,3.09209362 28.8908653,1.98400851 C34.6553947,2.9999234 38.3129241,3.46971064 39.7951594,3.46971064 C41.7430594,3.46230638 42.7548241,3.14545532 42.7548241,2.36162553 C42.7548241,1.80758298 41.9755124,1.34034894 40.4985888,0.949710638" id="Fill-11" fill="#FFFFFF" mask="url(#mask-6)"></path>
                        </g>
                    </g>
                </g>
            </g>
        </g>
    </g>
</svg>