<?xml version="1.0" encoding="UTF-8"?>
<svg width="31px" height="20px" viewBox="0 0 31 20" version="1.1" xmlns="http://www.w3.org/2000/svg" xmlns:xlink="http://www.w3.org/1999/xlink">
    <!-- Generator: sketchtool 49.1 (51147) - http://www.bohemiancoding.com/sketch -->
    <title>076F0099-6DD9-4679-B284-EFA4604F5F20</title>
    <desc>Created with sketchtool.</desc>
    <defs></defs>
    <g id="ðŸ–¥ï¸-Desktop" stroke="none" stroke-width="1" fill="none" fill-rule="evenodd">
        <g id="modal-window" transform="translate(-1696.000000, -1369.000000)" fill="#B18184">
            <g id="Left-Copy" transform="translate(1712.000000, 1379.000000) rotate(-180.000000) translate(-1712.000000, -1379.000000) translate(1672.000000, 1339.000000)">
                <path d="M55.7203282,39.2888852 C55.7025444,39.2711014 55.6745983,39.278723 55.6542739,39.2609392 L46.681052,30.2877173 C46.2948885,29.9040942 45.6724538,29.9040942 45.2888307,30.2877173 C44.9052077,30.6713403 44.9052077,31.293775 45.2888307,31.677398 L52.6157764,39.0043436 L25.9984361,39.0043436 C25.4471368,39.0043436 25,39.4514804 25,40.0027797 C25,40.5566196 25.4471368,41.0037563 25.9984361,41.0037563 L52.6157764,41.0037563 L45.2888307,48.3281614 C44.9052077,48.714325 44.9052077,49.3367597 45.2888307,49.7203827 C45.6724538,50.1040057 46.2948885,50.1040057 46.681052,49.7203827 L55.6542739,40.7446203 C55.6745983,40.729377 55.7025444,40.7369986 55.7203282,40.7192148 C55.9184911,40.5210519 56.0048698,40.2619158 55.9997887,40.0027797 C56.0048698,39.7461842 55.9184911,39.4870481 55.7203282,39.2888852" id="Page-1-Copy" transform="translate(40.500000, 40.004050) scale(-1, 1) translate(-40.500000, -40.004050) "></path>
            </g>
        </g>
    </g>
</svg>