<?xml version="1.0" encoding="UTF-8"?>
<svg width="46px" height="45px" viewBox="0 0 46 45" version="1.1" xmlns="http://www.w3.org/2000/svg" xmlns:xlink="http://www.w3.org/1999/xlink">
    <!-- Generator: sketchtool 49.1 (51147) - http://www.bohemiancoding.com/sketch -->
    <title>6A6C989D-6F72-4CA8-98A8-A18A1B143337</title>
    <desc>Created with sketchtool.</desc>
    <defs>
        <polygon id="path-1" points="1.24464449e-05 0.855 41.1185 0.855 41.1185 16.0679 1.24464449e-05 16.0679"></polygon>
    </defs>
    <g id="ðŸ–¥ï¸-Desktop" stroke="none" stroke-width="1" fill="none" fill-rule="evenodd">
        <g id="Final-About-us" transform="translate(-1223.000000, -1410.000000)">
            <g id="Group-10" transform="translate(1183.000000, 1369.000000)">
                <g id="Group-Copy-2">
                    <g id="Payment" transform="translate(40.000000, 40.000000)">
                        <path d="M41.9503,26.4058 L36.6693,26.4368 L36.7003,31.4058 L41.9503,31.3748 L41.9503,26.4058 Z M41.9813,34.3748 L36.6693,34.3748 C35.0323,34.3748 33.7003,33.0428 33.7003,31.4058 L33.7003,26.4058 C33.7003,24.7688 35.0323,23.4368 36.6693,23.4368 L41.9813,23.4368 C43.6183,23.4368 44.9503,24.7688 44.9503,26.4058 L44.9503,31.4058 C44.9503,33.0428 43.6183,34.3748 41.9813,34.3748 Z" id="Fill-1" fill="#F67E56"></path>
                        <path d="M38.0215,45.1451 L7.3575,45.1451 C3.3005,45.1451 0.0005,41.8441 0.0005,37.7881 L0.0005,9.0921 L4.0005,9.0921 L4.0005,37.7881 C4.0005,39.6391 5.5055,41.1451 7.3575,41.1451 L38.0215,41.1451 C39.8735,41.1451 41.3785,39.6391 41.3785,37.7881 L41.3785,19.5711 C41.3785,17.7191 39.8735,16.2131 38.0215,16.2131 L7.3665,16.2131 L7.3665,12.2131 L38.0215,12.2131 C42.0795,12.2131 45.3785,15.5141 45.3785,19.5711 L45.3785,37.7881 C45.3785,41.8441 42.0795,45.1451 38.0215,45.1451" id="Fill-3" fill="#F67E56"></path>
                        <g id="Group-7" transform="translate(0.000000, 0.145500)">
                            <mask id="mask-2" fill="white">
                                <use xlink:href="#path-1"></use>
                            </mask>
                            <g id="Clip-6"></g>
                            <path d="M7.6075,16.0679 C3.0835,16.0679 -0.5315,12.0989 0.0645,7.4609 C0.5565,3.6259 4.0065,0.8539 7.8735,0.8539 L34.7425,0.8539 C38.2635,0.8539 41.1185,3.7099 41.1185,7.2299 L41.1185,8.5209 C41.1185,9.6259 40.2225,10.5209 39.1185,10.5209 C38.0135,10.5209 37.1185,9.6259 37.1185,8.5209 L37.1185,7.2299 C37.1185,5.9189 36.0545,4.8539 34.7425,4.8539 L7.7115,4.8539 C5.9905,4.8539 4.4235,6.0169 4.0785,7.7039 C3.6025,10.0219 5.3705,12.0679 7.6075,12.0679 L7.6075,16.0679 Z" id="Fill-5" fill="#F67E56" mask="url(#mask-2)"></path>
                        </g>
                    </g>
                </g>
            </g>
        </g>
    </g>
</svg>