<?xml version="1.0" encoding="UTF-8"?>
<svg width="95px" height="143px" viewBox="0 0 95 143" version="1.1" xmlns="http://www.w3.org/2000/svg" xmlns:xlink="http://www.w3.org/1999/xlink">
    <!-- Generator: Sketch 49.1 (51147) - http://www.bohemiancoding.com/sketch -->
    <title>Poof</title>
    <desc>Created with Sketch.</desc>
    <defs>
        <polygon id="path-1" points="0 0.656036307 94.443 0.656036307 94.443 143 0 143"></polygon>
    </defs>
    <g id="ðŸ–¥ï¸-Desktop" stroke="none" stroke-width="1" fill="none" fill-rule="evenodd" opacity="0.42">
        <g id="Final-Flavors" transform="translate(-269.000000, -2070.000000)">
            <g id="Group-2" transform="translate(269.000000, 1761.000000)">
                <g id="Poof" transform="translate(0.000000, 308.000000)">
                    <g id="Group-3" transform="translate(0.000000, 0.344000)">
                        <mask id="mask-2" fill="white">
                            <use xlink:href="#path-1"></use>
                        </mask>
                        <g id="Clip-2"></g>
                        <path d="M91.7365,92.3864 C89.1505,96.0104 83.2055,95.8594 81.6855,91.3964 C81.6475,91.2854 81.5725,91.2054 81.4845,91.1444 C81.3575,90.7814 80.8735,90.5484 80.5705,90.8944 C78.8185,92.9014 77.6525,95.1274 74.6075,95.2124 C71.4675,95.2994 69.1245,92.6204 68.5245,89.7484 C68.4585,89.4324 68.1615,89.3374 67.9045,89.4034 C67.5945,89.1224 67.0315,89.1064 66.8295,89.5384 C65.4995,92.3834 64.6545,94.4894 61.0835,94.9374 C59.6325,95.1194 57.9835,94.9404 56.5435,94.3624 C56.5365,94.3124 56.5325,94.2624 56.5265,94.2134 C56.4915,93.9464 56.1635,93.9304 56.0915,94.1654 C54.6585,93.4804 53.4935,92.3654 53.0545,90.7584 C52.9675,90.4394 52.5885,90.3694 52.3515,90.5084 C52.0835,90.4444 51.7905,90.4924 51.5845,90.7044 C49.3605,92.9834 47.0695,94.9404 43.6135,94.3074 C40.8555,93.8024 38.9025,91.7244 37.6605,89.3424 C37.5175,89.0684 37.2485,89.0374 37.0335,89.1434 C36.7395,88.7564 36.1425,88.6494 35.8025,89.1924 C34.1435,91.8414 32.4465,94.1974 28.9855,94.3394 C25.7135,94.4724 23.1755,92.3944 21.6055,89.7254 C21.4525,89.4644 21.1265,89.4934 20.9575,89.6714 C20.7835,89.3914 20.4295,89.2454 20.1635,89.5794 C19.6365,90.2424 19.0155,90.8654 18.3605,91.4544 C18.2105,91.4144 18.0895,91.5424 18.1025,91.6834 C17.9445,91.8204 17.7985,91.9704 17.6345,92.0994 C17.3655,92.0644 17.0755,92.2144 17.0675,92.5214 C14.0875,94.6324 10.3815,95.4184 7.3225,92.2654 C3.0615,87.8744 7.5835,81.2414 12.8785,83.0604 C13.0445,83.4034 13.2195,83.7394 13.4075,84.0674 C13.8725,84.8794 15.0165,84.3094 14.8535,83.4574 C14.0545,79.2884 12.7805,75.5024 12.7515,71.1624 C12.7485,70.7344 12.9505,66.8004 13.3735,63.4734 C14.2165,63.9154 15.0615,64.3584 15.9335,64.7384 C16.2235,64.8654 16.4825,64.4604 16.1885,64.3014 C15.2965,63.8144 14.3665,63.3944 13.4405,62.9714 C13.5575,62.1214 13.6885,61.3264 13.8355,60.6594 C14.9685,61.3724 16.0985,62.0924 17.2775,62.7244 C17.5445,62.8664 17.7575,62.4904 17.5125,62.3244 C16.3645,61.5414 15.1565,60.8504 13.9575,60.1484 C14.0755,59.7004 14.2025,59.3384 14.3385,59.0944 C15.5605,59.7984 16.9725,60.1714 18.3615,60.1374 C18.6565,60.3454 18.9485,60.5554 19.2505,60.7564 C19.4125,60.8644 19.6155,60.6094 19.4615,60.4834 C19.3015,60.3524 19.1375,60.2294 18.9765,60.1014 C19.4865,60.0424 19.9895,59.9264 20.4735,59.7434 C21.1765,63.0314 26.6605,63.3774 29.3095,62.2514 C29.4155,62.2064 29.5155,62.1494 29.6185,62.0994 C30.5125,63.0034 31.7845,63.4934 33.0445,63.4534 C33.3295,63.4444 33.3155,63.0524 33.0445,63.0214 C31.9305,62.8904 30.9845,62.4914 30.0935,61.8484 C30.6445,61.5254 31.1565,61.1204 31.6245,60.6604 C31.6405,60.6704 31.6465,60.6884 31.6695,60.6944 C32.8295,60.9874 33.8925,61.4914 34.9195,62.0984 C35.1815,62.2534 35.3925,61.8684 35.1535,61.6984 C34.1805,61.0044 33.0815,60.5924 31.9175,60.3524 C32.5265,59.6894 33.0225,58.9184 33.4035,58.0994 C34.6765,58.7854 35.9455,59.4744 37.2575,60.0844 C37.5905,60.2394 37.8835,59.7654 37.5505,59.5834 C36.2645,58.8804 34.9395,58.2604 33.6145,57.6344 C34.3095,55.8754 34.4015,53.9214 33.5515,52.2154 C33.6225,52.1854 33.6885,52.1484 33.7575,52.1164 C34.6285,55.7194 38.0405,56.7764 40.5605,55.5494 C40.5775,55.5884 40.5965,55.6284 40.6415,55.6514 C42.3415,56.5544 44.1255,57.3874 45.8995,58.1364 C46.2265,58.2744 46.5215,57.8124 46.1865,57.6444 C44.4975,56.7994 42.7405,56.0064 40.9835,55.3074 C41.9115,54.7324 42.6835,53.8294 43.0895,52.5914 C43.5645,53.0654 44.0895,53.4324 44.6395,53.7124 C44.6175,53.7924 44.6195,53.8774 44.6935,53.9464 C46.5445,55.6684 48.8845,57.0834 51.3205,57.7874 C51.6575,57.8854 51.8925,57.3694 51.5645,57.2094 C49.6785,56.2834 47.8775,55.3284 46.1105,54.2354 C47.3075,54.4964 48.5475,54.3894 49.6705,54.0114 C51.3835,54.9484 53.1005,55.9424 54.9225,56.6204 C55.3245,56.7694 55.5345,56.1694 55.2035,55.9554 C53.7715,55.0304 52.1815,54.3204 50.6125,53.6114 C51.4895,53.1574 52.2405,52.5164 52.7705,51.7374 C54.4345,52.6224 56.1015,53.5114 57.8195,54.2784 C58.2795,54.4834 58.6835,53.8454 58.2235,53.5864 C56.5825,52.6584 54.8725,51.8464 53.1685,51.0334 C53.6315,50.0254 53.7395,48.8394 53.3335,47.5474 C55.9145,49.0414 58.4935,50.6024 61.1715,51.9074 C61.6185,52.1254 61.9995,51.4984 61.5655,51.2334 C60.4275,50.5394 59.2545,49.8954 58.0695,49.2674 C59.4025,49.2604 60.8015,48.8574 62.0195,48.2044 C63.4975,49.4144 65.0965,50.3754 66.9195,50.9744 C67.3005,51.0994 67.5655,50.4954 67.1955,50.3194 C65.6455,49.5764 64.1355,48.7564 62.7165,47.7874 C63.6735,47.1574 64.4635,46.3654 64.9345,45.4974 C67.0765,46.7164 69.2245,47.9674 71.4615,48.9844 C71.9665,49.2144 72.3885,48.5354 71.9035,48.2284 C69.7865,46.8904 67.5155,45.7634 65.2795,44.6194 C65.3495,44.3594 65.4005,44.0964 65.4055,43.8294 C66.6405,44.4064 67.9885,44.7124 69.2715,44.6164 C71.0265,45.5504 72.7925,46.5134 74.6325,47.2194 C75.0725,47.3884 75.3255,46.7084 74.9445,46.4774 C73.5955,45.6574 72.1375,44.9854 70.6785,44.3294 C71.5935,44.0114 72.4225,43.4164 73.1025,42.5164 C74.6295,43.4834 76.2265,44.3324 77.9535,44.8824 C78.3165,44.9984 78.5775,44.4154 78.2175,44.2564 C76.6095,43.5444 75.0175,42.8244 73.4925,41.9534 C74.2515,40.6364 74.2695,39.0204 73.6685,37.7644 C87.4875,47.0244 86.5665,68.6934 83.0835,83.2944 C82.9105,84.0214 83.4455,84.5024 84.0155,84.5804 C84.1505,84.9324 84.4855,85.2174 84.9555,85.1194 C88.6515,84.3484 94.8095,88.0804 91.7365,92.3864 M19.7805,92.2514 C20.2515,91.6754 20.6565,91.0404 20.9665,90.3404 C21.4635,91.8694 22.4005,93.0974 23.5825,94.0114 C22.2775,93.4974 21.0095,92.9234 19.7805,92.2514 M76.6025,112.7754 C75.1125,119.9274 73.7495,127.1014 72.5415,134.3064 C72.4985,134.5604 72.5575,134.7764 72.6545,134.9654 C66.3045,139.3984 57.8445,140.7044 50.2455,140.9474 C46.2395,141.0754 42.1825,140.7884 38.2965,139.7664 C35.2425,138.9654 28.0695,136.8634 26.5905,133.5114 C26.5905,133.4444 26.6025,133.3844 26.5875,133.3114 C26.2835,131.8984 25.9885,130.4814 25.6965,129.0634 C26.4265,130.2164 27.3605,131.1104 28.5885,131.7634 C28.8705,131.9144 29.1035,131.5114 28.8385,131.3364 C27.7015,130.5854 26.6515,129.5774 25.8695,128.4614 C25.7865,128.3434 25.6535,128.3354 25.5545,128.3854 C25.3015,127.1474 25.0535,125.9084 24.8055,124.6694 C25.9095,125.6464 26.9945,126.6704 28.1915,127.5284 C28.4935,127.7454 28.8575,127.2644 28.5875,127.0144 C27.4145,125.9314 26.0705,125.0174 24.8015,124.0514 C24.7605,124.0194 24.7175,124.0214 24.6755,124.0244 C24.4075,122.6744 24.1435,121.3204 23.8785,119.9684 C24.9395,120.9394 26.0545,121.8634 27.1685,122.7664 C27.4275,122.9774 27.8015,122.6174 27.5415,122.3944 C26.3105,121.3424 25.0605,120.2824 23.7515,119.3244 C23.4865,117.9734 23.2205,116.6224 22.9545,115.2714 C24.1975,116.1744 25.5355,116.9514 26.9725,117.4694 C27.2325,117.5634 27.3995,117.1564 27.1595,117.0264 C25.6465,116.2084 24.1855,115.3844 22.7875,114.4234 C22.5235,113.0794 22.2545,111.7354 21.9855,110.3924 C23.4155,111.4604 24.9235,112.3894 26.5715,113.1224 C26.9045,113.2704 27.2005,112.8024 26.8645,112.6214 C25.1065,111.6774 23.3945,110.6364 21.7955,109.4414 C21.5755,108.3534 21.3525,107.2664 21.1275,106.1804 C22.6785,107.3064 24.3815,108.1564 26.2915,108.5324 C26.7155,108.6164 26.8865,108.0174 26.4705,107.8814 C24.5115,107.2414 22.6455,106.4364 20.9425,105.2834 C20.6215,103.7464 20.2875,102.2134 19.9505,100.6814 C21.5575,102.0544 23.2665,103.3114 25.1635,104.2574 C25.5795,104.4654 25.9345,103.8744 25.5305,103.6294 C23.6285,102.4714 21.7585,101.2964 20.0315,99.8854 C19.9455,99.8154 19.8515,99.7964 19.7625,99.8094 C19.4875,98.5704 19.1915,97.3384 18.9025,96.1044 C18.9065,96.1064 18.9085,96.1104 18.9125,96.1124 C21.2325,97.4694 23.5385,98.8504 25.9015,100.1314 C26.2235,100.3054 26.5035,99.8284 26.1895,99.6394 C23.8855,98.2524 21.5255,96.9674 19.1785,95.6574 C19.0285,95.5744 18.8885,95.6464 18.8235,95.7604 C18.6595,95.0664 18.5075,94.3674 18.3395,93.6744 C18.7345,93.3594 19.0955,93.0054 19.4375,92.6314 C21.1755,93.6894 23.0145,94.5714 24.9805,95.1234 C25.1135,95.1604 25.1995,95.0974 25.2555,95.0114 C26.0315,95.3744 26.8565,95.6444 27.7035,95.7944 C28.4345,106.4074 29.4565,117.1494 31.0125,127.6724 C31.0925,128.2164 31.9735,128.0794 31.9625,127.5444 C31.7315,117.0194 30.5645,106.3054 28.8195,95.9194 C32.3725,96.1444 35.9545,94.4874 36.9995,90.6964 C37.6495,92.5894 38.9805,94.0364 40.6095,94.9994 C40.4775,108.2864 42.0765,122.0324 43.4535,135.2174 C43.5345,135.9874 44.7105,136.0244 44.6845,135.2174 C44.2705,122.1454 43.7485,108.3874 41.4775,95.4494 C45.2965,97.1964 50.2975,96.4524 52.4985,92.4554 C53.0885,94.0624 54.3635,95.1694 55.9345,95.8504 C54.9875,106.9954 54.9515,118.3674 54.3745,129.5364 C54.3445,130.0984 55.2925,130.2454 55.3755,129.6714 C56.9255,118.8754 57.8845,107.1254 56.7505,96.1724 C60.9735,97.5244 66.7565,96.0804 68.0245,92.5414 C68.6825,94.2034 69.9385,95.5784 71.5445,96.3764 C67.4405,107.9754 65.1175,121.0844 63.5675,133.2104 C63.4575,134.0704 64.8685,134.2384 65.0695,133.4134 C67.9635,121.5164 70.9655,108.9384 72.3935,96.7294 C72.8725,96.8934 73.3695,97.0224 73.8935,97.0784 C76.4355,97.3504 79.9635,95.8114 81.1305,93.3134 C81.2465,93.5824 81.3835,93.8314 81.5335,94.0694 C78.3195,99.0934 77.7865,107.0894 76.6025,112.7754 M53.8825,47.0964 C53.6375,46.9704 53.3905,46.8454 53.1465,46.7184 C53.0905,46.6894 53.0375,46.6824 52.9865,46.6844 C52.9435,46.5934 52.9065,46.5024 52.8575,46.4094 C53.0845,46.3744 53.3065,46.3194 53.5255,46.2544 C53.5075,46.3354 53.5095,46.4224 53.5465,46.5054 C53.6425,46.7254 53.7665,46.9064 53.8825,47.0964 M15.7475,47.1304 C15.8585,47.2194 15.9655,47.3094 16.0845,47.3944 C16.5675,47.7434 17.2645,47.0484 16.9145,46.5654 C13.5955,41.9844 15.2115,35.3604 21.7565,35.6794 C21.5615,36.1824 21.5635,36.7034 21.6435,37.2944 C21.6795,37.5564 22.1275,37.5524 22.1695,37.2944 C22.2535,36.7654 22.6685,36.2254 23.0555,35.8614 C23.4655,35.4764 24.0305,35.3534 24.4505,34.9944 C24.7845,34.7094 24.5825,34.1664 24.2025,34.0544 C23.5875,33.8724 22.9715,34.1964 22.5035,34.6284 C20.3035,30.9144 24.0215,28.6724 27.2375,29.4384 C27.4095,31.6974 28.2995,33.9574 29.5795,35.8814 C29.5955,35.9054 29.6155,35.9174 29.6335,35.9364 C29.0325,37.1174 28.9645,38.5694 29.6025,39.8034 C29.8265,40.2364 30.5305,39.9374 30.3895,39.4704 C29.9035,37.8644 30.6135,35.8384 32.2855,35.2364 C34.0755,34.5904 35.1615,35.8124 36.0385,37.0734 C35.7005,37.1604 35.3885,37.2944 35.1375,37.4654 C34.5735,37.8494 35.0875,38.7604 35.6785,38.3904 C36.0705,38.1474 36.5055,38.0324 36.9685,38.0964 C37.4405,38.1614 37.7375,38.4524 38.1505,38.6384 C38.6195,38.8514 39.1635,38.4064 38.8835,37.9054 C38.5775,37.3584 38.0075,37.0844 37.3815,36.9964 C37.3715,36.8234 37.3495,36.6544 37.3085,36.4924 C37.5015,36.5544 37.7315,36.4774 37.7215,36.2144 C37.6825,35.1044 38.4805,33.8334 39.6955,33.8244 C40.3125,33.8204 40.9345,34.1784 41.2895,34.6694 C41.5585,35.0414 41.6405,35.4874 41.9485,35.8334 C42.1265,36.0334 42.4375,35.9534 42.5695,35.7534 C42.9925,35.1144 42.6635,34.3054 42.2205,33.7234 C41.9515,32.1354 42.8485,30.4704 44.5625,30.2394 C46.2165,30.0144 47.5205,31.0654 48.6105,32.1784 C48.2135,32.7964 48.1135,33.5754 48.5055,34.2404 C48.8665,34.8534 49.7455,34.3164 49.4465,33.6914 C49.2025,33.1804 49.7075,32.6644 50.1495,32.4984 C50.7415,32.2774 51.4325,32.3174 52.0535,32.2394 C52.6185,32.1694 52.8465,31.3324 52.1985,31.1694 C51.4385,30.9774 50.5895,30.9504 49.8475,31.2224 C49.5405,29.9484 50.2185,28.6874 51.3185,28.0084 C51.8575,27.6744 51.5155,26.7764 50.8785,26.9634 C49.4175,27.3924 48.6235,28.7324 48.5945,30.1324 C47.1545,28.8464 45.1185,28.1724 43.3045,29.0004 C41.9275,29.6284 40.8255,31.2424 40.9895,32.7304 C40.5095,32.5024 39.9835,32.3864 39.4375,32.4484 C37.8735,32.6264 36.7615,34.1274 36.9225,35.6214 C35.8895,34.0814 33.3835,33.3824 31.7665,33.9864 C31.1395,34.2214 30.6225,34.6064 30.2095,35.0744 C29.7505,34.0774 29.3565,33.0124 29.0895,31.9234 C29.3285,31.9934 29.5805,32.0174 29.8445,31.9924 C31.2965,32.5884 32.7675,33.1464 34.2735,33.5674 C34.5705,33.6504 34.7785,33.2004 34.4885,33.0564 C32.6815,32.1584 30.7705,31.4624 28.8615,30.8014 C28.6935,29.7104 28.6795,28.6104 28.8725,27.5384 C30.5685,28.5514 32.4315,29.3444 34.2315,30.1414 C34.5415,30.2794 34.8175,29.8344 34.5025,29.6774 C32.6985,28.7764 30.8565,27.8204 28.9475,27.1494 C29.1045,26.4684 29.3495,25.8004 29.7045,25.1574 C29.7375,25.0974 29.7765,25.0434 29.8105,24.9854 C31.1065,25.3644 32.3575,25.8644 33.5825,26.4414 C33.8605,26.5734 34.0985,26.1854 33.8265,26.0224 C32.6585,25.3214 31.4155,24.8414 30.1115,24.5084 C30.4965,23.9554 30.9525,23.5114 31.4385,23.1284 C33.0735,23.6984 34.6525,24.4184 36.2045,25.1834 C36.5855,25.3714 36.9075,24.8354 36.5395,24.6094 C35.1215,23.7404 33.6165,23.1464 32.0255,22.7124 C33.8855,21.5814 36.2265,21.5504 38.3975,22.7634 C38.8885,23.0374 39.4185,22.3834 39.0055,21.9764 C38.0495,21.0374 36.9045,20.5234 35.7155,20.3534 C37.6095,17.3484 42.0905,17.9964 44.6555,19.7924 C47.2355,21.5994 48.4945,24.3944 49.4775,27.2744 C49.5665,27.5354 49.9855,27.5084 49.9775,27.2064 C49.9255,25.2004 49.3545,23.2584 48.3445,21.5944 C49.7275,20.2654 52.0415,19.7724 53.7305,20.7844 C55.6665,21.9444 55.4635,23.7034 55.6275,25.6054 C55.6765,26.1834 56.4105,26.4344 56.7405,25.9074 C56.8525,25.7294 56.9335,25.5424 57.0025,25.3514 C58.4015,24.7014 60.1715,23.9614 61.5905,24.7574 C62.1265,25.0584 62.5505,25.6144 62.7235,26.1984 C62.8915,26.7674 62.7345,27.1494 62.5565,27.6044 C62.2605,27.4644 61.9175,27.3074 61.6135,27.3484 C61.3235,27.3874 60.9815,27.6464 61.0425,27.9694 C61.1605,28.5914 61.7755,28.7054 62.2525,29.0164 C62.7195,29.3204 63.1585,29.6574 63.5955,30.0014 C64.1065,30.4054 65.0365,29.8804 64.5895,29.2344 C64.3175,28.8424 63.9885,28.5094 63.6185,28.2254 C63.6885,28.1544 63.7575,28.0834 63.8125,28.0054 C63.8235,28.0034 63.8325,28.0054 63.8435,28.0034 C65.8975,27.4924 68.2825,27.8424 69.7175,29.5304 C71.3135,31.4084 70.6735,33.3554 70.1675,35.4484 C70.1355,35.5814 70.1515,35.7054 70.1865,35.8194 C69.8855,35.9714 69.8265,36.4034 70.1435,36.6174 C72.8265,38.4394 72.2955,42.2494 68.8315,42.6394 C66.9205,42.8544 65.9285,42.4854 64.3755,41.3824 C63.6825,40.8904 63.0095,41.8164 63.3115,42.4464 C64.1695,44.2374 61.7125,46.0034 60.5865,46.6634 C58.3755,47.9594 56.0715,48.1374 54.1395,46.0474 C54.1335,46.0414 54.1275,46.0394 54.1215,46.0334 C55.1065,45.5964 55.9415,44.8414 56.4325,43.7794 C56.6705,43.2664 55.9945,42.5984 55.5765,43.1194 C54.3945,44.5934 52.6285,45.5604 50.7145,45.4524 C50.2305,45.4254 50.1525,46.1524 50.6015,46.2814 C50.9975,46.3944 51.3985,46.4444 51.7975,46.4644 C51.7925,46.4994 51.7825,46.5324 51.7845,46.5714 C51.8735,47.8734 51.8425,49.1324 51.3825,50.2194 C51.0845,50.2184 50.8765,50.5874 51.0725,50.8094 C50.7355,51.3464 50.2765,51.8344 49.6105,52.2384 C47.4055,53.5744 44.8175,52.9444 43.1965,50.9304 C42.9265,50.5944 42.3195,50.7874 42.2325,51.1854 C41.3295,55.3034 36.0825,55.9234 34.4255,51.7774 C34.4245,51.7734 34.4225,51.7724 34.4205,51.7684 C34.9785,51.4354 35.4735,51.0284 35.8385,50.5084 C36.1505,50.0624 35.5645,49.6534 35.1655,49.8344 C34.3715,50.1954 33.6835,50.7594 32.8985,51.1434 C32.0525,51.5574 31.1565,51.8064 30.2295,51.9544 C29.6575,52.0464 29.7855,53.0304 30.3675,52.9734 C31.0185,52.9094 31.7285,52.7894 32.4265,52.5994 C32.7675,55.4734 32.5535,58.3304 29.8925,60.1964 C27.8555,61.6244 22.4895,62.3784 21.4175,59.2844 C21.5145,59.2264 21.6135,59.1784 21.7075,59.1154 C22.3045,58.7114 21.9515,57.6974 21.1995,57.9104 C18.2895,58.7364 14.7425,58.1244 13.3555,55.0684 C11.9925,52.0644 13.8065,49.2984 15.7475,47.1304 M20.3195,9.0624 C17.7435,7.8384 15.0515,6.8514 12.3135,6.0564 C11.1825,5.7284 3.5475,4.7654 1.8595,2.7674 C1.9525,0.1114 11.6965,3.8784 12.1735,4.0534 C15.5775,5.3024 18.9305,6.7104 22.0805,8.5164 C27.3305,11.5264 31.5545,15.2464 34.9755,20.2114 C34.9685,20.2404 34.9575,20.2644 34.9505,20.2934 C34.4865,20.2844 34.0225,20.3344 33.5625,20.4224 C31.0445,14.9764 25.5875,11.5654 20.3195,9.0624 M85.2125,83.4634 C87.6515,73.6834 87.9105,63.3904 85.7475,53.5264 C84.0955,45.9964 80.1205,37.1624 71.9005,35.3464 C73.0795,33.3094 72.4095,30.2794 70.9765,28.5854 C69.3045,26.6074 66.4745,25.9334 64.1365,26.9434 C64.1625,25.8524 63.5075,24.5874 62.8065,23.9644 C61.1895,22.5254 58.9415,22.9684 57.1655,23.9424 C56.9995,22.1684 55.6075,20.3324 54.1495,19.6414 C51.9355,18.5944 49.5275,19.3884 48.1075,21.2314 C47.0485,19.6384 45.5755,18.3294 43.7225,17.5374 C40.8725,16.3194 36.5175,16.4014 35.2055,19.5134 C31.1735,11.9614 23.6485,7.4824 15.8725,4.4054 C14.6885,3.9364 4.1575,-0.7956 1.7055,1.1034 C1.6175,0.8794 1.2755,0.7834 1.0895,1.0434 C-2.8875,6.5954 5.0305,5.9054 8.6695,6.7074 C17.2065,8.5914 27.5465,13.1404 32.5605,20.6804 C31.2815,21.1204 30.1005,21.9184 29.2085,22.9924 C27.8535,24.6234 27.2605,26.4994 27.2155,28.4124 C23.7865,25.6204 19.0865,30.1604 20.8125,34.3104 C14.6305,34.4874 10.5085,42.0034 15.1015,46.5614 C11.4015,47.3884 9.9455,52.3334 11.2465,55.6324 C11.6505,56.6584 12.3265,57.5464 13.1605,58.2614 C11.5495,60.1284 11.0055,65.4754 10.8645,66.6154 C10.2915,71.2434 10.4545,76.7284 12.1415,81.3144 C7.1965,79.5064 2.1155,85.5824 4.2755,90.9564 C6.4655,96.4044 12.8615,97.0694 17.2665,94.4194 C18.6785,107.6214 21.7715,120.9194 24.8925,133.7794 C24.9675,134.0934 25.1605,134.2664 25.3855,134.3484 C26.5555,140.9464 41.3745,142.7204 46.3625,142.9364 C55.2745,143.3214 66.8545,142.0944 73.5705,135.5674 C73.9935,135.6014 74.4055,135.4024 74.5075,134.8484 C75.8795,127.3554 77.3105,119.8734 78.8965,112.4224 C80.0285,107.1064 82.6065,100.6724 82.3645,95.0694 C85.2445,97.8184 90.9265,97.1254 93.3845,93.4984 C97.0655,88.0674 90.3735,82.9704 85.2125,83.4634" id="Fill-1" fill="#171714" mask="url(#mask-2)"></path>
                    </g>
                    <path d="M73.5387,59.8256 C72.3377,59.7226 71.2677,58.8096 71.4827,57.5216 C71.5897,56.8796 72.0057,56.2616 72.5337,55.8896 C73.0177,55.5486 73.5557,55.5316 74.0947,55.3676 C76.1437,56.4076 76.5027,60.0796 73.5387,59.8256 M74.3407,54.3766 C74.3327,54.3716 74.3327,54.3646 74.3257,54.3606 C72.4607,53.3796 70.4537,55.7536 70.2287,57.4276 C69.9717,59.3466 71.4797,60.8466 73.3177,61.0446 C75.1217,61.2406 76.9697,60.1016 77.1657,58.2016 C77.3477,56.4466 76.1687,54.5066 74.3407,54.3766" id="Fill-4" fill="#171714"></path>
                    <path d="M78.34,51.0849 C77.09,52.4259 75.477,50.5809 76.102,49.2159 C76.15,49.1119 76.142,49.0069 76.106,48.9169 C77.381,47.9409 79.657,49.6719 78.34,51.0849 M78.946,48.4399 C77.986,47.7359 76.755,47.9099 75.912,48.7099 C75.801,48.6619 75.668,48.6739 75.55,48.7899 C74.613,49.7109 74.694,51.1919 75.594,52.1189 C76.65,53.2089 78.316,52.9919 79.25,51.8669 C80.117,50.8219 80.081,49.2719 78.946,48.4399" id="Fill-6" fill="#171714"></path>
                    <path d="M81.8376,67.9589 C81.2226,68.3199 80.4186,68.1969 80.1436,67.4839 C80.0256,67.1759 80.0166,66.8289 80.0866,66.4949 C80.1466,66.4909 80.2066,66.4719 80.2586,66.4309 C80.6346,66.1379 80.7886,66.1449 81.2006,66.2069 C81.4936,66.2509 81.8146,66.3489 82.0516,66.5329 C82.6126,66.9699 82.3976,67.6309 81.8376,67.9589 M83.0166,65.5109 C82.4536,65.0659 81.6196,64.8939 80.9306,65.0809 C80.9376,64.9149 80.8206,64.7509 80.6106,64.8079 C79.2216,65.1779 78.5676,66.7859 79.0616,68.0899 C79.6286,69.5889 81.4016,69.8979 82.6746,69.0889 C83.9416,68.2819 84.2626,66.4949 83.0166,65.5109" id="Fill-8" fill="#171714"></path>
                    <path d="M20.5275,78.5624 C18.4515,78.7114 18.6845,75.8854 20.3825,75.4844 C20.3885,75.4914 20.3875,75.4984 20.3945,75.5044 C20.6685,75.7614 21.0375,75.8224 21.2995,76.1024 C21.5555,76.3744 21.7485,76.7504 21.7965,77.1244 C21.8985,77.9224 21.2955,78.5074 20.5275,78.5624 M22.3915,75.4734 C21.9945,75.0344 21.2085,74.4864 20.5965,74.7404 C20.5245,74.7704 20.4605,74.8164 20.4065,74.8714 C20.3945,74.8704 20.3885,74.8584 20.3755,74.8584 C19.0455,74.8474 17.9765,75.9624 17.9075,77.2714 C17.8325,78.7184 19.0665,79.7614 20.4475,79.8034 C21.8705,79.8474 23.1075,78.8394 23.1065,77.3694 C23.1055,76.6904 22.8485,75.9784 22.3915,75.4734" id="Fill-10" fill="#171714"></path>
                    <path d="M16.2638,66.8783 C15.9768,66.8613 15.8928,67.2653 16.1218,67.4023 C17.1668,68.0263 17.7338,69.8463 16.1738,70.2313 C14.8468,70.5583 14.2928,68.7373 15.2818,68.0023 C15.5858,67.7763 15.4238,67.1653 14.9968,67.3273 C13.9588,67.7243 13.4468,68.7803 13.6858,69.8593 C13.9498,71.0463 15.1118,71.6833 16.2738,71.5013 C17.4298,71.3203 18.3738,70.3913 18.3388,69.1813 C18.3058,68.0153 17.4448,66.9483 16.2638,66.8783" id="Fill-12" fill="#171714"></path>
                    <path d="M27.2306,68.7265 C25.5726,69.1115 25.2986,66.7815 26.4666,66.0415 C27.2216,66.2025 28.0376,66.4395 28.2366,67.3095 C28.3956,68.0055 27.8826,68.5755 27.2306,68.7265 M29.7516,66.8925 C29.2946,65.6345 27.5236,64.3885 26.2716,65.2715 C26.2426,65.2745 26.2146,65.2715 26.1846,65.2805 C24.8636,65.6725 24.1416,67.0695 24.4196,68.3925 C24.7456,69.9325 26.2766,70.7005 27.7496,70.3015 C29.2316,69.9015 30.3076,68.4185 29.7516,66.8925" id="Fill-14" fill="#171714"></path>
                    <path d="M43.1798,59.6644 C40.4738,58.2874 37.7568,56.9424 35.1738,55.3424 C34.8828,55.1624 34.6268,55.6104 34.9078,55.7974 C37.4648,57.5044 40.1008,59.0434 42.9768,60.1464 C43.2548,60.2534 43.4448,59.7994 43.1798,59.6644" id="Fill-16" fill="#171714"></path>
                </g>
            </g>
        </g>
    </g>
</svg>