<svg xmlns="http://www.w3.org/2000/svg" xmlns:xlink="http://www.w3.org/1999/xlink" preserveAspectRatio="xMidYMid" width="10" height="19" viewBox="0 0 10 19">
  <defs>
    <style>
      .cls-1 {
        fill: #fff;
        opacity: 0.65;
        fill-rule: evenodd;
      }
    </style>
  </defs>
  <path d="M9.623,0.004 L7.225,-0.000 C4.530,-0.000 2.789,1.835 2.789,4.676 L2.789,6.832 L0.377,6.832 C0.169,6.832 -0.000,7.005 -0.000,7.219 L-0.000,10.343 C-0.000,10.557 0.169,10.730 0.377,10.730 L2.789,10.730 L2.789,18.613 C2.789,18.827 2.957,19.000 3.166,19.000 L6.312,19.000 C6.520,19.000 6.689,18.827 6.689,18.613 L6.689,10.730 L9.509,10.730 C9.717,10.730 9.886,10.557 9.886,10.343 L9.887,7.219 C9.887,7.116 9.847,7.018 9.777,6.945 C9.706,6.873 9.610,6.832 9.510,6.832 L6.689,6.832 L6.689,5.004 C6.689,4.126 6.893,3.680 8.007,3.680 L9.623,3.679 C9.831,3.679 10.000,3.505 10.000,3.292 L10.000,0.391 C10.000,0.177 9.831,0.004 9.623,0.004 Z" class="cls-1"/>
</svg>
