<svg width="186" height="27" viewBox="0 0 186 27" fill="none" xmlns="http://www.w3.org/2000/svg">
<path class="animate-lines-solid" d="M9.72334 0L6.48223 4.25525L3.24111 0H0V12.1402H3.12108V5.3L6.48223 9.72845L9.72334 5.4V12.1402H12.8444V0H9.72334Z" transform="translate(173.016 7.38672)" fill="black"/>
<path class="animate-lines-solid" d="M0 0H2.43781L7.996 7.2V0H10.5313L10.535 12.1227H8.19471L2.53532 4.6L2.539 12.1227H0.00368101L0 0Z" transform="translate(110.497 7.38672)" fill="black"/>
<path class="animate-lines-solid" d="M7.90001 5.40461V6.93422C7.90001 8.87173 6.9 9.66826 5.3 9.66826C3.7 9.66826 2.70001 8.76975 2.70001 6.83225V0H0V6.83225C0 10.4013 2 12.1349 5.3 12.1349C8.6 12.1349 10.6 10.4013 10.6 6.73027V5.30264V2.75329V0H7.90001V2.75329V5.40461Z" transform="translate(155.375 7.38672)" fill="black"/>
<path d="M-7.70665e-07 1.90735e-07H5.75771C7.17189 1.90735e-07 8.28303 0.4 8.99012 1.1C9.59619 1.6 9.79822 2.3 9.79822 3.2C9.79822 4.5 9.09113 5.3 8.18202 5.8C9.59619 6.3 10.5053 7.1 10.5053 8.8C10.5053 11 8.68708 12.1 5.95974 12.1H0.101014V1.90735e-07H-7.70665e-07ZM5.15164 4.8C6.36379 4.8 7.07088 4.4 7.07088 3.5C7.07088 2.7 6.4648 2.3 5.25265 2.3H2.72734V4.8H5.15164ZM5.85873 9.6C7.07088 9.6 7.77797 9.2 7.77797 8.3C7.77797 7.5 7.17189 7 5.75771 7H2.72734V9.6H5.85873Z" transform="translate(40.1155 7.38672)" fill="black"/>
<path d="M4.6 7.1L0 0H3.1L6 4.7L9 0H12L7.3 7.1V12.1112H4.6V7.1Z" transform="translate(57.0061 7.38672)" fill="black"/>
<path fill-rule="evenodd" clip-rule="evenodd" d="M7.71206 0H5.21206L9.5084e-05 12.0948H12.9001L7.71206 0ZM6.51206 3.7L8.8916 9.69385L4.11206 9.7L6.51206 3.7Z" transform="translate(91.7141 7.38672)" fill="black"/>
<path d="M10.4068 0V2.4L3.90142 9.65015L10.4082 9.63508V12.0962L0.00142288 12.1113L0 9.71507L7 2.4H0V0.0150632L10.4068 0Z" transform="translate(75.3967 7.38672)" fill="black"/>
<path d="M3.89454 2.35652H8.35824e-05L0 0L10.4508 1.69605e-07L10.4509 2.35652L6.54453 2.35652V12.1349H3.89454V2.35652Z" transform="translate(128.118 7.38672)" fill="black"/>
<path d="M0 1.945e-07H2.7V12.1349H0V1.945e-07Z" transform="translate(145.684 7.38672)" fill="black"/>
<path fill-rule="evenodd" clip-rule="evenodd" d="M12.9026 25.7075C5.72383 25.7075 0 19.9843 0 12.9026C0 5.72383 5.72383 0 12.9026 0C20.0814 0 25.8046 5.72383 25.8046 12.9026C25.7075 19.9843 19.9843 25.7075 12.9026 25.7075ZM12.9026 20.1462C16.9299 20.1462 20.1948 16.8814 20.1948 12.854C20.1948 8.82667 16.9299 5.56184 12.9026 5.56184C8.87521 5.56184 5.61038 8.82667 5.61038 12.854C5.61038 16.8814 8.87521 20.1462 12.9026 20.1462Z" transform="translate(0.360596 0.60791)" fill="black"/>
</svg>
