<svg xmlns="http://www.w3.org/2000/svg" width="155" height="45" viewBox="0 0 155 45">
  <metadata><?xpacket begin="﻿" id="W5M0MpCehiHzreSzNTczkc9d"?>
<x:xmpmeta xmlns:x="adobe:ns:meta/" x:xmptk="Adobe XMP Core 5.6-c140 79.160451, 2017/05/06-01:08:21        ">
   <rdf:RDF xmlns:rdf="http://www.w3.org/1999/02/22-rdf-syntax-ns#">
      <rdf:Description rdf:about=""/>
   </rdf:RDF>
</x:xmpmeta>
                                                                                                    
                                                                                                    
                                                                                                    
                                                                                                    
                                                                                                    
                                                                                                    
                                                                                                    
                                                                                                    
                                                                                                    
                                                                                                    
                                                                                                    
                                                                                                    
                                                                                                    
                                                                                                    
                                                                                                    
                                                                                                    
                                                                                                    
                                                                                                    
                                                                                                    
                                                                                                    
                           
<?xpacket end="w"?></metadata>
<defs>
    <style>
      .cls-1 {
        fill: #fff;
        fill-rule: evenodd;
      }
    </style>
  </defs>
  <path id="Фигура_4_копия_6" data-name="Фигура 4 копия 6" class="cls-1" d="M6.528,5.914A0.483,0.483,0,0,1,6.363,5.82L0.709,0.891A0.476,0.476,0,0,1,.664.216,0.483,0.483,0,0,1,1.343.173l5.34,4.655,5.39-4.591a0.484,0.484,0,0,1,.631,0L18.045,4.9,23.434,0.3a0.484,0.484,0,0,1,.631,0l5.341,4.655L34.8,0.373a0.484,0.484,0,0,1,.631,0l5.341,4.655,5.39-4.591a0.484,0.484,0,0,1,.631,0L52.13,5.1l5.39-4.591a0.484,0.484,0,0,1,.631,0l5.341,4.655,5.391-4.591a0.484,0.484,0,0,1,.631,0l5.341,4.655,5.391-4.591a0.484,0.484,0,0,1,.631,0L86.218,5.3l5.391-4.591a0.484,0.484,0,0,1,.631,0l5.341,4.655,5.391-4.591a0.484,0.484,0,0,1,.631,0l5.34,4.655,5.391-4.591a0.484,0.484,0,0,1,.631,0l5.341,4.655L125.7,0.916a0.484,0.484,0,0,1,.631,0l5.342,4.655,5.391-4.591a0.484,0.484,0,0,1,.631,0l5.343,4.655,5.392-4.591a0.484,0.484,0,0,1,.631,0l5.657,4.929a0.476,0.476,0,0,1,.045.675,0.483,0.483,0,0,1-.679.044l-5.344-4.655-5.392,4.591a0.483,0.483,0,0,1-.631,0L137.372,1.98l-5.391,4.591a0.484,0.484,0,0,1-.631,0l-5.342-4.655L120.617,6.5a0.485,0.485,0,0,1-.632,0l-5.341-4.655-5.39,4.591a0.484,0.484,0,0,1-.631,0l-5.341-4.655L97.891,6.367a0.483,0.483,0,0,1-.631,0L91.919,1.708,86.529,6.3a0.484,0.484,0,0,1-.631,0L80.556,1.64,75.166,6.231a0.484,0.484,0,0,1-.631,0L69.194,1.572,63.8,6.163a0.484,0.484,0,0,1-.631,0L57.831,1.5,52.44,6.1a0.484,0.484,0,0,1-.631,0L46.469,1.436l-5.39,4.591a0.484,0.484,0,0,1-.631,0L35.107,1.369,29.716,5.96a0.484,0.484,0,0,1-.631,0L23.744,1.3,18.355,5.892a0.484,0.484,0,0,1-.631,0L12.383,1.233,6.994,5.824A0.484,0.484,0,0,1,6.528,5.914Zm-0.05,9.444a0.481,0.481,0,0,1-.165-0.094L0.658,10.335A0.476,0.476,0,0,1,.614,9.66a0.483,0.483,0,0,1,.679-0.044l5.34,4.655,5.39-4.591a0.484,0.484,0,0,1,.631,0l5.341,4.655,5.39-4.591a0.484,0.484,0,0,1,.631,0l5.341,4.655,5.39-4.591a0.484,0.484,0,0,1,.631,0l5.341,4.655,5.39-4.591a0.484,0.484,0,0,1,.631,0l5.341,4.655,5.39-4.591a0.484,0.484,0,0,1,.631,0l5.341,4.655,5.391-4.591a0.484,0.484,0,0,1,.631,0l5.341,4.655L80.2,10.088a0.484,0.484,0,0,1,.631,0l5.341,4.655,5.391-4.591a0.484,0.484,0,0,1,.631,0l5.341,4.655,5.39-4.591a0.484,0.484,0,0,1,.631,0l5.341,4.655,5.391-4.591a0.483,0.483,0,0,1,.631,0l5.341,4.655,5.391-4.591a0.484,0.484,0,0,1,.631,0l5.343,4.655,5.391-4.591a0.483,0.483,0,0,1,.631,0l5.342,4.655,5.393-4.591a0.483,0.483,0,0,1,.63,0l5.658,4.929a0.475,0.475,0,0,1,.044.675,0.483,0.483,0,0,1-.679.044l-5.343-4.655-5.393,4.591a0.484,0.484,0,0,1-.631,0l-5.342-4.655-5.391,4.591a0.484,0.484,0,0,1-.631,0l-5.343-4.655-5.391,4.591a0.484,0.484,0,0,1-.631,0l-5.341-4.655L109.2,15.879a0.484,0.484,0,0,1-.631,0l-5.34-4.655-5.391,4.591a0.484,0.484,0,0,1-.631,0l-5.341-4.655-5.391,4.591a0.484,0.484,0,0,1-.631,0l-5.341-4.655-5.391,4.591a0.484,0.484,0,0,1-.631,0l-5.341-4.655-5.391,4.591a0.484,0.484,0,0,1-.631,0L57.78,10.948l-5.39,4.591a0.484,0.484,0,0,1-.631,0L46.418,10.88l-5.39,4.591a0.485,0.485,0,0,1-.631,0l-5.341-4.655L29.666,15.4a0.484,0.484,0,0,1-.631,0l-5.341-4.655L18.3,15.336a0.484,0.484,0,0,1-.631,0l-5.341-4.655-5.39,4.591A0.484,0.484,0,0,1,6.478,15.358ZM6.427,24.8a0.48,0.48,0,0,1-.165-0.094L0.608,19.779A0.476,0.476,0,0,1,.563,19.1a0.483,0.483,0,0,1,.679-0.044l5.34,4.655,5.39-4.591a0.484,0.484,0,0,1,.631,0l5.341,4.655,5.389-4.591a0.484,0.484,0,0,1,.631,0l5.341,4.655L34.7,19.26a0.484,0.484,0,0,1,.631,0l5.341,4.655,5.39-4.591a0.483,0.483,0,0,1,.631,0l5.341,4.655L57.42,19.4a0.484,0.484,0,0,1,.631,0l5.341,4.655,5.391-4.591a0.484,0.484,0,0,1,.631,0l5.341,4.655,5.391-4.591a0.484,0.484,0,0,1,.631,0l5.341,4.655L91.508,19.6a0.484,0.484,0,0,1,.631,0l5.341,4.656,5.391-4.591a0.483,0.483,0,0,1,.631,0l5.341,4.655,5.39-4.591a0.484,0.484,0,0,1,.631,0l5.342,4.655L125.6,19.8a0.484,0.484,0,0,1,.631,0l5.342,4.655,5.391-4.591a0.485,0.485,0,0,1,.632,0l5.342,4.655,5.392-4.591a0.484,0.484,0,0,1,.631,0l5.657,4.929a0.476,0.476,0,0,1,.045.675,0.484,0.484,0,0,1-.679.044l-5.344-4.655-5.392,4.591a0.485,0.485,0,0,1-.631,0l-5.342-4.655-5.392,4.591a0.483,0.483,0,0,1-.631,0L125.907,20.8l-5.391,4.591a0.484,0.484,0,0,1-.631,0l-5.342-4.655-5.39,4.591a0.484,0.484,0,0,1-.631,0l-5.341-4.655L97.79,25.255a0.484,0.484,0,0,1-.631,0L91.819,20.6l-5.391,4.591a0.484,0.484,0,0,1-.631,0l-5.341-4.655-5.391,4.591a0.484,0.484,0,0,1-.631,0L69.093,20.46,63.7,25.051a0.484,0.484,0,0,1-.631,0L57.73,20.392l-5.39,4.591a0.484,0.484,0,0,1-.631,0l-5.341-4.655-5.39,4.591a0.484,0.484,0,0,1-.631,0l-5.341-4.655-5.391,4.591a0.483,0.483,0,0,1-.631,0l-5.341-4.655-5.389,4.591a0.484,0.484,0,0,1-.631,0L12.283,20.12l-5.39,4.591A0.484,0.484,0,0,1,6.427,24.8Zm-0.05,9.444a0.481,0.481,0,0,1-.165-0.094L0.557,29.223a0.476,0.476,0,0,1-.044-0.675A0.483,0.483,0,0,1,1.192,28.5l5.34,4.655,5.389-4.591a0.484,0.484,0,0,1,.631,0l5.341,4.655,5.389-4.591a0.484,0.484,0,0,1,.631,0L29.255,33.3,34.646,28.7a0.484,0.484,0,0,1,.631,0l5.341,4.655,5.39-4.591a0.484,0.484,0,0,1,.631,0l5.341,4.655,5.39-4.591a0.484,0.484,0,0,1,.631,0L63.341,33.5l5.391-4.591a0.483,0.483,0,0,1,.631,0L74.7,33.567,80.1,28.976a0.484,0.484,0,0,1,.631,0l5.341,4.655,5.39-4.591a0.484,0.484,0,0,1,.631,0L97.43,33.7l5.391-4.591a0.484,0.484,0,0,1,.631,0l5.34,4.655,5.391-4.591a0.484,0.484,0,0,1,.631,0l5.341,4.655,5.392-4.591a0.484,0.484,0,0,1,.631,0l5.342,4.655,5.391-4.591a0.484,0.484,0,0,1,.631,0l5.343,4.655,5.392-4.591a0.484,0.484,0,0,1,.631,0l5.657,4.929a0.476,0.476,0,0,1,.045.675,0.485,0.485,0,0,1-.68.044l-5.343-4.655L143.2,34.97a0.484,0.484,0,0,1-.631,0l-5.343-4.655L131.83,34.9a0.484,0.484,0,0,1-.631,0l-5.342-4.655-5.392,4.591a0.484,0.484,0,0,1-.631,0l-5.341-4.655-5.39,4.591a0.485,0.485,0,0,1-.632,0l-5.34-4.655L97.74,34.7a0.484,0.484,0,0,1-.631,0l-5.341-4.655-5.39,4.591a0.484,0.484,0,0,1-.631,0l-5.341-4.655-5.391,4.591a0.484,0.484,0,0,1-.631,0L69.043,29.9l-5.391,4.591a0.485,0.485,0,0,1-.631,0l-5.341-4.655-5.39,4.591a0.484,0.484,0,0,1-.631,0l-5.341-4.655-5.39,4.591a0.484,0.484,0,0,1-.631,0L34.956,29.7l-5.39,4.591a0.484,0.484,0,0,1-.631,0l-5.341-4.655L18.2,34.223a0.484,0.484,0,0,1-.631,0l-5.341-4.655-5.39,4.591A0.484,0.484,0,0,1,6.377,34.246ZM6.326,43.69A0.484,0.484,0,0,1,6.161,43.6L0.507,38.666a0.476,0.476,0,0,1-.044-0.675,0.483,0.483,0,0,1,.679-0.044L6.482,42.6l5.39-4.591a0.484,0.484,0,0,1,.631,0l5.341,4.655,5.389-4.591a0.484,0.484,0,0,1,.631,0L29.2,42.739,34.6,38.148a0.484,0.484,0,0,1,.631,0l5.341,4.655,5.39-4.591a0.484,0.484,0,0,1,.631,0l5.341,4.655,5.39-4.591a0.484,0.484,0,0,1,.631,0l5.341,4.655,5.391-4.591a0.485,0.485,0,0,1,.631,0l5.341,4.655,5.391-4.591a0.484,0.484,0,0,1,.631,0l5.341,4.655,5.391-4.591a0.484,0.484,0,0,1,.631,0l5.341,4.655,5.391-4.591a0.484,0.484,0,0,1,.631,0l5.341,4.655,5.39-4.591a0.484,0.484,0,0,1,.631,0l5.342,4.655,5.391-4.591a0.484,0.484,0,0,1,.631,0l5.342,4.655,5.392-4.591a0.484,0.484,0,0,1,.631,0l5.342,4.655,5.393-4.591a0.483,0.483,0,0,1,.63,0l5.657,4.929a0.475,0.475,0,0,1,.045.675,0.483,0.483,0,0,1-.679.044l-5.343-4.655-5.393,4.591a0.484,0.484,0,0,1-.631,0l-5.342-4.655-5.391,4.591a0.483,0.483,0,0,1-.631,0l-5.343-4.655-5.391,4.591a0.484,0.484,0,0,1-.631,0l-5.341-4.655-5.391,4.591a0.484,0.484,0,0,1-.631,0l-5.341-4.655-5.39,4.591a0.484,0.484,0,0,1-.631,0l-5.341-4.655-5.391,4.591a0.484,0.484,0,0,1-.631,0l-5.341-4.655-5.391,4.591a0.483,0.483,0,0,1-.631,0l-5.341-4.655L63.6,43.939a0.483,0.483,0,0,1-.631,0L57.629,39.28l-5.39,4.591a0.484,0.484,0,0,1-.631,0l-5.341-4.655L40.877,43.8a0.484,0.484,0,0,1-.631,0l-5.341-4.655-5.391,4.591a0.484,0.484,0,0,1-.631,0l-5.341-4.655-5.389,4.591a0.484,0.484,0,0,1-.631,0l-5.341-4.655L6.792,43.6A0.484,0.484,0,0,1,6.326,43.69Z"/>
</svg>
