<svg xmlns="http://www.w3.org/2000/svg" xmlns:xlink="http://www.w3.org/1999/xlink" preserveAspectRatio="xMidYMid" width="156" height="101" viewBox="0 0 156 101">
  <defs>
    <style>
      .cls-1 {
        fill: #fff;
        fill-rule: evenodd;
      }
    </style>
  </defs>
  <path d="M155.171,65.654 C154.932,65.769 154.643,65.671 154.527,65.432 L151.404,59.079 L144.651,61.233 C144.423,61.306 144.176,61.202 144.071,60.987 L140.948,54.633 L134.196,56.789 C133.968,56.862 133.721,56.756 133.616,56.542 L130.493,50.189 L123.742,52.344 C123.514,52.417 123.267,52.312 123.161,52.097 L120.039,45.744 L113.289,47.900 C113.062,47.972 112.814,47.868 112.708,47.653 L109.587,41.300 L102.836,43.456 C102.608,43.529 102.361,43.424 102.255,43.209 L99.134,36.856 L92.383,39.012 C92.156,39.085 91.908,38.980 91.803,38.765 L88.681,32.412 L81.930,34.568 C81.702,34.640 81.455,34.535 81.349,34.321 L78.228,27.968 L71.477,30.123 C71.249,30.196 71.002,30.092 70.896,29.877 L67.775,23.524 L61.024,25.680 C60.796,25.752 60.549,25.647 60.444,25.433 L57.323,19.080 L50.572,21.236 C50.345,21.309 50.098,21.204 49.992,20.989 L46.871,14.637 L40.120,16.792 C39.892,16.865 39.645,16.760 39.539,16.545 L36.418,10.193 L29.668,12.349 C29.441,12.421 29.193,12.316 29.088,12.102 L25.967,5.749 L19.216,7.905 C19.051,7.958 18.876,7.917 18.752,7.809 C18.705,7.768 18.665,7.717 18.636,7.658 L15.332,0.932 C15.215,0.695 15.314,0.408 15.552,0.293 C15.791,0.177 16.079,0.276 16.196,0.515 L19.317,6.867 L26.066,4.711 C26.294,4.638 26.541,4.743 26.647,4.958 L29.768,11.310 L36.518,9.154 C36.745,9.082 36.993,9.187 37.098,9.401 L40.220,15.754 L46.971,13.598 C47.198,13.526 47.446,13.631 47.551,13.845 L50.672,20.198 L57.423,18.042 C57.650,17.969 57.897,18.074 58.003,18.289 L61.124,24.641 L67.875,22.486 C68.102,22.413 68.349,22.518 68.455,22.733 L71.577,29.085 L78.328,26.930 C78.556,26.857 78.803,26.962 78.909,27.177 L82.030,33.530 L88.781,31.374 C89.008,31.301 89.256,31.406 89.362,31.621 L92.483,37.974 L99.234,35.818 C99.462,35.745 99.709,35.850 99.815,36.065 L102.936,42.418 L109.687,40.262 C109.915,40.189 110.161,40.294 110.267,40.509 L113.389,46.862 L120.139,44.706 C120.367,44.633 120.614,44.739 120.720,44.953 L123.842,51.306 L130.593,49.151 C130.821,49.078 131.068,49.183 131.174,49.398 L134.296,55.751 L141.048,53.595 C141.276,53.522 141.523,53.627 141.628,53.842 L144.751,60.195 L151.504,58.040 C151.732,57.968 151.979,58.073 152.084,58.287 L155.391,65.014 C155.508,65.252 155.410,65.538 155.171,65.654 ZM22.360,13.401 C22.587,13.329 22.835,13.433 22.940,13.648 L26.061,20.000 L32.811,17.845 C33.039,17.772 33.286,17.877 33.392,18.091 L36.513,24.444 L43.264,22.288 C43.491,22.216 43.739,22.320 43.844,22.535 L46.966,28.888 L53.716,26.732 C53.943,26.660 54.191,26.764 54.296,26.979 L57.417,33.332 L64.168,31.176 C64.395,31.103 64.643,31.208 64.749,31.423 L67.870,37.776 L74.621,35.620 C74.849,35.547 75.096,35.652 75.202,35.867 L78.323,42.220 L85.074,40.064 C85.302,39.992 85.549,40.096 85.655,40.311 L88.776,46.664 L95.527,44.508 C95.755,44.436 96.002,44.540 96.108,44.755 L99.229,51.108 L105.980,48.952 C106.208,48.880 106.455,48.984 106.561,49.199 L109.682,55.552 L116.433,53.396 C116.660,53.324 116.907,53.428 117.013,53.643 L120.135,59.996 L126.886,57.841 C127.114,57.768 127.361,57.872 127.467,58.087 L130.589,64.441 L137.341,62.286 C137.569,62.212 137.816,62.318 137.922,62.532 L141.044,68.886 L147.797,66.730 C148.024,66.658 148.272,66.763 148.377,66.977 L151.684,73.704 C151.801,73.942 151.702,74.228 151.464,74.344 C151.225,74.459 150.936,74.360 150.820,74.123 L147.697,67.769 L140.944,69.924 C140.716,69.996 140.469,69.891 140.364,69.677 L137.241,63.324 L130.490,65.479 C130.262,65.552 130.015,65.446 129.909,65.232 L126.786,58.879 L120.035,61.034 C119.807,61.107 119.560,61.002 119.454,60.787 L116.333,54.434 L109.582,56.590 C109.354,56.662 109.107,56.558 109.001,56.343 L105.880,49.990 L99.129,52.146 C98.901,52.219 98.654,52.114 98.548,51.899 L95.427,45.547 L88.676,47.702 C88.449,47.775 88.202,47.670 88.096,47.455 L84.974,41.102 L78.223,43.258 C77.996,43.331 77.749,43.226 77.643,43.011 L74.521,36.658 L67.770,38.814 C67.542,38.886 67.295,38.781 67.189,38.567 L64.068,32.214 L57.317,34.370 C57.090,34.443 56.843,34.338 56.737,34.123 L53.616,27.770 L46.866,29.926 C46.638,29.999 46.391,29.894 46.285,29.679 L43.164,23.326 L36.413,25.482 C36.185,25.555 35.938,25.450 35.832,25.235 L32.711,18.883 L25.961,21.039 C25.734,21.111 25.487,21.006 25.381,20.792 L22.260,14.439 L15.510,16.595 C15.345,16.648 15.169,16.607 15.045,16.499 C14.998,16.458 14.958,16.407 14.929,16.348 L11.625,9.622 C11.508,9.385 11.607,9.098 11.845,8.983 C12.084,8.867 12.372,8.966 12.489,9.205 L15.610,15.557 L22.360,13.401 ZM18.653,22.091 C18.880,22.019 19.127,22.123 19.233,22.338 L22.355,28.691 L29.104,26.535 C29.332,26.462 29.579,26.567 29.685,26.782 L32.806,33.134 L39.557,30.979 C39.784,30.906 40.032,31.011 40.137,31.226 L43.259,37.578 L50.009,35.422 C50.237,35.349 50.484,35.454 50.589,35.669 L53.711,42.022 L60.461,39.866 C60.688,39.793 60.936,39.899 61.042,40.113 L64.163,46.466 L70.914,44.310 C71.142,44.237 71.389,44.342 71.495,44.557 L74.616,50.910 L81.367,48.754 C81.595,48.682 81.842,48.786 81.948,49.001 L85.069,55.354 L91.820,53.198 C92.048,53.126 92.295,53.230 92.401,53.445 L95.522,59.798 L102.273,57.642 C102.501,57.570 102.749,57.675 102.854,57.889 L105.975,64.242 L112.726,62.086 C112.953,62.014 113.200,62.119 113.306,62.333 L116.428,68.686 L123.180,66.531 C123.407,66.458 123.654,66.563 123.760,66.778 L126.882,73.131 L133.634,70.975 C133.862,70.903 134.109,71.008 134.215,71.222 L137.337,77.576 L144.090,75.421 C144.318,75.348 144.565,75.453 144.670,75.668 L147.977,82.395 C148.094,82.632 147.995,82.919 147.757,83.034 C147.518,83.149 147.230,83.050 147.113,82.813 L143.990,76.459 L137.237,78.614 C137.010,78.686 136.763,78.582 136.657,78.367 L133.534,72.014 L126.783,74.169 C126.555,74.242 126.308,74.137 126.202,73.922 L123.080,67.569 L116.328,69.724 C116.100,69.797 115.854,69.692 115.748,69.477 L112.626,63.124 L105.875,65.280 C105.647,65.353 105.400,65.248 105.294,65.033 L102.173,58.681 L95.422,60.836 C95.195,60.909 94.947,60.804 94.841,60.589 L91.720,54.236 L84.969,56.392 C84.742,56.465 84.494,56.360 84.389,56.145 L81.267,49.792 L74.516,51.948 C74.289,52.021 74.041,51.916 73.936,51.701 L70.814,45.348 L64.063,47.504 C63.836,47.576 63.588,47.472 63.482,47.257 L60.361,40.904 L53.611,43.060 C53.383,43.132 53.136,43.028 53.030,42.813 L49.909,36.461 L43.159,38.616 C42.931,38.689 42.684,38.584 42.578,38.369 L39.457,32.017 L32.706,34.172 C32.478,34.245 32.231,34.140 32.125,33.925 L29.004,27.573 L22.254,29.729 C22.027,29.802 21.779,29.697 21.674,29.482 L18.553,23.129 L11.802,25.285 C11.638,25.338 11.462,25.297 11.338,25.189 C11.291,25.148 11.251,25.097 11.222,25.038 L7.918,18.312 C7.801,18.075 7.900,17.788 8.139,17.673 C8.377,17.558 8.665,17.656 8.782,17.895 L11.903,24.247 L18.653,22.091 ZM14.946,30.781 C15.173,30.709 15.421,30.813 15.526,31.028 L18.648,37.381 L25.397,35.225 C25.625,35.152 25.872,35.257 25.978,35.471 L29.099,41.824 L35.850,39.669 C36.078,39.596 36.325,39.700 36.431,39.915 L39.552,46.268 L46.302,44.113 C46.530,44.040 46.777,44.144 46.883,44.359 L50.004,50.712 L56.754,48.556 C56.982,48.483 57.229,48.588 57.335,48.803 L60.456,55.156 L67.207,53.000 C67.435,52.927 67.682,53.032 67.788,53.247 L70.909,59.600 L77.661,57.444 C77.888,57.372 78.135,57.477 78.241,57.691 L81.363,64.044 L88.113,61.888 C88.341,61.816 88.588,61.921 88.694,62.135 L91.815,68.488 L98.566,66.332 C98.794,66.259 99.041,66.365 99.147,66.579 L102.268,72.932 L109.019,70.776 C109.246,70.704 109.494,70.809 109.600,71.023 L112.721,77.376 L119.473,75.221 C119.700,75.148 119.948,75.253 120.053,75.468 L123.176,81.821 L129.927,79.666 C130.155,79.593 130.402,79.698 130.508,79.913 L133.630,86.266 L140.383,84.111 C140.611,84.038 140.858,84.144 140.963,84.358 L144.270,91.085 C144.387,91.323 144.289,91.609 144.050,91.724 C143.812,91.840 143.523,91.740 143.407,91.503 L140.283,85.149 L133.530,87.304 C133.303,87.377 133.055,87.272 132.950,87.057 L129.827,80.704 L123.076,82.859 C122.848,82.932 122.601,82.826 122.495,82.612 L119.373,76.259 L112.621,78.414 C112.394,78.487 112.146,78.382 112.041,78.167 L108.919,71.815 L102.168,73.970 C101.940,74.043 101.693,73.938 101.587,73.723 L98.466,67.371 L91.715,69.526 C91.488,69.599 91.240,69.494 91.135,69.279 L88.013,62.927 L81.263,65.082 C81.035,65.155 80.788,65.050 80.682,64.835 L77.561,58.483 L70.809,60.638 C70.582,60.711 70.335,60.606 70.229,60.391 L67.107,54.038 L60.356,56.194 C60.129,56.266 59.882,56.162 59.776,55.947 L56.654,49.594 L49.904,51.750 C49.676,51.823 49.429,51.718 49.323,51.503 L46.202,45.151 L39.452,47.306 C39.224,47.379 38.977,47.274 38.871,47.059 L35.750,40.707 L28.999,42.862 C28.772,42.935 28.524,42.830 28.419,42.615 L25.297,36.263 L18.547,38.419 C18.320,38.491 18.073,38.387 17.967,38.172 L14.846,31.819 L8.096,33.975 C7.931,34.028 7.755,33.987 7.631,33.879 C7.584,33.838 7.544,33.788 7.515,33.728 L4.211,27.003 C4.095,26.765 4.193,26.478 4.432,26.363 C4.670,26.248 4.958,26.346 5.075,26.585 L8.196,32.937 L14.946,30.781 ZM11.239,39.472 C11.467,39.399 11.713,39.504 11.820,39.718 L14.941,46.071 L21.691,43.915 C21.918,43.842 22.166,43.947 22.271,44.162 L25.392,50.514 L32.143,48.359 C32.371,48.286 32.618,48.391 32.724,48.606 L35.845,54.958 L42.595,52.803 C42.823,52.730 43.070,52.835 43.176,53.049 L46.297,59.402 L53.047,57.246 C53.275,57.174 53.522,57.279 53.628,57.493 L56.749,63.846 L63.501,61.690 C63.728,61.618 63.975,61.723 64.081,61.937 L67.203,68.290 L73.954,66.134 C74.181,66.062 74.428,66.167 74.534,66.381 L77.656,72.734 L84.407,70.579 C84.634,70.506 84.881,70.611 84.987,70.826 L88.108,77.178 L94.859,75.023 C95.087,74.950 95.335,75.055 95.440,75.270 L98.561,81.622 L105.312,79.467 C105.540,79.394 105.786,79.499 105.892,79.713 L109.014,86.066 L115.766,83.911 C115.993,83.838 116.240,83.943 116.346,84.158 L119.469,90.511 L126.220,88.356 C126.448,88.283 126.696,88.388 126.801,88.603 L129.924,94.956 L136.676,92.801 C136.904,92.729 137.151,92.833 137.257,93.048 L140.563,99.775 C140.680,100.013 140.582,100.299 140.343,100.414 C140.104,100.530 139.816,100.431 139.700,100.193 L136.576,93.839 L129.823,95.994 C129.596,96.067 129.349,95.962 129.243,95.747 L126.120,89.394 L119.369,91.549 C119.141,91.622 118.894,91.517 118.788,91.302 L115.666,84.949 L108.914,87.104 C108.687,87.178 108.440,87.072 108.334,86.858 L105.212,80.505 L98.461,82.660 C98.234,82.733 97.986,82.628 97.881,82.413 L94.760,76.061 L88.008,78.216 C87.781,78.289 87.533,78.184 87.428,77.970 L84.307,71.617 L77.556,73.772 C77.328,73.845 77.081,73.741 76.975,73.526 L73.854,67.173 L67.103,69.328 C66.875,69.401 66.628,69.297 66.522,69.081 L63.401,62.728 L56.649,64.884 C56.422,64.957 56.174,64.852 56.069,64.637 L52.947,58.284 L46.197,60.440 C45.969,60.513 45.722,60.408 45.616,60.193 L42.495,53.841 L35.745,55.997 C35.517,56.069 35.270,55.964 35.164,55.750 L32.043,49.397 L25.292,51.553 C25.065,51.625 24.818,51.520 24.712,51.306 L21.590,44.953 L14.841,47.109 C14.613,47.182 14.365,47.077 14.260,46.862 L11.139,40.510 L4.389,42.665 C4.224,42.718 4.048,42.677 3.924,42.569 C3.877,42.528 3.837,42.478 3.808,42.419 L0.504,35.693 C0.388,35.455 0.486,35.169 0.725,35.053 C0.963,34.938 1.251,35.036 1.368,35.275 L4.489,41.627 L11.239,39.472 Z" class="cls-1"/>
</svg>
