<svg xmlns="http://www.w3.org/2000/svg" width="66" height="75" viewBox="0 0 66 75">
  <metadata><?xpacket begin="﻿" id="W5M0MpCehiHzreSzNTczkc9d"?>
<x:xmpmeta xmlns:x="adobe:ns:meta/" x:xmptk="Adobe XMP Core 5.6-c140 79.160451, 2017/05/06-01:08:21        ">
   <rdf:RDF xmlns:rdf="http://www.w3.org/1999/02/22-rdf-syntax-ns#">
      <rdf:Description rdf:about=""/>
   </rdf:RDF>
</x:xmpmeta>
                                                                                                    
                                                                                                    
                                                                                                    
                                                                                                    
                                                                                                    
                                                                                                    
                                                                                                    
                                                                                                    
                                                                                                    
                                                                                                    
                                                                                                    
                                                                                                    
                                                                                                    
                                                                                                    
                                                                                                    
                                                                                                    
                                                                                                    
                                                                                                    
                                                                                                    
                                                                                                    
                           
<?xpacket end="w"?></metadata>
<defs>
    <style>
      .cls-1 {
        fill: #07e782;
        fill-rule: evenodd;
      }
    </style>
  </defs>
  <path id="Эллипс_14_копия_13" data-name="Эллипс 14 копия 13" class="cls-1" d="M1.766,0.656A1.766,1.766,0,1,1,0,2.422,1.766,1.766,0,0,1,1.766.656Zm8.8,0a1.766,1.766,0,1,1-1.75,1.766A1.758,1.758,0,0,1,10.563.656Zm8.8,0a1.766,1.766,0,1,1-1.766,1.766A1.766,1.766,0,0,1,19.359.656Zm8.8,0a1.766,1.766,0,1,1-1.75,1.766A1.758,1.758,0,0,1,28.156.656Zm8.8,0a1.766,1.766,0,1,1-1.766,1.766A1.766,1.766,0,0,1,36.953.656Zm8.813,0A1.766,1.766,0,1,1,44,2.422,1.766,1.766,0,0,1,45.766.656Zm8.781,0a1.766,1.766,0,1,1-1.766,1.766A1.766,1.766,0,0,1,54.547.656Zm8.813,0a1.766,1.766,0,1,1-1.766,1.766A1.766,1.766,0,0,1,63.359.656ZM1.766,9.438A1.766,1.766,0,1,1,0,11.2,1.766,1.766,0,0,1,1.766,9.438Zm8.8,0A1.766,1.766,0,1,1,8.813,11.2,1.758,1.758,0,0,1,10.563,9.438Zm8.8,0A1.766,1.766,0,1,1,17.594,11.2,1.766,1.766,0,0,1,19.359,9.438Zm8.8,0a1.766,1.766,0,1,1-1.75,1.766A1.758,1.758,0,0,1,28.156,9.438Zm8.8,0A1.766,1.766,0,1,1,35.188,11.2,1.766,1.766,0,0,1,36.953,9.438Zm8.813,0A1.766,1.766,0,1,1,44,11.2,1.766,1.766,0,0,1,45.766,9.438Zm8.781,0A1.766,1.766,0,1,1,52.781,11.2,1.766,1.766,0,0,1,54.547,9.438Zm8.813,0A1.766,1.766,0,1,1,61.594,11.2,1.766,1.766,0,0,1,63.359,9.438ZM1.766,18.219A1.75,1.75,0,1,1,0,19.969,1.758,1.758,0,0,1,1.766,18.219Zm8.8,0a1.75,1.75,0,1,1-1.75,1.75A1.75,1.75,0,0,1,10.563,18.219Zm8.8,0a1.75,1.75,0,1,1-1.766,1.75A1.758,1.758,0,0,1,19.359,18.219Zm8.8,0a1.75,1.75,0,1,1-1.75,1.75A1.75,1.75,0,0,1,28.156,18.219Zm8.8,0a1.75,1.75,0,1,1-1.766,1.75A1.758,1.758,0,0,1,36.953,18.219Zm8.813,0A1.75,1.75,0,1,1,44,19.969,1.758,1.758,0,0,1,45.766,18.219Zm8.781,0a1.75,1.75,0,1,1-1.766,1.75A1.758,1.758,0,0,1,54.547,18.219Zm8.813,0a1.75,1.75,0,1,1-1.766,1.75A1.758,1.758,0,0,1,63.359,18.219ZM1.766,27A1.75,1.75,0,1,1,0,28.75,1.758,1.758,0,0,1,1.766,27Zm8.8,0a1.75,1.75,0,1,1-1.75,1.75A1.75,1.75,0,0,1,10.563,27Zm8.8,0a1.75,1.75,0,1,1-1.766,1.75A1.758,1.758,0,0,1,19.359,27Zm8.8,0a1.75,1.75,0,1,1-1.75,1.75A1.75,1.75,0,0,1,28.156,27Zm8.8,0a1.75,1.75,0,1,1-1.766,1.75A1.758,1.758,0,0,1,36.953,27Zm8.813,0A1.75,1.75,0,1,1,44,28.75,1.758,1.758,0,0,1,45.766,27Zm8.781,0a1.75,1.75,0,1,1-1.766,1.75A1.758,1.758,0,0,1,54.547,27Zm8.813,0a1.75,1.75,0,1,1-1.766,1.75A1.758,1.758,0,0,1,63.359,27ZM1.766,35.781A1.75,1.75,0,1,1,0,37.531,1.758,1.758,0,0,1,1.766,35.781Zm8.8,0a1.75,1.75,0,1,1-1.75,1.75A1.75,1.75,0,0,1,10.563,35.781Zm8.8,0a1.75,1.75,0,1,1-1.766,1.75A1.758,1.758,0,0,1,19.359,35.781Zm8.8,0a1.75,1.75,0,1,1-1.75,1.75A1.75,1.75,0,0,1,28.156,35.781Zm8.8,0a1.75,1.75,0,1,1-1.766,1.75A1.758,1.758,0,0,1,36.953,35.781Zm8.813,0A1.75,1.75,0,1,1,44,37.531,1.758,1.758,0,0,1,45.766,35.781Zm8.781,0a1.75,1.75,0,1,1-1.766,1.75A1.758,1.758,0,0,1,54.547,35.781Zm8.813,0a1.75,1.75,0,1,1-1.766,1.75A1.758,1.758,0,0,1,63.359,35.781ZM1.766,44.563A1.75,1.75,0,1,1,0,46.313,1.758,1.758,0,0,1,1.766,44.563Zm8.8,0a1.75,1.75,0,1,1-1.75,1.75A1.75,1.75,0,0,1,10.563,44.563Zm8.8,0a1.75,1.75,0,1,1-1.766,1.75A1.758,1.758,0,0,1,19.359,44.563Zm8.8,0a1.75,1.75,0,1,1-1.75,1.75A1.75,1.75,0,0,1,28.156,44.563Zm8.8,0a1.75,1.75,0,1,1-1.766,1.75A1.758,1.758,0,0,1,36.953,44.563Zm8.813,0A1.75,1.75,0,1,1,44,46.313,1.758,1.758,0,0,1,45.766,44.563Zm8.781,0a1.75,1.75,0,1,1-1.766,1.75A1.758,1.758,0,0,1,54.547,44.563Zm8.813,0a1.75,1.75,0,1,1-1.766,1.75A1.758,1.758,0,0,1,63.359,44.563ZM1.766,53.313A1.766,1.766,0,1,1,0,55.078,1.766,1.766,0,0,1,1.766,53.313Zm8.8,0a1.766,1.766,0,1,1-1.75,1.766A1.758,1.758,0,0,1,10.563,53.313Zm8.8,0a1.766,1.766,0,1,1-1.766,1.766A1.766,1.766,0,0,1,19.359,53.313Zm8.8,0a1.766,1.766,0,1,1-1.75,1.766A1.758,1.758,0,0,1,28.156,53.313Zm8.8,0a1.766,1.766,0,1,1-1.766,1.766A1.766,1.766,0,0,1,36.953,53.313Zm8.813,0A1.766,1.766,0,1,1,44,55.078,1.766,1.766,0,0,1,45.766,53.313Zm8.781,0a1.766,1.766,0,1,1-1.766,1.766A1.766,1.766,0,0,1,54.547,53.313Zm8.813,0a1.766,1.766,0,1,1-1.766,1.766A1.766,1.766,0,0,1,63.359,53.313ZM1.766,62.094A1.766,1.766,0,1,1,0,63.859,1.766,1.766,0,0,1,1.766,62.094Zm8.8,0a1.766,1.766,0,1,1-1.75,1.766A1.758,1.758,0,0,1,10.563,62.094Zm8.8,0a1.766,1.766,0,1,1-1.766,1.766A1.766,1.766,0,0,1,19.359,62.094Zm8.8,0a1.766,1.766,0,1,1-1.75,1.766A1.758,1.758,0,0,1,28.156,62.094Zm8.8,0a1.766,1.766,0,1,1-1.766,1.766A1.766,1.766,0,0,1,36.953,62.094Zm8.813,0A1.766,1.766,0,1,1,44,63.859,1.765,1.765,0,0,1,45.766,62.094Zm8.781,0a1.766,1.766,0,1,1-1.766,1.766A1.766,1.766,0,0,1,54.547,62.094Zm8.813,0a1.766,1.766,0,1,1-1.766,1.766A1.766,1.766,0,0,1,63.359,62.094ZM1.766,70.875A1.75,1.75,0,1,1,0,72.625,1.758,1.758,0,0,1,1.766,70.875Zm8.8,0a1.75,1.75,0,1,1-1.75,1.75A1.75,1.75,0,0,1,10.563,70.875Zm8.8,0a1.75,1.75,0,1,1-1.766,1.75A1.758,1.758,0,0,1,19.359,70.875Zm8.8,0a1.75,1.75,0,1,1-1.75,1.75A1.75,1.75,0,0,1,28.156,70.875Zm8.8,0a1.75,1.75,0,1,1-1.766,1.75A1.758,1.758,0,0,1,36.953,70.875Zm8.813,0A1.75,1.75,0,1,1,44,72.625,1.758,1.758,0,0,1,45.766,70.875Zm8.781,0a1.75,1.75,0,1,1-1.766,1.75A1.758,1.758,0,0,1,54.547,70.875Zm8.813,0a1.75,1.75,0,1,1-1.766,1.75A1.758,1.758,0,0,1,63.359,70.875Z"/>
</svg>
