<svg xmlns="http://www.w3.org/2000/svg" xmlns:xlink="http://www.w3.org/1999/xlink" preserveAspectRatio="xMidYMid" width="18" height="16" viewBox="0 0 18 16">
  <defs>
    <style>
      .cls-1 {
        fill: #fff;
        opacity: 0.65;
        fill-rule: evenodd;
      }
    </style>
  </defs>
  <path d="M0.318,7.672 L4.466,9.252 L6.071,14.524 C6.174,14.861 6.578,14.986 6.846,14.762 L9.158,12.838 C9.401,12.636 9.746,12.626 9.999,12.814 L14.169,15.905 C14.456,16.118 14.863,15.957 14.935,15.603 L17.989,0.601 C18.068,0.214 17.696,-0.109 17.335,0.034 L0.313,6.738 C-0.107,6.904 -0.103,7.511 0.318,7.672 ZM5.812,8.411 L13.918,3.314 C14.064,3.223 14.214,3.424 14.089,3.542 L7.399,9.891 C7.164,10.115 7.012,10.414 6.969,10.738 L6.741,12.462 C6.711,12.693 6.394,12.715 6.332,12.493 L5.456,9.349 C5.355,8.990 5.502,8.607 5.812,8.411 Z" class="cls-1"/>
</svg>
