<svg xmlns="http://www.w3.org/2000/svg" viewBox="0 0 75.2 61.08" width="17" height="15">
	<defs>
    <style>
      .cls-1 {
        fill: #fff;
        opacity: 0.65;
        fill-rule: evenodd;
      }
    </style>
  </defs>
	<path d="M75.2 7.23a30.83 30.83 0 0 1-8.86 2.44 15.54 15.54 0 0 0 6.79-8.54 30.75 30.75 0 0 1-9.82 3.74 15.42 15.42 0 0 0-26.67 10.55 16 16 0 0 0 .36 3.51A43.8 43.8 0 0 1 5.23 2.82 15.42 15.42 0 0 0 10 23.4a15.19 15.19 0 0 1-7-1.93v.19a15.47 15.47 0 0 0 12.4 15.15 15.91 15.91 0 0 1-4.06.52 15.59 15.59 0 0 1-2.91-.27 15.48 15.48 0 0 0 14.4 10.72 31 31 0 0 1-19.16 6.58 33.1 33.1 0 0 1-3.67-.2 43.66 43.66 0 0 0 23.66 6.93c28.36 0 43.88-23.5 43.88-43.87v-2a31.08 31.08 0 0 0 7.71-8zm0 0" class="cls-1"></path>
</svg>
