<svg xmlns="http://www.w3.org/2000/svg" width="9" height="82" viewBox="0 0 9 82">
  <metadata><?xpacket begin="﻿" id="W5M0MpCehiHzreSzNTczkc9d"?>
<x:xmpmeta xmlns:x="adobe:ns:meta/" x:xmptk="Adobe XMP Core 5.6-c140 79.160451, 2017/05/06-01:08:21        ">
   <rdf:RDF xmlns:rdf="http://www.w3.org/1999/02/22-rdf-syntax-ns#">
      <rdf:Description rdf:about=""/>
   </rdf:RDF>
</x:xmpmeta>
                                                                                                    
                                                                                                    
                                                                                                    
                                                                                                    
                                                                                                    
                                                                                                    
                                                                                                    
                                                                                                    
                                                                                                    
                                                                                                    
                                                                                                    
                                                                                                    
                                                                                                    
                                                                                                    
                                                                                                    
                                                                                                    
                                                                                                    
                                                                                                    
                                                                                                    
                                                                                                    
                           
<?xpacket end="w"?></metadata>
<defs>
    <style>
      .cls-1 {
        fill: #fff;
        fill-rule: evenodd;
      }
    </style>
  </defs>
  <path id="Фигура_4_копия_9" data-name="Фигура 4 копия 9" class="cls-1" d="M5.577,3.2a0.255,0.255,0,0,1,.051-0.088l2.656-3A0.259,0.259,0,0,1,8.648.087a0.254,0.254,0,0,1,.024.361L6.163,3.281l2.474,2.86a0.254,0.254,0,0,1,0,.335L6.126,9.31,8.6,12.17a0.254,0.254,0,0,1,0,.335L6.089,15.339,8.563,18.2a0.254,0.254,0,0,1,0,.335L6.053,21.369l2.474,2.86a0.254,0.254,0,0,1,0,.335L6.016,27.4l2.474,2.86a0.254,0.254,0,0,1,0,.335L5.979,33.428l2.474,2.861a0.254,0.254,0,0,1,0,.335L5.943,39.457l2.474,2.861a0.254,0.254,0,0,1,0,.335L5.906,45.487,8.38,48.348a0.254,0.254,0,0,1,0,.335L5.87,51.517l2.474,2.861a0.254,0.254,0,0,1,0,.335L5.833,57.547l2.474,2.86a0.254,0.254,0,0,1,0,.335L5.8,63.576l2.474,2.861a0.254,0.254,0,0,1,0,.335L5.76,69.607l2.474,2.861a0.254,0.254,0,0,1,0,.335L5.723,75.638,8.2,78.5a0.254,0.254,0,0,1,0,.335l-2.656,3a0.259,0.259,0,0,1-.364.024,0.254,0.254,0,0,1-.024-0.36l2.509-2.836L5.187,75.8a0.254,0.254,0,0,1,0-.335L7.7,72.633,5.223,69.772a0.254,0.254,0,0,1,0-.335L7.734,66.6,5.26,63.741a0.254,0.254,0,0,1,0-.335L7.77,60.572,5.3,57.711a0.254,0.254,0,0,1,0-.335l2.509-2.834L5.333,51.681a0.254,0.254,0,0,1,0-.335l2.509-2.834L5.37,45.652a0.254,0.254,0,0,1,0-.335L7.88,42.483,5.406,39.622a0.254,0.254,0,0,1,0-.335l2.509-2.834L5.443,33.592a0.254,0.254,0,0,1,0-.335l2.509-2.834-2.474-2.86a0.254,0.254,0,0,1,0-.335L7.99,24.394l-2.474-2.86a0.254,0.254,0,0,1,0-.335l2.509-2.834L5.553,15.5a0.254,0.254,0,0,1,0-.335l2.509-2.834L5.589,9.475a0.254,0.254,0,0,1,0-.335L8.1,6.306,5.626,3.446A0.254,0.254,0,0,1,5.577,3.2ZM0.488,3.172A0.256,0.256,0,0,1,.539,3.084l2.656-3A0.259,0.259,0,0,1,3.558.06a0.254,0.254,0,0,1,.024.361L1.074,3.255l2.474,2.86a0.254,0.254,0,0,1,0,.335L1.037,9.284l2.474,2.86a0.254,0.254,0,0,1,0,.335L1,15.313l2.474,2.861a0.254,0.254,0,0,1,0,.335L0.964,21.342,3.438,24.2a0.254,0.254,0,0,1,0,.335L0.927,27.371,3.4,30.232a0.254,0.254,0,0,1,0,.335L0.891,33.4l2.474,2.861a0.254,0.254,0,0,1,0,.335L0.854,39.431l2.474,2.861a0.254,0.254,0,0,1,0,.335L0.817,45.461l2.474,2.861a0.254,0.254,0,0,1,0,.335L0.781,51.49l2.474,2.861a0.254,0.254,0,0,1,0,.335L0.744,57.52,3.218,60.38a0.254,0.254,0,0,1,0,.335L0.707,63.55,3.182,66.41a0.254,0.254,0,0,1,0,.335L0.671,69.58l2.474,2.861a0.254,0.254,0,0,1,0,.335L0.634,75.611l2.474,2.862a0.254,0.254,0,0,1,0,.335l-2.656,3a0.259,0.259,0,0,1-.364.024,0.254,0.254,0,0,1-.024-0.361l2.509-2.835L0.1,75.776a0.254,0.254,0,0,1,0-.335l2.508-2.835L0.134,69.745a0.254,0.254,0,0,1,0-.335l2.509-2.835L0.171,63.714a0.254,0.254,0,0,1,0-.335l2.509-2.834L0.207,57.684a0.254,0.254,0,0,1,0-.335l2.509-2.834L0.244,51.655a0.254,0.254,0,0,1,0-.335l2.509-2.834L0.281,45.625a0.254,0.254,0,0,1,0-.335l2.509-2.834L0.317,39.6a0.254,0.254,0,0,1,0-.335l2.509-2.834L0.354,33.565a0.253,0.253,0,0,1,0-.335L2.864,30.4,0.39,27.536a0.254,0.254,0,0,1,0-.335L2.9,24.367l-2.474-2.86a0.253,0.253,0,0,1,0-.335l2.509-2.834L0.464,15.477a0.254,0.254,0,0,1,0-.335l2.508-2.834L0.5,9.448a0.254,0.254,0,0,1,0-.335L3.011,6.279,0.537,3.419A0.254,0.254,0,0,1,.488,3.172Z"/>
</svg>
