<svg xmlns="http://www.w3.org/2000/svg" xmlns:xlink="http://www.w3.org/1999/xlink" preserveAspectRatio="xMidYMid" width="12" height="168" viewBox="0 0 12 168">
  <defs>
    <style>
      .cls-1 {
        fill: #07e782;
        fill-rule: evenodd;
      }
    </style>
  </defs>
  <path d="M5.902,74.475 L2.336,78.283 L0.619,76.450 L4.184,72.642 L0.617,68.833 L2.334,67.000 L5.901,70.808 L9.467,67.000 L11.184,68.833 L7.619,72.642 L11.186,76.449 L9.469,78.283 L5.902,74.475 ZM5.902,52.268 L2.336,56.076 L0.619,54.243 L4.184,50.434 L0.617,46.626 L2.334,44.793 L5.901,48.601 L9.467,44.793 L11.184,46.626 L7.619,50.434 L11.186,54.242 L9.469,56.076 L5.902,52.268 ZM5.902,30.061 L2.336,33.869 L0.619,32.035 L4.184,28.227 L0.617,24.419 L2.334,22.585 L5.901,26.394 L9.467,22.585 L11.184,24.419 L7.619,28.227 L11.186,32.035 L9.469,33.869 L5.902,30.061 ZM9.469,11.661 L5.902,7.853 L2.336,11.662 L0.619,9.828 L4.184,6.020 L0.617,2.212 L2.334,0.378 L5.901,4.186 L9.467,0.378 L11.184,2.211 L7.619,6.020 L11.186,9.828 L9.469,11.661 ZM5.901,93.015 L9.467,89.207 L11.184,91.040 L7.619,94.849 L11.186,98.656 L9.469,100.490 L5.902,96.682 L2.336,100.491 L0.619,98.657 L4.184,94.849 L0.617,91.041 L2.334,89.207 L5.901,93.015 ZM5.901,115.222 L9.467,111.414 L11.184,113.248 L7.619,117.056 L11.185,120.864 L9.469,122.697 L5.902,118.890 L2.336,122.698 L0.619,120.864 L4.184,117.056 L0.617,113.248 L2.334,111.414 L5.901,115.222 ZM5.901,137.430 L9.467,133.621 L11.184,135.455 L7.619,139.263 L11.185,143.071 L9.469,144.904 L5.902,141.097 L2.336,144.905 L0.619,143.071 L4.184,139.263 L0.617,135.455 L2.334,133.621 L5.901,137.430 ZM2.334,155.829 L5.901,159.637 L9.467,155.829 L11.184,157.662 L7.619,161.470 L11.185,165.278 L9.469,167.112 L5.902,163.304 L2.336,167.112 L0.619,165.278 L4.184,161.470 L0.617,157.662 L2.334,155.829 Z" class="cls-1"/>
</svg>
