<svg width="15" height="15" viewBox="0 0 15 15" fill="none" xmlns="http://www.w3.org/2000/svg">
<path d="M9.91464 2.48893C9.40278 0.0854976 5.08041 0 5.00458 0C4.91927 0 0.596897 0.0854976 0.0850369 2.48893C-0.436302 4.93036 1.53531 8.16976 3.38369 10.0317C4.67282 11.3237 4.9477 11.0387 5.00458 10.7537C5.05197 11.0482 5.33634 11.3237 6.62547 10.0317C8.47385 8.16976 10.436 4.93036 9.91464 2.48893Z" transform="translate(0 5.6925) rotate(-34.698)" fill="#00B47C"/>
<path d="M1.29982 4.04313C2.01768 4.04313 2.59963 3.13804 2.59963 2.02156C2.59963 0.905085 2.01768 0 1.29982 0C0.581947 0 0 0.905085 0 2.02156C0 3.13804 0.581947 4.04313 1.29982 4.04313Z" transform="matrix(0.253086 -0.967439 0.966887 0.255185 3.48527 9.57373)" fill="#001B4D"/>
<path d="M2.02156 2.59963C3.13804 2.59963 4.04313 2.01768 4.04313 1.29982C4.04313 0.581948 3.13804 0 2.02156 0C0.905085 0 0 0.581948 0 1.29982C0 2.01768 0.905085 2.59963 2.02156 2.59963Z" transform="matrix(0.101531 -0.994817 0.994594 0.10369 7.62486 8.38031)" fill="#001B4D"/>
<path opacity="0.2" d="M7.23181e-08 0.0629826C0.0379156 -0.0225149 0.236972 -0.022515 0.454986 0.0724822C0.673001 0.167479 0.815184 0.309975 0.777268 0.395473" transform="translate(4.45323 7.92859) rotate(-34.698)" fill="white"/>
<path opacity="0.2" d="M0.710916 0C0.758311 0.0759978 0.644564 0.246993 0.445507 0.370489C0.246451 0.493986 0.0473944 0.541484 0 0.455987" transform="translate(8.12546 5.43945) rotate(-34.698)" fill="white"/>
</svg>
