<svg width="22" height="22" viewBox="0 0 22 22" fill="none" xmlns="http://www.w3.org/2000/svg">
<path d="M8.31225 15.6795C12.903 15.6795 16.6245 12.1695 16.6245 7.83974C16.6245 3.50997 12.903 0 8.31225 0C3.72152 0 0 3.50997 0 7.83974C0 12.1695 3.72152 15.6795 8.31225 15.6795Z" transform="matrix(0.497936 -0.867142 0.875161 0.483702 0 14.4158)" fill="#F4F4F4"/>
<path d="M4.56842 13.9182C7.09149 13.9182 9.13684 10.8025 9.13684 6.95909C9.13684 3.11569 7.09149 0 4.56842 0C2.04535 0 0 3.11569 0 6.95909C0 10.8025 2.04535 13.9182 4.56842 13.9182Z" transform="matrix(0.497936 -0.867142 0.875161 0.483702 2.24016 12.2828)" fill="#282828"/>
<path opacity="0.6" d="M2.16808 1.45636C3.36548 1.45636 4.33616 1.13034 4.33616 0.728178C4.33616 0.326017 3.36548 0 2.16808 0C0.970683 0 0 0.326017 0 0.728178C0 1.13034 0.970683 1.45636 2.16808 1.45636Z" transform="matrix(0.937601 -0.347824 0.359647 0.93313 5.19558 9.22681)" fill="white"/>
<path opacity="0.6" d="M0.594786 0.397186C0.923278 0.397186 1.18957 0.308273 1.18957 0.198593C1.18957 0.088913 0.923278 0 0.594786 0C0.266295 0 0 0.088913 0 0.198593C0 0.308273 0.266295 0.397186 0.594786 0.397186Z" transform="matrix(0.937696 -0.347429 0.359242 0.933234 6.83959 7.75977)" fill="white"/>
<path d="M1.73287 3.20007C1.48285 3.63403 0.915519 3.7944 0.473189 3.54912C0.0308602 3.30384 -0.132609 2.74724 0.117403 2.31328L1.18476 0.464235C1.43477 0.030276 2.00211 -0.1301 2.44444 0.115181C2.88677 0.360463 3.05024 0.917063 2.80023 1.35102L1.73287 3.20007Z" transform="translate(1.7948 5.83899)" fill="white"/>
<path d="M1.73488 3.2095C1.48487 3.64346 0.917537 3.80384 0.475208 3.55855C0.023263 3.30384 -0.130591 2.75667 0.119421 2.31328L1.18678 0.464236C1.43679 0.0302764 2.00413 -0.1301 2.44646 0.115181C2.88879 0.360463 3.05226 0.917063 2.80224 1.35102L1.73488 3.2095Z" transform="translate(2.1101 6.00879)" fill="#D8D8D6"/>
<path d="M1.8577 0H0V1.45499H1.8577V0Z" transform="matrix(0.497936 -0.867142 0.875161 0.483702 2.05107 7.90784)" fill="#006F6A"/>
<path d="M0.119422 2.31526C-0.13059 2.74922 0.023263 3.30582 0.475208 3.5511C0.917537 3.79638 1.48487 3.64544 1.73489 3.20205L2.80224 1.353C3.05226 0.919043 2.8984 0.362443 2.44646 0.117162C2.00413 -0.128119 1.43679 0.0228227 1.18678 0.466216L0.119422 2.31526Z" transform="translate(16.4666 13.9501)" fill="white"/>
<path d="M0.119422 2.31526C-0.13059 2.74922 0.0232633 3.30582 0.475208 3.5511C0.917538 3.79638 1.48487 3.64544 1.73488 3.20205L2.80224 1.353C3.05226 0.919044 2.8984 0.362443 2.44646 0.117162C2.00413 -0.12812 1.43679 0.0228225 1.18678 0.466216L0.119422 2.31526Z" transform="translate(16.1589 13.7709)" fill="#D8D8D6"/>
<path d="M1.8577 0H0V1.45499H1.8577V0Z" transform="matrix(0.497936 -0.867142 0.875161 0.483702 17.065 16.2122)" fill="#006F6A"/>
<path opacity="0.4" d="M4.31551 2.44141C4.27705 2.50745 4.18089 2.53575 4.11358 2.49802L0.074923 0.271618C0.00761208 0.233882 -0.0212357 0.148976 0.0172277 0.0735052C0.0556911 0.00746791 0.15185 -0.0208337 0.219161 0.0169019L4.25782 2.2433C4.33475 2.29047 4.36359 2.37538 4.31551 2.44141Z" transform="translate(5.94324 14.7579)" fill="#282828"/>
<path opacity="0.4" d="M4.31551 2.44141C4.27705 2.50745 4.18089 2.53575 4.11358 2.49802L0.074923 0.271617C0.00761208 0.233882 -0.0212357 0.148976 0.0172277 0.0735049C0.0556911 0.00746761 0.15185 -0.0208332 0.219161 0.0169024L4.25782 2.2433C4.33475 2.28104 4.36359 2.37538 4.31551 2.44141Z" transform="translate(5.65477 15.2957)" fill="#282828"/>
<path opacity="0.4" d="M4.31551 2.44141C4.27705 2.50745 4.18089 2.53575 4.11358 2.49802L0.0749229 0.271617C0.00761194 0.233881 -0.0212355 0.139543 0.0172279 0.0735058C0.0556913 0.00746848 0.15185 -0.0208338 0.219161 0.0169018L4.25782 2.2433C4.32513 2.28104 4.35398 2.36594 4.31551 2.44141Z" transform="translate(5.32783 15.8523)" fill="#282828"/>
</svg>
