<svg width="8" height="8" viewBox="0 0 8 8" fill="none" xmlns="http://www.w3.org/2000/svg">
<path d="M4 8C6.20914 8 8 6.20914 8 4C8 1.79086 6.20914 0 4 0C1.79086 0 0 1.79086 0 4C0 6.20914 1.79086 8 4 8Z" fill="#D57400"/>
<path d="M0 1.09677H6.55645C6.25 0.66129 5.85484 0.290323 5.40323 -7.69092e-09H1.15323C0.701613 0.282258 0.306452 0.66129 0 1.09677Z" transform="translate(0.725807 0.612915)" fill="#D59500"/>
<path d="M0 0.330645C0 0.596774 0.0241935 0.846774 0.0725806 1.09677H7.92742C7.97581 0.846774 8 0.58871 8 0.330645C8 0.217742 7.99194 0.112903 7.98387 0H0.016129C0.00806452 0.112903 0 0.225806 0 0.330645Z" transform="translate(0 3.66937)" fill="#D0C696"/>
<path d="M2.40341e-10 1.95968H7.97581C7.91936 1.23387 7.66129 0.564516 7.26613 6.15274e-08H0.709677C0.314516 0.564516 0.0645161 1.23387 2.40341e-10 1.95968Z" transform="translate(0.0161285 1.70966)" fill="#C57B00"/>
<path d="M-1.92273e-09 6.15274e-08C0.129032 0.645161 0.41129 1.24194 0.814516 1.74194H7.04839C7.45161 1.24194 7.73387 0.653226 7.8629 6.15274e-08H-1.92273e-09Z" transform="translate(0.0725822 4.77417)" fill="#FFAA1F"/>
</svg>
