<svg width="22" height="22" viewBox="0 0 22 22" fill="none" xmlns="http://www.w3.org/2000/svg">
<path d="M15.3334 4.18647L1.58287 7.5407L0 3.85021L13.5351 -8.01713e-09" transform="translate(6.30054 0.428711)" fill="white"/>
<path d="M7.53746 4.93466L1.94897 6.17883L3.28607e-07 1.64769L5.41621 0" transform="translate(14.4625)" fill="#004682"/>
<path d="M3.13423 0H0V3.73014H3.13423V0Z" transform="matrix(0.967403 -0.253401 0.394851 0.918789 3.31168 5.18219)" fill="#004682"/>
<path d="M3.70398 0H0V2.3683H3.70398V0Z" transform="matrix(0.967327 -0.253567 0.395084 0.918655 0 6.75024)" fill="white"/>
<path d="M0.770383 0H0V2.36813H0.770383V0Z" transform="matrix(0.967381 -0.253236 0.394617 0.918821 0.00841904 6.74652)" fill="#004682"/>
<path d="M8.62771 6.2734C8.78922 6.3995 8.78922 6.60967 8.62771 6.73577C8.46619 6.86186 8.19699 6.86186 8.03548 6.73577L0.121138 0.556936C-0.0403794 0.430837 -0.0403794 0.220673 0.121138 0.0945742C0.282655 -0.0315244 0.55185 -0.0315244 0.713367 0.0945742L8.62771 6.2734Z" transform="translate(11.0895 14.5581)" fill="#004682"/>
<path d="M0.839889 9.07069C0.839889 9.25563 0.656836 9.39855 0.419944 9.39855C0.183052 9.39855 3.28607e-07 9.25563 3.28607e-07 9.07069V0.327857C3.28607e-07 0.151319 0.183052 -5.13096e-07 0.419944 -5.13096e-07C0.656836 -5.13096e-07 0.839889 0.142912 0.839889 0.327857V9.07069Z" transform="translate(10.0477 12.6014)" fill="#004682"/>
<path d="M0.713367 6.73577C0.55185 6.86186 0.282655 6.86186 0.121138 6.73577C-0.0403793 6.60967 -0.0403793 6.3995 0.121138 6.2734L8.03548 0.0945742C8.19699 -0.0315244 8.46619 -0.0315244 8.62771 0.0945742C8.78922 0.220673 8.78922 0.430837 8.62771 0.556936L0.713367 6.73577Z" transform="translate(0.849335 14.5581)" fill="#004682"/>
<path d="M2.15356 6.12839C2.15356 6.5235 1.66901 6.84295 1.07678 6.84295C0.484551 6.84295 -3.28607e-07 6.5235 -3.28607e-07 6.12839V0.714558C-3.28607e-07 0.31945 0.484551 -2.56548e-07 1.07678 -2.56548e-07C1.66901 -2.56548e-07 2.15356 0.31945 2.15356 0.714558V6.12839Z" transform="translate(9.3909 8.33929)" fill="#BCBCBC"/>
<path d="M1.32444 2.06802C2.05591 2.06802 2.64888 1.60508 2.64888 1.03401C2.64888 0.462941 2.05591 0 1.32444 0C0.592972 0 0 0.462941 0 1.03401C0 1.60508 0.592972 2.06802 1.32444 2.06802Z" transform="translate(9.14324 6.48987)" fill="#004682"/>
<path d="M1.03371 1.63087C1.60461 1.63087 2.06742 1.26579 2.06742 0.815437C2.06742 0.365084 1.60461 0 1.03371 0C0.462807 0 0 0.365084 0 0.815437C0 1.26579 0.462807 1.63087 1.03371 1.63087Z" transform="translate(9.43397 6.70844)" fill="white"/>
</svg>
