<svg width="9" height="13" viewBox="0 0 9 13" fill="none" xmlns="http://www.w3.org/2000/svg">
<path d="M5.04347 7.86108C4.48179 9.10547 2.94086 9.69204 1.60577 9.16577C0.270688 8.64225 -0.355685 7.20873 0.205992 5.96159L2.43211 1.03333C2.99379 -0.211065 4.25536 -0.183655 5.59338 0.34261C6.92847 0.866134 7.86067 1.61716 7.299 2.86156L5.04347 7.86108Z" transform="translate(1.5345)" fill="#BFBFBF"/>
<path d="M3.79646 0.726356L3.76118 0.712651L1.94381 -1.67295e-07L-2.80449e-09 4.3088L1.52329 4.90633C1.52329 4.90633 3.36124 1.25536 3.63178 1.05253C3.66707 1.37322 2.14672 5.15027 2.14672 5.15027L3.67001 5.7478L5.61677 1.43901L3.79646 0.726356Z" transform="translate(0.193674 6.69891)" fill="white"/>
<path d="M7.21064 1.19394L5.70205 0.601891L4.19346 0.00984239C4.19346 0.00984239 2.31728 -0.368411 -1.12179e-08 3.56487L1.38508 4.48584C1.38508 4.48584 2.4702 2.87689 2.46726 2.93993C2.46138 3.00023 1.77619 4.47213 1.77619 4.47213L3.62884 5.19849L5.48149 5.92484C5.48149 5.92484 6.12845 4.43924 6.17256 4.39264C6.21667 4.34605 5.74028 6.19346 5.74028 6.19346L7.41354 6.47304C8.81038 2.17795 7.21064 1.19394 7.21064 1.19394Z" transform="translate(0.334828 2.25146)" fill="white"/>
<path d="M3.70172 2.49368C3.29002 3.40642 2.16078 3.83675 1.17858 3.45028C0.199326 3.06654 -0.262366 2.01401 0.152275 1.09853C0.563975 0.185787 1.69321 -0.244544 2.67541 0.141932C3.65173 0.528408 4.11342 1.58094 3.70172 2.49368Z" transform="translate(4.47894 0.236328)" fill="white"/>
<path d="M1.48022 3.10952C2.29772 3.10952 2.96043 2.41343 2.96043 1.55476C2.96043 0.69609 2.29772 0 1.48022 0C0.662716 0 0 0.69609 0 1.55476C0 2.41343 0.662716 3.10952 1.48022 3.10952Z" transform="matrix(0.411518 -0.9114 0.930937 0.365175 4.3479 2.81519)" fill="#03385D"/>
<path opacity="0.1" d="M2.80471 1.88823C2.493 2.58169 1.63725 2.90513 0.893249 2.61458C0.152188 2.32404 -0.197757 1.52642 0.113959 0.832955C0.425675 0.139491 1.28142 -0.183942 2.02542 0.1066C2.76648 0.397142 3.11643 1.19476 2.80471 1.88823Z" transform="translate(4.85544 0.606018)" fill="white"/>
<path d="M1.5464 0.863019C1.44348 1.08778 1.16705 1.19468 0.925912 1.09874L0.290717 0.849314C0.0495787 0.75338 -0.0651092 0.495729 0.0378159 0.27097C0.140741 0.0462111 0.417168 -0.0606867 0.658307 0.035247L1.2935 0.284675C1.53464 0.377868 1.64933 0.63826 1.5464 0.863019Z" transform="translate(0 11.0081)" fill="#03385D"/>
<path d="M1.5464 0.863018C1.44348 1.08778 1.16705 1.19468 0.925912 1.09874L0.290718 0.849314C0.0495789 0.75338 -0.0651092 0.495729 0.0378158 0.27097C0.140741 0.0462108 0.417168 -0.0606862 0.658307 0.0352475L1.2935 0.284675C1.53464 0.377867 1.64933 0.638259 1.5464 0.863018Z" transform="translate(2.18789 11.866)" fill="#03385D"/>
<path d="M0.967414 0H0V1.04815H0.967414V0Z" transform="matrix(0.411621 -0.911295 0.930842 0.365271 5.00873 6.09247)" fill="#03385D"/>
<path d="M0.24116 0H0V1.04815H0.24116V0Z" transform="matrix(0.411622 -0.911396 0.930942 0.365271 5.72632 4.51068)" fill="#03385D"/>
<path d="M0.482321 0H0V1.04815H0.482321V0Z" transform="matrix(0.411621 -0.911295 0.930842 0.365271 3.86125 4.03906)" fill="#FF6948"/>
<path d="M0.28551 0H0V1.04815H0.28551V0Z" transform="matrix(0.411518 -0.9114 0.930937 0.365175 3.74586 4.29761)" fill="#EFEFEF"/>
<path d="M0.253813 0C0.253813 0 -0.16965 0.276837 0.0773702 0.603012C0.327331 0.929187 0.494952 0.76747 0.494952 0.76747C0.494952 0.76747 0.344975 0.172681 0.253813 0Z" transform="translate(7.75334 4.04291)" fill="#FFD4A1"/>
<path d="M0.263172 0C0.263172 0 -0.0397214 0.394699 0.00438931 0.570121C0.0485 0.745542 0.569007 1.365 0.889545 1.0909C1.20714 0.814066 1.10716 0.775693 1.03952 0.756506C0.971885 0.73732 1.09539 0.542711 1.09539 0.542711L0.263172 0Z" transform="translate(0.289269 5.96161)" fill="#03385D"/>
<path d="M1.27722 0.175421C1.27722 0.175421 1.18606 0.655091 1.01844 0.745543C0.853759 0.838735 0.0127148 0.923705 0.00095194 0.520783C-0.0108109 0.11512 0.0891731 0.156235 0.150928 0.186386C0.212683 0.219278 0.277379 -1.67295e-07 0.277379 -1.67295e-07L1.27722 0.175421Z" transform="translate(6.16237 8.4942)" fill="#03385D"/>
<path d="M0.235616 0H0V1.72944H0.235616V0Z" transform="matrix(0.411622 -0.911396 0.930942 0.365271 0.955025 9.32178)" fill="#03385D"/>
</svg>
