<svg width="22" height="22" viewBox="0 0 22 22" fill="none" xmlns="http://www.w3.org/2000/svg">
<path d="M11 22C17.0751 22 22 17.0751 22 11C22 4.92487 17.0751 0 11 0C4.92487 0 0 4.92487 0 11C0 17.0751 4.92487 22 11 22Z" fill="#75CBC2"/>
<path d="M1.01783 0.0118037C1.01783 0.0118037 1.88664 -0.194354 2.97633 1.1604C4.0513 2.51515 3.74206 2.38262 4.71395 2.61823C5.68584 2.86856 6.39266 3.35451 6.17178 3.79627C5.96562 4.25277 5.71529 5.04795 5.50913 5.68115C5.30297 6.31435 4.7434 5.8284 4.43416 6.16709C4.12492 6.52051 3.84514 6.72666 3.3592 7.97834C2.87325 9.23001 2.726 9.81903 3.07941 10.2755C3.43282 10.732 3.18249 10.9676 2.82907 10.4522C2.47566 9.93684 1.78356 8.92077 1.85719 7.56602C1.93081 6.21127 1.44487 5.09213 0.811671 4.07606C0.178472 3.06 -0.263295 3.38396 0.178472 2.11756C0.634964 0.880613 0.266825 -0.120726 1.01783 0.0118037Z" transform="translate(3.17896 8.67627)" fill="#54B748"/>
<path d="M7.0217e-09 5.16868C0.161981 5.38956 0.294511 5.62517 0.294511 5.83133C0.309237 6.40562 0.368139 6.03748 0.942437 6.49398C1.51673 6.95047 2.16466 7.34806 2.20884 7.21553C2.20884 7.21553 1.76707 6.31727 1.64926 5.77242C1.53146 5.2423 1.59036 6.22892 1.08969 5.55154C0.589023 4.87416 0.780455 4.34404 1.45783 4.71218C2.13521 5.08032 2.22356 4.71218 2.62115 3.60776C3.01874 2.50335 3.69612 2.13521 4.00535 1.91432C4.31459 1.69344 4.34404 1.17805 4.59438 1.3253C4.84471 1.47256 5.33066 1.10442 5.33066 0.736278C5.33066 0.427041 4.6091 0.161981 3.62249 -1.12347e-07C1.9585 1.31058 0.677376 3.1071 7.0217e-09 5.16868Z" transform="translate(0.544846 2.40027)" fill="#54B846"/>
<path d="M3.28576 4.5502C3.28576 4.5502 2.18135 5.28648 1.16528 4.24096C0.149217 3.19545 0.031412 3.25435 0.00196088 2.7095C-0.0274903 2.17938 0.281748 1.3253 0.458454 1.07497C0.635161 0.824632 0.988575 0 1.50397 0C2.00464 0 3.56555 0.0883533 4.03677 0.559572C4.52271 1.04552 5.64186 1.01606 6.1278 1.07497C6.61374 1.13387 6.31923 2.25301 6.96716 3.07764C7.61508 3.90228 8.45444 3.8581 7.58563 4.80054C6.71682 5.72825 7.05551 5.62517 6.8199 6.92102C6.59902 8.21687 5.64186 9.40964 5.24426 9.51272C4.84667 9.63052 5.02338 9.11513 4.41963 8.02544C3.83061 6.92102 3.91896 6.81794 3.97786 5.84605C4.05149 4.88889 3.52137 4.4324 3.28576 4.5502Z" transform="translate(12.1761 5.96387)" fill="#54B748"/>
<path d="M7.27566 7.98126C7.54072 8.3494 7.43764 7.87818 7.6438 7.25971C7.84995 6.62651 7.29038 6.5676 6.98114 5.8755C6.67191 5.1834 7.61434 6.17001 8.26227 6.15529C8.3359 6.15529 8.38007 6.12584 8.42425 6.09639C8.08556 5.33066 7.67325 4.59438 7.1873 3.93173C7.23148 4.29987 7.21675 4.5502 6.92224 4.16734C6.64246 3.81392 6.58355 3.50469 6.56883 3.18072C5.83255 2.34137 4.97847 1.61981 4.02131 1.04552C3.97713 1.22222 3.87405 1.35475 3.66789 1.39893C3.00524 1.53146 2.696 1.73762 2.97579 1.31058C3.13777 1.06024 3.40283 0.942436 3.50591 0.751004C2.94634 0.456493 2.35732 0.206158 1.73884 -7.0217e-09C1.72412 0.161981 1.78302 0.338688 2.01863 0.441767C2.65183 0.736279 2.85799 1.17805 2.26896 1.35475C1.67994 1.51673 1.60631 0.618474 1.10564 0.39759C0.604973 0.191432 -0.352189 0.382865 0.133755 0.957162C0.619699 1.53146 1.35598 1.39893 1.42961 2.04685C1.48851 2.70951 0.604973 2.93039 0.428266 2.93039C0.266285 2.93039 0.281011 3.65194 0.281011 3.65194C0.281011 3.65194 1.00256 4.57965 1.40015 4.04953C1.79774 3.51941 1.60631 2.48862 3.13777 3.32798C4.65451 4.16734 5.33188 3.76975 5.65584 4.6091C5.97981 5.44846 5.83255 5.80187 6.30377 6.52343C6.31849 6.53815 7.0106 7.61312 7.27566 7.98126Z" transform="translate(12.6775 0.55957)" fill="#54B748"/>
<path d="M-2.24694e-07 0.89826C0.220883 0.986613 0.50067 1.06024 0.751004 1.00134C1.29585 0.854083 1.14859 1.34003 1.28112 1.59036C1.41365 1.8407 1.76707 1.54618 1.85542 1.11914C1.94378 0.692102 1.9585 0.589023 2.32664 0.279786C2.44444 0.161981 2.48862 0.0736278 2.50335 -3.51085e-09C1.61981 0.191432 0.795181 0.500669 -2.24694e-07 0.89826Z" transform="translate(6.05221 0.279785)" fill="#54B846"/>
<path d="M2.97348 2.24125C2.69369 2.03509 2.2961 1.78476 1.82488 1.53442C0.661563 0.915947 1.58927 0.533082 1.19168 0.194394C0.794094 -0.144294 -0.177794 -0.0117626 0.0283644 0.371102C0.234522 0.753967 0.30815 0.84232 0.30815 1.5786C0.30815 1.82893 0.381778 1.97619 0.470131 2.07927C1.10333 2.19707 1.75126 2.25597 2.42863 2.25597C2.60534 2.25597 2.78205 2.25597 2.97348 2.24125Z" transform="translate(8.58609 19.744)" fill="#54B748"/>
<path d="M5.89023 -2.24694e-07C5.1834 0.26506 4.04953 1.06024 3.3427 1.10442C2.26774 1.16332 2.07631 1.17805 1.08969 1.91432C0.103079 2.6506 0.839358 2.44445 0.294512 2.87149C0.176707 2.97457 0.0736281 3.06292 2.24694e-07 3.166C2.29719 2.75368 4.32932 1.60509 5.89023 -2.24694e-07Z" transform="translate(13.0174 18.6426)" fill="#54B748"/>
</svg>
