<svg class="road__map__item__span__imglast" width="43" height="22" viewBox="0 0 43 22" fill="none" xmlns="http://www.w3.org/2000/svg">
<path d="M5.98213 0.221433L1.74949 0L-5.74089e-07 1.97129L4.1715 3.92638L5.98213 0.221433Z" transform="translate(25.0328 6.37299)" fill="#FB1A00"/>
<path d="M3.64948 0L2.36558 4.63389L0.145792 5.83827L-1.14818e-06 0.664299L3.64948 0Z" transform="translate(30.5023 11.7737)" fill="#FB1A00"/>
<path d="M8.13608 2.6321L7.77395 0.968649L6.54178 0.00190416C6.54178 0.00190416 3.27795 -0.154719 1.6084 2.37286C1.6084 2.37286 2.76533 1.81657 3.18389 1.75177C3.18389 1.75177 0.59257 3.84188 -2.87044e-07 7.17957C2.92993 7.69805 5.54006 5.63494 5.54006 5.63494C5.34254 6.06161 4.4866 7.11476 4.4866 7.11476C7.12965 6.20203 8.13608 2.6321 8.13608 2.6321Z" transform="translate(22.0041 10.4865)" fill="#FF9850"/>
<path d="M6.07149 1.9618L5.80342 0.719616L4.88165 0.00130865C4.88165 0.00130865 2.44553 -0.112108 1.19925 1.77277C1.19925 1.77277 2.06459 1.35691 2.37498 1.3083C2.37498 1.3083 0.442075 2.86913 -5.74089e-07 5.36431C2.18687 5.75316 4.13388 4.21394 4.13388 4.21394C3.98809 4.53258 3.34849 5.3157 3.34849 5.3157C5.31902 4.6298 6.07149 1.9618 6.07149 1.9618Z" transform="translate(23.9276 10.7733)" fill="#FF5906"/>
<path d="M3.96457 1.2809L3.79057 0.470775L3.18859 0.000904694C3.18859 0.000904694 1.599 -0.0747069 0.785391 1.15668C0.785391 1.15668 1.34974 0.886637 1.55197 0.854232C1.55197 0.854232 0.28688 1.87498 5.74089e-07 3.50063C1.42969 3.75446 2.69948 2.74991 2.69948 2.74991C2.60072 2.96055 2.18687 3.47362 2.18687 3.47362C3.47547 3.01995 3.96457 1.2809 3.96457 1.2809Z" transform="translate(25.2868 11.546)" fill="#FF3E22"/>
<path d="M9.21499 9.36339C5.20809 12.5661 1.17768 13.8731 0.208871 12.2798C-0.0827115 11.7991 -0.0591962 11.1078 0.218277 10.2923C0.867282 8.40204 2.91776 5.83126 5.71601 3.59533C9.72291 0.392651 13.7533 -0.914344 14.7221 0.678893C15.6862 2.27213 13.2219 6.16071 9.21499 9.36339Z" transform="translate(28.069 0.374268)" fill="white"/>
<path d="M0.818943 4.60632C1.41622 5.59467 2.25334 6.26977 3.16571 6.59922C5.33846 4.17426 6.42955 1.82491 5.73351 0.674539C5.03748 -0.470431 2.73774 -0.108578 0.00533292 1.38745C-0.0416964 2.48381 0.22167 3.62338 0.818943 4.60632Z" transform="translate(37.0576 0.37323)" fill="#FB1A00"/>
<path d="M0.610483 4.32501C0.431771 4.46543 0.191921 4.41683 0.0696451 4.21159C-0.0526312 4.00636 -0.0103059 3.73092 0.168406 3.5905L4.56095 0.0799796C4.73496 -0.0604413 4.97951 -0.0118338 5.10179 0.193397C5.22406 0.393227 5.18174 0.674068 5.00303 0.814489L0.610483 4.32501Z" transform="translate(26.7597 9.59827)" fill="#FB1A00"/>
<path opacity="0.2" d="M17.5231 0.394259C17.5184 0.388858 17.509 0.383457 17.5043 0.378056C17.4808 0.356453 17.4573 0.340251 17.4338 0.324048C17.4291 0.318647 17.4197 0.313247 17.415 0.307846C17.3868 0.286243 17.3538 0.264639 17.3209 0.248437C17.3162 0.243036 17.3068 0.243036 17.3021 0.237635C17.2739 0.221433 17.2457 0.205231 17.2174 0.194429C17.208 0.189028 17.1986 0.183627 17.1939 0.183627C17.161 0.167425 17.1234 0.151223 17.0858 0.13502C17.0811 0.13502 17.0764 0.129619 17.0717 0.129619C17.0387 0.118818 17.0058 0.108016 16.9682 0.0972145C16.9588 0.0918137 16.9494 0.0918137 16.94 0.0864129C16.86 0.0648097 16.7754 0.0432064 16.686 0.0324048C16.6766 0.0324048 16.6672 0.027004 16.6531 0.027004C16.6108 0.0216032 16.5684 0.0162024 16.5308 0.0108016C16.5261 0.0108016 16.5214 0.0108016 16.5167 0.0108016C16.4697 0.00540079 16.4227 0.0054008 16.3709 0C16.3615 0 16.3521 0 16.3427 0C16.3004 0 16.258 0 16.211 0C16.2016 0 16.1969 0 16.1875 0C16.1358 0 16.084 -5.23109e-09 16.0276 0.0054008C16.0182 0.0054008 16.0135 0.0054008 16.0041 0.0054008C15.9571 0.0108016 15.91 0.0108016 15.8583 0.0162024C15.8489 0.0162024 15.8395 0.0162024 15.8301 0.0162024C15.7736 0.0216032 15.7172 0.027004 15.6561 0.0378056H15.6514C15.5949 0.0432064 15.5385 0.054008 15.4821 0.0648096C15.4727 0.0648096 15.4633 0.0702105 15.4538 0.0702105C15.3316 0.0918137 15.2093 0.113417 15.0823 0.145822C15.0729 0.145822 15.0635 0.151223 15.0541 0.151223C14.9271 0.183627 14.7954 0.216032 14.6591 0.253838C14.6496 0.253838 14.6449 0.259239 14.6355 0.259239C14.5697 0.280842 14.5086 0.297044 14.4427 0.318647C14.438 0.318647 14.4333 0.324048 14.4286 0.324048C14.3581 0.345651 14.2875 0.372655 14.2123 0.394259C14.2076 0.394259 14.2029 0.399659 14.1982 0.399659C14.1323 0.421263 14.0618 0.448267 13.9912 0.475271C13.9865 0.475271 13.9771 0.480672 13.9724 0.480672C13.8266 0.53468 13.6761 0.594088 13.5256 0.658898C13.5162 0.664299 13.5068 0.664299 13.5021 0.6697C13.3516 0.734509 13.1964 0.799319 13.0459 0.869529C13.0365 0.87493 13.0271 0.87493 13.0224 0.880331C12.8672 0.950541 12.7073 1.03155 12.5474 1.11257C12.5427 1.11797 12.5333 1.11797 12.5239 1.12337C12.4487 1.16117 12.3687 1.20438 12.2935 1.24218C12.2888 1.24218 12.2888 1.24759 12.2841 1.24759C12.1994 1.29079 12.1195 1.334 12.0348 1.38261H12.0301C10.9814 1.96049 9.86676 2.7004 8.75216 3.59153C7.694 4.43946 6.74401 5.33059 5.9351 6.21633L1.74949 5.99489L1.14818e-06 7.96619L3.5319 9.61883C3.45196 9.78626 3.38141 9.94828 3.32027 10.1103C3.27324 10.1103 3.21681 10.1157 3.15097 10.1157C3.17919 10.2345 3.18859 10.3695 3.17918 10.5316C3.10394 11.5793 1.89058 12.8107 2.17276 13.0213C2.31855 13.1348 2.58191 12.4759 3.12275 11.5199C3.61185 10.6558 4.3267 9.54862 5.38956 8.53867C7.63287 6.40535 8.77568 6.42156 11.8655 3.30529C13.7044 1.44742 16.0182 0.729109 17.589 0.448267C17.5608 0.432064 17.542 0.415862 17.5231 0.394259Z" transform="translate(25.0375 0.378052)" fill="black"/>
<path d="M0.398826 0C0.398826 0 -2.07492 14.2041 5.29929 19.7507C11.9728 24.7735 20.2546 19.8155 20.2546 19.8155C22.3851 18.3033 22.117 15.9324 18.7779 17.0557C14.1925 18.595 -0.809828 25.0759 0.398826 0Z" fill="#FFDC34"/>
</svg>
