<svg width="25" height="25" viewBox="0 0 25 25" fill="none" xmlns="http://www.w3.org/2000/svg">
<path class="anser-icon" d="M23 4H22V1C22 0.4 21.6 0 21 0H3C1.3 0 0 1.3 0 3V21C0 22.7 1.3 24 3 24H23C23.6 24 24 23.6 24 23V5C24 4.4 23.6 4 23 4ZM3 2H20V4H3C2.4 4 2 3.6 2 3C2 2.4 2.4 2 3 2ZM22 15H18.4L17.4 14L18.4 13H22V15ZM22 11H18C17.7 11 17.5 11.1 17.3 11.3L15.3 13.3C15.1 13.5 15 13.7 15 14C15 14.3 15.1 14.5 15.3 14.7L17.3 16.7C17.5 16.9 17.7 17 18 17H22V22H3C2.4 22 2 21.6 2 21V5.8C2.3 5.9 2.6 6 3 6H22V11Z" transform="translate(0.0187073 0.844208)" fill="#606060"/>
</svg>
