<svg width="25" height="24" viewBox="0 0 25 24" fill="none" xmlns="http://www.w3.org/2000/svg">
<path class="anser-icon" d="M2 16C1.4 16 1 16.4 1 17V23C1 23.6 1.4 24 2 24C2.6 24 3 23.6 3 23V17C3 16.4 2.6 16 2 16ZM2 8C2.6 8 3 7.6 3 7V1C3 0.4 2.6 0 2 0C1.4 0 1 0.4 1 1V7C1 7.6 1.4 8 2 8ZM22 12C22.6 12 23 11.6 23 11V1C23 0.4 22.6 0 22 0C21.4 0 21 0.4 21 1V11C21 11.6 21.4 12 22 12ZM12 2C12.6 2 13 1.6 13 1C13 0.4 12.6 0 12 0C11.4 0 11 0.4 11 1C11 1.6 11.4 2 12 2ZM2 10C0.9 10 0 10.9 0 12C0 13.1 0.9 14 2 14C3.1 14 4 13.1 4 12C4 10.9 3.1 10 2 10ZM22 20C21.4 20 21 20.4 21 21V23C21 23.6 21.4 24 22 24C22.6 24 23 23.6 23 23V21C23 20.4 22.6 20 22 20ZM12 10C11.4 10 11 10.4 11 11V23C11 23.6 11.4 24 12 24C12.6 24 13 23.6 13 23V11C13 10.4 12.6 10 12 10ZM22 14C20.9 14 20 14.9 20 16C20 17.1 20.9 18 22 18C23.1 18 24 17.1 24 16C24 14.9 23.1 14 22 14ZM12 4C10.9 4 10 4.9 10 6C10 7.1 10.9 8 12 8C13.1 8 14 7.1 14 6C14 4.9 13.1 4 12 4Z" transform="translate(0.0187073)" fill="#606060"/>
</svg>
