<svg width="24" height="23" viewBox="0 0 24 23" fill="none" xmlns="http://www.w3.org/2000/svg">
<path class="anser-icon" d="M21 7H19V8C19 10.8 21 15 21 18C21 18.5 21 19 21 19C21 19.6 20.6 20 20 20H4C3.4 20 3 19.6 3 19C3 19 3 18.5 3 18C3 14.9 5 10.9 5 8C5 7.8 5 7 5 7H3C3 7 3 7.8 3 8C3 10.1 1 14 1 18C1 18.6 1 19 1 19C1 20.7 2.3 22 4 22H20C21.7 22 23 20.7 23 19C23 19 23 18.4 23 18C23 14 21 10.1 21 8C21 7.8 21 7 21 7ZM21 4H16.8C16.9 3.7 17 3.4 17 3C17 1.3 15.7 0 14 0C12.3 0 11 1.3 11 3C11 3.4 11.1 3.7 11.2 4H10C9.4 4 9 3.6 9 3C9 2.4 9.4 2 10 2V0C8.3 0 7 1.3 7 3C7 3.4 7.1 3.7 7.2 4H3C1.3 4 0 5.3 0 7C0 7.6 0.4 8 1 8C1.6 8 2 7.6 2 7C2 6.4 2.4 6 3 6H21C21.6 6 22 6.4 22 7C22 7.6 22.4 8 23 8C23.6 8 24 7.6 24 7C24 5.3 22.7 4 21 4ZM14 4C13.4 4 13 3.6 13 3C13 2.4 13.4 2 14 2C14.6 2 15 2.4 15 3C15 3.6 14.6 4 14 4Z" transform="translate(0 0.844208)" fill="#606060"/>
</svg>
