<svg width="24" height="24" viewBox="0 0 24 24" fill="none" xmlns="http://www.w3.org/2000/svg">
<path class="anser-icon" d="M9 11C8.4 11 8 11.4 8 12V23C8 23.6 8.4 24 9 24C9.6 24 10 23.6 10 23V12C10 11.4 9.6 11 9 11ZM5 13C4.4 13 4 13.4 4 14V23C4 23.6 4.4 24 5 24C5.6 24 6 23.6 6 23V14C6 13.4 5.6 13 5 13ZM1 16C0.4 16 0 16.4 0 17V23C0 23.6 0.4 24 1 24C1.6 24 2 23.6 2 23V17C2 16.4 1.6 16 1 16ZM17 11C16.4 11 16 11.4 16 12V23C16 23.6 16.4 24 17 24C17.6 24 18 23.6 18 23V12C18 11.4 17.6 11 17 11ZM23 0H19C18.4 0 18 0.4 18 1C18 1.6 18.4 2 19 2H20.6L13 9.6L8.7 5.3C8.5 5.1 8.3 5 8 5C7.7 5 7.5 5.1 7.3 5.3L0.3 12.3C0.1 12.5 0 12.7 0 13C0 13.6 0.4 14 1 14C1.3 14 1.5 13.9 1.7 13.7L8 7.4L12.3 11.7C12.5 11.9 12.7 12 13 12C13.2 12 13.4 11.9 13.6 11.8L13.7 11.7L22 3.4V5C22 5.6 22.4 6 23 6C23.6 6 24 5.6 24 5V1C24 0.4 23.6 0 23 0ZM21 7C20.4 7 20 7.4 20 8V23C20 23.6 20.4 24 21 24C21.6 24 22 23.6 22 23V8C22 7.4 21.6 7 21 7ZM13 14C12.4 14 12 14.4 12 15V23C12 23.6 12.4 24 13 24C13.6 24 14 23.6 14 23V15C14 14.4 13.6 14 13 14Z" fill="#606060"/>
</svg>
