<svg width="24" height="24" viewBox="0 0 24 24" fill="none" xmlns="http://www.w3.org/2000/svg">
<path class="anser-icon" d="M21 5V1C21 0.4 20.6 0 20 0C19.9 0 19.8 0 19.7 0.1L8.8 4H1C0.4 4 0 4.4 0 5V11C0 11.6 0.4 12 1 12H2.2L5 23.2C5.2 23.7 5.5 24 6 24H12C12.6 24 13 23.6 13 23C13 22.9 13 22.8 13 22.8L10.5 12.6L19.7 16C19.8 16 19.9 16.1 20 16.1C20.6 16.1 21 15.7 21 15.1V11.1C22.7 11.1 24 9.8 24 8.1C24 6.4 22.7 5 21 5ZM2 10V6H8V10H2ZM10.7 22H6.8L4.3 12H8.2L10.7 22ZM19 13.6L10 10.3V5.7L19 2.4V13.6ZM21 9V7C21.6 7 22 7.4 22 8C22 8.6 21.6 9 21 9Z" fill="#606060"/>
</svg>
