<svg width="30" height="20" viewBox="0 0 30 20" fill="none" xmlns="http://www.w3.org/2000/svg">
<path class="anser-icon" d="M29.75 18L26.25 13.375V1.25C26.25 0.5 25.75 0 25 0H5C4.25 0 3.75 0.5 3.75 1.25V13.375L0.25 18C0.125 18.25 0 18.5 0 18.75C0 19.5 0.5 20 1.25 20H28.75C29.5 20 30 19.5 30 18.75C30 18.5 29.875 18.25 29.75 18ZM6.25 2.5H23.75V12.5H6.25V2.5ZM3.75 17.5L5.625 15H24.375L26.25 17.5H3.75ZM18.75 6.25C18.75 5.75 18.375 5.25 17.875 5.125L14.125 3.875C14 3.75 13.875 3.75 13.75 3.75C13 3.75 12.5 4.25 12.5 5V8.75C12.5 9.5 13 10 13.75 10C14.5 10 15 9.5 15 8.75L16.5 10.75C16.75 11 17.125 11.25 17.5 11.25C18.25 11.25 18.75 10.75 18.75 10C18.75 9.75 18.625 9.5 18.5 9.25L17.125 7.375C17.25 7.5 17.375 7.5 17.5 7.5C18.25 7.5 18.75 7 18.75 6.25Z" fill="#606060"/>
</svg>
