<svg width="44" height="62" viewBox="0 0 44 62" fill="none" xmlns="http://www.w3.org/2000/svg">
<path d="M16.2869 4.90565C16.3434 3.64706 15.5517 2.38847 13.9117 1.41592C10.7448 -0.471973 5.59861 -0.471973 2.43172 1.41592C0.848275 2.33126 0.0565516 3.53264 0.0565516 4.79123L0 22.2399C0 23.4413 0.791723 24.6999 2.37517 25.6152C5.54206 27.5031 10.6883 27.5031 13.8552 25.6152C15.4386 24.6999 16.2303 23.4985 16.2303 22.2971L16.2869 4.84844C16.3434 4.84844 16.2869 4.84844 16.2869 4.90565Z" transform="translate(0 18.7788)" fill="#818181"/>
<path d="M13.8271 1.41592C16.994 3.30381 17.0505 6.27866 13.8836 8.16655C10.7167 10.0544 5.57053 10.0544 2.40363 8.16655C-0.763258 6.27866 -0.819809 3.30381 2.34708 1.41592C5.51397 -0.471973 10.6602 -0.471973 13.8271 1.41592Z" transform="translate(0.0846558 18.7788)" fill="#898989"/>
<path d="M16.2869 4.90565C16.3434 3.64706 15.5517 2.38847 13.9117 1.41592C10.7448 -0.471973 5.59861 -0.471973 2.43172 1.41592C0.848274 2.33126 0.0565519 3.53264 0.0565519 4.79123L0 39.7458C0 40.9472 0.791723 42.2058 2.37517 43.1211C5.54206 45.009 10.6883 45.009 13.8552 43.1211C15.4386 42.2058 16.2303 41.0044 16.2303 39.803L16.2869 4.84844C16.2869 4.84844 16.2869 4.90565 16.2869 4.90565Z" transform="translate(13.8552 9.33936)" fill="#A1A1A1"/>
<path d="M13.8271 1.37301C16.994 3.2609 17.0505 6.23576 13.8836 8.12365C10.7167 10.0115 5.57053 10.0115 2.40363 8.12365C-0.763258 6.23576 -0.81981 3.2609 2.34708 1.37301C5.45742 -0.457671 10.6036 -0.457671 13.8271 1.37301Z" transform="translate(13.9398 9.38226)" fill="#ABABAB"/>
<path d="M16.3434 4.90565C16.4 3.64706 15.6083 2.38847 13.9683 1.41592C10.8014 -0.471972 5.65516 -0.471972 2.48827 1.41592C0.848274 2.33126 0.0565516 3.53264 0.0565516 4.73403C0.0565516 7.53726 0.0565516 10.3405 0.0565516 13.2009C0.0565516 27.8464 0.0565525 42.4918 8.62909e-07 57.1945C8.62909e-07 58.3958 0.791722 59.6544 2.37517 60.5698C5.54206 62.4577 10.6883 62.4577 13.8552 60.5698C15.4386 59.6544 16.2303 58.4531 16.2303 57.2517C16.2303 42.6062 16.2303 27.9608 16.2869 13.2581C16.2869 10.4549 16.2869 7.65167 16.2869 4.79123C16.3434 4.79123 16.3434 4.84844 16.3434 4.90565Z" transform="translate(27.6537 0.0143433)" fill="#737373"/>
<path d="M13.8271 1.37301C16.994 3.2609 17.0505 6.23576 13.8836 8.12364C10.7167 10.0115 5.57053 10.0115 2.40363 8.12364C-0.763258 6.23576 -0.819809 3.2609 2.34708 1.37301C5.51397 -0.45767 10.6602 -0.45767 13.8271 1.37301Z" transform="translate(27.7384)" fill="#7B7B7B"/>
</svg>
