<svg width="27" height="30" viewBox="0 0 27 30" fill="none" xmlns="http://www.w3.org/2000/svg">
<path class="network-icon" d="M21.0905 7.51747C20.8508 4.2643 17.7352 1.75847 14.1882 1.75847H13.565C12.894 1.75847 12.4626 1.36282 12.4626 0.879236C12.4626 0.395656 12.0312 0 11.5039 0H10.5453C10.018 0 9.5866 0.395656 9.5866 0.879236C9.5866 1.36282 9.1552 1.75847 8.62794 1.75847H7.66928C7.14202 1.75847 6.71062 1.36282 6.71062 0.879236C6.71062 0.395656 6.27922 0 5.75196 0H4.7933C4.26604 0 3.83464 0.395656 3.83464 0.879236C3.83464 1.36282 3.40324 1.75847 2.87598 1.75847H0.95866C0.431397 1.75847 0 2.15413 0 2.63771V4.39618C0 4.87976 0.431397 5.27542 0.95866 5.27542C1.48592 5.27542 1.91732 5.67107 1.91732 6.15465V18.464C1.91732 18.9475 1.48592 19.3432 0.95866 19.3432C0.431397 19.3432 0 19.7389 0 20.2224V21.9809C0 22.4645 0.431397 22.8601 0.95866 22.8601H2.87598C3.40324 22.8601 3.83464 23.2558 3.83464 23.7394C3.83464 24.223 4.26604 24.6186 4.7933 24.6186H5.75196C6.27922 24.6186 6.71062 24.223 6.71062 23.7394C6.71062 23.2558 7.14202 22.8601 7.66928 22.8601H8.62794C9.1552 22.8601 9.5866 23.2558 9.5866 23.7394C9.5866 24.223 10.018 24.6186 10.5453 24.6186H11.5039C12.0312 24.6186 12.4626 24.223 12.4626 23.7394C12.4626 23.2558 12.894 22.8601 13.4212 22.8601H14.1882C17.7831 22.8601 20.8988 20.3543 21.0905 17.1011C21.1864 15.5185 20.6591 14.0678 19.7005 12.9248C19.3649 12.5731 19.3649 12.0455 19.7005 11.6938C20.6591 10.5508 21.1864 9.10009 21.0905 7.51747ZM17.2559 17.0572C17.0641 18.376 15.77 19.3432 14.284 19.3432H7.62134C7.14202 19.3432 6.71062 18.9915 6.71062 18.5079V14.9031C6.71062 14.4634 7.09408 14.0678 7.62134 14.0678H14.3799C16.1055 14.0678 17.4476 15.4306 17.2559 17.0572ZM17.2559 8.26482C17.0641 9.58367 15.77 10.5508 14.284 10.5508H7.62134C7.14202 10.5508 6.71062 10.1991 6.71062 9.71556V6.11069C6.71062 5.67107 7.09408 5.27542 7.62134 5.27542H14.3799C16.1055 5.27542 17.4476 6.63823 17.2559 8.26482Z" transform="translate(0 5.46149) rotate(-15)" fill="#DEDEDE"/>
</svg>
