<svg width="58" height="40" viewBox="0 0 58 40" fill="none" xmlns="http://www.w3.org/2000/svg">
<path class="new-icon" d="M39.0044 40H13.8035C6.20524 40 0 33.8365 0 26.2893C0 26.0377 0 25.7862 0 25.5346C0 25.4088 0 25.283 0 25.0314C0 16.7296 6.83843 10.0629 15.0699 10.0629C16.7162 10.0629 18.3624 10.3145 19.8821 10.9434C23.4279 4.27673 30.2664 0 37.8646 0C49.0087 0 58 8.93082 58 20C58 28.4277 52.6812 35.9748 44.5764 38.8679C42.9301 39.6226 41.0306 40 39.0044 40ZM15.0699 14.9686C9.49782 14.9686 4.93886 19.4969 4.93886 25.0314C4.93886 25.1572 4.93886 25.4088 4.93886 25.5346V25.6604V25.7862C4.93886 25.9119 4.93886 26.1635 4.93886 26.2893C4.93886 31.0692 8.86463 35.0943 13.8035 35.0943H39.0044C40.2707 35.0943 41.4105 34.8428 42.6769 34.3396C49.8952 31.6981 54.2009 24.4025 52.5546 16.9811C51.4148 11.6981 47.4891 7.42138 42.2969 5.91195C34.3188 3.39623 26.214 7.79874 23.5546 15.2201C23.048 16.7296 21.2751 17.3585 20.0087 16.6038C18.4891 15.4717 16.8428 14.9686 15.0699 14.9686Z" fill="#656D79"/>
</svg>
