<svg width="70" height="53" viewBox="0 0 70 53" fill="none" xmlns="http://www.w3.org/2000/svg">
<path d="M9.37416 -3.61034e-07V1.79821L2.87514e-06 7.2875V5.48929L9.37416 -3.61034e-07Z" transform="translate(60.5787 14.3384)" fill="#8F8F8F"/>
<path d="M9.37416 -3.61034e-07L9.42127 10.9313L2.87514e-06 5.48929L9.37416 -3.61034e-07Z" transform="translate(60.5787 14.3384)" fill="#AEAEAE"/>
<path d="M9.42127 5.44197V12.3509L2.87514e-06 1.79821V7.22068e-07L9.42127 5.44197Z" transform="translate(60.5787 19.8277)" fill="#727272"/>
<path d="M60.5787 19.8277L69.9529 14.3384L45.2692 0L0 26.4054L34.1521 46.233L70 25.317L60.5787 19.8277Z" fill="#F7F7F7"/>
<path d="M35.8479 7.22068e-07V6.90893L0 27.7304V20.9634L35.8479 7.22068e-07Z" transform="translate(34.1521 25.2696)" fill="#B6B6B6"/>
<path d="M34.1521 19.8277V26.5946L0 7.57143V-3.61034e-07L34.1521 19.8277Z" transform="translate(0 26.4054)" fill="#B6B6B6"/>
</svg>
