<svg width="13" height="24" viewBox="0 0 13 24" fill="none" xmlns="http://www.w3.org/2000/svg">
<path class="network-icon" d="M0.982015 13.6774H2.57194C2.71223 13.6774 2.85252 13.8065 2.85252 13.9355V23.1398C2.85252 23.6129 3.27338 24 3.78777 24H7.43525C7.94964 24 8.3705 23.6129 8.3705 23.1398V13.9355C8.3705 13.8065 8.51079 13.6774 8.65108 13.6774H11.2698C11.7374 13.6774 12.1583 13.3763 12.205 12.9462L12.813 9.5914C12.9065 9.07527 12.4389 8.55914 11.8777 8.55914H8.79137C8.55755 8.55914 8.3705 8.3871 8.3705 8.17204V6.02151C8.3705 5.46237 8.69784 5.16129 9.30576 5.16129H12.0647C12.5791 5.16129 13 4.77419 13 4.30108V0.860215C13 0.387097 12.5791 -8.20365e-08 12.0647 -8.20365e-08H8.7446C2.66547 -8.20365e-08 2.80576 4.51613 2.80576 5.16129V8.30108C2.80576 8.43011 2.66547 8.55914 2.52518 8.55914H0.935252C0.420863 8.55914 0 8.94624 0 9.41935V12.7742C0.0467626 13.2903 0.467626 13.6774 0.982015 13.6774Z" fill="#DEDEDE"/>
</svg>
