<svg width="35" height="41" viewBox="0 0 35 41" fill="none" xmlns="http://www.w3.org/2000/svg">
<path d="M32.9323 19.3909C32.9656 19.357 32.9988 19.3231 33.032 19.2893C33.0653 19.2554 33.0985 19.2215 33.1317 19.1876C33.165 19.1538 33.1982 19.1199 33.2314 19.086C33.2647 19.0522 33.2979 19.0183 33.3311 18.9844C33.3643 18.9506 33.3976 18.9167 33.4308 18.8489C33.464 18.8151 33.4973 18.7812 33.5305 18.7473C33.5637 18.7135 33.597 18.6796 33.6302 18.6119C33.6634 18.578 33.6967 18.5441 33.6967 18.5102C33.7299 18.4764 33.7631 18.4425 33.7631 18.3748C33.7963 18.3409 33.7963 18.307 33.8296 18.2732C33.8628 18.2393 33.896 18.2054 33.896 18.1377C33.9293 18.1038 33.9293 18.0699 33.9625 18.0361C33.9957 18.0022 33.9957 17.9683 34.029 17.9006C34.0622 17.8667 34.0622 17.8328 34.0954 17.799C34.1287 17.7651 34.1287 17.7312 34.1619 17.6635C34.1951 17.6296 34.1951 17.5957 34.2284 17.5619C34.2616 17.528 34.2616 17.4941 34.2948 17.4264C34.328 17.3925 34.328 17.3587 34.3613 17.3248C34.3945 17.2909 34.3945 17.257 34.4277 17.1893C34.461 17.1554 34.461 17.1216 34.461 17.0538C34.4942 17.02 34.4942 16.9861 34.5274 16.9183C34.5274 16.8845 34.5607 16.8506 34.5607 16.7829C34.5607 16.749 34.5939 16.7151 34.5939 16.6474C34.5939 16.6135 34.6271 16.5796 34.6271 16.5119C34.6271 16.478 34.6604 16.4442 34.6604 16.3764C34.6604 16.3426 34.6936 16.3087 34.6936 16.2409C34.6936 16.2071 34.7268 16.1732 34.7268 16.1055C34.7268 16.0716 34.76 16.0377 34.76 15.97C34.76 15.9361 34.7933 15.9022 34.7933 15.8345C34.7933 15.8006 34.8265 15.7668 34.8265 15.699C34.8265 15.6652 34.8265 15.5974 34.8597 15.5635C34.8597 15.5297 34.8597 15.4958 34.893 15.4281C34.893 15.3942 34.893 15.3264 34.9262 15.2926C34.9262 15.2587 34.9262 15.2248 34.9262 15.1571C34.9262 15.1232 34.9262 15.0555 34.9262 15.0216C34.9262 14.9877 34.9262 14.9539 34.9262 14.8861C34.9262 14.8523 34.9262 14.7845 34.9262 14.7507C34.9262 14.7168 34.9262 14.6829 34.9262 14.6152C34.9262 14.5813 34.9262 14.5136 34.9262 14.4797C34.9262 14.4458 34.9262 14.4458 34.9262 14.412V10.1782C34.9262 10.2121 34.9262 10.2121 34.9262 10.2459C34.9594 7.63793 33.3311 4.99606 29.9748 2.96385C23.2621 -0.931209 12.1962 -1.03282 5.28418 2.92998C1.72847 4.96219 -0.0327694 7.6718 0.000461542 10.3814C0.000461542 10.3475 0.000461542 10.3475 0.000461542 10.3137V14.5474C0.000461542 14.5813 0.000461542 14.5813 0.000461542 14.6152C0.000461542 14.649 0.000461542 14.6829 0.000461542 14.7507C0.000461542 14.7845 0.000461542 14.8184 0.000461542 14.8861C0.000461542 14.92 0.000461542 14.9539 0.000461542 15.0216C0.000461542 15.0555 0.000461542 15.0894 0.000461542 15.1571C0.000461542 15.191 0.000461542 15.2248 0.000461542 15.2926C0.000461542 15.3264 0.000461542 15.3603 0.000461542 15.4281C0.000461542 15.4619 0.000461542 15.4958 0.000461542 15.5635C0.000461542 15.5974 0.000461542 15.6313 0.0336925 15.699C0.0336925 15.7329 0.0336925 15.7668 0.0669235 15.8345C0.0669235 15.8684 0.0669235 15.9022 0.100154 15.97C0.100154 16.0039 0.133385 16.0377 0.133385 16.1055C0.133385 16.1393 0.166616 16.1732 0.166616 16.2409C0.166616 16.2748 0.199847 16.3087 0.199847 16.3764C0.199847 16.4103 0.233078 16.4442 0.233078 16.5119C0.233078 16.5458 0.266309 16.5796 0.266309 16.6474C0.266309 16.6813 0.29954 16.7151 0.29954 16.7829C0.29954 16.8167 0.332771 16.8506 0.332771 16.8845C0.332771 16.9183 0.366002 16.9522 0.366002 17.02C0.366002 17.0538 0.399233 17.0877 0.399233 17.1216C0.399233 17.1554 0.432464 17.1893 0.465695 17.257C0.465695 17.2909 0.498926 17.3248 0.498926 17.3587C0.532157 17.3925 0.532157 17.4264 0.565388 17.4941C0.598619 17.2909 0.63185 17.3248 0.63185 17.3587C0.665081 17.3925 0.665081 17.4264 0.698312 17.4941C0.731543 17.528 0.731543 17.5619 0.764774 17.5957C0.798005 17.6296 0.798005 17.6635 0.831236 17.7312C0.864466 17.7651 0.864466 17.799 0.897697 17.8328C0.897697 17.8667 0.930928 17.9344 0.964159 17.9683C0.99739 18.0022 0.99739 18.0361 1.03062 18.0699C1.06385 18.1038 1.09708 18.1377 1.09708 18.2054C1.13031 18.2393 1.13031 18.2732 1.16355 18.307C1.19678 18.3409 1.23001 18.3748 1.23001 18.4425C1.29647 18.4764 1.29647 18.5102 1.3297 18.5441C1.36293 18.578 1.39616 18.6119 1.42939 18.6796C1.46262 18.7135 1.49585 18.7473 1.49585 18.7812C1.52909 18.8151 1.56232 18.8489 1.59555 18.8828C1.62878 18.9167 1.66201 18.9506 1.69524 18.9844C1.72847 19.0183 1.7617 19.0522 1.79493 19.086C1.82816 19.1199 1.8614 19.1538 1.89463 19.1876C1.92786 19.2215 1.96109 19.2554 1.99432 19.2893C2.02755 19.3231 2.06078 19.357 2.09401 19.3909C2.12724 19.4247 2.16047 19.4586 2.1937 19.4925C2.22694 19.5941 2.26017 19.628 2.2934 19.6618C2.32663 19.6957 2.35986 19.7296 2.39309 19.7634C2.42632 19.7973 2.45955 19.8312 2.49278 19.865C2.52601 19.9328 2.59248 19.9667 2.62571 20.0005C2.65894 20.0344 2.69217 20.0683 2.7254 20.1021C2.75863 20.136 2.82509 20.1699 2.85832 20.2037C2.89156 20.2376 2.92479 20.2715 2.95802 20.3054C2.99125 20.3392 3.05771 20.3731 3.09094 20.407C3.12417 20.4408 3.1574 20.4747 3.19063 20.5086C3.22386 20.5424 3.29033 20.5763 3.32356 20.6102C3.35679 20.6441 3.39002 20.6779 3.45648 20.7118C3.48971 20.7457 3.55617 20.7795 3.58941 20.8134C3.62264 20.8473 3.65587 20.8811 3.72233 20.915C3.78879 20.9489 3.82202 20.9828 3.88848 21.0166C3.92172 21.0505 3.95495 21.0844 4.02141 21.1182C4.08787 21.1521 4.1211 21.186 4.18756 21.2537C4.22079 21.2876 4.25402 21.3215 4.28726 21.3215C4.35372 21.3553 4.42018 21.4231 4.48664 21.4569C4.51987 21.4908 4.5531 21.4908 4.58633 21.5247C4.68603 21.5924 4.78572 21.6602 4.88541 21.7279C5.05157 21.8295 5.25095 21.9311 5.45034 22.0666C5.48357 22.0666 5.48357 22.1005 5.5168 22.1005C5.68296 22.2021 5.88234 22.3037 6.0485 22.4053L6.08173 22.4392C6.34757 22.5747 6.74635 22.7779 7.01219 22.9134C7.14512 22.9811 7.3445 23.0827 7.47743 23.1504C7.74328 23.2859 8.14205 23.4891 8.40789 23.6246C8.67374 23.7601 9.07251 23.9633 9.33836 24.0988C9.47129 24.1665 9.67067 24.2682 9.80359 24.3359C10.0694 24.4714 10.4682 24.6746 10.7341 24.8101C10.9999 24.9456 11.3987 25.1488 11.6645 25.2843C11.7975 25.352 11.9968 25.4536 12.1298 25.5214C12.3956 25.6568 12.7944 25.8601 13.0602 25.9955C13.3261 26.131 13.7248 26.3342 13.9907 26.4697C14.0904 26.5036 14.1901 26.5713 14.2898 26.6052L14.2565 39.1371C14.2565 39.6113 14.5556 40.0516 15.1538 40.4242C15.7852 40.7968 16.6492 41 17.4799 41C17.5796 41 17.6793 41 17.779 41C17.8787 41 17.9784 41 18.0449 40.9661C18.1446 40.9661 18.211 40.9323 18.3107 40.9323H18.344C18.4104 40.9323 18.5101 40.8984 18.5766 40.8984C18.6098 40.8984 18.6098 40.8984 18.643 40.8984C18.7095 40.8645 18.776 40.8645 18.8424 40.8306C18.8756 40.8306 18.9089 40.7968 18.9421 40.7968C19.0086 40.7629 19.0418 40.7629 19.1083 40.729C19.1415 40.6952 19.208 40.6952 19.2412 40.6613C19.2744 40.6613 19.3076 40.6274 19.3409 40.6274C19.4073 40.5936 19.507 40.5597 19.5735 40.4919C19.7729 40.3903 19.939 40.2549 20.072 40.1194C20.1384 40.0516 20.2381 39.95 20.2713 39.8823C20.3046 39.8145 20.3378 39.7807 20.371 39.7129C20.4707 39.5436 20.504 39.3742 20.504 39.171L20.5372 26.6391C23.2621 25.2843 26.0203 23.9295 28.7452 22.5408C28.7785 22.5408 28.7785 22.5069 28.8117 22.5069C28.9114 22.4392 29.0111 22.4053 29.1108 22.3376C29.144 22.3037 29.1772 22.3037 29.2437 22.2698C29.3766 22.2021 29.5096 22.1343 29.6425 22.0666C29.7422 21.9989 29.8751 21.9311 29.9748 21.8634C30.008 21.8295 30.0412 21.8295 30.0745 21.7956C30.1409 21.7618 30.2074 21.694 30.2739 21.6602C30.3071 21.6263 30.3403 21.5924 30.4068 21.5924C30.4733 21.5586 30.5397 21.5247 30.5729 21.4569C30.6062 21.4231 30.6394 21.3892 30.7059 21.3892C30.7723 21.3553 30.8056 21.3215 30.872 21.2876C30.9053 21.2537 30.9717 21.2199 31.0049 21.186C31.0714 21.1521 31.1046 21.1182 31.1711 21.0844C31.2043 21.0505 31.2708 21.0166 31.304 20.9828C31.3373 20.9489 31.4037 20.915 31.4369 20.8811C31.4702 20.8473 31.5034 20.8134 31.5699 20.7795C31.6031 20.7457 31.6696 20.7118 31.7028 20.6779C31.736 20.6441 31.7693 20.6102 31.8357 20.5763C31.869 20.5424 31.9354 20.5086 31.9686 20.4747C32.0019 20.4408 32.0351 20.407 32.0683 20.3731C32.1016 20.3392 32.168 20.3054 32.2013 20.2715C32.2345 20.2376 32.2677 20.2037 32.301 20.1699C32.3342 20.136 32.3674 20.1021 32.4339 20.0683C32.4671 20.0344 32.5003 20.0005 32.5336 19.9667C32.5668 19.9328 32.6 19.8989 32.6333 19.865C32.6665 19.8312 32.6997 19.7973 32.733 19.7634C32.7662 19.7296 32.7994 19.6957 32.8327 19.6618C32.8659 19.4586 32.8991 19.4247 32.9323 19.3909Z" transform="translate(0.0386353)" fill="#A0A0A0"/>
<path d="M0 14.1238L0.0332305 -5.16817e-07C0.0332305 0.474181 0.332309 0.914494 0.930467 1.28707C2.12678 2.03221 4.12064 2.03221 5.35018 1.32093C5.98157 0.948363 6.28065 0.474181 6.31388 -5.16817e-07L6.28065 14.1238C6.28065 14.598 5.94834 15.0722 5.31695 15.4448C4.08741 16.156 2.09355 16.1222 0.897236 15.4109C0.299079 15.0722 0 14.598 0 14.1238Z" transform="translate(14.2952 24.9456)" fill="#A0A0A0"/>
<path d="M2.12678 1.32093C1.52862 1.65964 0.764312 1.82899 2.53532e-07 1.82899V15.9528C0.764312 15.9528 1.49539 15.7835 2.09355 15.4448C2.72494 15.0722 3.02402 14.598 3.05725 14.1238L3.09048 -1.03363e-06C3.05725 0.474181 2.75817 0.982233 2.12678 1.32093Z" transform="translate(17.5186 24.9794)" fill="#8E8E8E"/>
<path d="M14.1896 22.8727C14.2561 22.8389 14.2893 22.805 14.3558 22.7711C15.5853 22.0598 15.6186 20.9083 14.4222 20.1631C13.2259 19.418 11.2321 19.418 10.0025 20.1292L-1.26766e-07 2.88935C6.94527 -1.07346 18.0112 -0.937975 24.7238 3.16031C31.4697 7.25859 31.3036 13.7955 24.3583 17.7583C24.0592 17.9277 23.7601 18.097 23.4611 18.2325C20.4038 19.7567 17.2801 21.3147 14.1896 22.8727Z" transform="translate(5.28955 4.24054)" fill="#8E8E8E"/>
<path d="M6.15359 15.2754C5.75482 15.0722 5.32281 14.8351 4.95727 14.598C-1.78861 10.4997 -1.62246 3.9628 5.28958 0L15.2589 17.2399C14.0293 17.9512 13.9961 19.1027 15.1924 19.8479C15.2589 19.8818 15.3253 19.9156 15.3918 19.9834C15.1259 19.8479 14.7272 19.6447 14.4613 19.5092C14.3284 19.4414 14.129 19.3398 13.9961 19.2721C13.7302 19.1366 13.3315 18.9334 13.0656 18.7979C12.7998 18.6624 12.401 18.4592 12.1352 18.3237C12.0022 18.256 11.8028 18.1544 11.6699 18.0866C11.4041 17.9512 11.0053 17.7479 10.7395 17.6125C10.4736 17.477 10.0748 17.2738 9.80899 17.1383C9.67607 17.0705 9.47668 16.9689 9.34376 16.9012C9.07791 16.7657 8.67914 16.5625 8.41329 16.427C8.14744 16.2915 7.74867 16.0883 7.48283 15.9528C7.3499 15.8851 7.15052 15.7835 7.01759 15.7157C6.81821 15.6141 6.41943 15.4109 6.15359 15.2754Z" transform="translate(0 7.12988)" fill="#A0A0A0"/>
<path d="M10.2934 1.04166C12.6528 2.43034 12.686 4.69963 10.3266 6.08831C7.96721 7.47698 4.14565 7.47698 1.78625 6.08831C-0.573146 4.69963 -0.606377 2.43034 1.75302 1.04166C4.14565 -0.380884 7.96721 -0.313144 10.2934 1.04166Z" transform="translate(11.4788 17.367)" fill="#787878"/>
<path d="M27.7479 2.91427C21.5337 -0.87918 11.2985 -0.98079 4.91818 2.67718C1.66155 4.54004 0.033231 7.01256 0 9.48508V13.2447C0 10.7721 1.62832 8.29962 4.88495 6.43677C11.2985 2.77879 21.5337 2.8804 27.7479 6.67386C30.8051 8.53671 32.3337 10.9415 32.3337 13.3463V9.58669C32.3337 7.18191 30.8051 4.77713 27.7479 2.91427Z" transform="translate(1.33508 0.794739)" fill="#8E8E8E"/>
<path d="M1.26766e-07 5.16817e-07C5.98157 3.01444 14.8542 3.08218 20.9023 0.0677397C17.8118 1.62577 14.6881 3.14992 11.5976 4.70795C10.933 5.04665 9.93606 5.04665 9.27144 4.70795C6.18096 3.11605 3.09048 1.55803 1.26766e-07 5.16817e-07Z" transform="translate(7.01758 21.3215)" fill="#A7A7A7"/>
<path d="M9.30467 4.74182C9.03882 4.60634 8.64005 4.40312 8.3742 4.26764C8.24128 4.1999 8.04189 4.09829 7.90897 4.03055C7.64312 3.89507 7.24435 3.69184 6.9785 3.55636C6.71266 3.42088 6.31388 3.21766 6.04803 3.08218C5.91511 3.01444 5.71573 2.91283 5.5828 2.84509C5.31695 2.70961 4.91818 2.50639 4.65234 2.37091C4.38649 2.23543 3.98772 2.03221 3.72187 1.89673C3.58894 1.82899 3.38956 1.72738 3.25663 1.65964C2.99079 1.52416 2.59201 1.32094 2.32617 1.18545C2.06032 1.04997 1.66155 0.846753 1.3957 0.711273C1.26278 0.643532 1.06339 0.541923 0.930467 0.474183C0.664619 0.338702 0.265848 0.135481 -1.26766e-07 5.16817e-07C6.48004 3.2854 16.0838 3.31927 22.6303 0.0677397C19.5398 1.62577 16.4161 3.14992 13.3256 4.70795C12.1958 5.35148 10.4678 5.35148 9.30467 4.74182Z" transform="translate(6.12036 22.3376)" fill="#8E8E8E"/>
<path d="M0 4.23376V-2.58409e-07C0 2.608 1.66155 5.216 4.95141 7.21434C11.6973 11.3126 22.7632 11.4142 29.6752 7.4853C33.1977 5.48696 34.959 2.81122 34.959 0.10161V4.33538C34.959 7.01111 33.1645 9.68686 29.6752 11.7191C22.7632 15.6819 11.6973 15.5803 4.95141 11.4481C1.62832 9.44976 0 6.84176 0 4.23376Z" transform="translate(0.00585938 10.2798)" fill="#A0A0A0"/>
<path d="M6.23666 3.44762C-0.176911 7.10559 -0.309835 13.1345 5.90435 16.9279C12.1185 20.7214 22.3537 20.823 28.734 17.165C35.1476 13.507 35.2805 7.47816 29.0663 3.68471C22.8521 -0.108744 12.617 -0.210354 6.23666 3.44762ZM5.3062 2.9057C12.2182 -1.05711 23.2841 -0.955497 30.03 3.14279C36.7759 7.24107 36.6098 13.778 29.6645 17.7408C22.7525 21.7036 11.6865 21.602 4.94066 17.4698C-1.772 13.3716 -1.63907 6.83463 5.3062 2.9057Z" transform="translate(0.0166016 0.024292)" fill="#B1B1B1"/>
</svg>
