<svg width="28" height="25" viewBox="0 0 28 25" fill="none" xmlns="http://www.w3.org/2000/svg">
<path class="network-icon" d="M0 16.7188C0 17.0833 0.322457 17.3958 0.698657 17.3958H5.69674C6.07294 17.3958 6.39539 17.0833 6.39539 16.7188V0.677083C6.39539 0.3125 6.07294 1.98682e-07 5.69674 1.98682e-07H0.698657C0.322457 1.98682e-07 0 0.3125 0 0.677083V16.7188Z" transform="translate(0 7.60413)" fill="#DEDEDE"/>
<path class="network-icon" d="M12.0921 -3.97364e-07C9.6737 -3.97364e-07 7.95394 0.9375 7.04031 1.92708C6.82534 2.13542 6.44914 1.97917 6.44914 1.66667V0.833333C6.44914 0.46875 6.12668 0.15625 5.75048 0.15625H0.698656C0.322457 0.15625 2.05013e-07 0.46875 2.05013e-07 0.833333C0.053743 3.80208 2.05013e-07 14.0625 2.05013e-07 16.8229C2.05013e-07 17.1875 0.322457 17.5 0.698656 17.5H5.80422C6.18042 17.5 6.50288 17.1875 6.50288 16.8229V8.125C6.50288 7.60417 6.50288 7.08333 6.66411 6.71875C7.09405 5.67708 8.06142 4.58333 9.72745 4.58333C11.9309 4.58333 12.952 6.19792 12.952 8.54167V16.8229C12.952 17.1875 13.2745 17.5 13.6507 17.5H18.6488C19.025 17.5 19.3474 17.1875 19.3474 16.8229V7.86458C19.2937 2.5 16.1228 -3.97364e-07 12.0921 -3.97364e-07Z" transform="translate(8.65259 7.44794)" fill="#DEDEDE"/>
<path class="network-icon" d="M3.17083 5.67708C5.21305 5.67708 6.44914 4.42708 6.44914 2.86458C6.39539 1.19792 5.21305 0 3.22457 0C1.23608 0 0 1.19792 0 2.8125C0 4.42708 1.23608 5.67708 3.17083 5.67708Z" fill="#DEDEDE"/>
</svg>
