<svg width="18" height="23" viewBox="0 0 18 23" fill="none" xmlns="http://www.w3.org/2000/svg">
<path d="M16.7231 9.28836H16.2668V7.19085C16.2668 3.31136 13.132 0.0705972 9.21401 0.00141761C9.10696 -0.000472538 8.89304 -0.000472538 8.78603 0.00141761C4.86791 0.0705972 1.73324 3.31136 1.73324 7.19085V9.28836H1.27687C0.573623 9.28836 -1.32151e-08 10.001 -1.32151e-08 10.8812V21.4014C-1.32151e-08 22.2807 0.573623 23 1.27692 23H16.7231C17.4263 23 18 22.2807 18 21.4014V10.8812C18 10.0011 17.4264 9.28836 16.7231 9.28836ZM10.4471 16.1307V19.3095C10.4471 19.6735 10.1368 19.9815 9.76589 19.9815H8.23421C7.86324 19.9815 7.55295 19.6735 7.55295 19.3095V16.1307C7.1932 15.7829 6.98375 15.302 6.98375 14.77C6.98375 13.7619 7.77721 12.8956 8.78608 12.8556C8.89299 12.8513 9.10715 12.8513 9.21406 12.8556C10.2229 12.8956 11.0164 13.7619 11.0164 14.77C11.0163 15.302 10.8069 15.7829 10.4471 16.1307ZM13.2591 9.28836H9.21401H8.78603H4.74093V7.19085C4.74093 4.8799 6.6532 2.9691 9 2.9691C11.3468 2.9691 13.2592 4.8799 13.2592 7.19085V9.28836H13.2591Z" fill="#31E3A6"/>
</svg>
