<svg width="26" height="22" viewBox="0 0 26 22" fill="none" xmlns="http://www.w3.org/2000/svg">
<path class="network-icon" d="M7.73515e-07 12.5908L7.76466 16.4446C7.77843 16.4514 7.79089 16.4566 7.8017 16.4608C7.803 16.4497 7.80388 16.436 7.80388 16.4206V-2.3448e-07L7.73515e-07 12.5908Z" transform="translate(18.1961 5.53314)" fill="#DEDEDE"/>
<path class="network-icon" d="M5.50939 -6.84555e-08L4.56501e-07 8.84993L5.29842 17.3989L13.5953 4.01369L5.50939 -6.84555e-08Z" transform="translate(12.1984)" fill="#DEDEDE"/>
<path class="network-icon" d="M-2.88483e-07 8.02904L7.18891 11.5972L-2.88483e-07 -8.6553e-08V8.02904Z" transform="translate(8.99319 5.53143)" fill="#DEDEDE"/>
<path class="network-icon" d="M1.72377e-08 17.6341C1.72377e-08 17.7547 0.119305 17.9462 0.227807 18L7.97564 21.8461C7.98988 21.8529 8.00234 21.859 8.01309 21.8624C8.01444 21.8512 8.01527 21.8376 8.01527 21.8221V3.97863L0.000415479 -3.61949e-08L1.72377e-08 17.6341Z" transform="translate(0 0.137634)" fill="#DEDEDE"/>
</svg>
