<svg width="63" height="51" viewBox="0 0 63 51" fill="none" xmlns="http://www.w3.org/2000/svg">
<path d="M21.6954 0L0.0521523 12.6581L0 26.9444L41.3046 51L62.9478 38.3419L63 24.0556L21.6954 0Z" fill="#B1B1B1"/>
<path d="M21.6954 -4.0072e-07L21.6432 14.2863L-1.59156e-06 26.9444L0.0521539 12.6581L21.6954 -4.0072e-07Z" transform="translate(41.3046 24.0556)" fill="#A7A7A7"/>
<path d="M41.3568 24.0556L41.3046 38.3419L0 14.2863L0.0521523 2.0036e-07L41.3568 24.0556Z" transform="translate(0 12.6581)" fill="#B1B1B1"/>
<path d="M62.9478 24.0556L41.3046 36.7137L7.7713e-10 12.6581L21.6432 0L62.9478 24.0556Z" transform="translate(0.0521851)" fill="#B1B1B1"/>
<path d="M0.417218 0.15757C0.312913 0.262616 0.156457 0.367662 -3.97891e-07 0.472709C-3.97891e-07 0.420185 -3.97891e-07 0.367662 -3.97891e-07 0.315139C0.156457 0.210093 0.312913 0.105046 0.417218 -1.0018e-07C0.417218 -1.0018e-07 0.417218 0.105046 0.417218 0.15757Z" transform="translate(23.3643 2.7312)" fill="#BDBDBD"/>
<path d="M0 0.262616C0 0.210093 0 0.15757 0 0.105046C0.0521523 0.0525232 0.104305 0.0525231 0.20861 -1.0018e-07C0.20861 0.0525231 0.20861 0.105046 0.20861 0.15757C0.156458 0.210093 0.0521523 0.262616 0 0.262616Z" transform="translate(23.2078 2.99384)" fill="#BDBDBD"/>
<path d="M0.208609 0.157569C0.156457 0.210093 0.104304 0.210093 -7.95781e-07 0.262616C-7.95781e-07 0.210093 -7.95781e-07 0.157569 -7.95781e-07 0.105046C0.0521515 0.105046 0.104305 0.0525232 0.208609 5.009e-08C0.208609 0.0525232 0.208609 0.105046 0.208609 0.157569Z" transform="translate(22.9991 3.09888)" fill="#BDBDBD"/>
<path d="M0.417218 0.472709C0.260761 0.367662 0.104305 0.262616 0 0.15757V-5.009e-08C0.104305 0.105046 0.260761 0.210093 0.417218 0.315139C1.25166 0.787847 2.50331 0.840371 3.44205 0.472709C3.44205 0.525232 3.44205 0.525232 3.44205 0.577755C2.50331 1.05046 1.25166 0.99794 0.417218 0.472709Z" transform="translate(19.5571 2.67871)" fill="#BDBDBD"/>
<path d="M1.30381 1.26056V1.41813C1.30381 1.05046 1.04305 0.682801 0.573675 0.420185C0.417218 0.315139 0.208609 0.262616 9.94726e-08 0.15757V4.0072e-07C0.208609 0.0525236 0.417218 0.15757 0.573675 0.262616C1.04305 0.525232 1.30381 0.892894 1.30381 1.26056Z" transform="translate(4.58942 11.3975)" fill="#A0A0A0"/>
<path d="M17.3146 10.0844V10.242L-7.95781e-07 0.210093V-5.009e-08L17.3146 10.0844Z" transform="translate(23.7814 2.67871)" fill="#BDBDBD"/>
<path d="M17.3146 10.0319V10.1895L-1.98945e-07 0.157569V0L17.3146 10.0319Z" transform="translate(4.64154 13.9186)" fill="#A0A0A0"/>
<path d="M1.25166 2.0036e-07V0.157569C1.25166 0.525232 0.990894 0.892894 0.521523 1.15551C0.365066 1.26056 0.208609 1.31308 -1.98945e-07 1.3656V1.20803C0.208609 1.15551 0.365066 1.05046 0.521523 0.99794C0.990894 0.735324 1.25166 0.367662 1.25166 2.0036e-07Z" transform="translate(4.64154 12.6581)" fill="#BDBDBD"/>
<path d="M7.95781e-07 5.72503V5.56746C7.95781e-07 3.57158 1.30381 1.52317 3.96358 -4.0072e-07V0.15757C1.30381 1.68074 7.95781e-07 3.67662 7.95781e-07 5.72503Z" transform="translate(17.9404 12.7631)" fill="#A0A0A0"/>
<path d="M4.01573 5.77755C1.35596 4.20185 7.95781e-07 2.20597 7.95781e-07 0.15757V8.0144e-07C7.95781e-07 2.0484 1.35596 4.04428 4.01573 5.61998C4.01573 5.6725 4.01573 5.72503 4.01573 5.77755Z" transform="translate(17.9404 18.3306)" fill="#BDBDBD"/>
<path d="M19.1921 2.32415V2.48172C13.8725 -0.617147 5.26738 -0.617147 0 2.48172V2.32415C5.26738 -0.774717 13.8725 -0.774717 19.1921 2.32415Z" transform="translate(21.904 10.439)" fill="#A0A0A0"/>
<path d="M17.2624 10.0319V10.1895L1.59156e-06 0.15757V-4.0072e-07L17.2624 10.0319Z" transform="translate(41.096 12.7631)" fill="#BDBDBD"/>
<path d="M4.01573 5.61998V5.77755C4.01573 3.72914 2.65977 1.68074 1.59156e-06 0.15757V-4.0072e-07C2.65977 1.52317 4.01573 3.57158 4.01573 5.61998Z" transform="translate(41.096 12.7631)" fill="#A0A0A0"/>
<path d="M3.96358 0.157569C3.96358 2.15345 2.65977 4.20185 7.95781e-07 5.72503C7.95781e-07 5.6725 7.95781e-07 5.61998 7.95781e-07 5.56746C2.65977 4.04428 3.96358 1.99588 3.96358 0C3.96358 0.0525232 3.96358 0.105046 3.96358 0.157569Z" transform="translate(41.1482 18.3831)" fill="#BDBDBD"/>
<path d="M-7.95781e-07 1.3656V1.20803C-7.95781e-07 0.84037 0.260762 0.472709 0.730132 0.210093C0.886589 0.105047 1.04305 0.0525232 1.25166 0V0.157569C1.04305 0.210092 0.886589 0.315139 0.730132 0.367663C0.208609 0.630278 -7.95781e-07 0.997939 -7.95781e-07 1.3656Z" transform="translate(57.1589 22.8476)" fill="#A0A0A0"/>
<path d="M17.2624 10.0319V10.242L-7.95781e-07 0.15757V-8.0144e-07L17.2624 10.0319Z" transform="translate(21.9561 23.9506)" fill="#A0A0A0"/>
<path d="M17.2103 1.10299C11.9429 3.20391 4.69371 2.88878 -7.95781e-07 0.15757V-8.0144e-07C4.69371 2.7312 11.9429 3.04634 17.2103 0.945418C17.2103 0.997941 17.2103 1.05046 17.2103 1.10299Z" transform="translate(21.9561 23.9506)" fill="#BDBDBD"/>
<path d="M0.0521527 0.210093C0.0521527 0.210093 -7.95781e-07 0.210093 -7.95781e-07 0.15757V-8.0144e-07C-7.95781e-07 -8.0144e-07 0.0521527 3.99155e-07 0.0521527 0.0525236C0.0521527 0.105047 0.0521527 0.15757 0.0521527 0.210093Z" transform="translate(21.9561 23.9506)" fill="#BDBDBD"/>
<path d="M1.98179 0.15757C1.35596 0.525233 0.677979 0.840371 -7.95781e-07 1.10299C-7.95781e-07 1.05046 -7.95781e-07 0.997941 -7.95781e-07 0.945418C0.677979 0.682802 1.35596 0.367661 1.98179 -8.0144e-07C1.98179 0.0525224 1.98179 0.105047 1.98179 0.15757Z" transform="translate(39.1664 23.9506)" fill="#BDBDBD"/>
<path d="M-7.95781e-07 0.157569V-4.0072e-07C-7.95781e-07 0.367662 0.260762 0.735325 0.730132 0.997941C0.886589 1.10299 1.0952 1.15551 1.30381 1.26056V1.41813C1.0952 1.3656 0.886589 1.26056 0.730132 1.15551C0.208609 0.840371 -7.95781e-07 0.525231 -7.95781e-07 0.157569Z" transform="translate(57.1589 24.0556)" fill="#BDBDBD"/>
<path d="M3.02483 1.47065C1.92964 1.10299 0.938742 0.682801 3.97891e-07 0.15757C3.97891e-07 0.105046 3.97891e-07 0.0525236 3.97891e-07 4.0072e-07C0.938742 0.525232 1.92964 0.945417 3.02483 1.31308C3.02483 1.3656 3.02483 1.41813 3.02483 1.47065Z" transform="translate(22.0083 24.0031)" fill="#BDBDBD"/>
<path d="M0 0.15757C0 0.105046 0 0.0525236 0 4.0072e-07C0.0521523 4.0072e-07 0.0521527 -4.03068e-07 0.104305 0.0525228C0.104305 0.105046 0.104305 0.157569 0.104305 0.210092C0.0521527 0.157569 0.0521523 0.15757 0 0.15757Z" transform="translate(25.0331 25.3162)" fill="#BDBDBD"/>
<path d="M0.0521519 0.157569C-4.00222e-07 0.157569 -4.00222e-07 0.157569 0.0521519 0.157569C-4.00222e-07 0.105046 3.97891e-07 0.0525228 3.97891e-07 -4.0072e-07C3.97891e-07 -4.0072e-07 -4.00222e-07 -4.0072e-07 0.0521519 -4.0072e-07C0.0521519 -4.0072e-07 0.0521519 0.105046 0.0521519 0.157569Z" transform="translate(25.1375 25.3687)" fill="#BDBDBD"/>
<path d="M-3.97891e-07 0.105046C-3.97891e-07 0.0525232 -3.97891e-07 0.0525228 -3.97891e-07 -4.0072e-07C1.0952 0.315139 2.1904 0.577755 3.3899 0.735325C3.3899 0.787848 3.3899 0.840371 3.3899 0.892894C2.24255 0.735324 1.0952 0.472708 -3.97891e-07 0.157569C-3.97891e-07 0.157569 -3.97891e-07 0.105046 -3.97891e-07 0.105046Z" transform="translate(25.1896 25.3687)" fill="#BDBDBD"/>
<path d="M3.97891e-07 0.15757C3.97891e-07 0.105046 3.97891e-07 0.0525236 3.97891e-07 4.0072e-07C3.97891e-07 4.0072e-07 -4.00222e-07 4.0072e-07 0.0521519 4.0072e-07C0.0521519 4.0072e-07 0.0521527 0.105046 3.97891e-07 0.15757C0.0521527 0.15757 0.0521527 0.15757 3.97891e-07 0.15757Z" transform="translate(28.5273 26.104)" fill="#BDBDBD"/>
<path d="M0.0521531 0.15757C0.0521531 0.15757 7.96558e-07 0.15757 0.0521531 0.15757C7.96558e-07 0.105046 -3.97891e-07 0.0525236 -3.97891e-07 4.0072e-07H0.0521531C0.0521531 0.0525236 0.0521531 0.105046 0.0521531 0.15757Z" transform="translate(28.5795 26.104)" fill="#BDBDBD"/>
<path d="M0.208609 0.15757C0.156457 0.15757 0.104305 0.15757 7.95781e-07 0.15757V4.0072e-07C0.0521531 4.0072e-07 0.104304 4.0072e-07 0.208609 4.0072e-07C0.208609 0.0525236 0.208609 0.105046 0.208609 0.15757Z" transform="translate(28.6317 26.104)" fill="#BDBDBD"/>
<path d="M-3.97891e-07 0.105047C-3.97891e-07 0.052524 -3.97891e-07 0.0525236 -3.97891e-07 4.0072e-07C-3.97891e-07 4.0072e-07 7.96558e-07 4.0072e-07 0.0521531 4.0072e-07C0.0521531 0.0525236 0.0521531 0.105046 0.0521531 0.15757C0.0521531 0.15757 0.0521519 0.15757 -3.97891e-07 0.15757C-3.97891e-07 0.15757 -3.97891e-07 0.15757 -3.97891e-07 0.105047Z" transform="translate(28.8402 26.104)" fill="#BDBDBD"/>
<path d="M0.469372 0.157569C0.312916 0.157569 0.156458 0.210093 7.95781e-07 0.210093C7.95781e-07 0.15757 7.95781e-07 0.105047 7.95781e-07 0.052524C0.156458 0.052524 0.312916 0.0525228 0.469372 -4.0072e-07C0.469372 0.0525228 0.469372 0.105046 0.469372 0.157569Z" transform="translate(33.3253 26.1566)" fill="#BDBDBD"/>
<path d="M0.0231796 0.15757C0.0231796 0.15757 -0.0289727 0.15757 0.0231796 0.15757C0.0231796 0.105047 0.0231796 0.052524 0.0231796 8.0144e-07C0.0231796 0.052524 0.0231796 0.105047 0.0231796 0.15757Z" transform="translate(33.3021 26.2091)" fill="#BDBDBD"/>
<path d="M0 0.210092C0 0.157569 0 0.105046 0 0.0525232C0.156457 0.0525232 0.312915 0.052524 0.469372 8.0144e-07C0.469372 0.052524 0.469372 0.105047 0.469372 0.15757C0.260762 0.15757 0.156457 0.157569 0 0.210092Z" transform="translate(32.856 26.2091)" fill="#BDBDBD"/>
<path d="M1.46027 0.262615C0.938742 0.262615 0.469372 0.210092 7.95781e-07 0.157569C7.95781e-07 0.105046 7.95781e-07 0.0525228 7.95781e-07 -4.0072e-07C0.469372 0.0525228 0.990894 0.105046 1.46027 0.105046C1.46027 0.105046 1.46027 0.210092 1.46027 0.262615Z" transform="translate(28.8924 26.1566)" fill="#BDBDBD"/>
<path d="M0.208609 0.157569C0.156457 0.157569 0.0521515 0.157569 -7.95781e-07 0.157569V0C0.0521515 0 0.156457 0 0.208609 0C0.208609 0 0.208609 0.105046 0.208609 0.157569Z" transform="translate(32.6473 26.2616)" fill="#BDBDBD"/>
<path d="M23.1557 2.32415C28.4753 5.42302 28.4753 10.4127 23.2079 13.5116C22.5821 13.8792 21.9041 14.1944 21.2261 14.457C15.9587 16.5579 8.70953 16.2428 4.01582 13.5116C-1.30371 10.4127 -1.35586 5.42302 3.96367 2.32415C9.23106 -0.774717 17.8362 -0.774717 23.1557 2.32415Z" transform="translate(17.9403 10.439)" fill="#BDBDBD"/>
<path d="M4.27649 0.748457V0.906024C4.17219 0.800978 4.01573 0.695932 3.85927 0.590886C2.92053 0.0131308 1.35596 0.0131308 0.417219 0.590886C0.260762 0.695932 0.104303 0.800978 -1.59156e-06 0.906024V0.748457C0.104303 0.64341 0.260762 0.538361 0.417219 0.433315C1.35596 -0.14444 2.92053 -0.14444 3.85927 0.433315C4.01573 0.485838 4.17219 0.590887 4.27649 0.748457Z" transform="translate(39.2186 33.2866)" fill="#A0A0A0"/>
<path d="M43.4429 34.035L58.3584 25.2636C58.1498 25.2111 57.9412 25.1061 57.7848 25.001C56.846 24.4233 56.846 23.5304 57.7848 23.0051C57.9412 22.9001 58.0977 22.8476 58.3063 22.7951L41.0439 12.7631L23.7293 2.67868C23.625 2.78373 23.4685 2.88877 23.3121 2.99382C22.3733 3.57158 20.8088 3.57158 19.87 2.99382C19.7136 2.88877 19.5571 2.78373 19.4528 2.67868L4.53725 11.3975C4.74586 11.4501 4.95447 11.5551 5.11093 11.6601C6.04967 12.2379 6.04967 13.1308 5.11093 13.656C4.95447 13.7611 4.79801 13.8136 4.5894 13.8661L21.8518 23.898C23.7815 25.001 26.0762 25.7364 28.5273 26.0515C26.0762 25.7364 23.7293 25.001 21.8518 23.898L39.1142 33.93C39.2185 33.8249 39.375 33.7199 39.5315 33.6148C40.4702 33.0371 42.0348 33.0371 42.9735 33.6148C43.1821 33.7724 43.3386 33.8774 43.4429 34.035ZM21.6432 0L62.9478 24.0031L41.3046 36.7137L7.7713e-10 12.6581L21.6432 0Z" transform="translate(0.0521851)" fill="#BDBDBD"/>
<path d="M36.5066 10.0844C31.1871 6.98558 22.582 6.98558 17.3146 10.0844C12.0472 13.1833 12.0472 18.173 17.3667 21.2719L0.0521521 11.24C0.260761 11.1874 0.417218 11.0824 0.573675 11.0299C1.51242 10.4521 1.51242 9.55922 0.573675 9.03398C0.417218 8.92894 0.208609 8.87642 9.94727e-08 8.77137L14.9677 -5.009e-08C15.072 0.105046 15.2285 0.210093 15.3849 0.315139C16.3237 0.892894 17.8882 0.892894 18.827 0.315139C18.9834 0.210093 19.1399 0.105046 19.2442 -5.009e-08L36.5066 10.0844Z" transform="translate(4.58942 2.67871)" fill="#A0A0A0"/>
<path d="M14.9677 -5.009e-08L9.94727e-08 8.71885C0.0521524 8.71885 0.104305 8.77137 0.156457 8.77137L14.9677 0.15757V-5.009e-08Z" transform="translate(4.58942 2.67871)" fill="#BDBDBD"/>
<path d="M1.14735 -4.0072e-07C0.782286 0.0525228 0.365065 0.0525232 -7.95781e-07 0.105046C0.365065 0.0525232 0.730134 0.0525228 1.14735 -4.0072e-07Z" transform="translate(32.6473 26.1566)" fill="#BDBDBD"/>
<path d="M14.9156 -8.0144e-07V0.15757L7.95781e-07 8.92894V8.77137L14.9156 -8.0144e-07Z" transform="translate(43.4951 25.2636)" fill="#A0A0A0"/>
<path d="M36.4023 10.0319C36.1937 10.0845 36.0373 10.1895 35.8808 10.242C34.9421 10.8198 34.9421 11.7127 35.8808 12.2379C36.0373 12.3429 36.2459 12.3955 36.4545 12.5005L21.5389 21.2719C21.4346 21.1668 21.2781 21.0618 21.1217 20.9567C20.1829 20.379 18.6184 20.379 17.6796 20.9567C17.5232 21.0618 17.3667 21.1668 17.2624 21.2719L-7.95781e-07 11.1874C4.69371 13.9186 11.9429 14.2338 17.2103 12.1329C17.8882 11.8702 18.5662 11.5551 19.1921 11.1874C24.4594 8.08857 24.4594 3.09887 19.1399 -4.0072e-07L36.4023 10.0319Z" transform="translate(21.9561 12.7631)" fill="#A0A0A0"/>
<path d="M0 0.262616L41.3568 24.3182V24.0556L0 0V0.262616Z" transform="translate(0 19.6962)" fill="#A7A7A7"/>
<path d="M0 0.262615L41.3568 24.3182V24.0556L0 -8.0144e-07V0.262615Z" transform="translate(0 21.587)" fill="#A7A7A7"/>
<path d="M0 0.262615L41.3568 24.3182V24.0556L0 -4.0072e-07V0.262615Z" transform="translate(0 20.6416)" fill="#A7A7A7"/>
<path d="M0 0.262617L41.3568 24.3182V24.0556L0 8.0144e-07V0.262617Z" transform="translate(0 22.5324)" fill="#A7A7A7"/>
<path d="M41.3046 24.0556L0 -8.0144e-07V0.262615L41.3046 24.2657V24.0556Z" transform="translate(0 26.3141)" fill="#A7A7A7"/>
<path d="M0 0.262615L41.3046 24.2657V24.0556L0 -4.0072e-07V0.262615Z" transform="translate(0 25.3687)" fill="#A7A7A7"/>
<path d="M0 0.262616L41.3046 24.2657V24.0556L0 0V0.262616Z" transform="translate(0 24.4233)" fill="#A7A7A7"/>
<path d="M0 0.262616L41.3568 24.3182V24.0556L0 4.0072e-07V0.262616Z" transform="translate(0 23.4778)" fill="#A7A7A7"/>
<path d="M7.7713e-10 0.262616L41.3046 24.3182V24.0556L7.7713e-10 4.0072e-07V0.262616Z" transform="translate(0.0521851 14.0237)" fill="#A7A7A7"/>
<path d="M7.7713e-10 0.262616L41.3046 24.3182V24.0556L7.7713e-10 0V0.262616Z" transform="translate(0.0521851 14.9691)" fill="#A7A7A7"/>
<path d="M0 0.262616L41.3568 24.3182V24.0556L0 4.0072e-07V0.262616Z" transform="translate(0 18.7508)" fill="#A7A7A7"/>
<path d="M7.7713e-10 0V0.210092L41.3046 24.2657V24.0031L7.7713e-10 0Z" transform="translate(0.0521851 13.1308)" fill="#A7A7A7"/>
<path d="M0 0.262617L41.3568 24.3182V24.0556L0 8.0144e-07V0.262617Z" transform="translate(0 17.8054)" fill="#A7A7A7"/>
<path d="M7.7713e-10 0.262615L41.3046 24.3182V24.0556L7.7713e-10 -4.0072e-07V0.262615Z" transform="translate(0.0521851 15.9145)" fill="#A7A7A7"/>
<path d="M7.7713e-10 0.262615L41.3046 24.3182V24.0556L7.7713e-10 -8.0144e-07V0.262615Z" transform="translate(0.0521851 16.8599)" fill="#A7A7A7"/>
<path d="M1.59156e-06 12.6581V12.8682L21.5911 0.262615V-8.0144e-07L1.59156e-06 12.6581Z" transform="translate(41.3568 33.9299)" fill="#A0A0A0"/>
<path d="M1.59156e-06 12.6581V12.8682L21.6432 0.262615V-4.0072e-07L1.59156e-06 12.6581Z" transform="translate(41.3568 32.9846)" fill="#A0A0A0"/>
<path d="M1.59156e-06 12.6581V12.8682L21.5911 0.262617V8.0144e-07L1.59156e-06 12.6581Z" transform="translate(41.3568 34.8754)" fill="#A0A0A0"/>
<path d="M1.59156e-06 12.6581V12.8682L21.6432 0.262616V0L1.59156e-06 12.6581Z" transform="translate(41.3568 32.0391)" fill="#A0A0A0"/>
<path d="M-1.59156e-06 12.8682L21.6432 0.262617V1.60288e-06L-1.59156e-06 12.6581V12.8682Z" transform="translate(41.3046 37.7116)" fill="#A0A0A0"/>
<path d="M-1.59156e-06 12.6581V12.8682L21.6432 0.262616V0L-1.59156e-06 12.6581Z" transform="translate(41.3046 36.7662)" fill="#A0A0A0"/>
<path d="M-1.59156e-06 12.6581V12.8682L21.6432 0.262614V-1.60288e-06L-1.59156e-06 12.6581Z" transform="translate(41.3046 35.8208)" fill="#A0A0A0"/>
<path d="M1.59156e-06 12.6056V12.8682L21.6432 0.262617V8.0144e-07L1.59156e-06 12.6056Z" transform="translate(41.3568 30.1483)" fill="#A0A0A0"/>
<path d="M1.59156e-06 12.6056V12.8682L21.6432 0.262616V4.0072e-07L1.59156e-06 12.6056Z" transform="translate(41.3568 26.3666)" fill="#A0A0A0"/>
<path d="M1.59156e-06 12.6056V12.8682L21.6432 0.262617V8.0144e-07L1.59156e-06 12.6056Z" transform="translate(41.3568 25.4212)" fill="#A0A0A0"/>
<path d="M1.59156e-06 12.6056V12.8682L21.6432 0.262615V-8.0144e-07L1.59156e-06 12.6056Z" transform="translate(41.3568 24.4758)" fill="#A0A0A0"/>
<path d="M1.59156e-06 12.6056V12.8682L21.6432 0.262615V-8.0144e-07L1.59156e-06 12.6056Z" transform="translate(41.3568 29.2029)" fill="#A0A0A0"/>
<path d="M1.59156e-06 12.6581V12.8682L21.6432 0.262616V4.0072e-07L1.59156e-06 12.6581Z" transform="translate(41.3568 31.0938)" fill="#A0A0A0"/>
<path d="M1.59156e-06 12.6056V12.8682L21.6432 0.262616V0L1.59156e-06 12.6056Z" transform="translate(41.3568 27.3121)" fill="#A0A0A0"/>
<path d="M1.59156e-06 12.6056V12.8682L21.6432 0.262615V-4.0072e-07L1.59156e-06 12.6056Z" transform="translate(41.3568 28.2574)" fill="#A0A0A0"/>
<path d="M21.7997 -2.0036e-07L0.0521523 12.7631L-1.98945e-07 27.0494L9.17881 32.4068L9.23096 18.068L30.9785 5.30484L21.7997 -2.0036e-07Z" transform="translate(12.4644 7.30072)" fill="#E9E9E9"/>
<path d="M9.23096 5.30484L0.0521523 4.0072e-07L-1.98945e-07 14.2863L9.17881 19.6437L9.23096 5.30484Z" transform="translate(12.4644 20.0638)" fill="#D5D5D5"/>
</svg>
