<svg class="mouse-click" width="22" height="32" viewBox="0 0 22 32" fill="none" xmlns="http://www.w3.org/2000/svg">
<path d="M11 0C4.93448 0 -1.26625e-07 5.13375 -1.26625e-07 11.4437V20.5566C-1.26625e-07 26.8666 4.93448 32 11 32C17.0652 32 22 26.8821 22 20.5916V11.4437C22 5.13375 17.0652 0 11 0ZM19.931 20.5916C19.931 25.7138 15.9248 29.8808 11 29.8808C6.07552 29.8808 2.06901 25.6979 2.06901 20.5563V11.4437C2.06901 6.30212 6.07552 2.11919 11 2.11919C15.9248 2.11919 19.931 6.30212 19.931 11.4437V20.5916Z" fill="#31E3A6"/>
<path d="M1.0345 -3.8147e-07C0.463128 -3.8147e-07 3.20286e-07 0.474375 3.20286e-07 1.05963V4.76825C3.20286e-07 5.3535 0.463128 5.82787 1.0345 5.82787C1.60588 5.82787 2.06901 5.3535 2.06901 4.76825V1.05963C2.06901 0.474375 1.60588 -3.8147e-07 1.0345 -3.8147e-07Z" transform="translate(9.96552 8.7594)" fill="#31E3A6"/>
</svg>
