<svg width="43" height="39" viewBox="0 0 43 39" fill="none" xmlns="http://www.w3.org/2000/svg">
<path class="new-icon" d="M23.4126 39C22.421 39 21.4294 38.6036 20.6362 37.8108L14.7857 32.8557L10.1252 37.5135C9.53025 38.1081 8.73697 38.2072 7.94369 37.9099C7.24957 37.6126 6.85293 36.9188 6.85293 36.126V24.9275L1.10165 18.1885C0.110052 17.1975 -0.187428 15.8101 0.110052 14.4226C0.506692 13.0352 1.49829 12.0442 2.88653 11.6478L37.89 0.151905C39.3774 -0.244504 40.8648 0.151905 41.8564 1.14293C42.848 2.13395 43.2446 3.62048 42.848 5.00792C42.848 5.10702 42.7488 5.20612 42.7488 5.30522L27.1807 36.3242C26.7841 37.6126 25.6933 38.5045 24.4042 38.9009C24.1068 39 23.8093 39 23.4126 39ZM14.6866 28.1978C15.1824 28.1978 15.579 28.3961 15.9757 28.6934L23.3135 35.0359C23.3135 34.9368 23.5118 34.9368 23.611 34.8377L38.9808 3.91779L3.97729 15.5128V15.6119L10.3235 22.9454C10.621 23.3418 10.8193 23.7382 10.8193 24.2338V31.3691L13.3975 28.7925C13.695 28.3961 14.1908 28.1978 14.6866 28.1978Z" fill="#656D79"/>
</svg>
