<svg width="18" height="23" viewBox="0 0 18 23" fill="none" xmlns="http://www.w3.org/2000/svg">
<path d="M17.5625 11.9192C17.2707 11.6396 16.9167 11.5001 16.4998 11.5001H4.99988V6.70843C4.99988 5.65009 5.39058 4.74678 6.17188 3.99804C6.95324 3.24945 7.89588 2.87508 9.00014 2.87508C10.1043 2.87508 11.0471 3.2494 11.8281 3.99804C12.6095 4.74678 13.0002 5.65014 13.0002 6.70843C13.0002 6.96789 13.0991 7.19247 13.2968 7.38212C13.495 7.57182 13.7294 7.6667 13.9999 7.6667H15.0004C15.271 7.6667 15.5054 7.57182 15.7035 7.38212C15.9009 7.19247 16.0002 6.96789 16.0002 6.70843C16.0002 4.86143 15.3152 3.28197 13.9456 1.96915C12.5758 0.656278 10.9272 0 9.00014 0C7.07293 0 5.42451 0.656278 4.05455 1.9691C2.68481 3.28176 1.99994 4.86138 1.99994 6.70838V11.5H1.5C1.08346 11.5 0.729201 11.6399 0.437499 11.9192C0.145796 12.1984 4.34246e-08 12.538 4.34246e-08 12.9374V21.5625C4.34246e-08 21.962 0.145851 22.3014 0.437499 22.5809C0.729201 22.8602 1.08346 23 1.5 23H16.4998C16.9167 23 17.2711 22.8602 17.5625 22.5809C17.8539 22.3014 18 21.962 18 21.5625V12.9374C18.0002 12.5381 17.8543 12.1989 17.5625 11.9192Z" fill="#31E3A6"/>
</svg>
