<svg width="52" height="37" viewBox="0 0 52 37" fill="none" xmlns="http://www.w3.org/2000/svg">
<path class="new-icon" d="M44.2 37H7.8C3.536 37 0 33.544 0 29.3764V7.62363C0 3.45604 3.536 0 7.8 0H44.304C48.464 0 52 3.45604 52 7.62363V29.478C52 33.544 48.464 37 44.2 37ZM7.8 4.06593C5.824 4.06593 4.16 5.69231 4.16 7.62363V29.478C4.16 31.4093 5.824 33.0357 7.8 33.0357H44.304C46.28 33.0357 47.944 31.4093 47.944 29.478V7.62363C47.84 5.69231 46.176 4.06593 44.2 4.06593H7.8Z" fill="#656D79"/>
<path class="new-icon" d="M5.85372 15.1456H1.90172C1.06972 15.1456 0.341725 14.4341 0.341725 13.6209C0.341725 12.8077 1.06972 12.0962 1.90172 12.0962H6.06172C6.89372 12.0962 7.62172 11.3846 7.62172 10.5714C7.62172 9.75824 6.89372 9.0467 6.06172 9.0467H4.81372C2.42172 9.0467 0.237723 7.31868 0.0297235 4.98077C-0.282277 2.23626 1.90172 -1.93879e-07 4.70972 -1.93879e-07H8.86972C9.70172 -1.93879e-07 10.4297 0.711538 10.4297 1.52472C10.4297 2.33791 9.70172 3.04945 8.86972 3.04945H4.70972C3.87772 3.04945 3.14972 3.76099 3.14972 4.57418C3.14972 5.38736 3.87772 6.0989 4.70972 6.0989H6.16572C8.86972 6.0989 11.0537 8.43681 10.7417 11.0797C10.4297 13.4176 8.24572 15.1456 5.85372 15.1456Z" transform="translate(20.6663 10.8763)" fill="#656D79"/>
<path class="new-icon" d="M3.12 0H0V3.76099H3.12V0Z" transform="translate(24.544 8.53845)" fill="#656D79"/>
<path class="new-icon" d="M3.12 0H0V3.76099H3.12V0Z" transform="translate(24.44 24.7006)" fill="#656D79"/>
<path class="new-icon" d="M2.78486 0.282324L0.704856 1.60375C-0.023144 2.11199 -0.231146 3.02683 0.288854 3.73837C0.704854 4.44991 1.74485 4.6532 2.36885 4.14496L4.44885 2.82353C5.17685 2.31529 5.38486 1.40046 4.86486 0.688918C4.44886 -0.0226205 3.51286 -0.225917 2.78486 0.282324Z" transform="translate(40.8951 5.7149)" fill="#656D79"/>
<path class="new-icon" d="M2.68672 0.237813L0.606721 1.66089C-0.0172788 2.16913 -0.225278 3.08397 0.294722 3.79551C0.814721 4.50704 1.75072 4.60869 2.47872 4.2021L4.55872 2.77902C5.28672 2.27078 5.39072 1.35594 4.97472 0.644406C4.35072 -0.0671324 3.41472 -0.16878 2.68672 0.237813Z" transform="translate(6.25726 26.394)" fill="#656D79"/>
</svg>
