<svg width="41" height="47" viewBox="0 0 41 47" fill="none" xmlns="http://www.w3.org/2000/svg">
<path d="M23.0168 26.6274C23.0168 22.3507 20.4188 17.3353 16.8871 14.2638L18.5515 13.3307C19.5663 12.7864 20.1752 11.5812 20.1752 9.90939C20.1752 6.52691 17.699 2.44461 14.6545 0.733933C13.1119 -0.121406 11.7317 -0.199164 10.7168 0.345143L4.58713 3.80538C3.57228 4.34968 2.96337 5.55493 2.96337 7.22673C2.96337 9.40396 3.97822 11.8922 5.52079 13.7973L2.47624 15.508C2.47624 15.508 2.51683 15.508 2.51683 15.4691C0.974258 16.3244 -3.87135e-08 18.1129 -3.87135e-08 20.6789V26.2386L16.8871 35.5696L23.0168 32.1482V26.6274Z" transform="translate(1.05542)" fill="#A4A4A4"/>
<path d="M-7.7427e-08 3.95765L6.1297 0.536298C7.34752 -0.124646 8.93069 -0.202404 10.7168 0.45854L4.58713 3.8799C2.80099 3.21895 1.21782 3.25783 -7.7427e-08 3.95765Z" transform="translate(3.53168 11.5504)" fill="#868686"/>
<path d="M6.1297 -2.96624e-07L0 3.42136C3.97822 6.37616 7.02277 11.897 7.02277 16.4847V22.0444L13.1525 18.6231V13.0634C13.1525 8.47563 10.1079 2.95481 6.1297 -2.96624e-07Z" transform="translate(10.9604 13.564)" fill="#868686"/>
<path d="M10.0673 0.733933C8.52475 -0.121406 7.14455 -0.199164 6.1297 0.345143L-1.54854e-07 3.7665C1.01485 3.22219 2.39505 3.29995 3.93762 4.15529C7.02277 5.86597 9.49901 9.94827 9.45842 13.3307C9.45842 15.0025 8.84951 16.1689 7.83465 16.7521L13.9644 13.3307C14.9792 12.7864 15.5881 11.5812 15.5881 9.90939C15.5881 6.52691 13.1119 2.40573 10.0673 0.733933Z" transform="translate(5.64258 0.0388794)" fill="#A4A4A4"/>
<path d="M8.48416 0.714004C11.5693 2.42468 14.0455 6.50698 14.0049 9.88946C14.0049 12.7276 12.2188 14.1273 9.86436 13.5052C13.8426 16.46 16.8871 21.9808 16.8871 26.5686V32.1283L1.93568e-08 22.7973V17.2376C1.93568e-08 12.611 3.08515 10.4726 7.06337 11.95C4.66832 9.96722 2.88218 6.62362 2.92277 3.78545C2.92277 0.402971 5.39901 -0.957795 8.48416 0.714004Z" transform="translate(1.09607 3.44135)" fill="#9E9E9E"/>
<path d="M23.0168 26.6274C23.0168 22.3507 20.4188 17.3353 16.8871 14.2638L18.5515 13.3307C19.5663 12.7864 20.1752 11.5812 20.1752 9.90939C20.1752 6.52691 17.699 2.44461 14.6545 0.733933C13.1119 -0.121406 11.7317 -0.199164 10.7168 0.345143L4.58713 3.7665C3.57228 4.31081 2.96337 5.51606 2.96337 7.18786C2.96337 9.36508 3.97822 11.8533 5.52079 13.7584L2.47624 15.4691C2.47624 15.4691 2.51683 15.4691 2.51683 15.4302C0.974257 16.2467 -3.09708e-07 18.074 -3.09708e-07 20.64V26.1997L16.8871 35.5307L23.0168 32.1093V26.6274Z" transform="translate(17.9832 9.33099)" fill="#A4A4A4"/>
<path d="M-3.09708e-07 3.95765L6.1297 0.536298C7.34753 -0.124646 8.93069 -0.202404 10.7168 0.45854L4.58713 3.8799C2.84158 3.21895 1.21782 3.29671 -3.09708e-07 3.95765Z" transform="translate(20.4188 20.8812)" fill="#868686"/>
<path d="M6.1297 -2.96624e-07L-6.19416e-07 3.42136C3.97822 6.37616 7.02277 11.897 7.02277 16.4847V22.0444L13.1525 18.6231V13.0634C13.1525 8.47563 10.1079 2.95481 6.1297 -2.96624e-07Z" transform="translate(27.8476 22.895)" fill="#868686"/>
<path d="M10.0673 0.733933C8.52475 -0.121406 7.14455 -0.199164 6.1297 0.345143L0 3.7665C1.01485 3.22219 2.39505 3.29995 3.93762 4.15529C7.02277 5.86597 9.49901 9.94827 9.45842 13.3307C9.45842 15.0025 8.84951 16.1689 7.83465 16.7521L14.005 13.3307C15.0198 12.7864 15.6287 11.5812 15.6287 9.90939C15.6287 6.52691 13.1525 2.44461 10.0673 0.733933Z" transform="translate(22.5297 9.36981)" fill="#A4A4A4"/>
<path d="M8.48416 0.73905C11.5693 2.44973 14.0455 6.53203 14.005 9.9145C14.005 12.7527 12.2188 14.1523 9.86436 13.5303C13.8426 16.4851 16.8871 22.0059 16.8871 26.5936V32.1533L-3.09708e-07 22.8223V17.2626C-3.09708e-07 12.636 3.08515 10.4977 7.06337 11.9751C4.66832 9.95338 2.92277 6.60979 2.92277 3.77162C2.92277 0.389138 5.4396 -0.971628 8.48416 0.73905Z" transform="translate(17.9832 12.7861)" fill="#9E9E9E"/>
<path d="M23.0574 26.6274C23.0574 22.3507 20.4594 17.3353 16.9277 14.2638L18.5921 13.3307C19.6069 12.7864 20.2158 11.5812 20.2158 9.90939C20.2158 6.52691 17.7396 2.44461 14.695 0.733933C13.1525 -0.121406 11.7723 -0.199164 10.7574 0.345143L4.58713 3.80538C3.57228 4.34968 2.96337 5.55493 2.96337 7.22673C2.96337 9.40396 3.97822 11.8922 5.52079 13.7973L2.47624 15.508C2.47624 15.508 2.51683 15.508 2.51683 15.4691C0.974257 16.3244 0.0405941 18.1129 0 20.6789V26.2386L16.8871 35.5696L23.0168 32.1482L23.0574 26.6274Z" transform="translate(0 11.3915)" fill="#ABABAB"/>
<path d="M-3.87135e-08 3.95765L6.1297 0.536298C7.34752 -0.124646 8.93069 -0.202404 10.7168 0.45854L4.58713 3.8799C2.84158 3.21895 1.21782 3.25783 -3.87135e-08 3.95765Z" transform="translate(2.4762 22.9419)" fill="#A0A0A0"/>
<path d="M6.1297 -5.93247e-07L-1.54854e-07 3.42136C3.97822 6.37616 7.02277 11.897 7.02277 16.4847V22.0444L13.1525 18.6231V13.0634C13.1525 8.43675 10.1079 2.95481 6.1297 -5.93247e-07Z" transform="translate(9.90491 24.9556)" fill="#A0A0A0"/>
<path d="M10.0673 0.733934C8.52475 -0.121406 7.14455 -0.199164 6.1297 0.345143L7.7427e-08 3.7665C1.01485 3.22219 2.39505 3.29995 3.93762 4.15529C7.02277 5.86597 9.49901 9.94827 9.45842 13.3307C9.45842 15.0025 8.84951 16.1689 7.83465 16.7521L13.9644 13.3307C14.9792 12.7864 15.5881 11.5812 15.5881 9.90939C15.6287 6.52691 13.1525 2.40573 10.0673 0.733934Z" transform="translate(4.5871 11.4304)" fill="#B9B9B9"/>
<path d="M8.52475 0.714004C11.6099 2.42468 14.0861 6.50698 14.0455 9.88946C14.0455 12.7276 12.2594 14.1273 9.90495 13.5052C13.8832 16.46 16.9277 21.9808 16.9277 26.5686V32.1283L0 22.8362V17.2765C0 12.6499 3.08515 10.5115 7.06337 11.9889C4.70891 9.96722 2.96337 6.62362 2.96337 3.78545C2.96337 0.402971 5.4802 -0.957795 8.52475 0.714004Z" transform="translate(0 14.8329)" fill="#ABABAB"/>
</svg>
