<svg width="20" height="20" viewBox="0 0 20 20" fill="none" xmlns="http://www.w3.org/2000/svg">
<path d="M5.35303 11.2242C8.30872 11.2242 10.7061 8.7069 10.7061 5.60347C10.7061 2.50004 8.30868 -1.4218e-09 5.35303 -1.4218e-09C2.39739 -1.4218e-09 -1.73325e-08 2.51726 -1.73325e-08 5.60347C-1.73325e-08 8.68968 2.39735 11.2242 5.35303 11.2242ZM5.35303 1.46552C7.52051 1.46552 9.29393 3.32758 9.29393 5.60347C9.29393 7.87935 7.52051 9.74137 5.35303 9.74137C3.18556 9.74137 1.41214 7.87932 1.41214 5.60343C1.41214 3.32754 3.18552 1.46552 5.35303 1.46552Z" transform="translate(4.61414)" fill="#31E3A6"/>
<path d="M0.706068 7.79311H19.2939C19.688 7.79311 20 7.46553 20 7.05173C20 3.17242 16.9951 -1.9109e-07 13.2841 -1.9109e-07H6.71594C3.02135 -1.9109e-07 0 3.15516 0 7.05173C0 7.46553 0.311982 7.79311 0.706068 7.79311ZM6.71594 1.48274H13.2841C15.977 1.48274 18.1937 3.58621 18.5386 6.31032H1.46141C1.80622 3.60347 4.023 1.48274 6.71594 1.48274Z" transform="translate(0 12.2069)" fill="#31E3A6"/>
</svg>
