<svg width="11" height="11" viewBox="0 0 11 11" fill="none" xmlns="http://www.w3.org/2000/svg">
<path d="M10.7613 4.98501C10.9778 4.76477 11.0542 4.44152 10.9608 4.14104C10.8672 3.84055 10.6234 3.62605 10.3238 3.58053L7.66044 3.17659C7.547 3.15934 7.44899 3.08509 7.39833 2.97772L6.20759 0.458889C6.07389 0.175877 5.80253 1.16205e-08 5.50011 1.16205e-08C5.19791 1.16205e-08 4.92655 0.175877 4.79285 0.458889L3.60189 2.97795C3.55123 3.08532 3.453 3.15957 3.33956 3.17682L0.676158 3.58076C0.376822 3.62605 0.132772 3.84078 0.0391609 4.14127C-0.0542301 4.44175 0.0222007 4.765 0.238718 4.98524L2.16579 6.94587C2.24795 7.02955 2.28561 7.15002 2.26623 7.26773L1.81161 10.0362C1.7713 10.2799 1.83253 10.517 1.98363 10.7039C2.21843 10.9952 2.62834 11.0839 2.95609 10.9041L5.338 9.59689C5.43756 9.54241 5.56288 9.54287 5.66222 9.59689L8.04435 10.9041C8.16021 10.9678 8.28378 11 8.41131 11C8.64413 11 8.86483 10.8919 9.01659 10.7039C9.16791 10.517 9.22892 10.2795 9.18861 10.0362L8.73377 7.26773C8.71439 7.14979 8.75205 7.02955 8.83421 6.94587L10.7613 4.98501Z" fill="#31E3A6"/>
</svg>
