<svg width="28" height="24" viewBox="0 0 28 24" fill="none" xmlns="http://www.w3.org/2000/svg">
<path class="btn-icon" d="M26.2438 0.102421L0.613771 10.2629C-0.237227 10.5677 -0.187168 11.7869 0.66383 12.041L5.51952 13.5142C6.57076 13.819 7.42175 14.6319 7.72211 15.6987L9.62434 21.8458C9.87463 22.6586 10.8758 22.9126 11.4765 22.303L14.0796 19.6105C14.5301 19.1533 15.1809 19.1025 15.6814 19.4581L21.4382 23.7255C22.2391 24.3351 23.3905 23.8779 23.5907 22.8618L27.9458 1.62649C28.2462 0.559642 27.245 -0.303997 26.2438 0.102421ZM23.0401 4.77623L12.728 14.0222C12.1773 14.5303 11.7769 15.2415 11.7268 16.0035C11.6267 16.7656 10.5755 16.8672 10.3252 16.1559L9.87463 14.6319C9.52422 13.5142 9.97475 12.3458 10.9259 11.7361L22.6897 4.31901C22.99 4.1158 23.2904 4.52222 23.0401 4.77623Z" fill="#DEDEDE"/>
</svg>
