<svg width="40" height="45" viewBox="0 0 40 45" fill="none" xmlns="http://www.w3.org/2000/svg">
<path d="M13.3034 1.80404C5.97307 -2.39833 0.000257257 0.999329 0.000257257 9.31465C-0.0449914 17.63 5.88258 27.7782 13.2129 31.9806C20.5431 36.183 26.5159 32.7853 26.5159 24.47C26.5612 16.11 20.6336 6.0064 13.3034 1.80404Z" transform="translate(5.29407 6.27557)" fill="#D3D3D3"/>
<path d="M3.07691 7.52186C1.35746 6.49362 -6.90439e-07 4.1242 -6.90439e-07 2.15714C0.0452479 0.190073 1.44796 -0.56993 3.1674 0.458309C4.88685 1.48655 6.24431 3.85597 6.24431 5.82303C6.24431 7.7901 4.8416 8.5501 3.07691 7.52186Z" transform="translate(15.6562 19.1555)" fill="#B8B8B8"/>
<path d="M7.37553 0.0447067C7.28503 6.82826e-07 7.19453 -3.4108e-07 7.10403 -3.4108e-07L-3.4522e-07 4.02354C0.226243 4.29178 0.407238 4.60472 0.497736 4.91766L7.60177 0.89412C7.73751 0.804708 7.73751 0.536472 7.60177 0.312942C7.60177 0.178824 7.46602 0.0894127 7.37553 0.0447067Z" transform="translate(19.1404 18.2278)" fill="#6C6C6C"/>
<path d="M5.91626 7.98704C5.78051 7.6741 5.59952 7.36116 5.41852 7.09292C5.23753 6.86939 5.05653 6.73527 4.83029 6.60115C4.69454 6.51174 4.60405 6.46703 4.4683 6.46703L0.984157 0.521132C0.848411 0.297602 0.712666 0.163483 0.57692 0.0740714C0.441174 -0.0153407 0.260179 -0.01534 0.169682 0.029366C-0.0565611 0.163484 -0.0565611 0.610543 0.169682 1.0129L3.65383 6.9588C3.60858 7.04821 3.60858 7.18233 3.60858 7.31645C3.60858 8.07645 4.15156 9.05999 4.83029 9.46234C5.50902 9.86469 6.09725 9.55175 6.09725 8.74704C6.052 8.52351 6.00675 8.25528 5.91626 7.98704Z" transform="translate(13.7671 15.1138)" fill="#2E2E2E"/>
<path d="M-6.90439e-07 0.565838C-6.90439e-07 0.923486 0.226243 1.32584 0.542983 1.50466C0.678729 1.59408 0.859724 1.59408 0.950222 1.54937L1.26696 1.37055C1.35746 1.32584 1.44796 1.19172 1.44796 1.0129C1.44796 0.65525 1.22171 0.252896 0.904972 0.0740721C0.769226 -0.01534 0.633481 -0.015341 0.497735 0.029365L0.180995 0.20819C0.0904973 0.297602 -6.90439e-07 0.43172 -6.90439e-07 0.565838Z" transform="translate(17.6924 22.4456)" fill="#B8B8B8"/>
<path d="M0.542983 0.0788632C0.226243 -0.0999609 -6.90439e-07 0.0341575 -6.90439e-07 0.391806C-6.90439e-07 0.749454 0.226243 1.15181 0.542983 1.33063C0.859724 1.50946 1.08597 1.37534 1.08597 1.01769C1.08597 0.704749 0.859724 0.257687 0.542983 0.0788632Z" transform="translate(17.6924 22.6196)" fill="#A1A1A1"/>
<path d="M26.1992 39.1056C24.1177 39.5973 21.5838 39.1056 18.8689 37.5856C11.8554 33.562 6.15403 23.8608 6.19928 15.9031C6.19928 12.8631 7.059 10.4937 8.50696 8.97371C10.5884 8.48195 13.1223 8.97371 15.8372 10.4937C22.8508 14.5173 28.5068 24.2185 28.5068 32.1761C28.4616 35.2162 27.6471 37.5856 26.1992 39.1056ZM24.2535 2.13369C19.9096 -0.369849 15.9277 -0.593379 13.0318 1.06074L4.61558 5.9337C4.61558 5.9337 4.61558 5.9337 4.66082 5.9337C1.76491 7.54312 0.000216333 10.9855 0.000216333 15.9479C-0.0450323 25.8279 7.01375 37.8985 15.7015 42.8609C20.1359 45.4091 24.163 45.588 27.0136 43.8891C26.9684 43.8891 26.9231 43.9338 26.9231 43.9338L35.3846 39.0609C38.2353 37.4515 39.9548 33.9644 40 29.0467C40 19.122 32.9865 7.09606 24.2535 2.13369Z" fill="#747474"/>
<path d="M3.71065 1.78824L6.83281 0C4.57038 1.29648 3.12242 4.11296 3.12242 8.04709C3.07717 16.0048 8.7785 25.706 15.792 29.7295L12.6699 31.5178C5.65635 27.4942 -0.0449811 17.793 0.000267574 9.83533C0.000267574 5.9012 1.40297 3.12942 3.71065 1.78824Z" transform="translate(3.07684 7.81134)" fill="#6C6C6C"/>
<path d="M12.1719 0.894121L9.04972 2.68236C6.74204 4.02354 3.52939 3.84472 3.4522e-07 1.78824L3.12215 0C6.6968 2.05648 9.8642 2.2353 12.1719 0.894121Z" transform="translate(15.7015 37.5408)" fill="#6C6C6C"/>
<path d="M-8.63049e-08 5.9337L8.41624 1.06074C11.3122 -0.593379 15.294 -0.369849 19.6379 2.13369L11.2217 7.00665C6.83254 4.50311 2.85066 4.27958 -8.63049e-08 5.9337Z" transform="translate(4.6156)" fill="#6C6C6C"/>
<path d="M19.5474 36.8825L11.0859 41.8001C13.9366 40.1907 15.656 36.7037 15.7013 31.786C15.7465 21.906 8.68774 9.83533 0 4.87296L8.41624 8.527e-08C17.1492 4.96237 24.1628 16.9883 24.1628 26.913C24.1628 31.786 22.3981 35.2731 19.5474 36.8825Z" transform="translate(15.8372 2.13373)" fill="#6C6C6C"/>
<path d="M15.7467 34.5017C22.7603 38.4805 28.4616 35.2617 28.5068 27.304C28.5521 19.3463 22.8508 9.64514 15.8372 5.62159C8.8237 1.59805 3.12237 4.81688 3.07712 12.8193C3.03187 20.7769 8.68795 30.4782 15.7467 34.5017ZM15.8372 2.13452C24.525 7.09689 31.5838 19.1675 31.5385 29.0476C31.4933 38.9276 24.4345 42.9064 15.7015 37.9441C7.01375 32.9817 -0.0450323 20.9558 0.000216333 11.0757C0.045465 1.15099 7.10425 -2.82785 15.8372 2.13452Z" transform="translate(0 4.87213)" fill="#747474"/>
</svg>
