<svg width="28" height="25" viewBox="0 0 28 25" fill="none" xmlns="http://www.w3.org/2000/svg">
<path class="network-icon" d="M2.66445 9.63597C2.71773 9.63597 2.71773 9.63597 2.66445 9.63597C2.18485 9.63597 1.70525 9.52891 1.27893 9.42184C0.586178 9.20771 -0.053289 9.85011 0.159867 10.4925C0.746045 12.7944 2.55787 14.6146 4.84929 15.0964C4.3164 15.257 3.78351 15.3105 3.25062 15.3105C2.71774 15.3105 2.34471 15.8994 2.61116 16.3812C3.62365 18.2548 5.59534 19.5396 7.78018 19.5931H8.31307C8.89925 19.5931 9.37885 20.0749 9.37885 20.6638C9.37885 21.2527 8.89925 21.7345 8.31307 21.7345C7.62032 21.7345 6.76769 21.6809 5.91507 21.4668C5.38218 21.3597 4.84929 21.3597 4.36969 21.5203C3.46378 21.8415 2.50458 22.1092 1.49209 22.2163C1.11907 22.2698 0.852623 22.5375 0.852623 22.9122C0.852623 23.1799 1.01249 23.4475 1.27893 23.5546C3.3572 24.4647 5.70192 25 8.15321 25C19.3972 25 25.5787 15.4176 25.5787 7.06638C25.5787 6.58458 25.7918 6.10278 26.1649 5.78158C26.8043 5.24625 27.3905 4.65739 27.9234 3.96146C28.1366 3.69379 27.8701 3.31906 27.5504 3.42612C26.9109 3.64026 26.2714 3.80086 25.5787 3.90792C25.4721 3.90792 25.4188 3.80086 25.5254 3.69379C26.3247 3.10493 27.0175 2.30193 27.4438 1.39186C27.6037 1.07066 27.2839 0.749465 26.9642 0.910064C26.378 1.23126 25.7385 1.4454 25.0991 1.65953C24.4596 1.87366 23.7136 1.71306 23.1807 1.2848C22.1682 0.481799 20.836 2.04213e-07 19.4505 2.04213e-07C16.6261 2.04213e-07 14.2281 1.98073 13.5354 4.71092C13.4288 5.19272 13.8018 5.62099 14.2814 5.62099C15.1341 5.56745 15.9867 5.46039 16.6261 5.35332C17.159 5.24625 17.6919 5.51392 17.9051 5.99572C18.1715 6.63812 17.7985 7.28051 17.2123 7.44111C14.761 8.13704 12.0433 7.65525 12.0433 7.65525C7.88676 7.06638 4.20983 5.03212 1.54538 2.08779C1.17236 1.65953 0.4796 1.82013 0.319734 2.30193C0.106578 2.94433 5.08203e-08 3.64026 5.08203e-08 4.38972C5.08203e-08 6.58458 1.06578 8.51178 2.66445 9.63597Z" fill="#DEDEDE"/>
</svg>
