<svg xmlns="http://www.w3.org/2000/svg" viewBox="0 0 470.54 152.75"><g><g><path style="fill:#fff" d="M455.24,107.45a14.74,14.74,0,0,0-10,3.9c-.42.48-.88.93-1.32,1.4A39.12,39.12,0,0,1,416,124.86c-19,0-34.23-10.42-41.53-26.39-.12-.26-.28-.49-.39-.75a54.63,54.63,0,0,1,0-42.69s.08-.43.1-.19c7.2-16.3,22.6-26.95,41.83-26.95A39.44,39.44,0,0,1,444.7,40.81l.43.49A14.88,14.88,0,0,0,459.66,45l4.88-2.4a14.81,14.81,0,0,0,1.66-1.36,14.81,14.81,0,0,0,4.18-8.52,16.11,16.11,0,0,0-.08-4.92,14.87,14.87,0,0,0-2.94-6.13q-1.43-1.56-3-3.05C453.32,7.91,437.73,0,416,0c-17.32,0-33.06,4.79-45.87,13.28a72.82,72.82,0,0,0-10.35,8.48,58.84,58.84,0,0,0-22-14.31c-10.3-3.94-22.74-6.13-37.5-6.13-25.69,0-44.51,6.49-56.78,17.63C231.28,7.84,212.48,1.32,186.82,1.32c-15.19,0-28,2.28-38.43,6.43-24,9.5-35.72,28.91-35.72,53.91v3.13h0V91.61c0,20.12-13.06,34-38.43,34s-38.68-13.84-38.68-34V17.81h-.09c0,.22.07.43.07.65,0,9.59-.1,9.44-.1-.15A17.54,17.54,0,0,0,17.73,1,17.54,17.54,0,0,0,0,18.31c0,.34.08.66.1,1V92.7C.1,127.62,23.56,152,72,152.75h4.07c14.36-.18,26.57-2.39,36.6-6.36,24-9.5,35.72-28.91,35.72-53.91V87.35h0V62.52c0-20.12,13.06-34,38.43-34s38.68,13.84,38.68,34v71c0,.34-.1.67-.1,1a18.2,18.2,0,0,0,36.4,0c0-3.71.1-3.63.1.15V62.52c0-20.12,13.06-34,38.43-34,21.07,0,33.78,9.56,37.5,24.31V83.61c1.73,20.58,10.7,37.78,24.49,49.87s32.43,19.17,53.32,19.25l1.13,0c.63,0,1.21-.07,1.83-.08,20.25-.62,34.95-8.26,45.55-18.53,1.18-1.14,2.32-2.31,3.4-3.51a14.84,14.84,0,0,0-12.31-23.13Z"/></g></g></svg>