<svg width="40" height="39" viewBox="0 0 40 39" fill="none" xmlns="http://www.w3.org/2000/svg">
<path class="new-icon" d="M27.549 16.6857H-1.51866e-07V13.6807C-1.51866e-07 6.16816 6.21047 0 13.7745 0C21.3386 0 27.549 6.16816 27.549 13.6807V16.6857ZM3.18486 13.5225H24.3642C24.2845 7.82882 19.5869 3.16316 13.7745 3.16316C7.96215 3.16316 3.26448 7.82882 3.18486 13.5225Z" transform="translate(6.14597)" fill="#656D79"/>
<path  class="new-icon" d="M32.5803 14.5505H7.26064L1.20941 10.7547C0.572439 10.3593 0.174331 9.64763 0.0150883 8.93592C-0.0645332 8.22421 0.174331 7.43342 0.65206 6.87987L6.86254 3.01662e-07H32.7395L39.2685 6.80079C39.8258 7.35434 40.0647 8.14513 39.9851 8.93592C39.9054 9.72671 39.4277 10.3593 38.7907 10.7547L32.5803 14.5505ZM8.2161 11.3874H31.7044L36.5613 8.46144L31.4656 3.16316H8.37534L3.59805 8.46144L8.2161 11.3874Z" transform="translate(0 13.5225)" fill="#656D79"/>
<path class="new-icon" d="M14.0134 2.37237H1.19432C0.55735 2.37237 -1.51866e-07 1.81882 -1.51866e-07 1.18618C-1.51866e-07 0.553552 0.55735 -3.01662e-07 1.19432 -3.01662e-07H14.0134C14.6504 -3.01662e-07 15.2077 0.553552 15.2077 1.18618C15.2077 1.81882 14.6504 2.37237 14.0134 2.37237Z" transform="translate(7.73837 20.4814)" fill="#656D79"/>
<path class="new-icon" d="M3.26448 2.37237H1.19432C0.557349 2.37237 -1.21493e-06 1.81882 -1.21493e-06 1.18618C-1.21493e-06 0.553552 0.557349 -3.01662e-07 1.19432 -3.01662e-07H3.26448C3.90145 -3.01662e-07 4.4588 0.553552 4.4588 1.18618C4.4588 1.81882 3.90145 2.37237 3.26448 2.37237Z" transform="translate(26.7679 20.4814)" fill="#656D79"/>
<path class="new-icon" d="M0.826089 9.6773C0.0298737 9.2819 -0.208991 8.25388 0.189117 7.54217L3.93133 0.820461C4.32943 0.0296715 5.36451 -0.207568 6.08111 0.187827C6.87732 0.583222 7.11619 1.61125 6.71808 2.32296L3.05549 8.96559C2.57776 9.75638 1.6223 10.0727 0.826089 9.6773Z" transform="translate(0.861053 29.1505)" fill="#656D79"/>
<path class="new-icon" d="M3.85171 8.96559L0.189116 2.32296C-0.208992 1.53217 0.0298751 0.583223 0.82609 0.187829C1.6223 -0.207566 2.57776 0.0296703 2.97587 0.82046L6.63846 7.46309C7.03656 8.25388 6.7977 9.20282 6.00149 9.59822C5.20527 9.99361 4.24981 9.6773 3.85171 8.96559Z" transform="translate(31.3561 29.2295)" fill="#656D79"/>
<path class="new-icon" d="M1.59243 8.46145C0.716594 8.46145 3.03732e-07 7.74973 3.03732e-07 6.87987V1.58158C3.03732e-07 0.711712 0.716594 1.20665e-06 1.59243 1.20665e-06C2.46827 1.20665e-06 3.18486 0.711712 3.18486 1.58158V6.87987C3.18486 7.74973 2.46827 8.46145 1.59243 8.46145Z" transform="translate(18.4077 30.3663)" fill="#656D79"/>
<path class="new-icon" d="M1.03508 2.05605C1.60674 2.05605 2.07016 1.59579 2.07016 1.02803C2.07016 0.460263 1.60674 0 1.03508 0C0.463422 0 0 0.460263 0 1.02803C0 1.59579 0.463422 2.05605 1.03508 2.05605Z" transform="translate(26.3698 9.96393)" fill="#656D79"/>
</svg>
