<svg xmlns="http://www.w3.org/2000/svg" xmlns:xlink="http://www.w3.org/1999/xlink" preserveAspectRatio="xMidYMid" width="18" height="13" viewBox="0 0 18 13">
  <defs>
    <style>
      .email-icon-cls-1 {
        opacity: 0.65;
        fill-rule: evenodd;
      }
    </style>
  </defs>
  <path d="M11.786,6.603 L18.000,1.137 L18.000,11.941 L11.786,6.603 ZM0.409,0.355 C0.640,0.135 0.952,-0.000 1.294,-0.000 L16.705,-0.000 C17.051,-0.000 17.362,0.134 17.593,0.352 L9.000,7.800 L0.409,0.355 ZM-0.000,11.941 L-0.000,1.141 L6.214,6.603 L-0.000,11.941 ZM9.000,9.100 L11.227,7.129 L17.590,12.647 C17.360,12.865 17.048,13.000 16.705,13.000 L1.294,13.000 C0.950,13.000 0.638,12.865 0.406,12.647 L6.773,7.129 L9.000,9.100 Z" class="soc-fill email-icon-cls-1"/>
</svg>
