<svg xmlns="http://www.w3.org/2000/svg" xmlns:xlink="http://www.w3.org/1999/xlink" preserveAspectRatio="xMidYMid" width="69" height="76" viewBox="0 0 69 76">
  <defs>
    <style>
      .many-white-sircle-cls-1 {
        fill: #fff;
        fill-rule: evenodd;
      }
    </style>
  </defs>
  <path d="M66.922,66.656 C65.895,66.656 65.062,65.852 65.062,64.859 C65.062,63.867 65.895,63.062 66.922,63.062 C67.949,63.062 68.781,63.867 68.781,64.859 C68.781,65.852 67.949,66.656 66.922,66.656 ZM66.922,57.656 C65.895,57.656 65.062,56.866 65.062,55.891 C65.062,54.915 65.895,54.125 66.922,54.125 C67.949,54.125 68.781,54.915 68.781,55.891 C68.781,56.866 67.949,57.656 66.922,57.656 ZM66.922,48.719 C65.895,48.719 65.062,47.907 65.062,46.906 C65.062,45.905 65.895,45.094 66.922,45.094 C67.949,45.094 68.781,45.905 68.781,46.906 C68.781,47.907 67.949,48.719 66.922,48.719 ZM66.922,39.719 C65.895,39.719 65.062,38.907 65.062,37.906 C65.062,36.905 65.895,36.094 66.922,36.094 C67.949,36.094 68.781,36.905 68.781,37.906 C68.781,38.907 67.949,39.719 66.922,39.719 ZM66.922,30.719 C65.895,30.719 65.062,29.907 65.062,28.906 C65.062,27.905 65.895,27.094 66.922,27.094 C67.949,27.094 68.781,27.905 68.781,28.906 C68.781,29.907 67.949,30.719 66.922,30.719 ZM66.922,21.687 C65.895,21.687 65.062,20.897 65.062,19.922 C65.062,18.947 65.895,18.156 66.922,18.156 C67.949,18.156 68.781,18.947 68.781,19.922 C68.781,20.897 67.949,21.687 66.922,21.687 ZM66.922,12.750 C65.895,12.750 65.062,11.946 65.062,10.953 C65.062,9.961 65.895,9.156 66.922,9.156 C67.949,9.156 68.781,9.961 68.781,10.953 C68.781,11.946 67.949,12.750 66.922,12.750 ZM66.922,3.750 C65.895,3.750 65.062,2.946 65.062,1.953 C65.062,0.961 65.895,0.156 66.922,0.156 C67.949,0.156 68.781,0.961 68.781,1.953 C68.781,2.946 67.949,3.750 66.922,3.750 ZM57.641,75.656 C56.614,75.656 55.781,74.852 55.781,73.859 C55.781,72.867 56.614,72.062 57.641,72.062 C58.668,72.062 59.500,72.867 59.500,73.859 C59.500,74.852 58.668,75.656 57.641,75.656 ZM57.641,66.656 C56.614,66.656 55.781,65.852 55.781,64.859 C55.781,63.867 56.614,63.062 57.641,63.062 C58.668,63.062 59.500,63.867 59.500,64.859 C59.500,65.852 58.668,66.656 57.641,66.656 ZM57.641,57.656 C56.614,57.656 55.781,56.866 55.781,55.891 C55.781,54.915 56.614,54.125 57.641,54.125 C58.668,54.125 59.500,54.915 59.500,55.891 C59.500,56.866 58.668,57.656 57.641,57.656 ZM57.641,48.719 C56.614,48.719 55.781,47.907 55.781,46.906 C55.781,45.905 56.614,45.094 57.641,45.094 C58.668,45.094 59.500,45.905 59.500,46.906 C59.500,47.907 58.668,48.719 57.641,48.719 ZM57.641,39.719 C56.614,39.719 55.781,38.907 55.781,37.906 C55.781,36.905 56.614,36.094 57.641,36.094 C58.668,36.094 59.500,36.905 59.500,37.906 C59.500,38.907 58.668,39.719 57.641,39.719 ZM57.641,30.719 C56.614,30.719 55.781,29.907 55.781,28.906 C55.781,27.905 56.614,27.094 57.641,27.094 C58.668,27.094 59.500,27.905 59.500,28.906 C59.500,29.907 58.668,30.719 57.641,30.719 ZM57.641,21.687 C56.614,21.687 55.781,20.897 55.781,19.922 C55.781,18.947 56.614,18.156 57.641,18.156 C58.668,18.156 59.500,18.947 59.500,19.922 C59.500,20.897 58.668,21.687 57.641,21.687 ZM57.641,12.750 C56.614,12.750 55.781,11.946 55.781,10.953 C55.781,9.961 56.614,9.156 57.641,9.156 C58.668,9.156 59.500,9.961 59.500,10.953 C59.500,11.946 58.668,12.750 57.641,12.750 ZM57.641,3.750 C56.614,3.750 55.781,2.946 55.781,1.953 C55.781,0.961 56.614,0.156 57.641,0.156 C58.668,0.156 59.500,0.961 59.500,1.953 C59.500,2.946 58.668,3.750 57.641,3.750 ZM48.375,75.656 C47.339,75.656 46.500,74.852 46.500,73.859 C46.500,72.867 47.339,72.062 48.375,72.062 C49.411,72.062 50.250,72.867 50.250,73.859 C50.250,74.852 49.411,75.656 48.375,75.656 ZM48.375,66.656 C47.339,66.656 46.500,65.852 46.500,64.859 C46.500,63.867 47.339,63.062 48.375,63.062 C49.411,63.062 50.250,63.867 50.250,64.859 C50.250,65.852 49.411,66.656 48.375,66.656 ZM48.375,57.656 C47.339,57.656 46.500,56.866 46.500,55.891 C46.500,54.915 47.339,54.125 48.375,54.125 C49.411,54.125 50.250,54.915 50.250,55.891 C50.250,56.866 49.411,57.656 48.375,57.656 ZM48.375,48.719 C47.339,48.719 46.500,47.907 46.500,46.906 C46.500,45.905 47.339,45.094 48.375,45.094 C49.411,45.094 50.250,45.905 50.250,46.906 C50.250,47.907 49.411,48.719 48.375,48.719 ZM48.375,39.719 C47.339,39.719 46.500,38.907 46.500,37.906 C46.500,36.905 47.339,36.094 48.375,36.094 C49.411,36.094 50.250,36.905 50.250,37.906 C50.250,38.907 49.411,39.719 48.375,39.719 ZM48.375,30.719 C47.339,30.719 46.500,29.907 46.500,28.906 C46.500,27.905 47.339,27.094 48.375,27.094 C49.411,27.094 50.250,27.905 50.250,28.906 C50.250,29.907 49.411,30.719 48.375,30.719 ZM48.375,21.687 C47.339,21.687 46.500,20.897 46.500,19.922 C46.500,18.947 47.339,18.156 48.375,18.156 C49.411,18.156 50.250,18.947 50.250,19.922 C50.250,20.897 49.411,21.687 48.375,21.687 ZM48.375,12.750 C47.339,12.750 46.500,11.946 46.500,10.953 C46.500,9.961 47.339,9.156 48.375,9.156 C49.411,9.156 50.250,9.961 50.250,10.953 C50.250,11.946 49.411,12.750 48.375,12.750 ZM48.375,3.750 C47.339,3.750 46.500,2.946 46.500,1.953 C46.500,0.961 47.339,0.156 48.375,0.156 C49.411,0.156 50.250,0.961 50.250,1.953 C50.250,2.946 49.411,3.750 48.375,3.750 ZM39.078,75.656 C38.051,75.656 37.219,74.852 37.219,73.859 C37.219,72.867 38.051,72.062 39.078,72.062 C40.105,72.062 40.937,72.867 40.937,73.859 C40.937,74.852 40.105,75.656 39.078,75.656 ZM39.078,66.656 C38.051,66.656 37.219,65.852 37.219,64.859 C37.219,63.867 38.051,63.062 39.078,63.062 C40.105,63.062 40.937,63.867 40.937,64.859 C40.937,65.852 40.105,66.656 39.078,66.656 ZM39.078,57.656 C38.051,57.656 37.219,56.866 37.219,55.891 C37.219,54.915 38.051,54.125 39.078,54.125 C40.105,54.125 40.937,54.915 40.937,55.891 C40.937,56.866 40.105,57.656 39.078,57.656 ZM39.078,48.719 C38.051,48.719 37.219,47.907 37.219,46.906 C37.219,45.905 38.051,45.094 39.078,45.094 C40.105,45.094 40.937,45.905 40.937,46.906 C40.937,47.907 40.105,48.719 39.078,48.719 ZM39.078,39.719 C38.051,39.719 37.219,38.907 37.219,37.906 C37.219,36.905 38.051,36.094 39.078,36.094 C40.105,36.094 40.937,36.905 40.937,37.906 C40.937,38.907 40.105,39.719 39.078,39.719 ZM39.078,30.719 C38.051,30.719 37.219,29.907 37.219,28.906 C37.219,27.905 38.051,27.094 39.078,27.094 C40.105,27.094 40.937,27.905 40.937,28.906 C40.937,29.907 40.105,30.719 39.078,30.719 ZM39.078,21.687 C38.051,21.687 37.219,20.897 37.219,19.922 C37.219,18.947 38.051,18.156 39.078,18.156 C40.105,18.156 40.937,18.947 40.937,19.922 C40.937,20.897 40.105,21.687 39.078,21.687 ZM39.078,12.750 C38.051,12.750 37.219,11.946 37.219,10.953 C37.219,9.961 38.051,9.156 39.078,9.156 C40.105,9.156 40.937,9.961 40.937,10.953 C40.937,11.946 40.105,12.750 39.078,12.750 ZM39.078,3.750 C38.051,3.750 37.219,2.946 37.219,1.953 C37.219,0.961 38.051,0.156 39.078,0.156 C40.105,0.156 40.937,0.961 40.937,1.953 C40.937,2.946 40.105,3.750 39.078,3.750 ZM29.828,75.656 C28.801,75.656 27.969,74.852 27.969,73.859 C27.969,72.867 28.801,72.062 29.828,72.062 C30.855,72.062 31.687,72.867 31.687,73.859 C31.687,74.852 30.855,75.656 29.828,75.656 ZM29.828,66.656 C28.801,66.656 27.969,65.852 27.969,64.859 C27.969,63.867 28.801,63.062 29.828,63.062 C30.855,63.062 31.687,63.867 31.687,64.859 C31.687,65.852 30.855,66.656 29.828,66.656 ZM29.828,57.656 C28.801,57.656 27.969,56.866 27.969,55.891 C27.969,54.915 28.801,54.125 29.828,54.125 C30.855,54.125 31.687,54.915 31.687,55.891 C31.687,56.866 30.855,57.656 29.828,57.656 ZM29.828,48.719 C28.801,48.719 27.969,47.907 27.969,46.906 C27.969,45.905 28.801,45.094 29.828,45.094 C30.855,45.094 31.687,45.905 31.687,46.906 C31.687,47.907 30.855,48.719 29.828,48.719 ZM29.828,39.719 C28.801,39.719 27.969,38.907 27.969,37.906 C27.969,36.905 28.801,36.094 29.828,36.094 C30.855,36.094 31.687,36.905 31.687,37.906 C31.687,38.907 30.855,39.719 29.828,39.719 ZM29.828,30.719 C28.801,30.719 27.969,29.907 27.969,28.906 C27.969,27.905 28.801,27.094 29.828,27.094 C30.855,27.094 31.687,27.905 31.687,28.906 C31.687,29.907 30.855,30.719 29.828,30.719 ZM29.828,21.687 C28.801,21.687 27.969,20.897 27.969,19.922 C27.969,18.947 28.801,18.156 29.828,18.156 C30.855,18.156 31.687,18.947 31.687,19.922 C31.687,20.897 30.855,21.687 29.828,21.687 ZM29.828,12.750 C28.801,12.750 27.969,11.946 27.969,10.953 C27.969,9.961 28.801,9.156 29.828,9.156 C30.855,9.156 31.687,9.961 31.687,10.953 C31.687,11.946 30.855,12.750 29.828,12.750 ZM29.828,3.750 C28.801,3.750 27.969,2.946 27.969,1.953 C27.969,0.961 28.801,0.156 29.828,0.156 C30.855,0.156 31.687,0.961 31.687,1.953 C31.687,2.946 30.855,3.750 29.828,3.750 ZM20.531,75.656 C19.496,75.656 18.656,74.852 18.656,73.859 C18.656,72.867 19.496,72.062 20.531,72.062 C21.567,72.062 22.406,72.867 22.406,73.859 C22.406,74.852 21.567,75.656 20.531,75.656 ZM20.531,66.656 C19.496,66.656 18.656,65.852 18.656,64.859 C18.656,63.867 19.496,63.062 20.531,63.062 C21.567,63.062 22.406,63.867 22.406,64.859 C22.406,65.852 21.567,66.656 20.531,66.656 ZM20.531,57.656 C19.496,57.656 18.656,56.866 18.656,55.891 C18.656,54.915 19.496,54.125 20.531,54.125 C21.567,54.125 22.406,54.915 22.406,55.891 C22.406,56.866 21.567,57.656 20.531,57.656 ZM20.531,48.719 C19.496,48.719 18.656,47.907 18.656,46.906 C18.656,45.905 19.496,45.094 20.531,45.094 C21.567,45.094 22.406,45.905 22.406,46.906 C22.406,47.907 21.567,48.719 20.531,48.719 ZM20.531,39.719 C19.496,39.719 18.656,38.907 18.656,37.906 C18.656,36.905 19.496,36.094 20.531,36.094 C21.567,36.094 22.406,36.905 22.406,37.906 C22.406,38.907 21.567,39.719 20.531,39.719 ZM20.531,30.719 C19.496,30.719 18.656,29.907 18.656,28.906 C18.656,27.905 19.496,27.094 20.531,27.094 C21.567,27.094 22.406,27.905 22.406,28.906 C22.406,29.907 21.567,30.719 20.531,30.719 ZM20.531,21.687 C19.496,21.687 18.656,20.897 18.656,19.922 C18.656,18.947 19.496,18.156 20.531,18.156 C21.567,18.156 22.406,18.947 22.406,19.922 C22.406,20.897 21.567,21.687 20.531,21.687 ZM20.531,12.750 C19.496,12.750 18.656,11.946 18.656,10.953 C18.656,9.961 19.496,9.156 20.531,9.156 C21.567,9.156 22.406,9.961 22.406,10.953 C22.406,11.946 21.567,12.750 20.531,12.750 ZM20.531,3.750 C19.496,3.750 18.656,2.946 18.656,1.953 C18.656,0.961 19.496,0.156 20.531,0.156 C21.567,0.156 22.406,0.961 22.406,1.953 C22.406,2.946 21.567,3.750 20.531,3.750 ZM11.266,75.656 C10.239,75.656 9.406,74.852 9.406,73.859 C9.406,72.867 10.239,72.062 11.266,72.062 C12.293,72.062 13.125,72.867 13.125,73.859 C13.125,74.852 12.293,75.656 11.266,75.656 ZM11.266,66.656 C10.239,66.656 9.406,65.852 9.406,64.859 C9.406,63.867 10.239,63.062 11.266,63.062 C12.293,63.062 13.125,63.867 13.125,64.859 C13.125,65.852 12.293,66.656 11.266,66.656 ZM11.266,57.656 C10.239,57.656 9.406,56.866 9.406,55.891 C9.406,54.915 10.239,54.125 11.266,54.125 C12.293,54.125 13.125,54.915 13.125,55.891 C13.125,56.866 12.293,57.656 11.266,57.656 ZM11.266,48.719 C10.239,48.719 9.406,47.907 9.406,46.906 C9.406,45.905 10.239,45.094 11.266,45.094 C12.293,45.094 13.125,45.905 13.125,46.906 C13.125,47.907 12.293,48.719 11.266,48.719 ZM11.266,39.719 C10.239,39.719 9.406,38.907 9.406,37.906 C9.406,36.905 10.239,36.094 11.266,36.094 C12.293,36.094 13.125,36.905 13.125,37.906 C13.125,38.907 12.293,39.719 11.266,39.719 ZM11.266,30.719 C10.239,30.719 9.406,29.907 9.406,28.906 C9.406,27.905 10.239,27.094 11.266,27.094 C12.293,27.094 13.125,27.905 13.125,28.906 C13.125,29.907 12.293,30.719 11.266,30.719 ZM11.266,21.687 C10.239,21.687 9.406,20.897 9.406,19.922 C9.406,18.947 10.239,18.156 11.266,18.156 C12.293,18.156 13.125,18.947 13.125,19.922 C13.125,20.897 12.293,21.687 11.266,21.687 ZM11.266,12.750 C10.239,12.750 9.406,11.946 9.406,10.953 C9.406,9.961 10.239,9.156 11.266,9.156 C12.293,9.156 13.125,9.961 13.125,10.953 C13.125,11.946 12.293,12.750 11.266,12.750 ZM11.266,3.750 C10.239,3.750 9.406,2.946 9.406,1.953 C9.406,0.961 10.239,0.156 11.266,0.156 C12.293,0.156 13.125,0.961 13.125,1.953 C13.125,2.946 12.293,3.750 11.266,3.750 ZM1.984,75.656 C0.957,75.656 0.125,74.852 0.125,73.859 C0.125,72.867 0.957,72.062 1.984,72.062 C3.011,72.062 3.844,72.867 3.844,73.859 C3.844,74.852 3.011,75.656 1.984,75.656 ZM1.984,66.656 C0.957,66.656 0.125,65.852 0.125,64.859 C0.125,63.867 0.957,63.062 1.984,63.062 C3.011,63.062 3.844,63.867 3.844,64.859 C3.844,65.852 3.011,66.656 1.984,66.656 ZM1.984,57.656 C0.957,57.656 0.125,56.866 0.125,55.891 C0.125,54.915 0.957,54.125 1.984,54.125 C3.011,54.125 3.844,54.915 3.844,55.891 C3.844,56.866 3.011,57.656 1.984,57.656 ZM1.984,48.719 C0.957,48.719 0.125,47.907 0.125,46.906 C0.125,45.905 0.957,45.094 1.984,45.094 C3.011,45.094 3.844,45.905 3.844,46.906 C3.844,47.907 3.011,48.719 1.984,48.719 ZM1.984,39.719 C0.957,39.719 0.125,38.907 0.125,37.906 C0.125,36.905 0.957,36.094 1.984,36.094 C3.011,36.094 3.844,36.905 3.844,37.906 C3.844,38.907 3.011,39.719 1.984,39.719 ZM1.984,30.719 C0.957,30.719 0.125,29.907 0.125,28.906 C0.125,27.905 0.957,27.094 1.984,27.094 C3.011,27.094 3.844,27.905 3.844,28.906 C3.844,29.907 3.011,30.719 1.984,30.719 ZM1.984,21.687 C0.957,21.687 0.125,20.897 0.125,19.922 C0.125,18.947 0.957,18.156 1.984,18.156 C3.011,18.156 3.844,18.947 3.844,19.922 C3.844,20.897 3.011,21.687 1.984,21.687 ZM1.984,12.750 C0.957,12.750 0.125,11.946 0.125,10.953 C0.125,9.961 0.957,9.156 1.984,9.156 C3.011,9.156 3.844,9.961 3.844,10.953 C3.844,11.946 3.011,12.750 1.984,12.750 ZM1.984,3.750 C0.957,3.750 0.125,2.946 0.125,1.953 C0.125,0.961 0.957,0.156 1.984,0.156 C3.011,0.156 3.844,0.961 3.844,1.953 C3.844,2.946 3.011,3.750 1.984,3.750 ZM66.922,72.062 C67.949,72.062 68.781,72.867 68.781,73.859 C68.781,74.852 67.949,75.656 66.922,75.656 C65.895,75.656 65.062,74.852 65.062,73.859 C65.062,72.867 65.895,72.062 66.922,72.062 Z" class="many-white-sircle-cls-1"/>
</svg>
