<svg xmlns="http://www.w3.org/2000/svg" xmlns:xlink="http://www.w3.org/1999/xlink" preserveAspectRatio="xMidYMid" width="66" height="75" viewBox="0 0 66 75">
  <defs>
    <style>
      .many-green-sircle-cls-1 {
        fill: #07e782;
        fill-rule: evenodd;
      }
    </style>
  </defs>
  <path d="M63.359,65.625 C62.384,65.625 61.594,64.834 61.594,63.859 C61.594,62.884 62.384,62.094 63.359,62.094 C64.335,62.094 65.125,62.884 65.125,63.859 C65.125,64.834 64.335,65.625 63.359,65.625 ZM63.359,56.844 C62.384,56.844 61.594,56.053 61.594,55.078 C61.594,54.103 62.384,53.312 63.359,53.312 C64.335,53.312 65.125,54.103 65.125,55.078 C65.125,56.053 64.335,56.844 63.359,56.844 ZM63.359,48.062 C62.384,48.062 61.594,47.279 61.594,46.312 C61.594,45.346 62.384,44.562 63.359,44.562 C64.335,44.562 65.125,45.346 65.125,46.312 C65.125,47.279 64.335,48.062 63.359,48.062 ZM63.359,39.281 C62.384,39.281 61.594,38.498 61.594,37.531 C61.594,36.565 62.384,35.781 63.359,35.781 C64.335,35.781 65.125,36.565 65.125,37.531 C65.125,38.498 64.335,39.281 63.359,39.281 ZM63.359,30.500 C62.384,30.500 61.594,29.716 61.594,28.750 C61.594,27.784 62.384,27.000 63.359,27.000 C64.335,27.000 65.125,27.784 65.125,28.750 C65.125,29.716 64.335,30.500 63.359,30.500 ZM63.359,21.719 C62.384,21.719 61.594,20.935 61.594,19.969 C61.594,19.002 62.384,18.219 63.359,18.219 C64.335,18.219 65.125,19.002 65.125,19.969 C65.125,20.935 64.335,21.719 63.359,21.719 ZM63.359,12.969 C62.384,12.969 61.594,12.178 61.594,11.203 C61.594,10.228 62.384,9.437 63.359,9.437 C64.335,9.437 65.125,10.228 65.125,11.203 C65.125,12.178 64.335,12.969 63.359,12.969 ZM63.359,4.187 C62.384,4.187 61.594,3.397 61.594,2.422 C61.594,1.447 62.384,0.656 63.359,0.656 C64.335,0.656 65.125,1.447 65.125,2.422 C65.125,3.397 64.335,4.187 63.359,4.187 ZM54.547,74.375 C53.572,74.375 52.781,73.591 52.781,72.625 C52.781,71.658 53.572,70.875 54.547,70.875 C55.522,70.875 56.312,71.658 56.312,72.625 C56.312,73.591 55.522,74.375 54.547,74.375 ZM54.547,65.625 C53.572,65.625 52.781,64.834 52.781,63.859 C52.781,62.884 53.572,62.094 54.547,62.094 C55.522,62.094 56.312,62.884 56.312,63.859 C56.312,64.834 55.522,65.625 54.547,65.625 ZM54.547,56.844 C53.572,56.844 52.781,56.053 52.781,55.078 C52.781,54.103 53.572,53.312 54.547,53.312 C55.522,53.312 56.312,54.103 56.312,55.078 C56.312,56.053 55.522,56.844 54.547,56.844 ZM54.547,48.062 C53.572,48.062 52.781,47.279 52.781,46.312 C52.781,45.346 53.572,44.562 54.547,44.562 C55.522,44.562 56.312,45.346 56.312,46.312 C56.312,47.279 55.522,48.062 54.547,48.062 ZM54.547,39.281 C53.572,39.281 52.781,38.498 52.781,37.531 C52.781,36.565 53.572,35.781 54.547,35.781 C55.522,35.781 56.312,36.565 56.312,37.531 C56.312,38.498 55.522,39.281 54.547,39.281 ZM54.547,30.500 C53.572,30.500 52.781,29.716 52.781,28.750 C52.781,27.784 53.572,27.000 54.547,27.000 C55.522,27.000 56.312,27.784 56.312,28.750 C56.312,29.716 55.522,30.500 54.547,30.500 ZM54.547,21.719 C53.572,21.719 52.781,20.935 52.781,19.969 C52.781,19.002 53.572,18.219 54.547,18.219 C55.522,18.219 56.312,19.002 56.312,19.969 C56.312,20.935 55.522,21.719 54.547,21.719 ZM54.547,12.969 C53.572,12.969 52.781,12.178 52.781,11.203 C52.781,10.228 53.572,9.437 54.547,9.437 C55.522,9.437 56.312,10.228 56.312,11.203 C56.312,12.178 55.522,12.969 54.547,12.969 ZM54.547,4.187 C53.572,4.187 52.781,3.397 52.781,2.422 C52.781,1.447 53.572,0.656 54.547,0.656 C55.522,0.656 56.312,1.447 56.312,2.422 C56.312,3.397 55.522,4.187 54.547,4.187 ZM45.766,74.375 C44.790,74.375 44.000,73.591 44.000,72.625 C44.000,71.658 44.790,70.875 45.766,70.875 C46.741,70.875 47.531,71.658 47.531,72.625 C47.531,73.591 46.741,74.375 45.766,74.375 ZM45.766,65.625 C44.790,65.625 44.000,64.834 44.000,63.859 C44.000,62.884 44.790,62.094 45.766,62.094 C46.741,62.094 47.531,62.884 47.531,63.859 C47.531,64.834 46.741,65.625 45.766,65.625 ZM45.766,56.844 C44.790,56.844 44.000,56.053 44.000,55.078 C44.000,54.103 44.790,53.312 45.766,53.312 C46.741,53.312 47.531,54.103 47.531,55.078 C47.531,56.053 46.741,56.844 45.766,56.844 ZM45.766,48.062 C44.790,48.062 44.000,47.279 44.000,46.312 C44.000,45.346 44.790,44.562 45.766,44.562 C46.741,44.562 47.531,45.346 47.531,46.312 C47.531,47.279 46.741,48.062 45.766,48.062 ZM45.766,39.281 C44.790,39.281 44.000,38.498 44.000,37.531 C44.000,36.565 44.790,35.781 45.766,35.781 C46.741,35.781 47.531,36.565 47.531,37.531 C47.531,38.498 46.741,39.281 45.766,39.281 ZM45.766,30.500 C44.790,30.500 44.000,29.716 44.000,28.750 C44.000,27.784 44.790,27.000 45.766,27.000 C46.741,27.000 47.531,27.784 47.531,28.750 C47.531,29.716 46.741,30.500 45.766,30.500 ZM45.766,21.719 C44.790,21.719 44.000,20.935 44.000,19.969 C44.000,19.002 44.790,18.219 45.766,18.219 C46.741,18.219 47.531,19.002 47.531,19.969 C47.531,20.935 46.741,21.719 45.766,21.719 ZM45.766,12.969 C44.790,12.969 44.000,12.178 44.000,11.203 C44.000,10.228 44.790,9.437 45.766,9.437 C46.741,9.437 47.531,10.228 47.531,11.203 C47.531,12.178 46.741,12.969 45.766,12.969 ZM45.766,4.187 C44.790,4.187 44.000,3.397 44.000,2.422 C44.000,1.447 44.790,0.656 45.766,0.656 C46.741,0.656 47.531,1.447 47.531,2.422 C47.531,3.397 46.741,4.187 45.766,4.187 ZM36.953,74.375 C35.978,74.375 35.187,73.591 35.187,72.625 C35.187,71.658 35.978,70.875 36.953,70.875 C37.928,70.875 38.719,71.658 38.719,72.625 C38.719,73.591 37.928,74.375 36.953,74.375 ZM36.953,65.625 C35.978,65.625 35.187,64.834 35.187,63.859 C35.187,62.884 35.978,62.094 36.953,62.094 C37.928,62.094 38.719,62.884 38.719,63.859 C38.719,64.834 37.928,65.625 36.953,65.625 ZM36.953,56.844 C35.978,56.844 35.187,56.053 35.187,55.078 C35.187,54.103 35.978,53.312 36.953,53.312 C37.928,53.312 38.719,54.103 38.719,55.078 C38.719,56.053 37.928,56.844 36.953,56.844 ZM36.953,48.062 C35.978,48.062 35.187,47.279 35.187,46.312 C35.187,45.346 35.978,44.562 36.953,44.562 C37.928,44.562 38.719,45.346 38.719,46.312 C38.719,47.279 37.928,48.062 36.953,48.062 ZM36.953,39.281 C35.978,39.281 35.187,38.498 35.187,37.531 C35.187,36.565 35.978,35.781 36.953,35.781 C37.928,35.781 38.719,36.565 38.719,37.531 C38.719,38.498 37.928,39.281 36.953,39.281 ZM36.953,30.500 C35.978,30.500 35.187,29.716 35.187,28.750 C35.187,27.784 35.978,27.000 36.953,27.000 C37.928,27.000 38.719,27.784 38.719,28.750 C38.719,29.716 37.928,30.500 36.953,30.500 ZM36.953,21.719 C35.978,21.719 35.187,20.935 35.187,19.969 C35.187,19.002 35.978,18.219 36.953,18.219 C37.928,18.219 38.719,19.002 38.719,19.969 C38.719,20.935 37.928,21.719 36.953,21.719 ZM36.953,12.969 C35.978,12.969 35.187,12.178 35.187,11.203 C35.187,10.228 35.978,9.437 36.953,9.437 C37.928,9.437 38.719,10.228 38.719,11.203 C38.719,12.178 37.928,12.969 36.953,12.969 ZM36.953,4.187 C35.978,4.187 35.187,3.397 35.187,2.422 C35.187,1.447 35.978,0.656 36.953,0.656 C37.928,0.656 38.719,1.447 38.719,2.422 C38.719,3.397 37.928,4.187 36.953,4.187 ZM28.156,74.375 C27.190,74.375 26.406,73.591 26.406,72.625 C26.406,71.658 27.190,70.875 28.156,70.875 C29.123,70.875 29.906,71.658 29.906,72.625 C29.906,73.591 29.123,74.375 28.156,74.375 ZM28.156,65.625 C27.190,65.625 26.406,64.834 26.406,63.859 C26.406,62.884 27.190,62.094 28.156,62.094 C29.123,62.094 29.906,62.884 29.906,63.859 C29.906,64.834 29.123,65.625 28.156,65.625 ZM28.156,56.844 C27.190,56.844 26.406,56.053 26.406,55.078 C26.406,54.103 27.190,53.312 28.156,53.312 C29.123,53.312 29.906,54.103 29.906,55.078 C29.906,56.053 29.123,56.844 28.156,56.844 ZM28.156,48.062 C27.190,48.062 26.406,47.279 26.406,46.312 C26.406,45.346 27.190,44.562 28.156,44.562 C29.123,44.562 29.906,45.346 29.906,46.312 C29.906,47.279 29.123,48.062 28.156,48.062 ZM28.156,39.281 C27.190,39.281 26.406,38.498 26.406,37.531 C26.406,36.565 27.190,35.781 28.156,35.781 C29.123,35.781 29.906,36.565 29.906,37.531 C29.906,38.498 29.123,39.281 28.156,39.281 ZM28.156,30.500 C27.190,30.500 26.406,29.716 26.406,28.750 C26.406,27.784 27.190,27.000 28.156,27.000 C29.123,27.000 29.906,27.784 29.906,28.750 C29.906,29.716 29.123,30.500 28.156,30.500 ZM28.156,21.719 C27.190,21.719 26.406,20.935 26.406,19.969 C26.406,19.002 27.190,18.219 28.156,18.219 C29.123,18.219 29.906,19.002 29.906,19.969 C29.906,20.935 29.123,21.719 28.156,21.719 ZM28.156,12.969 C27.190,12.969 26.406,12.178 26.406,11.203 C26.406,10.228 27.190,9.437 28.156,9.437 C29.123,9.437 29.906,10.228 29.906,11.203 C29.906,12.178 29.123,12.969 28.156,12.969 ZM28.156,4.187 C27.190,4.187 26.406,3.397 26.406,2.422 C26.406,1.447 27.190,0.656 28.156,0.656 C29.123,0.656 29.906,1.447 29.906,2.422 C29.906,3.397 29.123,4.187 28.156,4.187 ZM19.359,74.375 C18.384,74.375 17.594,73.591 17.594,72.625 C17.594,71.658 18.384,70.875 19.359,70.875 C20.335,70.875 21.125,71.658 21.125,72.625 C21.125,73.591 20.335,74.375 19.359,74.375 ZM19.359,65.625 C18.384,65.625 17.594,64.834 17.594,63.859 C17.594,62.884 18.384,62.094 19.359,62.094 C20.335,62.094 21.125,62.884 21.125,63.859 C21.125,64.834 20.335,65.625 19.359,65.625 ZM19.359,56.844 C18.384,56.844 17.594,56.053 17.594,55.078 C17.594,54.103 18.384,53.312 19.359,53.312 C20.335,53.312 21.125,54.103 21.125,55.078 C21.125,56.053 20.335,56.844 19.359,56.844 ZM19.359,48.062 C18.384,48.062 17.594,47.279 17.594,46.312 C17.594,45.346 18.384,44.562 19.359,44.562 C20.335,44.562 21.125,45.346 21.125,46.312 C21.125,47.279 20.335,48.062 19.359,48.062 ZM19.359,39.281 C18.384,39.281 17.594,38.498 17.594,37.531 C17.594,36.565 18.384,35.781 19.359,35.781 C20.335,35.781 21.125,36.565 21.125,37.531 C21.125,38.498 20.335,39.281 19.359,39.281 ZM19.359,30.500 C18.384,30.500 17.594,29.716 17.594,28.750 C17.594,27.784 18.384,27.000 19.359,27.000 C20.335,27.000 21.125,27.784 21.125,28.750 C21.125,29.716 20.335,30.500 19.359,30.500 ZM19.359,21.719 C18.384,21.719 17.594,20.935 17.594,19.969 C17.594,19.002 18.384,18.219 19.359,18.219 C20.335,18.219 21.125,19.002 21.125,19.969 C21.125,20.935 20.335,21.719 19.359,21.719 ZM19.359,12.969 C18.384,12.969 17.594,12.178 17.594,11.203 C17.594,10.228 18.384,9.437 19.359,9.437 C20.335,9.437 21.125,10.228 21.125,11.203 C21.125,12.178 20.335,12.969 19.359,12.969 ZM19.359,4.187 C18.384,4.187 17.594,3.397 17.594,2.422 C17.594,1.447 18.384,0.656 19.359,0.656 C20.335,0.656 21.125,1.447 21.125,2.422 C21.125,3.397 20.335,4.187 19.359,4.187 ZM10.562,74.375 C9.596,74.375 8.812,73.591 8.812,72.625 C8.812,71.658 9.596,70.875 10.562,70.875 C11.529,70.875 12.312,71.658 12.312,72.625 C12.312,73.591 11.529,74.375 10.562,74.375 ZM10.562,65.625 C9.596,65.625 8.812,64.834 8.812,63.859 C8.812,62.884 9.596,62.094 10.562,62.094 C11.529,62.094 12.312,62.884 12.312,63.859 C12.312,64.834 11.529,65.625 10.562,65.625 ZM10.562,56.844 C9.596,56.844 8.812,56.053 8.812,55.078 C8.812,54.103 9.596,53.312 10.562,53.312 C11.529,53.312 12.312,54.103 12.312,55.078 C12.312,56.053 11.529,56.844 10.562,56.844 ZM10.562,48.062 C9.596,48.062 8.812,47.279 8.812,46.312 C8.812,45.346 9.596,44.562 10.562,44.562 C11.529,44.562 12.312,45.346 12.312,46.312 C12.312,47.279 11.529,48.062 10.562,48.062 ZM10.562,39.281 C9.596,39.281 8.812,38.498 8.812,37.531 C8.812,36.565 9.596,35.781 10.562,35.781 C11.529,35.781 12.312,36.565 12.312,37.531 C12.312,38.498 11.529,39.281 10.562,39.281 ZM10.562,30.500 C9.596,30.500 8.812,29.716 8.812,28.750 C8.812,27.784 9.596,27.000 10.562,27.000 C11.529,27.000 12.312,27.784 12.312,28.750 C12.312,29.716 11.529,30.500 10.562,30.500 ZM10.562,21.719 C9.596,21.719 8.812,20.935 8.812,19.969 C8.812,19.002 9.596,18.219 10.562,18.219 C11.529,18.219 12.312,19.002 12.312,19.969 C12.312,20.935 11.529,21.719 10.562,21.719 ZM10.562,12.969 C9.596,12.969 8.812,12.178 8.812,11.203 C8.812,10.228 9.596,9.437 10.562,9.437 C11.529,9.437 12.312,10.228 12.312,11.203 C12.312,12.178 11.529,12.969 10.562,12.969 ZM10.562,4.187 C9.596,4.187 8.812,3.397 8.812,2.422 C8.812,1.447 9.596,0.656 10.562,0.656 C11.529,0.656 12.312,1.447 12.312,2.422 C12.312,3.397 11.529,4.187 10.562,4.187 ZM1.766,74.375 C0.790,74.375 0.000,73.591 0.000,72.625 C0.000,71.658 0.790,70.875 1.766,70.875 C2.741,70.875 3.531,71.658 3.531,72.625 C3.531,73.591 2.741,74.375 1.766,74.375 ZM1.766,65.625 C0.790,65.625 0.000,64.834 0.000,63.859 C0.000,62.884 0.790,62.094 1.766,62.094 C2.741,62.094 3.531,62.884 3.531,63.859 C3.531,64.834 2.741,65.625 1.766,65.625 ZM1.766,56.844 C0.790,56.844 0.000,56.053 0.000,55.078 C0.000,54.103 0.790,53.312 1.766,53.312 C2.741,53.312 3.531,54.103 3.531,55.078 C3.531,56.053 2.741,56.844 1.766,56.844 ZM1.766,48.062 C0.790,48.062 0.000,47.279 0.000,46.312 C0.000,45.346 0.790,44.562 1.766,44.562 C2.741,44.562 3.531,45.346 3.531,46.312 C3.531,47.279 2.741,48.062 1.766,48.062 ZM1.766,39.281 C0.790,39.281 0.000,38.498 0.000,37.531 C0.000,36.565 0.790,35.781 1.766,35.781 C2.741,35.781 3.531,36.565 3.531,37.531 C3.531,38.498 2.741,39.281 1.766,39.281 ZM1.766,30.500 C0.790,30.500 0.000,29.716 0.000,28.750 C0.000,27.784 0.790,27.000 1.766,27.000 C2.741,27.000 3.531,27.784 3.531,28.750 C3.531,29.716 2.741,30.500 1.766,30.500 ZM1.766,21.719 C0.790,21.719 0.000,20.935 0.000,19.969 C0.000,19.002 0.790,18.219 1.766,18.219 C2.741,18.219 3.531,19.002 3.531,19.969 C3.531,20.935 2.741,21.719 1.766,21.719 ZM1.766,12.969 C0.790,12.969 0.000,12.178 0.000,11.203 C0.000,10.228 0.790,9.437 1.766,9.437 C2.741,9.437 3.531,10.228 3.531,11.203 C3.531,12.178 2.741,12.969 1.766,12.969 ZM1.766,4.187 C0.790,4.187 0.000,3.397 0.000,2.422 C0.000,1.447 0.790,0.656 1.766,0.656 C2.741,0.656 3.531,1.447 3.531,2.422 C3.531,3.397 2.741,4.187 1.766,4.187 ZM63.359,70.875 C64.335,70.875 65.125,71.658 65.125,72.625 C65.125,73.591 64.335,74.375 63.359,74.375 C62.384,74.375 61.594,73.591 61.594,72.625 C61.594,71.658 62.384,70.875 63.359,70.875 Z" class="many-green-sircle-cls-1"/>
</svg>
