<svg xmlns="http://www.w3.org/2000/svg" width="44" height="48" viewBox="0 0 44 48">
<defs>
    <style>
      .white-pointes-w {
        fill: #252525;
        fill-rule: evenodd;
        opacity: 0.2;
      }
    </style>
  </defs>
  <path class="white-pointes-w" d="M1.188,0A1.165,1.165,0,0,1,2.375,1.141,1.165,1.165,0,0,1,1.188,2.281,1.165,1.165,0,0,1,0,1.141,1.165,1.165,0,0,1,1.188,0ZM7.125,0A1.165,1.165,0,0,1,8.313,1.141a1.188,1.188,0,0,1-2.375,0A1.165,1.165,0,0,1,7.125,0Zm5.953,0a1.173,1.173,0,0,1,1.2,1.141,1.2,1.2,0,0,1-2.406,0A1.173,1.173,0,0,1,13.078,0Zm5.953,0a1.165,1.165,0,0,1,1.188,1.141,1.189,1.189,0,0,1-2.375,0A1.165,1.165,0,0,1,19.031,0Zm5.937,0a1.165,1.165,0,0,1,1.188,1.141,1.189,1.189,0,0,1-2.375,0A1.165,1.165,0,0,1,24.969,0Zm5.953,0a1.173,1.173,0,0,1,1.2,1.141,1.2,1.2,0,0,1-2.406,0A1.173,1.173,0,0,1,30.922,0Zm5.953,0a1.165,1.165,0,0,1,1.188,1.141,1.188,1.188,0,0,1-2.375,0A1.165,1.165,0,0,1,36.875,0Zm5.938,0A1.165,1.165,0,0,1,44,1.141a1.188,1.188,0,0,1-2.375,0A1.165,1.165,0,0,1,42.813,0ZM1.188,5.719A1.142,1.142,0,1,1,1.188,8,1.142,1.142,0,1,1,1.188,5.719Zm5.938,0A1.142,1.142,0,1,1,5.938,6.859,1.165,1.165,0,0,1,7.125,5.719Zm5.953,0a1.142,1.142,0,1,1-1.2,1.141A1.173,1.173,0,0,1,13.078,5.719Zm5.953,0a1.142,1.142,0,1,1-1.188,1.141A1.165,1.165,0,0,1,19.031,5.719Zm5.937,0a1.142,1.142,0,1,1-1.187,1.141A1.165,1.165,0,0,1,24.969,5.719Zm5.953,0a1.142,1.142,0,1,1-1.2,1.141A1.173,1.173,0,0,1,30.922,5.719Zm5.953,0a1.142,1.142,0,1,1-1.187,1.141A1.165,1.165,0,0,1,36.875,5.719Zm5.938,0a1.142,1.142,0,1,1-1.187,1.141A1.165,1.165,0,0,1,42.813,5.719ZM1.188,11.438a1.127,1.127,0,1,1,0,2.25A1.127,1.127,0,1,1,1.188,11.438Zm5.938,0a1.127,1.127,0,1,1-1.187,1.125A1.158,1.158,0,0,1,7.125,11.438Zm5.953,0a1.128,1.128,0,1,1-1.2,1.125A1.166,1.166,0,0,1,13.078,11.438Zm5.953,0a1.127,1.127,0,1,1-1.188,1.125A1.158,1.158,0,0,1,19.031,11.438Zm5.937,0a1.127,1.127,0,1,1-1.187,1.125A1.158,1.158,0,0,1,24.969,11.438Zm5.953,0a1.128,1.128,0,1,1-1.2,1.125A1.166,1.166,0,0,1,30.922,11.438Zm5.953,0a1.127,1.127,0,1,1-1.187,1.125A1.158,1.158,0,0,1,36.875,11.438Zm5.938,0a1.127,1.127,0,1,1-1.187,1.125A1.158,1.158,0,0,1,42.813,11.438ZM1.188,17.125a1.157,1.157,0,1,1,0,2.313A1.157,1.157,0,1,1,1.188,17.125Zm5.938,0a1.157,1.157,0,1,1-1.187,1.156A1.172,1.172,0,0,1,7.125,17.125Zm5.953,0a1.157,1.157,0,1,1-1.2,1.156A1.18,1.18,0,0,1,13.078,17.125Zm5.953,0a1.157,1.157,0,1,1-1.188,1.156A1.172,1.172,0,0,1,19.031,17.125Zm5.937,0a1.157,1.157,0,1,1-1.187,1.156A1.172,1.172,0,0,1,24.969,17.125Zm5.953,0a1.157,1.157,0,1,1-1.2,1.156A1.18,1.18,0,0,1,30.922,17.125Zm5.953,0a1.157,1.157,0,1,1-1.187,1.156A1.172,1.172,0,0,1,36.875,17.125Zm5.938,0a1.157,1.157,0,1,1-1.187,1.156A1.172,1.172,0,0,1,42.813,17.125ZM1.188,22.844a1.157,1.157,0,1,1,0,2.313A1.157,1.157,0,1,1,1.188,22.844Zm5.938,0A1.157,1.157,0,1,1,5.938,24,1.172,1.172,0,0,1,7.125,22.844Zm5.953,0A1.157,1.157,0,1,1,11.875,24,1.18,1.18,0,0,1,13.078,22.844Zm5.953,0A1.157,1.157,0,1,1,17.844,24,1.172,1.172,0,0,1,19.031,22.844Zm5.937,0A1.157,1.157,0,1,1,23.781,24,1.172,1.172,0,0,1,24.969,22.844Zm5.953,0A1.157,1.157,0,1,1,29.719,24,1.18,1.18,0,0,1,30.922,22.844Zm5.953,0A1.157,1.157,0,1,1,35.688,24,1.172,1.172,0,0,1,36.875,22.844Zm5.938,0A1.157,1.157,0,1,1,41.625,24,1.172,1.172,0,0,1,42.813,22.844ZM1.188,28.563a1.157,1.157,0,1,1,0,2.313A1.157,1.157,0,1,1,1.188,28.563Zm5.938,0a1.157,1.157,0,1,1-1.187,1.156A1.172,1.172,0,0,1,7.125,28.563Zm5.953,0a1.157,1.157,0,1,1-1.2,1.156A1.18,1.18,0,0,1,13.078,28.563Zm5.953,0a1.157,1.157,0,1,1-1.188,1.156A1.172,1.172,0,0,1,19.031,28.563Zm5.937,0a1.157,1.157,0,1,1-1.187,1.156A1.172,1.172,0,0,1,24.969,28.563Zm5.953,0a1.157,1.157,0,1,1-1.2,1.156A1.18,1.18,0,0,1,30.922,28.563Zm5.953,0a1.157,1.157,0,1,1-1.187,1.156A1.172,1.172,0,0,1,36.875,28.563Zm5.938,0a1.157,1.157,0,1,1-1.187,1.156A1.172,1.172,0,0,1,42.813,28.563ZM1.188,34.313a1.127,1.127,0,1,1,0,2.25A1.127,1.127,0,1,1,1.188,34.313Zm5.938,0a1.127,1.127,0,1,1-1.187,1.125A1.158,1.158,0,0,1,7.125,34.313Zm5.953,0a1.128,1.128,0,1,1-1.2,1.125A1.166,1.166,0,0,1,13.078,34.313Zm5.953,0a1.127,1.127,0,1,1-1.188,1.125A1.158,1.158,0,0,1,19.031,34.313Zm5.937,0a1.127,1.127,0,1,1-1.187,1.125A1.158,1.158,0,0,1,24.969,34.313Zm5.953,0a1.128,1.128,0,1,1-1.2,1.125A1.166,1.166,0,0,1,30.922,34.313Zm5.953,0a1.127,1.127,0,1,1-1.187,1.125A1.158,1.158,0,0,1,36.875,34.313Zm5.938,0a1.127,1.127,0,1,1-1.187,1.125A1.158,1.158,0,0,1,42.813,34.313ZM1.188,40a1.142,1.142,0,1,1,0,2.281A1.142,1.142,0,1,1,1.188,40Zm5.938,0a1.142,1.142,0,1,1-1.187,1.141A1.165,1.165,0,0,1,7.125,40Zm5.953,0a1.142,1.142,0,1,1-1.2,1.141A1.173,1.173,0,0,1,13.078,40Zm5.953,0a1.142,1.142,0,1,1-1.188,1.141A1.165,1.165,0,0,1,19.031,40Zm5.937,0a1.142,1.142,0,1,1-1.187,1.141A1.165,1.165,0,0,1,24.969,40Zm5.953,0a1.142,1.142,0,1,1-1.2,1.141A1.173,1.173,0,0,1,30.922,40Zm5.953,0a1.142,1.142,0,1,1-1.187,1.141A1.165,1.165,0,0,1,36.875,40Zm5.938,0a1.142,1.142,0,1,1-1.187,1.141A1.165,1.165,0,0,1,42.813,40ZM1.188,45.719a1.142,1.142,0,1,1,0,2.281A1.142,1.142,0,1,1,1.188,45.719Zm5.938,0a1.142,1.142,0,1,1-1.187,1.141A1.165,1.165,0,0,1,7.125,45.719Zm5.953,0a1.142,1.142,0,1,1-1.2,1.141A1.173,1.173,0,0,1,13.078,45.719Zm5.953,0a1.142,1.142,0,1,1-1.188,1.141A1.165,1.165,0,0,1,19.031,45.719Zm5.937,0a1.142,1.142,0,1,1-1.187,1.141A1.165,1.165,0,0,1,24.969,45.719Zm5.953,0a1.142,1.142,0,1,1-1.2,1.141A1.173,1.173,0,0,1,30.922,45.719Zm5.953,0a1.142,1.142,0,1,1-1.187,1.141A1.165,1.165,0,0,1,36.875,45.719Zm5.938,0a1.142,1.142,0,1,1-1.187,1.141A1.165,1.165,0,0,1,42.813,45.719Z"/>
</svg>
