<svg xmlns="http://www.w3.org/2000/svg" xmlns:xlink="http://www.w3.org/1999/xlink" preserveAspectRatio="xMidYMid" width="27" height="11" viewBox="0 0 27 11">
  <defs>
    <style>
      .tow-white-wavecls-1 {
        fill: #fff;
        fill-rule: evenodd;
      }
    </style>
  </defs>
  <path d="M7.531,4.454 L10.563,7.529 L13.780,4.658 L16.812,7.733 L19.389,5.434 L20.595,6.657 L16.738,10.098 L13.706,7.023 L10.489,9.893 L7.457,6.818 L4.240,9.689 L0.605,6.002 L1.885,4.861 L4.314,7.324 L7.531,4.454 Z" class="tow-white-wavecls-1"/>
  <path d="M13.935,0.446 L16.967,3.521 L20.184,0.651 L23.216,3.726 L25.793,1.426 L26.999,2.649 L23.142,6.091 L20.110,3.016 L16.893,5.886 L13.861,2.811 L10.644,5.681 L7.009,1.995 L8.289,0.853 L10.718,3.317 L13.935,0.446 Z" class="tow-white-wavecls-1"/>
</svg>
